<svg width="286" height="281" viewBox="0 0 286 281" fill="none" xmlns="http://www.w3.org/2000/svg">
<g clip-path="url(#clip0_20923_27397)">
<rect y="0.5" width="286" height="280" rx="12" fill="#EFF0F5"/>
<path d="M51.2031 220.281V221.469H46.9688V224.891H52.6719V226.109H39.8594V224.891H45.5V221.469H41.4531V214.906H51.0781V216.109H42.9375V220.281H51.2031ZM58.5938 216.859C58.5938 218.5 59.8594 220.062 62 220.672L61.2969 221.859C59.6875 221.375 58.5 220.352 57.875 219.047C57.2578 220.484 56.0391 221.586 54.4062 222.109L53.6719 220.953C55.8125 220.312 57.125 218.656 57.125 216.859V216.656H54.0781V215.469H57.125V213.781H58.6094V215.469H61.6406V216.656H58.5938V216.859ZM64.6875 213.828V217.469H66.7188V218.734H64.6875V222.391H63.2031V213.828H64.6875ZM64.6875 223.062V227.844H63.2031V224.266H55.4375V223.062H64.6875ZM78.5156 213.844V218.344H80.5469V219.578H78.5156V224.312H77.0312V213.844H78.5156ZM75.875 215.469V216.672H67.5312V215.469H70.9688V213.828H72.4531V215.469H75.875ZM71.7031 217.344C73.7188 217.344 75.0938 218.391 75.0938 219.984C75.0938 221.578 73.7188 222.609 71.7031 222.609C69.6719 222.609 68.2969 221.578 68.2969 219.984C68.2969 218.391 69.6719 217.344 71.7031 217.344ZM71.7031 218.484C70.5156 218.484 69.7188 219.062 69.7344 219.984C69.7188 220.891 70.5156 221.453 71.7031 221.453C72.8906 221.453 73.6875 220.891 73.7031 219.984C73.6875 219.062 72.8906 218.484 71.7031 218.484ZM79.1094 226.328V227.531H69.6406V223.484H71.125V226.328H79.1094ZM96.5781 215.172V216.547C96.5781 218.281 96.5781 220.219 96.0469 223.078L94.5469 222.922C95.0938 220.219 95.0938 218.234 95.0938 216.547V216.375H86.5938V215.172H96.5781ZM98.0156 224.703V225.938H85.25V224.703H90.1094V219.766H91.5781V224.703H98.0156ZM111.016 213.844V222.078H109.609V218.484H107.922V222H106.516V214.094H107.922V217.25H109.609V213.844H111.016ZM111.016 222.688V227.828H109.547V223.891H101.453V222.688H111.016ZM105.203 214.844C105.203 218.25 103.375 220.719 99.7969 222.203L99.0781 221.094C101.906 219.984 103.438 218.242 103.703 216.047H99.6875V214.844H105.203ZM125.688 219.562V220.75H112.906V219.562H125.688ZM124.172 217.359V218.547H114.578V214.234H124.031V215.438H116.062V217.359H124.172ZM124.062 221.859V225.25H115.906V226.5H124.453V227.672H114.453V224.156H122.594V223H114.438V221.859H124.062ZM138.328 213.828V227.859H136.844V213.828H138.328ZM130.844 214.875C132.922 214.875 134.453 216.781 134.453 219.781C134.453 222.797 132.922 224.703 130.844 224.703C128.734 224.703 127.219 222.797 127.219 219.781C127.219 216.781 128.734 214.875 130.844 214.875ZM130.844 216.203C129.547 216.203 128.656 217.578 128.656 219.781C128.656 222 129.547 223.375 130.844 223.375C132.125 223.375 133.016 222 133.016 219.781C133.016 217.578 132.125 216.203 130.844 216.203ZM155.766 215.125V216.438C155.75 218.141 155.766 220.078 155.172 222.984L153.719 222.828C153.977 221.633 154.125 220.578 154.203 219.625L145.781 220.125L145.562 218.844L154.281 218.5C154.312 217.75 154.312 217.07 154.312 216.438V216.344H145.984V215.125H155.766ZM157.234 224.781V226.016H144.469V224.781H149.328V221.234H150.797V224.781H157.234ZM169.641 220.469V221.688H159.891V215.078H169.516V216.297H161.359V220.469H169.641ZM171.109 224.75V225.984H158.297V224.75H171.109ZM184.922 220.25V221.391H172.109V220.25H184.922ZM183.344 222.375V225.453H175.125V226.609H183.781V227.656H173.641V224.469H181.875V223.438H173.625V222.375H183.344ZM183.312 214.188V217.219H175.219V218.281H183.547V219.328H173.75V216.234H181.828V215.234H173.719V214.188H183.312ZM201.469 213.828V221.344H199.984V213.828H201.469ZM193.766 222.016V223.594H200V222.016H201.469V227.656H192.312V222.016H193.766ZM193.766 226.438H200V224.766H193.766V226.438ZM193.875 214.469C196.016 214.469 197.594 215.797 197.594 217.719C197.594 219.641 196.016 220.969 193.875 220.953C191.734 220.969 190.141 219.641 190.141 217.719C190.141 215.797 191.734 214.469 193.875 214.469ZM193.875 215.719C192.547 215.703 191.594 216.531 191.594 217.719C191.594 218.922 192.547 219.734 193.875 219.734C195.188 219.734 196.141 218.922 196.141 217.719C196.141 216.531 195.188 215.703 193.875 215.719ZM210.359 214.672V218.75H205.734V220.688C208.172 220.695 209.5 220.641 211.078 220.344L211.219 221.547C209.516 221.844 208.078 221.891 205.281 221.891H204.266V217.625H208.875V215.859H204.25V214.672H210.359ZM215.359 213.844V222.453H213.875V219.984H211.25V218.797H213.875V217.062H211.25V215.875H213.875V213.844H215.359ZM215.359 223.156V227.844H213.875V224.359H205.859V223.156H215.359ZM224.438 216.141V217.344H217.484V216.141H220.234V214.234H221.703V216.141H224.438ZM220.969 218.188C222.75 218.188 224 219.516 224.016 221.406C224 223.312 222.75 224.656 220.969 224.656C219.219 224.656 217.922 223.312 217.938 221.406C217.922 219.516 219.219 218.188 220.969 218.188ZM220.969 219.422C219.953 219.422 219.25 220.25 219.25 221.406C219.25 222.594 219.953 223.391 220.969 223.391C221.969 223.391 222.703 222.594 222.703 221.406C222.703 220.25 221.969 219.422 220.969 219.422ZM229.5 213.828V227.828H228.094V220.875H226.484V227.172H225.078V214.141H226.484V219.656H228.094V213.828H229.5ZM236.391 217.391C236.391 219.953 237.828 222.5 239.969 223.469L239.062 224.656C237.469 223.859 236.273 222.273 235.656 220.359C235.039 222.375 233.812 224.078 232.203 224.922L231.266 223.719C233.438 222.688 234.891 219.984 234.891 217.391V215H236.391V217.391ZM243.016 213.828V227.859H241.547V219.688H238.422V218.484H241.547V213.828H243.016ZM46.0469 237.828V251.828H44.625V244.531H42.8906V251.141H41.4844V238.094H42.8906V243.312H44.625V237.828H46.0469ZM39.9062 239.406V248.141H34.4688V239.406H39.9062ZM35.875 240.578V246.953H38.5156V240.578H35.875ZM52.7188 240.406C52.7188 242.188 53.9531 243.812 56.0781 244.484L55.375 245.641C53.7812 245.133 52.6172 244.078 52 242.75C51.3906 244.281 50.1641 245.492 48.4844 246.078L47.7188 244.891C49.9062 244.172 51.2188 242.359 51.2344 240.422V240.031H48.1562V238.828H55.7344V240.031H52.7188V240.406ZM58.8281 237.828V241.297H60.8594V242.516H58.8281V246.234H57.3438V237.828H58.8281ZM54.3125 246.578C57.2031 246.578 58.9531 247.531 58.9531 249.172C58.9531 250.828 57.2031 251.812 54.3125 251.797C51.3906 251.812 49.6094 250.828 49.6094 249.172C49.6094 247.531 51.3906 246.578 54.3125 246.578ZM54.3125 247.75C52.2812 247.75 51.0781 248.266 51.0938 249.172C51.0781 250.109 52.2812 250.625 54.3125 250.625C56.3281 250.625 57.5 250.109 57.5 249.172C57.5 248.266 56.3281 247.75 54.3125 247.75ZM76.5625 237.844V241.156H78.5938V242.359H76.5625V245.719H75.0781V237.844H76.5625ZM76.8906 246.422V247.609H75.0312V250.406H77.0781V251.609H67.3906V250.406H69.4062V247.609H67.5V246.422H76.8906ZM69.5 238.609C71.6406 238.609 73.2188 239.969 73.2344 241.922C73.2188 243.859 71.6406 245.219 69.5 245.219C67.3594 245.219 65.7656 243.859 65.7812 241.922C65.7656 239.969 67.3594 238.609 69.5 238.609ZM69.5 239.859C68.1875 239.844 67.2188 240.672 67.2344 241.922C67.2188 243.156 68.1875 243.969 69.5 243.984C70.8125 243.969 71.7812 243.156 71.7812 241.922C71.7812 240.672 70.8125 239.844 69.5 239.859ZM70.8438 250.406H73.5781V247.609H70.8438V250.406ZM91.4375 237.828V251.828H90.0156V237.828H91.4375ZM88.5938 238.094V251.141H87.1719V244.391H85.5938C85.4688 247.125 84.2969 248.828 82.5625 248.812C80.7344 248.828 79.5469 246.906 79.5469 243.875C79.5469 240.844 80.7344 238.938 82.5625 238.953C84.2656 238.938 85.4219 240.555 85.5938 243.188H87.1719V238.094H88.5938ZM82.5625 240.344C81.5469 240.344 80.9219 241.641 80.9219 243.875C80.9219 246.109 81.5469 247.406 82.5625 247.406C83.5938 247.406 84.2344 246.109 84.2344 243.875C84.2344 241.641 83.5938 240.344 82.5625 240.344ZM109.891 245.203V246.422H97.125V245.203H102.766V243.844C100.141 243.695 98.5 242.68 98.5 241.031C98.5 239.297 100.453 238.234 103.5 238.219C106.531 238.234 108.5 239.297 108.5 241.031C108.5 242.68 106.844 243.695 104.234 243.844V245.203H109.891ZM108.453 250.328V251.531H98.7344V247.469H100.234V250.328H108.453ZM103.5 239.422C101.359 239.422 100.016 240.031 100.031 241.031C100.016 242.094 101.359 242.672 103.5 242.672C105.641 242.672 106.969 242.094 106.969 241.031C106.969 240.031 105.641 239.422 103.5 239.422ZM126.531 237.844V247.25H125.047V242.922H122.188V241.703H125.047V237.844H126.531ZM122.094 238.922C122.094 242.578 119.828 245.141 115.719 246.438L115.062 245.266C118.352 244.273 120.227 242.461 120.516 240.125H115.781V238.922H122.094ZM122.656 246.672C122.656 248.562 124.641 250.125 127.266 250.578L126.656 251.75C124.531 251.375 122.758 250.305 121.922 248.766C121.062 250.312 119.266 251.383 117.125 251.781L116.547 250.594C119.188 250.172 121.172 248.578 121.188 246.672V246.094H122.656V246.672ZM135.062 238.062C138.219 238.062 140.062 238.906 140.062 240.469C140.062 242.031 138.219 242.891 135.062 242.891C131.906 242.891 130.062 242.031 130.062 240.469C130.062 238.906 131.906 238.062 135.062 238.062ZM135.062 239.156C132.828 239.156 131.594 239.641 131.609 240.469C131.594 241.328 132.828 241.781 135.062 241.781C137.297 241.781 138.531 241.328 138.531 240.469C138.531 239.641 137.297 239.156 135.062 239.156ZM141.453 243.75V244.938H128.688V243.75H141.453ZM139.844 246.016V249.297H131.688V250.547H140.234V251.688H130.234V248.219H138.375V247.125H130.219V246.016H139.844ZM158.031 237.844V248.016H156.547V237.844H158.031ZM158.453 250.328V251.531H148.875V246.984H150.375V250.328H158.453ZM150.438 238.781C152.547 238.781 154.156 240.219 154.156 242.25C154.156 244.312 152.547 245.734 150.438 245.734C148.328 245.734 146.703 244.312 146.703 242.25C146.703 240.219 148.328 238.781 150.438 238.781ZM150.438 240.078C149.125 240.078 148.156 240.969 148.156 242.25C148.156 243.562 149.125 244.438 150.438 244.438C151.719 244.438 152.703 243.562 152.703 242.25C152.703 240.969 151.719 240.078 150.438 240.078ZM173.016 244.422V245.625H160.25V244.422H173.016ZM166.625 246.703C169.641 246.703 171.453 247.641 171.453 249.266C171.453 250.891 169.641 251.812 166.625 251.797C163.594 251.812 161.766 250.891 161.766 249.266C161.766 247.641 163.594 246.703 166.625 246.703ZM166.625 247.859C164.484 247.875 163.266 248.359 163.266 249.266C163.266 250.156 164.484 250.625 166.625 250.625C168.734 250.625 169.969 250.156 169.969 249.266C169.969 248.359 168.734 247.875 166.625 247.859ZM171.875 238.516V239.734H167.625C167.789 241.094 169.773 242.25 172.359 242.516L171.828 243.688C169.406 243.406 167.398 242.383 166.641 240.906C165.859 242.383 163.859 243.406 161.438 243.688L160.922 242.516C163.461 242.25 165.461 241.102 165.641 239.734H161.422V238.516H171.875ZM185.078 237.781V241.062H187.125V242.281H185.078V245.484H183.594V237.781H185.078ZM185.078 246.141V249.391H177.516V250.562H185.562V251.688H176.062V248.344H183.609V247.25H176.031V246.141H185.078ZM182.438 239.016V240.188H174.094V239.016H177.531V237.703H179.016V239.016H182.438ZM178.266 240.719C180.312 240.719 181.656 241.594 181.656 243.016C181.656 244.438 180.312 245.297 178.266 245.297C176.203 245.297 174.859 244.438 174.859 243.016C174.859 241.594 176.203 240.719 178.266 240.719ZM178.266 241.781C177.062 241.781 176.281 242.266 176.297 243.016C176.281 243.766 177.062 244.219 178.266 244.219C179.469 244.219 180.25 243.766 180.266 243.016C180.25 242.266 179.469 241.781 178.266 241.781ZM198.984 239.062C198.969 240.922 201.25 242.672 204 243.031L203.422 244.25C201.133 243.883 199.117 242.695 198.219 241.047C197.297 242.703 195.289 243.883 193.016 244.25L192.422 243.031C195.172 242.672 197.422 240.938 197.438 239.062V238.297H198.984V239.062ZM204.578 245.625V246.844H198.891V251.828H197.438V246.844H191.812V245.625H204.578ZM214.406 247.078C214.406 248.281 215 249.555 216.266 250.312C217.555 249.492 218.188 248.148 218.188 247.078V246.406H219.641V247.078C219.641 248.531 220.594 249.938 222.422 250.531L221.688 251.625C220.305 251.148 219.367 250.219 218.875 249.062C218.43 250.195 217.594 251.219 216.312 251.75C214.969 251.242 214.117 250.25 213.688 249.109C213.18 250.211 212.258 251.141 210.938 251.625L210.188 250.531C211.984 249.891 212.953 248.438 212.969 247.078V246.406H214.406V247.078ZM221.156 237.844V245.812H219.672V237.844H221.156ZM213.562 238.609C215.703 238.609 217.281 239.969 217.281 241.922C217.281 243.859 215.703 245.203 213.562 245.203C211.422 245.203 209.828 243.859 209.828 241.922C209.828 239.969 211.422 238.609 213.562 238.609ZM213.562 239.875C212.234 239.859 211.281 240.688 211.281 241.922C211.281 243.141 212.234 243.969 213.562 243.969C214.875 243.969 215.828 243.141 215.828 241.922C215.828 240.688 214.875 239.859 213.562 239.875ZM227.172 238.875C229.07 238.875 230.461 240.484 230.688 243.078H233.578V237.828H235.047V251.859H233.578V244.281H230.703C230.539 247.008 229.117 248.703 227.172 248.703C225.078 248.703 223.609 246.797 223.625 243.781C223.609 240.781 225.078 238.875 227.172 238.875ZM227.172 240.203C225.906 240.203 225.031 241.578 225.031 243.781C225.031 246 225.906 247.375 227.172 247.375C228.438 247.375 229.312 246 229.312 243.781C229.312 241.578 228.438 240.203 227.172 240.203ZM250.016 248.844V250.078H237.203V248.844H240.266V245.188C239.117 244.555 238.422 243.547 238.422 242.297C238.422 240.094 240.578 238.641 243.578 238.641C246.594 238.641 248.75 240.094 248.75 242.297C248.75 243.531 248.078 244.523 246.953 245.156V248.844H250.016ZM243.578 239.828C241.375 239.828 239.859 240.781 239.859 242.297C239.859 243.797 241.375 244.781 243.578 244.781C245.766 244.781 247.312 243.797 247.312 242.297C247.312 240.781 245.766 239.828 243.578 239.828ZM241.734 248.844H245.453V245.719C244.883 245.867 244.25 245.938 243.578 245.938C242.922 245.938 242.297 245.867 241.734 245.734V248.844Z" fill="#3E4758"/>
<path fill-rule="evenodd" clip-rule="evenodd" d="M20.8 16.5C18.149 16.5 16 18.649 16 21.3V35.7C16 38.351 18.149 40.5 20.8 40.5H35.2C37.851 40.5 40 38.351 40 35.7V21.3C40 18.649 37.851 16.5 35.2 16.5H20.8ZM23.0009 33.1381V35.4755H33.1677V32.853H27.5047V32.758L29.234 31.1617C32.2081 28.5678 32.9872 27.247 32.9967 25.6698C32.9872 23.2088 30.9633 21.527 27.8658 21.527C24.8348 21.527 22.8014 23.2753 22.8109 26.0498H25.8894C25.8799 24.8051 26.6686 24.064 27.8468 24.0545C29.006 24.064 29.8516 24.7671 29.8611 25.9168C29.8516 26.962 29.1865 27.6651 28.0178 28.7293L23.0009 33.1381Z" fill="#3E4758"/>
<path fill-rule="evenodd" clip-rule="evenodd" d="M256.887 142.429L297.5 169V188.5H261.5L236.281 172.545C236.281 172.545 220.519 160.931 230.076 146.192C239.633 131.453 256.887 142.429 256.887 142.429Z" fill="white"/>
<path d="M298.5 169.5L256.887 142.429C256.887 142.429 239.633 131.453 230.076 146.192C220.519 160.931 236.281 172.545 236.281 172.545L261 188.5" stroke="#3E4758" stroke-width="2"/>
<g clip-path="url(#clip1_20923_27397)">
<path d="M204.998 32.5H85.0018C78.3734 32.5 73 37.1722 73 42.9356V166.064C73 171.828 78.3734 176.5 85.0018 176.5H204.998C211.627 176.5 217 171.828 217 166.064V42.9356C217 37.1722 211.627 32.5 204.998 32.5Z" fill="#BDC7DC"/>
<path d="M203.175 40.6599H149.031V168.532H203.175C206.356 168.532 208.935 165.953 208.935 162.772V46.4199C208.935 43.2388 206.356 40.6599 203.175 40.6599Z" fill="#D9E3F8"/>
<path d="M149.078 111.888V122.74L208.838 71.6718V60.8198L149.078 111.888Z" fill="#F3F6FF"/>
<path opacity="0.2" d="M149.078 132.288V143.14L208.838 92.0719V81.22L149.078 132.288Z" fill="#F3F6FF"/>
<path d="M86.8247 40.564H140.969V168.436H86.8247C83.6436 168.436 81.0647 165.857 81.0647 162.676V46.324C81.0647 43.1428 83.6436 40.564 86.8247 40.564Z" fill="#D9E3F8"/>
<path d="M81.1602 111.888V122.74L140.92 71.672V60.8201L81.1602 111.888Z" fill="#F3F6FF"/>
<path opacity="0.2" d="M81.1602 132.288V143.14L140.92 92.0719V81.22L81.1602 132.288Z" fill="#F3F6FF"/>
<path d="M91.0976 71.6592H90.2579L90.2568 72.4989L91.0976 72.5C90.2568 72.4989 90.2568 72.4989 90.2568 72.499L90.2568 72.4995L90.2568 72.5015L90.2568 72.5094L90.2567 72.5409L90.2565 72.6647L90.2551 73.1401C90.2537 73.5522 90.2513 74.1469 90.247 74.8766C90.2385 76.3362 90.2227 78.3356 90.1934 80.4951C90.1349 84.8271 90.0228 89.7637 89.8114 92.3002C89.5398 95.5585 88.8861 99.0499 88.2963 101.739C88.002 103.08 87.7248 104.216 87.5214 105.016C87.4198 105.416 87.3366 105.732 87.279 105.947C87.2502 106.055 87.2278 106.137 87.2127 106.192L87.1957 106.254L87.1915 106.269L87.1905 106.273L87.1902 106.274L87.1902 106.274L87.1902 106.274L86.8921 107.341H88H130.389H130.675L130.901 107.167L130.389 106.5C130.901 107.167 130.902 107.167 130.902 107.166L130.904 107.165L130.907 107.163L130.914 107.157L130.932 107.142C130.946 107.131 130.962 107.117 130.981 107.101C131.02 107.067 131.069 107.021 131.128 106.962C131.245 106.844 131.399 106.673 131.578 106.438C131.934 105.967 132.383 105.24 132.823 104.17C133.702 102.031 134.542 98.523 134.542 92.922C134.542 89.4583 134.431 84.3429 134.321 80.1005C134.266 77.9777 134.21 76.071 134.169 74.6949C134.148 74.0068 134.131 73.4514 134.119 73.0679L134.105 72.6265L134.101 72.5118L134.1 72.4825L134.1 72.4751L134.1 72.4732L134.1 72.4727C134.1 72.4726 134.1 72.4726 133.26 72.5L134.1 72.4726L134.073 71.6592H133.26H91.0976Z" fill="white" stroke="#3E4758" stroke-width="1.68157"/>
<path d="M107.136 82.5661V82.9922H106.023V83.8107H107.52V84.2494H104.006V83.8107H105.487V82.9922H104.42V81.1191H107.107V81.5494H104.96V82.5661H107.136ZM109.153 81.676C109.153 82.0726 109.431 82.486 110.056 82.6505L109.807 83.0766C109.372 82.9585 109.066 82.7075 108.896 82.389C108.725 82.7391 108.417 83.0112 107.968 83.1399L107.71 82.718C108.335 82.5493 108.617 82.1063 108.617 81.676H107.845V81.2499H108.617V80.8365H109.161V81.2499H109.929V81.676H109.153ZM110.786 80.8491V81.7941H111.305V82.2455H110.786V83.2032H110.246V80.8491H110.786ZM110.786 83.3593V84.6924H110.246V83.7896H108.2V83.3593H110.786ZM114.625 81.1697V81.5115C114.625 81.9755 114.629 82.5155 114.452 83.3466L113.924 83.2918C113.988 83.0007 114.026 82.7412 114.051 82.5071L111.823 82.6336L111.747 82.1738L114.085 82.0979C114.093 81.9165 114.095 81.7519 114.097 81.6001H111.874V81.1697H114.625ZM114.975 83.8065V84.2452H111.473V83.8065H112.726V82.8783H113.262V83.8065H114.975ZM118.337 82.6252V83.0555H115.62V81.1697H118.308V81.6043H116.152V82.6252H118.337ZM118.721 83.7769V84.2199H115.207V83.7769H118.721Z" fill="#3E4758"/>
<path d="M100.818 87.8212V94.988H99.5781V87.8212H100.818ZM97.6876 90.0216C97.6876 90.9513 98.106 92.1213 99.3767 92.6404L98.7181 93.5856C97.9239 93.2757 97.3893 92.6559 97.0755 91.9121C96.7618 92.7024 96.2194 93.3648 95.402 93.6863L94.7512 92.7411C96.0063 92.1987 96.4402 90.9978 96.4402 90.0216V89.9286H95.0223V88.9446H96.4325V88.0071H97.6721V88.9446H99.059V89.9286H97.6876V90.0216ZM108.186 93.1827V94.1822H101.639V93.1827H108.186ZM107.605 88.3713V89.3475H105.567C105.649 90.1882 106.276 90.9939 107.992 91.238L107.512 92.222C106.206 92.005 105.362 91.4549 104.916 90.7034C104.471 91.4821 103.642 92.0632 102.344 92.2762L101.864 91.2767C103.526 91.0327 104.146 90.1959 104.235 89.3475H102.189V88.3713H107.605ZM115.051 91.4085V92.3769H108.496V91.4085H111.146V90.8584H109.271V88.1621H114.284V89.1461H110.503V89.8744H114.353V90.8584H112.393V91.4085H115.051ZM114.377 93.8955V94.8873H109.248V92.7643H110.472V93.8955H114.377ZM121.133 87.8212V90.5407H121.993V91.5634H121.133V94.988H119.885V87.8212H121.133ZM117.468 88.534C117.46 90.6647 117.375 92.1058 116.097 93.5391L115.136 92.8496C116.042 91.8268 116.24 90.9397 116.29 89.5412H115.508V88.534H117.468ZM119.467 88.534C119.459 90.7964 119.335 92.4389 118.111 93.9885L117.143 93.2989C118.018 92.1445 118.239 91.1334 118.297 89.5412H117.716V88.534H119.467ZM126.107 88.6967C126.099 89.6419 126.727 90.7809 128.586 91.083L128.052 92.1135C126.738 91.8733 125.89 91.2225 125.441 90.3857C124.976 91.2148 124.124 91.8656 122.83 92.1135L122.303 91.083C124.124 90.7731 124.767 89.6187 124.767 88.6967V88.2086H126.107V88.6967ZM128.757 93.1595V94.1745H122.21V93.1595H128.757Z" fill="#3E4758"/>
</g>
<path d="M64.4971 119.257L59.0971 132.757C58.5716 134.071 59.5391 135.5 60.9541 135.5H68.0321C68.9057 135.5 69.6782 134.933 69.9401 134.1L74.183 120.6C74.5879 119.311 73.6256 118 72.275 118H66.3541C65.5363 118 64.8008 118.498 64.4971 119.257Z" fill="#3E4758"/>
<path d="M20.3186 105.426C20.3186 97.1824 13.7283 90.4999 5.59875 90.4999C-2.5308 90.4999 -9.12109 97.1824 -9.12109 105.426C-9.12109 113.669 -2.5308 120.351 5.59875 120.351C13.7283 120.351 20.3186 113.669 20.3186 105.426Z" fill="white"/>
<path fill-rule="evenodd" clip-rule="evenodd" d="M5.59875 90.5C13.7283 90.5 20.3186 97.1825 20.3186 105.426C20.3186 113.669 13.7283 120.351 5.59875 120.351C-2.53079 120.351 -9.12109 113.669 -9.12109 105.426C-9.12109 104.987 -9.10247 104.554 -9.06597 104.125C-8.47664 110.438 -3.23438 115.376 3.14544 115.376C9.92006 115.376 15.412 109.807 15.412 102.938C15.412 96.469 10.5415 91.1534 4.31587 90.5559C4.73864 90.5189 5.16652 90.5 5.59875 90.5Z" fill="#D9E3F8"/>
<path d="M20.3186 105.426C20.3186 97.1824 13.7283 90.4999 5.59875 90.4999C-2.5308 90.4999 -9.12109 97.1824 -9.12109 105.426C-9.12109 113.669 -2.5308 120.351 5.59875 120.351C13.7283 120.351 20.3186 113.669 20.3186 105.426Z" stroke="#3E4758" stroke-width="2" stroke-miterlimit="10"/>
<path d="M-6.76172 132.79C-6.76172 125.92 -1.193 120.352 5.67638 120.352C12.5457 120.352 18.1145 125.92 18.1145 132.79V175.079H-6.76172V132.79Z" fill="white"/>
<path d="M18.1145 175.079V132.79C18.1145 125.92 12.5458 120.352 5.67638 120.352V120.352C-1.193 120.352 -6.76172 125.92 -6.76172 132.79V175.079" stroke="#3E4758" stroke-width="2"/>
<path d="M13.138 167.616V135.277H3.1875V167.616C3.1875 170.364 5.41499 172.591 8.16274 172.591C10.9105 172.591 13.138 170.364 13.138 167.616Z" fill="#D9E3F8"/>
<path d="M10.6536 165.129V132.79H0.703125V165.129C0.703125 167.876 2.93062 170.104 5.67836 170.104C8.42611 170.104 10.6536 167.876 10.6536 165.129Z" fill="white"/>
<path d="M0.703125 132.79V165.129C0.703125 167.876 2.93062 170.104 5.67836 170.104V170.104C8.42611 170.104 10.6536 167.876 10.6536 165.129V132.79" stroke="#3E4758" stroke-width="2" stroke-linecap="round"/>
<path d="M57.4553 105.691C57.4553 97.4477 50.865 90.7653 42.7355 90.7653C34.6059 90.7653 28.0156 97.4477 28.0156 105.691C28.0156 113.934 34.6059 120.617 42.7355 120.617C50.865 120.617 57.4553 113.934 57.4553 105.691Z" fill="white" stroke="#3E4758" stroke-width="2" stroke-miterlimit="10"/>
<path d="M57.4553 105.691C57.4553 97.4475 50.865 90.765 42.7355 90.765C34.6059 90.765 28.0156 97.4475 28.0156 105.691C28.0156 113.934 34.6059 120.616 42.7355 120.616C50.865 120.616 57.4553 113.934 57.4553 105.691Z" fill="white"/>
<path fill-rule="evenodd" clip-rule="evenodd" d="M42.7355 90.7651C50.865 90.7651 57.4553 97.4476 57.4553 105.691C57.4553 113.934 50.865 120.617 42.7355 120.617C34.6059 120.617 28.0156 113.934 28.0156 105.691C28.0156 105.253 28.0343 104.819 28.0707 104.39C28.6601 110.703 33.9023 115.641 40.2822 115.641C47.0568 115.641 52.5487 110.073 52.5487 103.203C52.5487 96.7342 47.6782 91.4186 41.4526 90.821C41.8754 90.784 42.3032 90.7651 42.7355 90.7651Z" fill="#D9E3F8"/>
<path d="M57.4553 105.691C57.4553 97.4475 50.865 90.765 42.7355 90.765C34.6059 90.765 28.0156 97.4475 28.0156 105.691C28.0156 113.934 34.6059 120.616 42.7355 120.616C50.865 120.616 57.4553 113.934 57.4553 105.691Z" stroke="#3E4758" stroke-width="2" stroke-miterlimit="10"/>
<path d="M30.8945 133.055C30.8945 126.185 36.4633 120.617 43.3326 120.617C50.202 120.617 55.7707 126.185 55.7707 133.055V175.344H30.8945V133.055Z" fill="white"/>
<path d="M55.7707 175.344V133.055C55.7707 126.185 50.202 120.617 43.3326 120.617V120.617C36.4633 120.617 30.8945 126.185 30.8945 133.055V175.344" stroke="#3E4758" stroke-width="2"/>
<path d="M35.4214 145.508L35.8695 135.542L54.5267 143.5V151L50.9179 153.703C44.3644 158.612 35.0536 153.688 35.4214 145.508Z" fill="#D9E3F8"/>
<path d="M46.4355 130.155L48.814 137.29L60.489 130.619C60.489 130.619 66.2178 127.394 68.7178 131.894C71.7155 137.29 65.9465 140.169 65.9465 140.169L47.917 150.472C45.1775 152.038 41.6906 150.705 40.6929 147.712L36 133.633L46.4355 130.155Z" fill="white"/>
<path d="M36 133.633L40.6929 147.712C41.6906 150.705 45.1775 152.038 47.917 150.472L65.9465 140.169C65.9465 140.169 71.7155 137.29 68.7178 131.894C66.2178 127.394 60.489 130.619 60.489 130.619L48.814 137.29L46.4355 130.155" stroke="#3E4758" stroke-width="2"/>
<mask id="path-34-outside-1_20923_27397" maskUnits="userSpaceOnUse" x="177" y="60.5" width="79" height="128" fill="black">
<rect fill="white" x="177" y="60.5" width="79" height="128"/>
<path d="M179 72.5C179 66.9772 183.477 62.5 189 62.5H244C249.523 62.5 254 66.9772 254 72.5V188.5H179V72.5Z"/>
</mask>
<path d="M179 72.5C179 66.9772 183.477 62.5 189 62.5H244C249.523 62.5 254 66.9772 254 72.5V188.5H179V72.5Z" fill="white"/>
<path d="M177 72.5C177 65.8726 182.373 60.5 189 60.5H244C250.627 60.5 256 65.8726 256 72.5H252C252 68.0817 248.418 64.5 244 64.5H189C184.582 64.5 181 68.0817 181 72.5H177ZM254 188.5H179H254ZM177 188.5V72.5C177 65.8726 182.373 60.5 189 60.5V64.5C184.582 64.5 181 68.0817 181 72.5V188.5H177ZM244 60.5C250.627 60.5 256 65.8726 256 72.5V188.5H252V72.5C252 68.0817 248.418 64.5 244 64.5V60.5Z" fill="#3E4758" mask="url(#path-34-outside-1_20923_27397)"/>
<path d="M204.342 86.4541V91.7861H203.627V89.0967H203.146V91.54H202.438V86.5303H203.146V88.4873H203.627V86.4541H204.342ZM201.992 87.0049V90.4443H199.871V87.0049H201.992ZM200.568 87.5967V89.8584H201.295V87.5967H200.568ZM207.934 86.8115V87.4092H206.873C206.879 88.0303 207.251 88.6309 208.104 88.8799L207.746 89.4658C207.157 89.2871 206.75 88.9297 206.516 88.4697C206.278 89.0088 205.845 89.4365 205.203 89.6475L204.822 89.0557C205.707 88.7773 206.105 88.0859 206.117 87.4092H205.027V86.8115H207.934ZM209.135 86.4541V87.6904H209.855V88.2998H209.135V89.6182H208.385V86.4541H209.135ZM207.389 89.7236C208.496 89.7178 209.188 90.0986 209.188 90.749C209.188 91.3994 208.496 91.7861 207.389 91.7861C206.258 91.7861 205.561 91.3994 205.561 90.749C205.561 90.0986 206.258 89.7178 207.389 89.7236ZM207.389 90.3037C206.686 90.3037 206.305 90.4502 206.311 90.749C206.305 91.0537 206.686 91.2061 207.389 91.2061C208.08 91.2061 208.449 91.0537 208.449 90.749C208.449 90.4502 208.08 90.3037 207.389 90.3037ZM216.348 89.0908V89.6826H214.338V90.6025H213.6V89.6826H211.467V89.0908H216.348ZM215.721 86.6885V88.6514H212.076V86.6885H215.721ZM212.809 87.2686V88.0713H214.988V87.2686H212.809ZM215.809 91.0947V91.6924H212.041V90.1396H212.785V91.0947H215.809ZM222.271 86.46V87.6318H222.992V88.2354H222.271V89.4189H221.521V86.46H222.271ZM222.371 89.6533V90.2393H221.727V91.1064H222.436V91.7041H218.721V91.1064H219.418V90.2393H218.762V89.6533H222.371ZM219.541 86.7236C220.367 86.7236 220.994 87.2568 220.994 88.0127C220.994 88.7568 220.367 89.2842 219.541 89.2842C218.709 89.2842 218.076 88.7568 218.076 88.0127C218.076 87.2568 218.709 86.7236 219.541 86.7236ZM219.541 87.3506C219.125 87.3506 218.809 87.5908 218.814 88.0127C218.809 88.417 219.125 88.6631 219.541 88.6631C219.951 88.6631 220.262 88.417 220.268 88.0127C220.262 87.5908 219.951 87.3506 219.541 87.3506ZM220.15 91.1064H220.994V90.2393H220.15V91.1064Z" fill="#FF3D00"/>
<path d="M227.85 86.4541V91.7861H227.135V86.4541H227.85ZM226.736 86.5303V91.54H226.033V89.0205H225.605C225.535 90.0693 225.09 90.7021 224.434 90.7021C223.73 90.7021 223.273 89.9639 223.273 88.7627C223.273 87.5674 223.73 86.835 224.434 86.835C225.075 86.835 225.515 87.4326 225.6 88.4287H226.033V86.5303H226.736ZM224.434 87.5381C224.135 87.5381 223.959 87.9482 223.965 88.7627C223.959 89.583 224.135 89.9873 224.434 89.9814C224.738 89.9873 224.92 89.583 224.92 88.7627C224.92 87.9482 224.738 87.5381 224.434 87.5381ZM230.428 87.6611C230.428 88.6631 230.832 89.6357 231.723 90.0225L231.266 90.6201C230.674 90.3301 230.278 89.7998 230.059 89.1436C229.824 89.8408 229.414 90.4121 228.805 90.7139L228.336 90.1045C229.25 89.6943 229.666 88.6631 229.672 87.6611V86.8643H230.428V87.6611ZM232.912 86.4541V91.7979H232.174V88.7334H231.125V88.1299H232.174V86.4541H232.912ZM191.794 97.8389V98.4307H190.247V99.5674H192.327V100.177H187.446V99.5674H189.503V98.4307H188.021V95.8291H191.753V96.4268H188.771V97.8389H191.794ZM194.595 96.6025C194.595 97.1533 194.981 97.7275 195.849 97.9561L195.503 98.5479C194.899 98.3838 194.475 98.0352 194.237 97.5928C194 98.0791 193.572 98.457 192.948 98.6357L192.591 98.0498C193.458 97.8154 193.851 97.2002 193.851 96.6025H192.778V96.0107H193.851V95.4365H194.606V96.0107H195.673V96.6025H194.595ZM196.862 95.4541V96.7666H197.583V97.3936H196.862V98.7236H196.112V95.4541H196.862ZM196.862 98.9404V100.792H196.112V99.5381H193.271V98.9404H196.862ZM202.194 95.8994V96.374C202.194 97.0186 202.2 97.7686 201.954 98.9229L201.222 98.8467C201.31 98.4424 201.362 98.082 201.397 97.7568L198.304 97.9326L198.198 97.2939L201.444 97.1885C201.456 96.9365 201.459 96.708 201.462 96.4971H198.374V95.8994H202.194ZM202.681 99.5615V100.171H197.817V99.5615H199.558V98.2725H200.302V99.5615H202.681ZM207.351 97.9209V98.5186H203.577V95.8994H207.31V96.5029H204.315V97.9209H207.351ZM207.884 99.5205V100.136H203.003V99.5205H207.884ZM213.063 97.8447V98.4014H208.183V97.8447H213.063ZM212.478 98.665V99.9248H209.489V100.229H212.636V100.739H208.745V99.4502H211.739V99.1807H208.739V98.665H212.478ZM212.472 95.5479V96.8018H209.536V97.0889H212.565V97.5928H208.792V96.3271H211.722V96.0576H208.78V95.5479H212.472ZM219.222 95.4541V98.3193H218.472V95.4541H219.222ZM216.392 98.5537V99.0518H218.478V98.5537H219.222V100.728H215.653V98.5537H216.392ZM216.392 100.124H218.478V99.6318H216.392V100.124ZM216.298 95.6768C217.13 95.6709 217.757 96.1924 217.757 96.9424C217.757 97.6689 217.13 98.1904 216.298 98.1904C215.466 98.1904 214.839 97.6689 214.839 96.9424C214.839 96.1924 215.466 95.6709 216.298 95.6768ZM216.298 96.2979C215.87 96.2979 215.565 96.5381 215.571 96.9424C215.565 97.3408 215.87 97.5752 216.298 97.5752C216.714 97.5752 217.019 97.3408 217.019 96.9424C217.019 96.5381 216.714 96.2979 216.298 96.2979ZM222.503 95.7646V97.4287H220.892V97.9971C221.686 97.9971 222.154 97.9707 222.696 97.8682L222.767 98.4658C222.146 98.5771 221.583 98.5947 220.552 98.5947H220.153V96.8721H221.753V96.3506H220.142V95.7646H222.503ZM224.437 95.46V98.7412H223.692V97.9209H222.808V97.3291H223.692V96.79H222.808V96.1982H223.692V95.46H224.437ZM224.437 98.9814V100.786H223.692V99.5791H220.763V98.9814H224.437ZM227.7 96.2686V96.8604H225.122V96.2686H226.048V95.6006H226.786V96.2686H227.7ZM226.423 97.1006C227.103 97.1006 227.589 97.6279 227.595 98.3662C227.589 99.1104 227.103 99.6377 226.423 99.6377C225.743 99.6377 225.245 99.1104 225.245 98.3662C225.245 97.6279 225.743 97.1006 226.423 97.1006ZM226.423 97.7217C226.112 97.7217 225.901 97.9619 225.901 98.3662C225.901 98.7705 226.112 99.0049 226.423 99.0049C226.722 99.0049 226.933 98.7705 226.938 98.3662C226.933 97.9619 226.722 97.7217 226.423 97.7217ZM229.739 95.4541V100.786H229.03V98.2197H228.597V100.558H227.899V95.5596H228.597V97.6221H229.03V95.4541H229.739ZM235.177 98.3955V98.9932H233.103V100.786H232.364V98.9932H230.313V98.3955H235.177ZM234.743 95.7354V96.3213H233.19C233.264 96.8428 233.853 97.3672 234.948 97.499L234.679 98.085C233.741 97.959 233.07 97.5576 232.751 97.0068C232.423 97.5576 231.758 97.959 230.829 98.085L230.554 97.499C231.632 97.3672 232.227 96.8428 232.312 96.3213H230.753V95.7354H234.743ZM237.21 96.7959C237.21 97.6572 237.45 98.5479 238.177 99.0166L237.772 99.5967C237.312 99.3184 237.02 98.8613 236.853 98.3135C236.659 98.917 236.34 99.4209 235.856 99.7139L235.399 99.1631C236.19 98.6709 236.483 97.7334 236.483 96.8311V95.9111H237.21V96.7959ZM240.122 95.4541V100.786H239.407V95.4541H240.122ZM239.003 95.5303V100.54H238.306V97.8623H237.614V97.2529H238.306V95.5303H239.003ZM245.565 99.5498V100.165H240.685V99.5498H241.774V98.2432C241.361 97.9971 241.112 97.6191 241.112 97.1475C241.112 96.2861 241.956 95.7119 243.116 95.7119C244.271 95.7119 245.12 96.2861 245.126 97.1475C245.123 97.6074 244.88 97.9824 244.481 98.2314V99.5498H245.565ZM243.116 96.3037C242.354 96.3037 241.851 96.6084 241.851 97.1475C241.851 97.6689 242.354 97.9912 243.116 97.9912C243.872 97.9912 244.382 97.6689 244.388 97.1475C244.382 96.6084 243.872 96.3037 243.116 96.3037ZM242.513 99.5498H243.726V98.5127C243.535 98.5508 243.33 98.5713 243.116 98.5713C242.902 98.5713 242.7 98.5537 242.513 98.5127V99.5498Z" fill="black"/>
<rect x="184.814" y="109.946" width="63.3719" height="12.3719" rx="2.19839" fill="white" stroke="#2D3038" stroke-width="0.628111"/>
<path d="M192.138 113.851V118.355H191.432V113.851H192.138ZM190.151 115.244C190.151 115.863 190.47 116.604 191.24 116.918L190.863 117.457C190.355 117.254 190.009 116.844 189.808 116.353C189.606 116.876 189.253 117.315 188.733 117.526L188.36 116.981C189.125 116.653 189.444 115.897 189.444 115.244V115.131H188.522V114.572H189.444V113.959H190.146V114.572H191.049V115.131H190.151V115.244ZM196.82 117.256V117.83H192.703V117.256H196.82ZM196.457 114.214V114.773H195.132C195.156 115.355 195.627 115.902 196.682 116.059L196.408 116.618C195.6 116.481 195.046 116.113 194.759 115.607C194.477 116.125 193.93 116.51 193.135 116.648L192.86 116.078C193.878 115.926 194.347 115.355 194.381 114.773H193.046V114.214H196.457ZM201.163 116.128V116.682H197.046V116.128H198.748V115.73H197.536V114.067H200.677V114.626H198.243V115.171H200.721V115.73H199.455V116.128H201.163ZM200.736 117.717V118.282H197.531V116.957H198.223V117.717H200.736ZM205.01 113.851V115.588H205.574V116.167H205.01V118.355H204.298V113.851H205.01ZM202.723 114.307C202.723 115.593 202.63 116.53 201.825 117.423L201.275 117.026C201.867 116.373 202.016 115.769 202.051 114.881H201.491V114.307H202.723ZM203.974 114.307C203.974 115.656 203.876 116.731 203.096 117.708L202.542 117.315C203.123 116.577 203.275 115.877 203.312 114.881H202.88V114.307H203.974ZM208.141 114.42C208.136 115.048 208.626 115.759 209.721 115.941L209.411 116.525C208.607 116.373 208.052 115.946 207.763 115.391C207.471 115.941 206.914 116.37 206.114 116.525L205.815 115.941C206.884 115.755 207.38 115.038 207.385 114.42V114.106H208.141V114.42ZM209.848 117.241V117.82H205.731V117.241H209.848Z" fill="#2D3038"/>
<rect x="209.598" y="112.884" width="0.603479" height="6.28111" rx="0.301739" fill="#3790FF"/>
<rect width="75.0769" height="11.0769" transform="translate(178.961 131.885)" fill="#FF3D00"/>
<path d="M212.381 137.398V137.77H211.41V138.484H212.716V138.866H209.651V138.484H210.942V137.77H210.011V136.136H212.356V136.511H210.482V137.398H212.381ZM214.141 136.621C214.141 136.967 214.384 137.328 214.928 137.472L214.711 137.843C214.332 137.74 214.065 137.521 213.916 137.243C213.767 137.549 213.498 137.786 213.107 137.899L212.882 137.531C213.427 137.383 213.673 136.997 213.673 136.621H213V136.25H213.673V135.889H214.148V136.25H214.818V136.621H214.141ZM215.565 135.9V136.725H216.018V137.118H215.565V137.954H215.094V135.9H215.565ZM215.565 138.09V139.253H215.094V138.465H213.309V138.09H215.565ZM218.042 136.036C218.531 136.036 218.885 136.312 218.885 136.717C218.885 137.045 218.644 137.295 218.285 137.372V137.615C218.546 137.6 218.809 137.577 219.054 137.542L219.091 137.884C218.403 138.005 217.633 138.02 217.074 138.02L217.026 137.648C217.258 137.648 217.528 137.646 217.814 137.637V137.376C217.444 137.302 217.195 137.05 217.199 136.717C217.195 136.312 217.549 136.036 218.042 136.036ZM218.042 136.39C217.803 136.393 217.633 136.507 217.637 136.717C217.633 136.92 217.803 137.041 218.042 137.041C218.281 137.041 218.443 136.92 218.443 136.717C218.443 136.507 218.281 136.393 218.042 136.39ZM219.713 135.904V136.956H220.14V137.347H219.713V138.458H219.242V135.904H219.713ZM219.827 138.811V139.187H217.468V138.233H217.939V138.811H219.827ZM223.356 138.491V138.878H220.291V138.491H221.074V137.98H220.644V136.853H222.539V136.493H220.64V136.117H223.003V137.229H221.115V137.6H223.08V137.98H222.605V138.491H223.356ZM221.531 138.491H222.145V137.98H221.531V138.491Z" fill="white"/>
<g clip-path="url(#clip2_20923_27397)">
<g clip-path="url(#clip3_20923_27397)">
<g filter="url(#filter0_b_20923_27397)">
<rect width="75.0416" height="46.0179" transform="translate(178.961 142.961)" fill="#CED2D9" fill-opacity="0.7"/>
</g>
<g filter="url(#filter1_d_20923_27397)">
<rect x="204.738" y="174.849" width="23.4863" height="8.7835" rx="0.954728" fill="white"/>
<path d="M216.499 181.265C215.755 181.265 215.312 180.587 215.312 179.505V179.501C215.312 178.419 215.755 177.743 216.499 177.743C217.242 177.743 217.69 178.419 217.69 179.501V179.505C217.69 180.587 217.242 181.265 216.499 181.265ZM216.499 180.899C216.981 180.899 217.268 180.363 217.268 179.505V179.501C217.268 178.643 216.981 178.112 216.499 178.112C216.016 178.112 215.734 178.643 215.734 179.501V179.505C215.734 180.363 216.016 180.899 216.499 180.899Z" fill="black"/>
</g>
<g filter="url(#filter2_d_20923_27397)">
<rect x="180.105" y="144.107" width="23.4863" height="8.7835" rx="0.954728" fill="white"/>
</g>
<path d="M192.342 149.107V146.21H192.304L191.449 146.83V146.387L192.344 145.744H192.761V149.107H192.342Z" fill="black"/>
<g filter="url(#filter3_d_20923_27397)">
<rect x="204.738" y="144.107" width="23.4863" height="8.7835" rx="0.954728" fill="white"/>
</g>
<path d="M213.994 151.645L214.461 150.299H214.792L215.26 151.645H214.964L214.864 151.318H214.389L214.29 151.645H213.994ZM214.619 150.568L214.454 151.107H214.8L214.636 150.568H214.619ZM215.813 151.645V150.299H216.402C216.663 150.299 216.818 150.427 216.818 150.634V150.636C216.818 150.777 216.713 150.901 216.575 150.922V150.939C216.753 150.953 216.883 151.086 216.883 151.259V151.26C216.883 151.496 216.705 151.645 216.417 151.645H215.813ZM216.33 150.508H216.095V150.859H216.307C216.459 150.859 216.541 150.795 216.541 150.684V150.682C216.541 150.573 216.464 150.508 216.33 150.508ZM216.339 151.044H216.095V151.435H216.346C216.508 151.435 216.596 151.366 216.596 151.238V151.236C216.596 151.111 216.505 151.044 216.339 151.044ZM218.033 151.679C217.644 151.679 217.402 151.409 217.402 150.972V150.97C217.402 150.534 217.643 150.265 218.033 150.265C218.352 150.265 218.591 150.468 218.617 150.752V150.763H218.343V150.757C218.314 150.606 218.194 150.503 218.033 150.503C217.822 150.503 217.69 150.681 217.69 150.97V150.972C217.69 151.261 217.822 151.44 218.034 151.44C218.196 151.44 218.312 151.346 218.342 151.203L218.344 151.195H218.618L218.617 151.205C218.588 151.487 218.358 151.679 218.033 151.679Z" fill="black"/>
<path d="M215.627 149.107V148.818L216.765 147.587C217.193 147.124 217.319 146.949 217.319 146.655V146.65C217.319 146.296 217.079 146.03 216.683 146.03C216.28 146.03 216.012 146.294 216.012 146.69L216.009 146.695L215.608 146.692L215.604 146.69C215.606 146.093 216.068 145.664 216.711 145.664C217.298 145.664 217.748 146.063 217.748 146.606V146.611C217.748 146.995 217.583 147.275 216.974 147.902L216.21 148.692V148.73H217.804V149.107H215.627Z" fill="black"/>
<g filter="url(#filter4_d_20923_27397)">
<rect x="229.371" y="144.107" width="23.4863" height="8.7835" rx="0.954728" fill="white"/>
</g>
<path d="M238.913 151.645V150.299H239.443C239.843 150.299 240.074 150.541 240.074 150.962V150.964C240.074 151.398 239.846 151.645 239.443 151.645H238.913ZM239.195 151.412H239.398C239.647 151.412 239.787 151.256 239.787 150.969V150.967C239.787 150.69 239.642 150.531 239.398 150.531H239.195V151.412ZM240.666 151.645V150.299H241.557V150.531H240.948V150.856H241.523V151.072H240.948V151.412H241.557V151.645H240.666ZM242.179 151.645V150.299H243.06V150.531H242.46V150.892H243.007V151.115H242.46V151.645H242.179Z" fill="black"/>
<path d="M241.157 149.163C240.462 149.163 240.013 148.776 239.968 148.245L239.966 148.217H240.369L240.371 148.24C240.404 148.571 240.709 148.8 241.157 148.8C241.598 148.8 241.898 148.552 241.898 148.196V148.191C241.898 147.779 241.602 147.548 241.131 147.548H240.709V147.194H241.113C241.514 147.194 241.793 146.946 241.793 146.611V146.606C241.793 146.254 241.563 146.051 241.152 146.051C240.756 146.051 240.474 146.261 240.439 146.601L240.437 146.625H240.033L240.036 146.601C240.089 146.054 240.523 145.688 241.152 145.688C241.793 145.688 242.215 146.044 242.215 146.555V146.56C242.215 146.974 241.922 147.259 241.502 147.347V147.357C241.991 147.399 242.325 147.704 242.325 148.182V148.186C242.325 148.748 241.831 149.163 241.157 149.163Z" fill="black"/>
<g filter="url(#filter5_d_20923_27397)">
<rect x="180.105" y="154.227" width="23.4863" height="8.97445" rx="0.954728" fill="white"/>
</g>
<path d="M190.334 161.99C189.934 161.99 189.689 161.721 189.689 161.282V161.281C189.689 160.849 189.936 160.576 190.327 160.576C190.645 160.576 190.877 160.758 190.917 161.027L190.919 161.036H190.64L190.638 161.027C190.599 160.894 190.485 160.814 190.327 160.814C190.11 160.814 189.976 160.992 189.976 161.278V161.28C189.976 161.571 190.117 161.751 190.338 161.751C190.523 161.751 190.65 161.639 190.655 161.469L190.656 161.444H190.365V161.239H190.93V161.409C190.93 161.766 190.701 161.99 190.334 161.99ZM191.525 161.956V160.61H191.807V161.157H192.413V160.61H192.695V161.956H192.413V161.389H191.807V161.956H191.525ZM193.346 161.956V160.61H193.627V161.956H193.346Z" fill="black"/>
<path d="M192.243 159.418V158.721H190.605V158.339C191.059 157.577 191.574 156.756 192.045 156.055H192.654V158.346H193.131V158.721H192.654V159.418H192.243ZM191.034 158.348H192.246V156.444H192.218C191.84 157.008 191.4 157.703 191.034 158.32V158.348Z" fill="black"/>
<g filter="url(#filter6_d_20923_27397)">
<rect x="204.738" y="154.227" width="23.4863" height="8.97445" rx="0.954728" fill="white"/>
</g>
<path d="M214.701 161.99C214.423 161.99 214.254 161.825 214.247 161.572V161.565H214.52V161.571C214.526 161.674 214.587 161.747 214.697 161.747C214.816 161.747 214.879 161.675 214.879 161.54V160.61H215.161V161.542C215.161 161.825 214.992 161.99 214.701 161.99ZM215.812 161.956V160.61H216.094V161.214H216.111L216.608 160.61H216.921L216.431 161.199L216.955 161.956H216.618L216.227 161.384L216.094 161.544V161.956H215.812ZM217.493 161.956V160.61H217.774V161.723H218.373V161.956H217.493Z" fill="black"/>
<path d="M216.697 159.497C216.07 159.497 215.622 159.094 215.573 158.556L215.571 158.53H215.974L215.977 158.549C216.016 158.87 216.308 159.127 216.702 159.127C217.149 159.127 217.457 158.808 217.457 158.353V158.348C217.457 157.901 217.144 157.581 216.709 157.581C216.485 157.581 216.294 157.649 216.149 157.787C216.091 157.843 216.037 157.908 215.995 157.987H215.632L215.809 156.055H217.681V156.43H216.14L216.026 157.567H216.063C216.212 157.341 216.475 157.218 216.781 157.218C217.413 157.218 217.867 157.691 217.867 158.341V158.346C217.867 159.024 217.38 159.497 216.697 159.497Z" fill="black"/>
<g filter="url(#filter7_d_20923_27397)">
<rect x="229.371" y="154.227" width="23.4863" height="8.97445" rx="0.954728" fill="white"/>
</g>
<path d="M238.44 161.956V160.61H238.763L239.135 161.595H239.152L239.523 160.61H239.846V161.956H239.595V161.04H239.576L239.231 161.956H239.055L238.71 161.04H238.691V161.956H238.44ZM240.497 161.956V160.61H240.732L241.353 161.467H241.368V160.61H241.638V161.956H241.405L240.782 161.095H240.767V161.956H240.497ZM242.878 161.99C242.478 161.99 242.23 161.718 242.23 161.283V161.281C242.23 160.846 242.482 160.576 242.878 160.576C243.274 160.576 243.525 160.847 243.525 161.281V161.283C243.525 161.718 243.275 161.99 242.878 161.99ZM242.878 161.751C243.097 161.751 243.238 161.568 243.238 161.283V161.281C243.238 160.996 243.096 160.814 242.878 160.814C242.659 160.814 242.517 160.996 242.517 161.281V161.283C242.517 161.568 242.656 161.751 242.878 161.751Z" fill="black"/>
<path d="M241.178 159.497C240.563 159.497 239.912 159.064 239.912 157.798V157.794C239.912 156.647 240.39 155.976 241.206 155.976C241.77 155.976 242.19 156.306 242.304 156.803L242.311 156.833H241.889L241.88 156.808C241.777 156.526 241.542 156.351 241.201 156.351C240.591 156.351 240.341 156.947 240.316 157.649C240.313 157.675 240.313 157.703 240.313 157.728H240.357C240.481 157.453 240.798 157.209 241.253 157.209C241.884 157.209 242.355 157.689 242.355 158.334V158.339C242.355 159.01 241.856 159.497 241.178 159.497ZM240.413 158.334C240.413 158.777 240.747 159.127 241.173 159.127C241.595 159.127 241.933 158.784 241.933 158.348V158.344C241.933 157.896 241.616 157.574 241.18 157.574C240.744 157.574 240.413 157.894 240.413 158.332V158.334Z" fill="black"/>
<g filter="url(#filter8_d_20923_27397)">
<rect x="180.105" y="164.538" width="23.4863" height="8.97445" rx="0.954728" fill="white"/>
</g>
<path d="M188.661 172.267V170.921H189.216C189.499 170.921 189.689 171.104 189.689 171.381V171.383C189.689 171.66 189.499 171.842 189.216 171.842H188.943V172.267H188.661ZM189.147 171.144H188.943V171.622H189.147C189.308 171.622 189.403 171.537 189.403 171.384V171.382C189.403 171.229 189.308 171.144 189.147 171.144ZM190.861 172.301C190.461 172.301 190.213 172.029 190.213 171.594V171.593C190.213 171.157 190.464 170.887 190.861 170.887C191.257 170.887 191.508 171.158 191.508 171.593V171.594C191.508 171.842 191.427 172.037 191.283 172.158L191.464 172.4H191.202L191.099 172.263C191.028 172.288 190.947 172.301 190.861 172.301ZM190.861 172.062C190.889 172.062 190.916 172.06 190.942 172.053L190.769 171.824H191.031L191.118 171.94C191.183 171.858 191.221 171.74 191.221 171.594V171.593C191.221 171.307 191.079 171.125 190.861 171.125C190.642 171.125 190.5 171.307 190.5 171.593V171.594C190.5 171.879 190.639 172.062 190.861 172.062ZM192.1 172.267V170.921H192.66C192.966 170.921 193.141 171.084 193.141 171.349V171.351C193.141 171.524 193.052 171.672 192.898 171.732L193.181 172.267H192.863L192.612 171.774H192.381V172.267H192.1ZM192.381 171.569H192.629C192.77 171.569 192.853 171.489 192.853 171.357V171.355C192.853 171.225 192.767 171.141 192.626 171.141H192.381V171.569ZM194.231 172.301C193.91 172.301 193.706 172.147 193.691 171.909L193.69 171.894H193.961L193.962 171.903C193.972 172.004 194.081 172.072 194.239 172.072C194.389 172.072 194.492 172 194.492 171.896V171.896C194.492 171.807 194.426 171.758 194.259 171.723L194.118 171.694C193.838 171.637 193.718 171.507 193.718 171.303V171.302C193.718 171.052 193.932 170.887 194.23 170.887C194.545 170.887 194.729 171.053 194.747 171.277L194.748 171.289H194.483L194.481 171.278C194.465 171.182 194.372 171.115 194.23 171.115C194.092 171.116 193.999 171.179 193.999 171.28V171.281C193.999 171.369 194.064 171.421 194.223 171.454L194.366 171.482C194.65 171.541 194.774 171.655 194.774 171.865V171.866C194.774 172.132 194.567 172.301 194.231 172.301Z" fill="black"/>
<path d="M191.216 169.729L192.726 166.774V166.741H190.927V166.366H193.153V166.755L191.656 169.729H191.216Z" fill="black"/>
<g filter="url(#filter9_d_20923_27397)">
<rect x="204.738" y="164.538" width="23.4863" height="8.97445" rx="0.954728" fill="white"/>
</g>
<path d="M214.44 172.267V171.153H214.036V170.921H215.125V171.153H214.721V172.267H214.44ZM216.262 172.301C215.917 172.301 215.698 172.102 215.698 171.802V170.921H215.979V171.777C215.979 171.951 216.081 172.062 216.262 172.062C216.443 172.062 216.543 171.951 216.543 171.777V170.921H216.825V171.802C216.825 172.101 216.609 172.301 216.262 172.301ZM217.828 172.267L217.38 170.921H217.696L217.993 171.953H218.01L218.307 170.921H218.624L218.175 172.267H217.828Z" fill="black"/>
<path d="M216.501 169.785C215.788 169.785 215.279 169.384 215.279 168.82V168.816C215.279 168.401 215.571 168.056 216.002 167.955V167.946C215.634 167.832 215.401 167.552 215.401 167.198V167.193C215.401 166.685 215.865 166.31 216.501 166.31C217.137 166.31 217.601 166.685 217.601 167.193V167.198C217.601 167.552 217.368 167.832 217 167.946V167.955C217.431 168.056 217.722 168.401 217.722 168.816V168.82C217.722 169.384 217.214 169.785 216.501 169.785ZM216.501 167.79C216.906 167.79 217.184 167.559 217.184 167.233V167.228C217.184 166.902 216.906 166.671 216.501 166.671C216.095 166.671 215.818 166.902 215.818 167.228V167.233C215.818 167.559 216.095 167.79 216.501 167.79ZM216.501 169.419C216.965 169.419 217.296 169.158 217.296 168.795V168.79C217.296 168.422 216.967 168.158 216.501 168.158C216.035 168.158 215.706 168.422 215.706 168.79V168.795C215.706 169.158 216.037 169.419 216.501 169.419Z" fill="black"/>
<g filter="url(#filter10_d_20923_27397)">
<rect x="229.371" y="164.538" width="23.4863" height="8.97445" rx="0.954728" fill="white"/>
</g>
<path d="M237.923 172.267L237.567 170.921H237.86L238.069 171.882H238.084L238.329 170.921H238.567L238.817 171.882H238.832L239.04 170.921H239.331L238.974 172.267H238.71L238.455 171.36H238.44L238.189 172.267H237.923ZM239.82 172.267L240.247 171.589V171.586L239.821 170.921H240.153L240.439 171.406H240.45L240.733 170.921H241.048L240.607 171.591V171.594L241.042 172.267H240.721L240.426 171.795H240.417L240.123 172.267H239.82ZM241.99 172.267V171.764L241.522 170.921H241.827L242.124 171.487H242.14L242.436 170.921H242.741L242.272 171.764V172.267H241.99ZM243.257 172.267V172.083L243.934 171.17V171.153H243.273V170.921H244.277V171.104L243.602 172.018V172.034H244.296V172.267H243.257Z" fill="black"/>
<path d="M241.089 166.287C241.705 166.287 242.355 166.72 242.355 167.986V167.99C242.355 169.137 241.877 169.808 241.061 169.808C240.497 169.808 240.078 169.478 239.964 168.981L239.957 168.951H240.378L240.388 168.976C240.49 169.258 240.726 169.433 241.066 169.433C241.677 169.433 241.926 168.837 241.952 168.135C241.954 168.109 241.954 168.081 241.954 168.056H241.91C241.786 168.331 241.469 168.575 241.015 168.575C240.383 168.575 239.912 168.095 239.912 167.45V167.445C239.912 166.774 240.411 166.287 241.089 166.287ZM241.087 168.21C241.523 168.21 241.854 167.89 241.854 167.452V167.45C241.854 167.007 241.521 166.657 241.094 166.657C240.672 166.657 240.334 167 240.334 167.436V167.44C240.334 167.888 240.651 168.21 241.087 168.21Z" fill="black"/>
<path d="M241.249 178.577C241.193 178.522 241.193 178.431 241.249 178.375C241.305 178.319 241.396 178.319 241.452 178.375L241.924 178.848L242.397 178.375C242.453 178.319 242.543 178.319 242.599 178.375C242.655 178.431 242.655 178.522 242.599 178.577L242.127 179.05L242.599 179.523C242.655 179.579 242.655 179.669 242.599 179.725C242.543 179.781 242.453 179.781 242.397 179.725L241.924 179.253L241.452 179.725C241.396 179.781 241.305 179.781 241.249 179.725C241.193 179.669 241.193 179.579 241.249 179.523L241.722 179.05L241.249 178.577Z" fill="black"/>
<path fill-rule="evenodd" clip-rule="evenodd" d="M240.658 177.595L239.203 179.05L240.658 180.505C240.766 180.613 240.912 180.673 241.063 180.673H243.022C243.338 180.673 243.595 180.417 243.595 180.1V178C243.595 177.683 243.338 177.427 243.022 177.427H241.063C240.912 177.427 240.766 177.487 240.658 177.595ZM243.022 180.425H241.063C240.977 180.425 240.895 180.391 240.834 180.33L239.554 179.05L240.834 177.77C240.895 177.709 240.977 177.675 241.063 177.675H243.022C243.201 177.675 243.347 177.821 243.347 178V180.1C243.347 180.28 243.201 180.425 243.022 180.425Z" fill="black"/>
<path fill-rule="evenodd" clip-rule="evenodd" d="M187.361 179.814V178.668H186.215V178.477H187.361V177.332H187.551V178.477H188.697V178.668H187.551V179.814H187.361ZM190.19 179.6L190.728 178.668H189.652V178.477H190.728L190.19 177.546L190.355 177.45L190.893 178.382L191.431 177.45L191.596 177.546L191.058 178.477H192.134V178.668H191.058L191.596 179.6L191.431 179.695L190.893 178.764L190.355 179.695L190.19 179.6ZM193.853 180.005V179.05H193.089V178.859H193.853V178.287H193.089V178.096H193.853V177.523H194.044V178.096H194.616V177.523H194.807V178.096H195.571V178.287H194.807V178.859H195.571V179.05H194.807V180.005H194.616V179.05H194.044V180.005H193.853ZM194.616 178.859V178.287H194.044V178.859H194.616Z" fill="black"/>
</g>
</g>
<rect x="205.059" y="66.6538" width="24.6154" height="6.15385" rx="3.07692" fill="#3E4758"/>
<path fill-rule="evenodd" clip-rule="evenodd" d="M248.609 155.026L266.5 166L256.5 185C256.5 185 254.108 182.805 253.5 180.5C252.968 178.481 253.767 175.161 253.767 175.161L240.605 166.724C240.605 166.724 234.483 162.213 238.195 156.488C241.907 150.763 248.609 155.026 248.609 155.026Z" fill="white"/>
<path d="M261.771 163.463L248.609 155.026C248.609 155.026 241.907 150.763 238.195 156.488C234.483 162.213 240.605 166.724 240.605 166.724L253 174.5C253 174.5 252.5 177 253 180C253.598 183.591 256.5 185.5 256.5 185.5" stroke="#3E4758" stroke-width="2"/>
</g>
<defs>
<filter id="filter0_b_20923_27397" x="165.595" y="129.595" width="101.775" height="72.7502" filterUnits="userSpaceOnUse" color-interpolation-filters="sRGB">
<feFlood flood-opacity="0" result="BackgroundImageFix"/>
<feGaussianBlur in="BackgroundImageFix" stdDeviation="6.6831"/>
<feComposite in2="SourceAlpha" operator="in" result="effect1_backgroundBlur_20923_27397"/>
<feBlend mode="normal" in="SourceGraphic" in2="effect1_backgroundBlur_20923_27397" result="shape"/>
</filter>
<filter id="filter1_d_20923_27397" x="204.738" y="174.849" width="23.4844" height="8.97439" filterUnits="userSpaceOnUse" color-interpolation-filters="sRGB">
<feFlood flood-opacity="0" result="BackgroundImageFix"/>
<feColorMatrix in="SourceAlpha" type="matrix" values="0 0 0 0 0 0 0 0 0 0 0 0 0 0 0 0 0 0 127 0" result="hardAlpha"/>
<feOffset dy="0.190946"/>
<feColorMatrix type="matrix" values="0 0 0 0 0 0 0 0 0 0 0 0 0 0 0 0 0 0 0.35 0"/>
<feBlend mode="normal" in2="BackgroundImageFix" result="effect1_dropShadow_20923_27397"/>
<feBlend mode="normal" in="SourceGraphic" in2="effect1_dropShadow_20923_27397" result="shape"/>
</filter>
<filter id="filter2_d_20923_27397" x="180.105" y="144.107" width="23.4844" height="8.97439" filterUnits="userSpaceOnUse" color-interpolation-filters="sRGB">
<feFlood flood-opacity="0" result="BackgroundImageFix"/>
<feColorMatrix in="SourceAlpha" type="matrix" values="0 0 0 0 0 0 0 0 0 0 0 0 0 0 0 0 0 0 127 0" result="hardAlpha"/>
<feOffset dy="0.190946"/>
<feColorMatrix type="matrix" values="0 0 0 0 0 0 0 0 0 0 0 0 0 0 0 0 0 0 0.3 0"/>
<feBlend mode="normal" in2="BackgroundImageFix" result="effect1_dropShadow_20923_27397"/>
<feBlend mode="normal" in="SourceGraphic" in2="effect1_dropShadow_20923_27397" result="shape"/>
</filter>
<filter id="filter3_d_20923_27397" x="204.738" y="144.107" width="23.4844" height="8.97439" filterUnits="userSpaceOnUse" color-interpolation-filters="sRGB">
<feFlood flood-opacity="0" result="BackgroundImageFix"/>
<feColorMatrix in="SourceAlpha" type="matrix" values="0 0 0 0 0 0 0 0 0 0 0 0 0 0 0 0 0 0 127 0" result="hardAlpha"/>
<feOffset dy="0.190946"/>
<feColorMatrix type="matrix" values="0 0 0 0 0 0 0 0 0 0 0 0 0 0 0 0 0 0 0.3 0"/>
<feBlend mode="normal" in2="BackgroundImageFix" result="effect1_dropShadow_20923_27397"/>
<feBlend mode="normal" in="SourceGraphic" in2="effect1_dropShadow_20923_27397" result="shape"/>
</filter>
<filter id="filter4_d_20923_27397" x="229.371" y="144.107" width="23.4844" height="8.97439" filterUnits="userSpaceOnUse" color-interpolation-filters="sRGB">
<feFlood flood-opacity="0" result="BackgroundImageFix"/>
<feColorMatrix in="SourceAlpha" type="matrix" values="0 0 0 0 0 0 0 0 0 0 0 0 0 0 0 0 0 0 127 0" result="hardAlpha"/>
<feOffset dy="0.190946"/>
<feColorMatrix type="matrix" values="0 0 0 0 0 0 0 0 0 0 0 0 0 0 0 0 0 0 0.3 0"/>
<feBlend mode="normal" in2="BackgroundImageFix" result="effect1_dropShadow_20923_27397"/>
<feBlend mode="normal" in="SourceGraphic" in2="effect1_dropShadow_20923_27397" result="shape"/>
</filter>
<filter id="filter5_d_20923_27397" x="180.105" y="154.227" width="23.4844" height="9.16531" filterUnits="userSpaceOnUse" color-interpolation-filters="sRGB">
<feFlood flood-opacity="0" result="BackgroundImageFix"/>
<feColorMatrix in="SourceAlpha" type="matrix" values="0 0 0 0 0 0 0 0 0 0 0 0 0 0 0 0 0 0 127 0" result="hardAlpha"/>
<feOffset dy="0.190946"/>
<feColorMatrix type="matrix" values="0 0 0 0 0 0 0 0 0 0 0 0 0 0 0 0 0 0 0.3 0"/>
<feBlend mode="normal" in2="BackgroundImageFix" result="effect1_dropShadow_20923_27397"/>
<feBlend mode="normal" in="SourceGraphic" in2="effect1_dropShadow_20923_27397" result="shape"/>
</filter>
<filter id="filter6_d_20923_27397" x="204.738" y="154.227" width="23.4844" height="9.16531" filterUnits="userSpaceOnUse" color-interpolation-filters="sRGB">
<feFlood flood-opacity="0" result="BackgroundImageFix"/>
<feColorMatrix in="SourceAlpha" type="matrix" values="0 0 0 0 0 0 0 0 0 0 0 0 0 0 0 0 0 0 127 0" result="hardAlpha"/>
<feOffset dy="0.190946"/>
<feColorMatrix type="matrix" values="0 0 0 0 0 0 0 0 0 0 0 0 0 0 0 0 0 0 0.3 0"/>
<feBlend mode="normal" in2="BackgroundImageFix" result="effect1_dropShadow_20923_27397"/>
<feBlend mode="normal" in="SourceGraphic" in2="effect1_dropShadow_20923_27397" result="shape"/>
</filter>
<filter id="filter7_d_20923_27397" x="229.371" y="154.227" width="23.4844" height="9.16531" filterUnits="userSpaceOnUse" color-interpolation-filters="sRGB">
<feFlood flood-opacity="0" result="BackgroundImageFix"/>
<feColorMatrix in="SourceAlpha" type="matrix" values="0 0 0 0 0 0 0 0 0 0 0 0 0 0 0 0 0 0 127 0" result="hardAlpha"/>
<feOffset dy="0.190946"/>
<feColorMatrix type="matrix" values="0 0 0 0 0 0 0 0 0 0 0 0 0 0 0 0 0 0 0.3 0"/>
<feBlend mode="normal" in2="BackgroundImageFix" result="effect1_dropShadow_20923_27397"/>
<feBlend mode="normal" in="SourceGraphic" in2="effect1_dropShadow_20923_27397" result="shape"/>
</filter>
<filter id="filter8_d_20923_27397" x="180.105" y="164.538" width="23.4844" height="9.16531" filterUnits="userSpaceOnUse" color-interpolation-filters="sRGB">
<feFlood flood-opacity="0" result="BackgroundImageFix"/>
<feColorMatrix in="SourceAlpha" type="matrix" values="0 0 0 0 0 0 0 0 0 0 0 0 0 0 0 0 0 0 127 0" result="hardAlpha"/>
<feOffset dy="0.190946"/>
<feColorMatrix type="matrix" values="0 0 0 0 0 0 0 0 0 0 0 0 0 0 0 0 0 0 0.3 0"/>
<feBlend mode="normal" in2="BackgroundImageFix" result="effect1_dropShadow_20923_27397"/>
<feBlend mode="normal" in="SourceGraphic" in2="effect1_dropShadow_20923_27397" result="shape"/>
</filter>
<filter id="filter9_d_20923_27397" x="204.738" y="164.538" width="23.4844" height="9.16531" filterUnits="userSpaceOnUse" color-interpolation-filters="sRGB">
<feFlood flood-opacity="0" result="BackgroundImageFix"/>
<feColorMatrix in="SourceAlpha" type="matrix" values="0 0 0 0 0 0 0 0 0 0 0 0 0 0 0 0 0 0 127 0" result="hardAlpha"/>
<feOffset dy="0.190946"/>
<feColorMatrix type="matrix" values="0 0 0 0 0 0 0 0 0 0 0 0 0 0 0 0 0 0 0.3 0"/>
<feBlend mode="normal" in2="BackgroundImageFix" result="effect1_dropShadow_20923_27397"/>
<feBlend mode="normal" in="SourceGraphic" in2="effect1_dropShadow_20923_27397" result="shape"/>
</filter>
<filter id="filter10_d_20923_27397" x="229.371" y="164.538" width="23.4844" height="9.16531" filterUnits="userSpaceOnUse" color-interpolation-filters="sRGB">
<feFlood flood-opacity="0" result="BackgroundImageFix"/>
<feColorMatrix in="SourceAlpha" type="matrix" values="0 0 0 0 0 0 0 0 0 0 0 0 0 0 0 0 0 0 127 0" result="hardAlpha"/>
<feOffset dy="0.190946"/>
<feColorMatrix type="matrix" values="0 0 0 0 0 0 0 0 0 0 0 0 0 0 0 0 0 0 0.3 0"/>
<feBlend mode="normal" in2="BackgroundImageFix" result="effect1_dropShadow_20923_27397"/>
<feBlend mode="normal" in="SourceGraphic" in2="effect1_dropShadow_20923_27397" result="shape"/>
</filter>
<clipPath id="clip0_20923_27397">
<rect y="0.5" width="286" height="280" rx="12" fill="white"/>
</clipPath>
<clipPath id="clip1_20923_27397">
<rect width="144" height="144" fill="white" transform="translate(73 32.5)"/>
</clipPath>
<clipPath id="clip2_20923_27397">
<rect width="75.0769" height="45.5385" fill="white" transform="translate(178.961 142.961)"/>
</clipPath>
<clipPath id="clip3_20923_27397">
<rect width="75" height="46" fill="white" transform="translate(178.961 142.961)"/>
</clipPath>
</defs>
</svg>
