<svg width="286" height="281" viewBox="0 0 286 281" fill="none" xmlns="http://www.w3.org/2000/svg">
<rect y="0.5" width="286" height="280" rx="12" fill="#EFF0F5"/>
<path d="M204.998 32.5H85.0018C78.3734 32.5 73 37.1722 73 42.9356V166.064C73 171.828 78.3734 176.5 85.0018 176.5H204.998C211.627 176.5 217 171.828 217 166.064V42.9356C217 37.1722 211.627 32.5 204.998 32.5Z" fill="#BDC7DC"/>
<path d="M203.175 40.6599H149.031V168.532H203.175C206.356 168.532 208.935 165.953 208.935 162.772V46.4199C208.935 43.2388 206.356 40.6599 203.175 40.6599Z" fill="#D9E3F8"/>
<path d="M149.078 111.888V122.74L208.838 71.6718V60.8198L149.078 111.888Z" fill="#F3F6FF"/>
<path opacity="0.2" d="M149.078 132.288V143.14L208.838 92.0719V81.22L149.078 132.288Z" fill="#F3F6FF"/>
<path d="M86.8247 40.564H140.969V168.436H86.8247C83.6436 168.436 81.0647 165.857 81.0647 162.676V46.324C81.0647 43.1428 83.6436 40.564 86.8247 40.564Z" fill="#D9E3F8"/>
<path d="M81.1602 111.888V122.74L140.92 71.672V60.8201L81.1602 111.888Z" fill="#F3F6FF"/>
<path opacity="0.2" d="M81.1602 132.288V143.14L140.92 92.0719V81.22L81.1602 132.288Z" fill="#F3F6FF"/>
<path d="M68.714 71.2205H67.4361L67.4344 72.4983L68.714 72.5C67.4344 72.4983 67.4344 72.4984 67.4344 72.4985L67.4344 72.4992L67.4344 72.5022L67.4344 72.5143L67.4343 72.5622L67.4339 72.7507C67.4336 72.9163 67.4329 73.1605 67.4319 73.4741C67.4298 74.1013 67.4261 75.0062 67.4196 76.1168C67.4066 78.338 67.3825 81.3807 67.3381 84.6673C67.2489 91.2598 67.0784 98.7724 66.7566 102.633C66.3432 107.591 65.3486 112.905 64.451 116.996C64.0031 119.038 63.5812 120.767 63.2717 121.985C63.117 122.593 62.9904 123.074 62.9028 123.401C62.859 123.564 62.8249 123.69 62.8019 123.774L62.776 123.868L62.7695 123.891L62.768 123.897L62.7677 123.898L62.7677 123.898L62.7676 123.898L62.314 125.522H64H128.51H128.944L129.288 125.258L128.51 124.242C129.288 125.258 129.289 125.257 129.29 125.256L129.293 125.254L129.297 125.251L129.309 125.242C129.316 125.236 129.326 125.228 129.336 125.22C129.356 125.203 129.381 125.182 129.41 125.156C129.469 125.105 129.544 125.036 129.633 124.946C129.812 124.767 130.047 124.506 130.318 124.148C130.86 123.43 131.544 122.326 132.213 120.697C133.551 117.441 134.829 112.103 134.829 103.579C134.829 98.3077 134.661 90.5229 134.493 84.0666C134.409 80.8362 134.325 77.9344 134.261 75.8403C134.23 74.7931 134.204 73.9478 134.185 73.3642L134.164 72.6926L134.158 72.5179L134.157 72.4734L134.157 72.4621L134.156 72.4592L134.156 72.4585C134.156 72.4583 134.156 72.4582 132.878 72.5L134.156 72.4582L134.116 71.2205H132.878H68.714Z" fill="white" stroke="#3E4758" stroke-width="2.55906"/>
<path d="M93.2062 87.2099V87.8584H91.5112V89.1039H93.7904V89.7716H88.4424V89.1039H90.6959V87.8584H89.0716V85.0078H93.1612V85.6627H89.8933V87.2099H93.2062ZM96.275 85.8553C96.275 86.4588 96.6988 87.0879 97.649 87.3383L97.2702 87.9868C96.6089 87.807 96.1434 87.425 95.8834 86.9403C95.6234 87.4732 95.1547 87.8873 94.471 88.0831L94.0793 87.4411C95.0295 87.1842 95.4597 86.5101 95.4597 85.8553H94.2848V85.2068H95.4597V84.5776H96.2879V85.2068H97.4564V85.8553H96.275ZM98.7597 84.5969V86.035H99.5493V86.722H98.7597V88.1794H97.9379V84.5969H98.7597ZM98.7597 88.4169V90.4457H97.9379V89.0718H94.8241V88.4169H98.7597ZM104.602 85.0848V85.6049C104.602 86.3111 104.608 87.1329 104.339 88.3977L103.536 88.3142C103.633 87.8712 103.69 87.4764 103.729 87.12L100.339 87.3126L100.223 86.6128L103.78 86.4973C103.793 86.2212 103.796 85.9708 103.8 85.7397H100.416V85.0848H104.602ZM105.135 89.0975V89.7652H99.8062V89.0975H101.713V87.685H102.528V89.0975H105.135ZM110.252 87.2998V87.9547H106.117V85.0848H110.207V85.7461H106.926V87.2998H110.252ZM110.836 89.0525V89.7266H105.488V89.0525H110.836Z" fill="#3E4758"/>
<path d="M83.3725 95.1197V106.026H81.4859V95.1197H83.3725ZM78.6089 98.4684C78.6089 99.8833 79.2456 101.664 81.1794 102.454L80.1771 103.892C78.9686 103.421 78.155 102.477 77.6774 101.345C77.1999 102.548 76.3745 103.556 75.1306 104.046L74.1401 102.607C76.0503 101.782 76.7106 99.9541 76.7106 98.4684V98.3269H74.5528V96.8294H76.6988V95.4027H78.5853V96.8294H80.6959V98.3269H78.6089V98.4684ZM94.5858 103.279V104.8H84.6224V103.279H94.5858ZM93.7015 95.9569V97.4426H90.6004C90.7242 98.7219 91.6793 99.9482 94.291 100.32L93.56 101.817C91.5732 101.487 90.2879 100.65 89.61 99.506C88.932 100.691 87.6703 101.575 85.6953 101.9L84.9643 100.379C87.4935 100.007 88.4368 98.7337 88.5724 97.4426H85.4595V95.9569H93.7015ZM105.033 100.579V102.053H95.0574V100.579H99.09V99.7418H96.2365V95.6385H103.865V97.136H98.1113V98.2444H103.971V99.7418H100.988V100.579H105.033ZM104.007 104.364V105.873H96.2012V102.642H98.0641V104.364H104.007ZM114.289 95.1197V99.2584H115.597V100.815H114.289V106.026H112.39V95.1197H114.289ZM108.711 96.2045C108.7 99.447 108.57 101.64 106.624 103.822L105.162 102.772C106.542 101.216 106.843 99.8656 106.919 97.7373H105.728V96.2045H108.711ZM111.754 96.2045C111.742 99.6475 111.553 102.147 109.69 104.505L108.216 103.456C109.549 101.699 109.885 100.16 109.973 97.7373H109.089V96.2045H111.754ZM121.858 96.4521C121.847 97.8906 122.802 99.6239 125.632 100.084L124.818 101.652C122.819 101.286 121.528 100.296 120.844 99.0226C120.137 100.284 118.84 101.275 116.871 101.652L116.069 100.084C118.84 99.6121 119.819 97.8553 119.819 96.4521V95.7093H121.858V96.4521ZM125.891 103.244V104.788H115.928V103.244H125.891Z" fill="#3E4758"/>
<path d="M115.156 78.07L116.53 77.5608C116.53 77.5608 116.581 77.548 116.594 77.5353L126.065 74.06C126.753 73.8054 127.224 73.2325 127.364 72.5578C127.44 72.2014 127.415 71.8067 127.287 71.4376C126.893 70.381 125.722 69.8336 124.665 70.2282L124.359 70.3428C126.014 68.8915 127.669 67.5167 129.337 66.2182C135.537 61.3935 141.838 57.6381 148.063 55.0411C152.837 53.0552 157.547 51.7695 162.054 51.2094C162.945 51.0948 163.632 50.4328 163.81 49.6054C163.861 49.389 163.861 49.1598 163.836 48.9307C163.696 47.8104 162.677 47.0084 161.557 47.1484C156.681 47.7468 151.615 49.1343 146.497 51.2603C139.929 53.9845 133.309 57.9309 126.829 62.9848C125.276 64.1941 123.723 65.4799 122.183 66.8165C122.323 66.5619 122.475 66.3073 122.628 66.04C122.743 65.849 122.819 65.6453 122.857 65.4417C123.036 64.6015 122.666 63.6976 121.89 63.2521C120.91 62.6792 119.662 63.0229 119.102 63.9904C117.867 66.1164 116.874 67.8349 115.894 69.5662C114.914 71.2848 113.921 73.0034 112.699 75.1166C112.673 75.1675 112.648 75.2057 112.622 75.2566C112.546 75.4094 112.495 75.5621 112.469 75.7276C112.342 76.3259 112.495 76.9752 112.902 77.4589C113.45 78.1209 114.366 78.3628 115.168 78.07H115.156Z" fill="#3790FF"/>
<path d="M116.125 80.7178L117.5 80.2086C117.5 80.2086 117.577 80.1831 117.602 80.1704L127.048 76.7078C128.639 76.1222 129.785 74.7983 130.129 73.1434C130.319 72.2523 130.256 71.323 129.938 70.47C129.836 70.1772 129.696 69.9099 129.543 69.6553C130.052 69.2352 130.561 68.8406 131.071 68.4459C137.066 63.774 143.151 60.1459 149.147 57.6508C153.692 55.7667 158.148 54.5446 162.4 54.01C164.462 53.7553 166.13 52.215 166.562 50.1782C166.677 49.6562 166.702 49.1088 166.626 48.5869C166.461 47.3012 165.811 46.1427 164.793 45.3407C163.762 44.5387 162.489 44.1823 161.203 44.3478C156.073 44.9843 150.764 46.4355 145.405 48.6506C138.607 51.4767 131.771 55.5376 125.087 60.7442C124.782 60.9733 124.489 61.2152 124.183 61.4571C123.916 61.2025 123.623 60.9861 123.292 60.7951C120.975 59.4457 117.984 60.235 116.647 62.5646C115.4 64.716 114.394 66.46 113.426 68.1531C112.459 69.8335 111.466 71.5776 110.231 73.7035C110.168 73.8053 110.117 73.9199 110.053 74.0345C109.887 74.3909 109.76 74.7601 109.671 75.142C109.366 76.6187 109.735 78.1209 110.702 79.2666C112.013 80.8324 114.19 81.4052 116.1 80.7051L116.125 80.7178ZM126.068 74.0599L116.596 77.5353C116.596 77.5353 116.558 77.548 116.533 77.5607L115.158 78.0699C114.343 78.3627 113.439 78.1209 112.892 77.4589C112.484 76.9751 112.332 76.3259 112.459 75.7276C112.497 75.5621 112.548 75.4093 112.612 75.2566C112.637 75.2057 112.663 75.1675 112.688 75.1165C113.923 73.0033 114.903 71.2848 115.883 69.5662C116.864 67.8476 117.857 66.1163 119.091 63.9904C119.652 63.0102 120.912 62.6792 121.879 63.252C122.656 63.7103 123.025 64.6014 122.847 65.4416C122.809 65.6453 122.732 65.849 122.618 66.0399C122.465 66.3073 122.312 66.5619 122.172 66.8165C123.725 65.4671 125.278 64.1941 126.819 62.9847C133.298 57.9308 139.918 53.9972 146.487 51.2602C151.604 49.1343 156.671 47.7467 161.547 47.1484C162.667 47.0084 163.685 47.8104 163.825 48.9306C163.851 49.1598 163.838 49.3889 163.8 49.6053C163.622 50.4328 162.934 51.1075 162.043 51.2093C157.537 51.7695 152.826 53.0552 148.053 55.0411C141.828 57.6253 135.526 61.3934 129.327 66.2182C127.672 67.5039 126.004 68.8915 124.349 70.3427L124.655 70.2282C125.711 69.8335 126.882 70.3809 127.277 71.4375C127.417 71.8067 127.43 72.2013 127.353 72.5578C127.213 73.2197 126.742 73.8053 126.055 74.0599H126.068Z" fill="white"/>
<path d="M48.2969 220.281V221.469H44.0625V224.891H49.7656V226.109H36.9531V224.891H42.5938V221.469H38.5469V214.906H48.1719V216.109H40.0312V220.281H48.2969ZM55.6875 216.859C55.6875 218.5 56.9531 220.062 59.0938 220.672L58.3906 221.859C56.7812 221.375 55.5938 220.352 54.9688 219.047C54.3516 220.484 53.1328 221.586 51.5 222.109L50.7656 220.953C52.9062 220.312 54.2188 218.656 54.2188 216.859V216.656H51.1719V215.469H54.2188V213.781H55.7031V215.469H58.7344V216.656H55.6875V216.859ZM61.7812 213.828V217.469H63.8125V218.734H61.7812V222.391H60.2969V213.828H61.7812ZM61.7812 223.062V227.844H60.2969V224.266H52.5312V223.062H61.7812ZM75.9062 215.125V216.438C75.8906 218.141 75.9062 220.078 75.3125 222.984L73.8594 222.828C74.1172 221.633 74.2656 220.578 74.3438 219.625L65.9219 220.125L65.7031 218.844L74.4219 218.5C74.4531 217.75 74.4531 217.07 74.4531 216.438V216.344H66.125V215.125H75.9062ZM77.375 224.781V226.016H64.6094V224.781H69.4688V221.234H70.9375V224.781H77.375ZM89.7812 220.469V221.688H80.0312V215.078H89.6562V216.297H81.5V220.469H89.7812ZM91.25 224.75V225.984H78.4375V224.75H91.25ZM105.062 220.25V221.391H92.25V220.25H105.062ZM103.484 222.375V225.453H95.2656V226.609H103.922V227.656H93.7812V224.469H102.016V223.438H93.7656V222.375H103.484ZM103.453 214.188V217.219H95.3594V218.281H103.688V219.328H93.8906V216.234H101.969V215.234H93.8594V214.188H103.453ZM122.047 213.828V227.828H120.625V220.531H118.891V227.141H117.484V214.094H118.891V219.312H120.625V213.828H122.047ZM115.906 215.406V224.141H110.469V215.406H115.906ZM111.875 216.578V222.953H114.516V216.578H111.875ZM128.719 216.406C128.719 218.188 129.953 219.812 132.078 220.484L131.375 221.641C129.781 221.133 128.617 220.078 128 218.75C127.391 220.281 126.164 221.492 124.484 222.078L123.719 220.891C125.906 220.172 127.219 218.359 127.234 216.422V216.031H124.156V214.828H131.734V216.031H128.719V216.406ZM134.828 213.828V217.297H136.859V218.516H134.828V222.234H133.344V213.828H134.828ZM130.312 222.578C133.203 222.578 134.953 223.531 134.953 225.172C134.953 226.828 133.203 227.812 130.312 227.797C127.391 227.812 125.609 226.828 125.609 225.172C125.609 223.531 127.391 222.578 130.312 222.578ZM130.312 223.75C128.281 223.75 127.078 224.266 127.094 225.172C127.078 226.109 128.281 226.625 130.312 226.625C132.328 226.625 133.5 226.109 133.5 225.172C133.5 224.266 132.328 223.75 130.312 223.75ZM152.562 213.844V217.156H154.594V218.359H152.562V221.719H151.078V213.844H152.562ZM152.891 222.422V223.609H151.031V226.406H153.078V227.609H143.391V226.406H145.406V223.609H143.5V222.422H152.891ZM145.5 214.609C147.641 214.609 149.219 215.969 149.234 217.922C149.219 219.859 147.641 221.219 145.5 221.219C143.359 221.219 141.766 219.859 141.781 217.922C141.766 215.969 143.359 214.609 145.5 214.609ZM145.5 215.859C144.188 215.844 143.219 216.672 143.234 217.922C143.219 219.156 144.188 219.969 145.5 219.984C146.812 219.969 147.781 219.156 147.781 217.922C147.781 216.672 146.812 215.844 145.5 215.859ZM146.844 226.406H149.578V223.609H146.844V226.406ZM164.172 215.938C164.156 217.547 165.453 219.062 167.609 219.672L166.906 220.828C165.289 220.367 164.086 219.359 163.453 218.078C162.836 219.539 161.586 220.656 159.859 221.172L159.141 220.016C161.328 219.359 162.672 217.719 162.672 215.953V215.766H159.609V214.578H167.188V215.766H164.172V215.938ZM170.297 213.828V216.781H172.328V218H170.297V221.031H168.812V213.828H170.297ZM170.297 221.641V225.125H162.734V226.531H170.781V227.688H161.281V224.047H168.828V222.797H161.25V221.641H170.297ZM189.844 224.859V226.094H177.031V224.859H182.672V221.984H178.5V214.781H179.984V217.188H186.859V214.781H188.328V221.984H184.141V224.859H189.844ZM179.984 220.781H186.859V218.391H179.984V220.781ZM202.453 213.828V227.859H200.969V213.828H202.453ZM194.969 214.875C197.047 214.875 198.578 216.781 198.578 219.781C198.578 222.797 197.047 224.703 194.969 224.703C192.859 224.703 191.344 222.797 191.344 219.781C191.344 216.781 192.859 214.875 194.969 214.875ZM194.969 216.203C193.672 216.203 192.781 217.578 192.781 219.781C192.781 222 193.672 223.375 194.969 223.375C196.25 223.375 197.141 222 197.141 219.781C197.141 217.578 196.25 216.203 194.969 216.203ZM216.016 217.922V219.109H206.375V214.328H207.844V217.922H216.016ZM217.484 220.875V222.062H204.672V220.875H217.484ZM216.109 226.281V227.5H206.266V223.391H207.75V226.281H216.109ZM233.578 214.5V215.516C233.578 216.578 233.578 217.797 233.234 219.422L231.766 219.266C232.094 217.75 232.109 216.664 232.109 215.672H223.922V214.5H233.578ZM235.172 220.312V221.5H222.438V220.312H227.547V217.562H229V220.312H235.172ZM229.5 223.094C229.484 224.812 231.469 226.234 234.219 226.609L233.656 227.766C231.438 227.43 229.609 226.453 228.75 225.016C227.883 226.453 226.047 227.43 223.844 227.766L223.312 226.609C226.016 226.234 227.984 224.812 228 223.094V222.531H229.5V223.094ZM248.297 213.828V227.828H246.875V213.828H248.297ZM245.453 214.094V227.141H244.031V220.391H242.453C242.328 223.125 241.156 224.828 239.422 224.812C237.594 224.828 236.406 222.906 236.406 219.875C236.406 216.844 237.594 214.938 239.422 214.953C241.125 214.938 242.281 216.555 242.453 219.188H244.031V214.094H245.453ZM239.422 216.344C238.406 216.344 237.781 217.641 237.781 219.875C237.781 222.109 238.406 223.406 239.422 223.406C240.453 223.406 241.094 222.109 241.094 219.875C241.094 217.641 240.453 216.344 239.422 216.344ZM113.625 237.828V251.859H112.141V237.828H113.625ZM104.297 239V242.594H108.062V239H109.531V248.5H102.812V239H104.297ZM104.297 247.281H108.062V243.766H104.297V247.281ZM127.453 237.828V251.828H125.969V237.828H127.453ZM121.125 242.328C121.125 244.562 122.609 246.844 124.781 247.766L123.969 248.906C122.359 248.203 121.07 246.75 120.422 244.984C119.789 246.852 118.523 248.406 116.891 249.141L116.062 248C118.234 247.031 119.672 244.672 119.672 242.328V241.406H116.484V240.219H119.656V238.109H121.125V240.219H124.266V241.406H121.125V242.328ZM136.609 240.141V241.344H129.656V240.141H132.406V238.234H133.875V240.141H136.609ZM133.141 242.188C134.922 242.188 136.172 243.516 136.188 245.406C136.172 247.312 134.922 248.656 133.141 248.656C131.391 248.656 130.094 247.312 130.109 245.406C130.094 243.516 131.391 242.188 133.141 242.188ZM133.141 243.422C132.125 243.422 131.422 244.25 131.422 245.406C131.422 246.594 132.125 247.391 133.141 247.391C134.141 247.391 134.875 246.594 134.875 245.406C134.875 244.25 134.141 243.422 133.141 243.422ZM141.672 237.828V251.828H140.266V244.875H138.656V251.172H137.25V238.141H138.656V243.656H140.266V237.828H141.672ZM156.281 245.719V246.922H150.594V251.812H149.141V246.922H143.516V245.719H156.281ZM155.078 238.656V239.844H150.75C150.773 241.578 152.93 243.125 155.578 243.484L155.031 244.656C152.734 244.297 150.75 243.164 149.906 241.562C149.039 243.164 147.062 244.297 144.797 244.656L144.234 243.484C146.852 243.125 149.008 241.578 149.062 239.844H144.703V238.656H155.078ZM161.609 241.656C161.609 243.891 162.547 246.281 164.422 247.422L163.594 248.562C162.281 247.773 161.391 246.375 160.922 244.75C160.398 246.531 159.438 248.047 158.078 248.875L157.156 247.766C159.141 246.578 160.172 244.109 160.172 241.719V239.109H161.609V241.656ZM169.391 237.828V251.828H167.969V237.828H169.391ZM166.484 238.094V251.141H165.078V243.984H162.906V242.75H165.078V238.094H166.484ZM183.984 248.844V250.078H171.172V248.844H174.234V245.188C173.086 244.555 172.391 243.547 172.391 242.297C172.391 240.094 174.547 238.641 177.547 238.641C180.562 238.641 182.719 240.094 182.719 242.297C182.719 243.531 182.047 244.523 180.922 245.156V248.844H183.984ZM177.547 239.828C175.344 239.828 173.828 240.781 173.828 242.297C173.828 243.797 175.344 244.781 177.547 244.781C179.734 244.781 181.281 243.797 181.281 242.297C181.281 240.781 179.734 239.828 177.547 239.828ZM175.703 248.844H179.422V245.719C178.852 245.867 178.219 245.938 177.547 245.938C176.891 245.938 176.266 245.867 175.703 245.734V248.844Z" fill="#3E4758"/>
<path fill-rule="evenodd" clip-rule="evenodd" d="M20.8 16.5C18.149 16.5 16 18.649 16 21.3V35.7C16 38.351 18.149 40.5 20.8 40.5H35.2C37.851 40.5 40 38.351 40 35.7V21.3C40 18.649 37.851 16.5 35.2 16.5H20.8ZM30.6934 35.7719V22.0135H27.6719L24.2703 24.1418V26.9543L27.3678 25.054H27.4438V35.7719H30.6934Z" fill="#3E4758"/>
</svg>
