<svg width="16" height="16" viewBox="0 0 16 16" fill="none" xmlns="http://www.w3.org/2000/svg">
<g id="account-multiple">
<path id="Vector" d="M10.6673 11.3347V12.668H1.33398V11.3347C1.33398 11.3347 1.33398 8.668 6.00065 8.668C10.6673 8.668 10.6673 11.3347 10.6673 11.3347ZM8.33398 5.00134C8.33398 4.53985 8.19714 4.08872 7.94075 3.70501C7.68436 3.32129 7.31994 3.02222 6.89358 2.84562C6.46722 2.66901 5.99806 2.62281 5.54544 2.71284C5.09282 2.80287 4.67706 3.0251 4.35074 3.35142C4.02441 3.67774 3.80218 4.0935 3.71215 4.54613C3.62212 4.99875 3.66833 5.4679 3.84493 5.89426C4.02154 6.32063 4.32061 6.68504 4.70432 6.94143C5.08804 7.19782 5.53916 7.33467 6.00065 7.33467C6.61949 7.33467 7.21298 7.08884 7.65057 6.65125C8.08815 6.21367 8.33398 5.62018 8.33398 5.00134ZM10.6273 8.668C11.0371 8.98517 11.3725 9.38829 11.6098 9.84901C11.847 10.3097 11.9805 10.8168 12.0007 11.3347V12.668H14.6673V11.3347C14.6673 11.3347 14.6673 8.91467 10.6273 8.668ZM10.0007 2.668C9.54178 2.66545 9.09299 2.80264 8.71398 3.06134C9.11894 3.62716 9.33669 4.30553 9.33669 5.00134C9.33669 5.69715 9.11894 6.37551 8.71398 6.94134C9.09299 7.20003 9.54178 7.33723 10.0007 7.33467C10.6195 7.33467 11.213 7.08884 11.6506 6.65125C12.0882 6.21367 12.334 5.62018 12.334 5.00134C12.334 4.3825 12.0882 3.78901 11.6506 3.35142C11.213 2.91384 10.6195 2.668 10.0007 2.668Z" fill="#97A2BB"/>
</g>
</svg>
