<svg width="8" height="8" viewBox="0 0 8 8" fill="none" xmlns="http://www.w3.org/2000/svg">
<path d="M4.46429 1H5.01429V0.45H4.46429V1ZM3.75 1V0.45H3.2V1H3.75ZM3.75 3.75V4.3H4.3V3.75H3.75ZM1 3.75V3.2H0.45V3.75H1ZM1 4.46429H0.45V5.01429H1V4.46429ZM3.75 4.46429H4.3V3.91429H3.75V4.46429ZM3.75 7.21429H3.2V7.76429H3.75V7.21429ZM4.46429 7.21429V7.76429H5.01429V7.21429H4.46429ZM4.46429 4.46429V3.91429H3.91429V4.46429H4.46429ZM7.21429 4.46429V5.01429H7.76429V4.46429H7.21429ZM7.21429 3.75H7.76429V3.2H7.21429V3.75ZM4.46429 3.75H3.91429V4.3H4.46429V3.75ZM3.91429 1V1.35714H5.01429V1H3.91429ZM3.75 1.55H4.46429V0.45H3.75V1.55ZM4.3 1.35714V1H3.2V1.35714H4.3ZM4.3 3.75V1.35714H3.2V3.75H4.3ZM1.35714 4.3H3.75V3.2H1.35714V4.3ZM1 4.3H1.35714V3.2H1V4.3ZM1.55 4.46429V3.75H0.45V4.46429H1.55ZM1.35714 3.91429H1V5.01429H1.35714V3.91429ZM3.75 3.91429H1.35714V5.01429H3.75V3.91429ZM4.3 6.85714V4.46429H3.2V6.85714H4.3ZM4.3 7.21429V6.85714H3.2V7.21429H4.3ZM4.46429 6.66429H3.75V7.76429H4.46429V6.66429ZM3.91429 6.85714V7.21429H5.01429V6.85714H3.91429ZM3.91429 4.46429V6.85714H5.01429V4.46429H3.91429ZM6.85714 3.91429H4.46429V5.01429H6.85714V3.91429ZM7.21429 3.91429H6.85714V5.01429H7.21429V3.91429ZM6.66429 3.75V4.46429H7.76429V3.75H6.66429ZM6.85714 4.3H7.21429V3.2H6.85714V4.3ZM4.46429 4.3H6.85714V3.2H4.46429V4.3ZM3.91429 1.35714V3.75H5.01429V1.35714H3.91429Z" fill="#969FAC"/>
</svg>
