<svg width="74" height="26" viewBox="0 0 74 26" fill="none" xmlns="http://www.w3.org/2000/svg">
<g filter="url(#filter0_b_87_50736)">
<path d="M0 8C0 3.58172 3.58172 0 8 0H66C70.4183 0 74 3.58172 74 8V18C74 22.4183 70.4183 26 66 26H8C3.58172 26 0 22.4183 0 18V8Z" fill="#F02D1E"/>
<path d="M0.5 8C0.5 3.85786 3.85786 0.5 8 0.5H66C70.1421 0.5 73.5 3.85786 73.5 8V18C73.5 22.1421 70.1421 25.5 66 25.5H8C3.85786 25.5 0.5 22.1421 0.5 18V8Z" stroke="black" stroke-opacity="0.1"/>
<path fill-rule="evenodd" clip-rule="evenodd" d="M13.6412 19.2337H11.9141C10.5064 19.126 8.5 17.2453 8.5 15.0167C8.5 12.4716 10.0895 11.3465 10.0895 11.3465C10.4498 12.1584 10.9271 12.5561 11.4853 12.6389C11.1294 11.711 11.2103 10.4351 11.2103 10.4351C11.2912 9.09299 12.4319 6.79807 14.2927 6.40039C14.3655 7.58513 14.8671 8.84444 15.6114 9.61494C15.8132 9.8238 16.0668 10.0378 16.3422 10.2701C17.3956 11.159 18.7667 12.3159 18.7667 14.4782C18.7667 16.218 18.1708 17.1069 17.6664 17.7342C17.1001 18.4384 15.8541 19.2337 14.9195 19.2337H13.6412ZM13.6048 18.1312C12.7683 18.1312 11.757 17.5106 11.7115 16.325C11.6781 15.4548 12.198 14.9063 12.7794 14.4941C13.8333 13.7469 13.71 12.6797 13.71 12.6797C14.5433 13.3922 15.6261 14.5943 15.5788 16.1428C15.5384 17.4684 14.5997 18.1312 13.6048 18.1312Z" fill="white"/>
<path d="M29.3881 8.84659V13.6421H24.5926V8.84659H29.3881ZM25.9753 9.9659V12.5447H28.0054V9.9659H25.9753ZM32.2193 8.02357V10.8987H33.569V12.0509H32.2193V15.3101H30.8146V8.02357H32.2193ZM32.5814 16.7147V17.834H25.7448V14.5968H27.1385V16.7147H32.5814ZM37.75 9.58182C37.739 10.8218 38.4413 12.0289 40.0215 12.5337L39.2753 13.6421C38.1999 13.2799 37.4701 12.5612 37.0476 11.6558C36.6032 12.6435 35.8296 13.4171 34.6993 13.8176L33.9421 12.6983C35.6101 12.1606 36.3234 10.8548 36.3344 9.49403V8.53933H37.75V9.58182ZM42.4247 14.4212V18.0096H41.0311V15.5295H35.5662V14.4212H42.4247ZM42.4247 8.02357V13.9713H41.0311V11.0303H39.1546V9.87811H41.0311V8.02357H42.4247ZM54.6713 8.03454V13.675H53.2667V8.03454H54.6713ZM54.6713 14.1249V17.8998H47.9774V14.1249H54.6713ZM49.3601 15.2332V16.7805H53.2996V15.2332H49.3601ZM49.1955 8.48446C50.7537 8.48446 51.9279 9.47209 51.9279 10.8987C51.9279 12.2704 50.7537 13.2799 49.1955 13.2799C47.6372 13.2799 46.463 12.2704 46.463 10.8987C46.463 9.47209 47.6372 8.48446 49.1955 8.48446ZM49.1955 9.65864C48.3944 9.65864 47.8238 10.1195 47.8347 10.8987C47.8238 11.6449 48.3944 12.1058 49.1955 12.1058C49.9746 12.1058 50.5452 11.6449 50.5452 10.8987C50.5452 10.1195 49.9746 9.65864 49.1955 9.65864ZM63.944 8.02357V10.4707H65.2938V11.601H63.944V14.0261H62.5394V8.02357H63.944ZM63.944 14.4651V18.0096H62.5394V15.5734H57.2172V14.4651H63.944ZM57.711 8.64907V9.97687H59.7521V8.64907H61.1567V13.4994H56.3173V8.64907H57.711ZM57.711 12.3911H59.7521V11.0633H57.711V12.3911Z" fill="white"/>
</g>
<defs>
<filter id="filter0_b_87_50736" x="-4" y="-4" width="82" height="34" filterUnits="userSpaceOnUse" color-interpolation-filters="sRGB">
<feFlood flood-opacity="0" result="BackgroundImageFix"/>
<feGaussianBlur in="BackgroundImageFix" stdDeviation="2"/>
<feComposite in2="SourceAlpha" operator="in" result="effect1_backgroundBlur_87_50736"/>
<feBlend mode="normal" in="SourceGraphic" in2="effect1_backgroundBlur_87_50736" result="shape"/>
</filter>
</defs>
</svg>
