<svg width="68" height="22" viewBox="0 0 68 22" fill="none" xmlns="http://www.w3.org/2000/svg">
<rect x="0.4" y="0.4" width="66.4857" height="21.2" rx="3.6" fill="#FEFAFA"/>
<rect x="0.4" y="0.4" width="66.4857" height="21.2" rx="3.6" stroke="url(#paint0_linear_6_6814)" stroke-width="0.8"/>
<path d="M9.35511 16.3428H10.8354H11.9311C12.7323 16.3428 13.8002 15.6611 14.2856 15.0575C14.718 14.5198 15.2287 13.7579 15.2287 12.2666C15.2287 9.92874 13.3588 8.96207 12.5242 8.09815C11.8862 7.43772 11.4563 6.35831 11.3939 5.34282C9.79892 5.68368 8.82115 7.65076 8.7518 8.80118C8.7518 8.80118 8.68245 9.89479 8.98758 10.6901C8.50909 10.6191 8.09995 10.2783 7.79115 9.58233C7.79115 9.58233 6.42871 10.5467 6.42871 12.7282C6.42871 14.6385 8.14849 16.2505 9.35511 16.3428Z" fill="#F02D1E"/>
<path d="M9.18148 13.8503C9.22048 14.8665 10.0873 15.3984 10.8043 15.3984C11.6571 15.3984 12.4617 14.8303 12.4964 13.6941C12.5369 12.3668 11.6087 11.3364 10.8945 10.7257C10.8945 10.7257 11.0001 11.6405 10.0968 12.2809C9.5985 12.6342 9.15285 13.1044 9.18148 13.8503Z" fill="#F9C6C6"/>
<path d="M24.6737 11.6421H19.8782V6.84659H24.6737V11.6421ZM21.2609 10.5447H23.291V7.9659H21.2609V10.5447ZM27.5049 8.89866H28.8547V10.0509H27.5049V13.3101H26.1003V6.02357H27.5049V8.89866ZM27.867 15.834H21.0305V12.5968H22.4241V14.7147H27.867V15.834ZM33.0356 7.58182C33.0319 8.0098 33.1106 8.41765 33.2715 8.80538C33.4361 9.18946 33.6885 9.5333 34.0287 9.83691C34.3726 10.1405 34.7987 10.3728 35.3071 10.5337L34.5609 11.6421C34.0379 11.4665 33.5898 11.2086 33.2167 10.8684C32.8472 10.5282 32.5528 10.124 32.3333 9.65584C32.1065 10.1643 31.7956 10.6032 31.4005 10.9727C31.0091 11.3421 30.5373 11.6238 29.9849 11.8176L29.2278 10.6983C29.7655 10.5264 30.2117 10.2777 30.5665 9.95213C30.9214 9.62292 31.1847 9.24982 31.3566 8.83282C31.5286 8.41216 31.6164 7.9659 31.62 7.49403V6.53933H33.0356V7.58182ZM37.7104 16.0096H36.3167V13.5295H30.8519V12.4212H37.7104V16.0096ZM37.7104 11.9713H36.3167V9.03034H34.4402V7.87811H36.3167V6.02357H37.7104V11.9713ZM49.9569 11.675H48.5523V6.03454H49.9569V11.675ZM49.9569 15.8998H43.263V12.1249H49.9569V15.8998ZM44.6457 14.7805H48.5852V13.2332H44.6457V14.7805ZM44.4811 6.48446C44.9969 6.48446 45.4614 6.58688 45.8748 6.79172C46.2918 6.99656 46.6191 7.28188 46.8569 7.64767C47.0947 8.01345 47.2135 8.43045 47.2135 8.89866C47.2135 9.34858 47.0947 9.7546 46.8569 10.1167C46.6191 10.4789 46.2918 10.7642 45.8748 10.9727C45.4578 11.1775 44.9932 11.2799 44.4811 11.2799C43.969 11.2799 43.5045 11.1775 43.0875 10.9727C42.6705 10.7642 42.3431 10.4789 42.1053 10.1167C41.8676 9.7546 41.7487 9.34858 41.7487 8.89866C41.7487 8.43045 41.8676 8.01345 42.1053 7.64767C42.3431 7.28188 42.6686 6.99656 43.082 6.79172C43.499 6.58688 43.9653 6.48446 44.4811 6.48446ZM44.4811 7.65864C44.2141 7.65864 43.9763 7.70802 43.7678 7.80678C43.563 7.90555 43.402 8.0482 43.285 8.23476C43.1716 8.42131 43.1167 8.64261 43.1204 8.89866C43.1167 9.14374 43.1716 9.35772 43.285 9.54062C43.402 9.71985 43.563 9.85885 43.7678 9.95762C43.9763 10.0564 44.2141 10.1058 44.4811 10.1058C44.7408 10.1058 44.9731 10.0564 45.1779 9.95762C45.3828 9.85885 45.5419 9.71985 45.6553 9.54062C45.7723 9.35772 45.8309 9.14374 45.8309 8.89866C45.8309 8.64261 45.7723 8.42131 45.6553 8.23476C45.5419 8.0482 45.3828 7.90555 45.1779 7.80678C44.9731 7.70802 44.7408 7.65864 44.4811 7.65864ZM59.2297 8.47069H60.5794V9.60097H59.2297V12.0261H57.825V6.02357H59.2297V8.47069ZM59.2297 16.0096H57.825V13.5734H52.5028V12.4651H59.2297V16.0096ZM52.9966 7.97687H55.0377V6.64907H56.4424V11.4994H51.603V6.64907H52.9966V7.97687ZM55.0377 10.3911V9.06326H52.9966V10.3911H55.0377Z" fill="#F02D1E"/>
<defs>
<linearGradient id="paint0_linear_6_6814" x1="0" y1="11" x2="67.2857" y2="11" gradientUnits="userSpaceOnUse">
<stop stop-color="#F26947"/>
<stop offset="1" stop-color="#F13333"/>
</linearGradient>
</defs>
</svg>
