<svg width="24" height="24" viewBox="0 0 24 24" fill="none" xmlns="http://www.w3.org/2000/svg">
<path d="M12.5654 20.5655C12.253 20.8779 11.747 20.8779 11.4346 20.5655L3.43456 12.5655C3.12217 12.2531 3.12215 11.747 3.43456 11.4346L11.4346 3.4346C11.747 3.12222 12.253 3.12222 12.5654 3.4346C12.8778 3.74701 12.8778 4.25304 12.5654 4.56546L5.93065 11.2002L20 11.2002C20.4418 11.2002 20.7998 11.5582 20.7998 12C20.7998 12.4419 20.4418 12.7999 20 12.7999L5.93065 12.7998L12.5654 19.4346L12.6201 19.4952C12.8766 19.8094 12.8584 20.2725 12.5654 20.5655Z" fill="#2E3137"/>
</svg>
