<svg width="93" height="27" viewBox="0 0 93 27" fill="none" xmlns="http://www.w3.org/2000/svg">
<g filter="url(#filter0_b_87_50795)">
<rect y="0.5" width="93" height="26" rx="8" fill="#3A37C8"/>
<rect x="0.5" y="1" width="92" height="25" rx="7.5" stroke="black" stroke-opacity="0.1"/>
<path d="M11.6347 7.5C11.0642 7.5 10.564 7.87962 10.4124 8.42758L9.02314 13.4507C8.91192 13.8528 9.21559 14.25 9.63427 14.25H11.9136L9.85173 18.5987C9.65308 19.0176 9.95983 19.5 10.4249 19.5H10.9675C11.1756 19.5 11.376 19.4215 11.5285 19.2804L18.6145 12.7192C19.0365 12.3285 18.759 11.625 18.183 11.625H15.6821L17.7162 8.47315C17.9874 8.05283 17.6845 7.5 17.183 7.5H11.6347Z" fill="white"/>
<path fill-rule="evenodd" clip-rule="evenodd" d="M12.3879 13.95L10.1228 18.7272C10.0193 18.9455 10.1783 19.2 10.4249 19.2H10.9675C11.1002 19.2 11.2278 19.15 11.3247 19.0603L18.4107 12.499C18.6307 12.2954 18.4885 11.925 18.183 11.925H15.1315L17.4641 8.31048C17.6054 8.09146 17.4489 7.8 17.183 7.8H11.6347C11.1985 7.8 10.817 8.09023 10.7016 8.50755L9.31229 13.5306C9.25431 13.7403 9.41237 13.95 9.63427 13.95H12.3879ZM17.7162 8.47315C17.9874 8.05283 17.6845 7.5 17.183 7.5H11.6347C11.0642 7.5 10.564 7.87962 10.4124 8.42758L9.02314 13.4507C8.91192 13.8528 9.21559 14.25 9.63427 14.25H11.9136L9.85173 18.5987C9.65308 19.0176 9.95983 19.5 10.4249 19.5H10.9675C11.1756 19.5 11.376 19.4215 11.5285 19.2804L18.6145 12.7192C19.0365 12.3285 18.759 11.625 18.183 11.625H15.6821L17.7162 8.47315Z" fill="black" fill-opacity="0.08"/>
<path d="M27.9834 11.245C27.9725 12.7704 28.7845 14.5261 30.4305 15.2833L29.6514 16.3807C28.5376 15.8704 27.742 14.8499 27.3031 13.6483C26.8531 14.9706 26.0356 16.0899 24.8779 16.6331L24.0658 15.5247C25.7338 14.7456 26.5678 12.8911 26.5788 11.245V10.6305H24.4609V9.48925H29.9916V10.6305H27.9834V11.245ZM32.1754 8.52357V12.3314H33.6458V13.5056H32.1754V18.5096H30.7707V8.52357H32.1754ZM42.3808 8.52357V18.5315H40.9872V8.52357H42.3808ZM39.2863 9.35756V13.2093H35.9942V15.0419C37.514 15.0364 38.8089 14.9486 40.2739 14.7127L40.3946 15.843C38.7486 16.1283 37.2671 16.1941 35.4455 16.1941H34.5457V12.101H37.8597V10.4878H34.5347V9.35756H39.2863ZM47.4616 10.2355C47.4616 11.5303 48.153 12.8143 49.7441 13.341L48.987 14.4384C47.928 14.0488 47.1983 13.3136 46.7813 12.3863C46.3478 13.4288 45.5687 14.2518 44.411 14.6688L43.6538 13.5714C45.3218 13.0228 46.046 11.6511 46.046 10.2245V9.13809H47.4616V10.2355ZM52.1364 8.53454V15.9088H50.7427V11.7827H48.8663V10.6525H50.7427V8.53454H52.1364ZM52.3449 17.2147V18.334H45.4864V15.1297H46.902V17.2147H52.3449ZM61.8481 8.52357V14.2957H60.4544V11.9693H58.8742V10.828H60.4544V8.52357H61.8481ZM61.8481 14.7127V18.3998H55.1322V14.7127H61.8481ZM56.5368 15.8101V17.2805H60.4764V15.8101H56.5368ZM59.1924 9.02836V10.1586H57.2062C57.2282 11.2944 57.936 12.507 59.4997 13.0228L58.8084 14.1311C57.7 13.7635 56.9374 13.0392 56.5039 12.1339C56.0595 13.1325 55.2639 13.9281 54.0897 14.3067L53.3764 13.2093C54.9895 12.6935 55.7412 11.4206 55.7796 10.1586H53.7715V9.02836H59.1924ZM73.6118 8.52357V12.3534H75.0274V13.5056H73.6118V18.4876H72.2072V8.52357H73.6118ZM70.9452 9.54412C70.9342 12.5289 69.771 15.1187 66.4131 16.7648L65.623 15.6894C67.9878 14.5042 69.2553 12.913 69.5186 10.6854H66.1936V9.54412H70.9452ZM83.5429 11.0256V12.1449H76.5966V8.6772H77.9903V11.0256H83.5429ZM84.5745 13.0008V14.1421H75.4444V13.0008H84.5745ZM79.9875 14.7676C82.1493 14.7785 83.4551 15.4479 83.4661 16.6221C83.4551 17.8073 82.1493 18.4767 79.9875 18.4767C77.8037 18.4767 76.4869 17.8073 76.4869 16.6221C76.4869 15.4479 77.8037 14.7785 79.9875 14.7676ZM79.9875 15.854C78.6048 15.8649 77.9025 16.0954 77.9135 16.6221C77.9025 17.1379 78.6048 17.4122 79.9875 17.4122C81.3372 17.4122 82.0505 17.1379 82.0615 16.6221C82.0505 16.0954 81.3372 15.8649 79.9875 15.854Z" fill="white"/>
</g>
<defs>
<filter id="filter0_b_87_50795" x="-4" y="-3.5" width="101" height="34" filterUnits="userSpaceOnUse" color-interpolation-filters="sRGB">
<feFlood flood-opacity="0" result="BackgroundImageFix"/>
<feGaussianBlur in="BackgroundImageFix" stdDeviation="2"/>
<feComposite in2="SourceAlpha" operator="in" result="effect1_backgroundBlur_87_50795"/>
<feBlend mode="normal" in="SourceGraphic" in2="effect1_backgroundBlur_87_50795" result="shape"/>
</filter>
</defs>
</svg>
