<svg width="46" height="46" viewBox="0 0 46 46" fill="none" xmlns="http://www.w3.org/2000/svg">
<rect width="46" height="46" rx="8.49231" fill="#F8F9FA"/>
<rect x="0.530769" y="0.530769" width="44.9385" height="44.9385" rx="7.96154" stroke="black" stroke-opacity="0.05" stroke-width="1.06154"/>
<path d="M35.738 29.5181C35.738 31.4723 34.1542 33.0571 32.2 33.0571H13.7996C11.8455 33.0569 10.2615 31.4722 10.2615 29.5181V18.2251L22.3259 25.4634C22.9458 25.8351 23.7498 25.6337 24.1218 25.0142C24.154 24.9605 24.1801 24.9042 24.2039 24.8481L35.738 17.9292V29.5181ZM32.2 12.9438C33.6459 12.9438 34.8883 13.8114 35.4373 15.0542L22.7527 22.6646L10.4666 15.2935C10.9549 13.9241 12.2625 12.944 13.7996 12.9438H32.2Z" fill="#FC5C17"/>
</svg>
