<svg width="46" height="46" viewBox="0 0 46 46" fill="none" xmlns="http://www.w3.org/2000/svg">
<rect width="46" height="46" rx="8.49231" fill="#F8F9FA"/>
<rect x="0.530769" y="0.530769" width="44.9385" height="44.9385" rx="7.96154" stroke="black" stroke-opacity="0.05" stroke-width="1.06154"/>
<path d="M24.1696 9.56348C27.9479 9.75486 30.9662 12.8184 31.0895 16.6143H31.7809C33.7351 16.6143 35.3199 18.1981 35.3199 20.1523V32.9072C35.3199 34.8615 33.7351 36.4463 31.7809 36.4463H14.2184C12.2643 36.4461 10.6803 34.8614 10.6803 32.9072V20.1523C10.6803 18.1982 12.2643 16.6144 14.2184 16.6143H14.9098C15.033 12.8186 18.0517 9.75514 21.8297 9.56348L22.2057 9.55371H23.7946L24.1696 9.56348ZM23.0211 20.877C20.8715 20.877 19.1287 22.62 19.1285 24.7695C19.1287 26.4279 20.1664 27.8428 21.6276 28.4033V31.3457C21.6276 31.7345 21.9429 32.0497 22.3317 32.0498H23.6696C24.058 32.0494 24.3737 31.7343 24.3737 31.3457V28.4199C25.8561 27.8702 26.9126 26.4432 26.9127 24.7695C26.9126 22.6202 25.1704 20.8773 23.0211 20.877ZM22.2057 12.7217C20.0039 12.7218 18.2047 14.4437 18.0797 16.6143H27.9205C27.7956 14.4438 25.9963 12.7219 23.7946 12.7217H22.2057Z" fill="#FC5C17"/>
</svg>
