<svg width="46" height="46" viewBox="0 0 46 46" fill="none" xmlns="http://www.w3.org/2000/svg">
<rect width="46" height="46" rx="8.49231" fill="#F8F9FA"/>
<rect x="0.530769" y="0.530769" width="44.9385" height="44.9385" rx="7.96154" stroke="black" stroke-opacity="0.05" stroke-width="1.06154"/>
<path d="M23.0001 22.7153C29.6528 22.7154 35.0402 27.2673 35.0402 32.8862C35.0401 33.875 34.2389 34.6763 33.2501 34.6763H12.7491C11.7606 34.676 10.9591 33.8749 10.9591 32.8862C10.9591 27.2673 16.3474 22.7153 23.0001 22.7153ZM23.0021 9.90771C26.1317 9.90794 28.669 12.3221 28.6691 15.3003C28.6691 18.2785 26.1317 20.6926 23.0021 20.6929C19.8722 20.6929 17.3341 18.2787 17.3341 15.3003C17.3341 12.3219 19.8722 9.90771 23.0021 9.90771Z" fill="#FC5C17"/>
</svg>
