<svg width="18" height="19" viewBox="0 0 18 19" fill="none" xmlns="http://www.w3.org/2000/svg">
<g clip-path="url(#clip0_1545_63231)">
<path d="M14.4111 1.69377C14.4111 1.69377 14.4111 2.63738 13.0198 3.35921" stroke="black" stroke-width="0.8" stroke-linecap="round"/>
<circle cx="8.43523" cy="10.6956" r="6.57124" transform="rotate(32 8.43523 10.6956)" fill="url(#paint0_linear_1545_63231)"/>
<mask id="mask0_1545_63231" style="mask-type:luminance" maskUnits="userSpaceOnUse" x="1" y="4" width="15" height="14">
<circle cx="8.43523" cy="10.6956" r="6.57124" transform="rotate(32 8.43523 10.6956)" fill="white"/>
</mask>
<g mask="url(#mask0_1545_63231)">
<path fill-rule="evenodd" clip-rule="evenodd" d="M1.85826 14.2976C2.37994 15.7019 3.35268 16.9511 4.72135 17.8063C8.0138 19.8636 12.3507 18.8624 14.408 15.5699C15.8165 13.316 15.7915 10.5726 14.5793 8.40612C14.5793 8.40612 14.0302 12.4798 10.3719 14.4027C5.83923 16.7852 1.85826 14.2976 1.85826 14.2976Z" fill="#11181C"/>
</g>
<path fill-rule="evenodd" clip-rule="evenodd" d="M9.65485 4.30814L10.1384 3.53426C10.5857 2.81851 11.4853 2.57386 12.201 3.02111L13.6853 3.9486C14.4011 4.39585 14.5755 5.31166 14.1283 6.02741L13.6843 6.73788L9.65485 4.30814Z" fill="url(#paint1_linear_1545_63231)"/>
<path d="M10.0143 3.73121L9.67506 3.51924C9.61826 3.61015 9.60032 3.72004 9.62526 3.82429C9.6502 3.92854 9.71595 4.01841 9.80774 4.07376L10.0143 3.73121ZM10.1392 3.53133L10.4784 3.7433L10.1392 3.53133ZM10.0149 3.73159L10.3541 3.94356C10.4109 3.85266 10.4289 3.74276 10.4039 3.63851C10.379 3.53426 10.3132 3.44439 10.2215 3.38904L10.0149 3.73159ZM9.75216 4.15209L9.67331 4.54424C9.83659 4.57707 10.0031 4.5053 10.0914 4.36406L9.75216 4.15209ZM13.7706 6.68472L13.4508 6.92501L13.4508 6.92502L13.7706 6.68472ZM14.1045 6.06375L13.7653 5.85177L13.7625 5.85624L14.1045 6.06375ZM14.1291 6.02448L13.7898 5.81251L14.1291 6.02448ZM14.1609 5.97131L13.8199 5.76199L13.8141 5.77202L14.1609 5.97131ZM14.2107 5.89067L14.5502 6.10214C14.6083 6.00897 14.6254 5.89605 14.5978 5.78983C14.5701 5.68361 14.5 5.59343 14.4039 5.54042L14.2107 5.89067ZM14.2057 5.88793L13.8481 5.70878C13.7519 5.90078 13.8245 6.13447 14.0125 6.23818L14.2057 5.88793ZM10.3535 3.94318L10.4784 3.7433L9.79996 3.31936L9.67506 3.51924L10.3535 3.94318ZM10.2215 3.38904L10.2208 3.38866L9.80774 4.07376L9.80838 4.07414L10.2215 3.38904ZM9.6757 3.51963L9.41294 3.94012L10.0914 4.36406L10.3541 3.94356L9.6757 3.51963ZM9.83101 3.75994C7.02746 3.19623 4.0426 4.3781 2.43696 6.94765L3.1154 7.37158C4.5388 5.09367 7.1856 4.04404 9.67331 4.54424L9.83101 3.75994ZM2.43696 6.94765C0.366902 10.2604 1.37433 14.6241 4.68713 16.6942L5.11106 16.0157C2.17296 14.1798 1.27947 10.3097 3.1154 7.37158L2.43696 6.94765ZM4.68713 16.6942C7.99992 18.7642 12.3636 17.7568 14.4336 14.444L13.7552 14.0201C11.9193 16.9582 8.04916 17.8517 5.11106 16.0157L4.68713 16.6942ZM14.4336 14.444C16.0291 11.8908 15.7961 8.71428 14.0904 6.44442L13.4508 6.92502C14.9644 8.93923 15.1695 11.7567 13.7552 14.0201L14.4336 14.444ZM14.0904 6.44442C14.1464 6.519 14.1615 6.59331 14.1663 6.63187C14.1714 6.67278 14.1687 6.70525 14.1668 6.72222C14.1628 6.75573 14.1552 6.77875 14.154 6.78266C14.1505 6.79356 14.1494 6.79395 14.157 6.77772C14.1706 6.7488 14.1946 6.70295 14.2279 6.64325C14.2932 6.52621 14.3787 6.3829 14.4465 6.27127L13.7625 5.85624C13.6936 5.96987 13.6019 6.12335 13.5292 6.25363C13.4936 6.31759 13.4585 6.38304 13.4328 6.43791C13.4207 6.46359 13.4049 6.499 13.3929 6.53617C13.3874 6.55321 13.3771 6.58717 13.3722 6.62919C13.3697 6.65042 13.367 6.68654 13.3724 6.73046C13.3776 6.77204 13.3935 6.84873 13.4508 6.92501L14.0904 6.44442ZM13.7898 5.81251L13.7653 5.85179L14.4437 6.27572L14.4683 6.23644L13.7898 5.81251ZM13.8141 5.77202C13.8063 5.78558 13.7982 5.79908 13.7898 5.81251L14.4683 6.23644C14.4819 6.21466 14.495 6.19271 14.5077 6.1706L13.8141 5.77202ZM14.5018 6.18054C14.5168 6.15616 14.529 6.13642 14.5374 6.12283C14.5416 6.11604 14.5448 6.1108 14.547 6.10728C14.5481 6.10553 14.5489 6.10421 14.5495 6.10334C14.5497 6.10291 14.5499 6.10259 14.5501 6.10239C14.5501 6.10229 14.5502 6.10222 14.5502 6.10218C14.5502 6.10216 14.5502 6.10214 14.5502 6.10214C14.5502 6.10214 14.5502 6.10213 14.5502 6.10214C14.5502 6.10214 14.5502 6.10214 14.5502 6.10214C14.5502 6.10214 14.5502 6.10214 14.5502 6.10214C14.5502 6.10214 14.5502 6.10214 14.2107 5.89067C13.8712 5.6792 13.8712 5.6792 13.8712 5.67921C13.8712 5.67921 13.8712 5.67921 13.8712 5.67921C13.8712 5.67921 13.8712 5.67922 13.8712 5.67922C13.8711 5.67923 13.8711 5.67924 13.8711 5.67925C13.8711 5.67928 13.8711 5.67931 13.8711 5.67935C13.871 5.67943 13.871 5.67954 13.8709 5.67968C13.8707 5.67995 13.8705 5.68035 13.8701 5.68086C13.8695 5.68188 13.8686 5.68336 13.8674 5.68529C13.865 5.68913 13.8615 5.69472 13.8571 5.70188C13.8482 5.71619 13.8355 5.73677 13.82 5.76208L14.5018 6.18054ZM14.4039 5.54042L14.3989 5.53768L14.0125 6.23818L14.0175 6.24093L14.4039 5.54042ZM13.4741 4.28489C13.957 4.58663 14.1094 5.18717 13.8481 5.70878L14.5634 6.06708C14.9953 5.20473 14.7571 4.14324 13.8981 3.60645L13.4741 4.28489ZM11.9898 3.35739L13.4741 4.28489L13.8981 3.60645L12.4138 2.67895L11.9898 3.35739ZM10.4784 3.7433C10.8181 3.19964 11.4763 3.03651 11.9898 3.35739L12.4138 2.67895C11.4958 2.10533 10.3548 2.43151 9.79996 3.31936L10.4784 3.7433Z" fill="#11181C"/>
</g>
<defs>
<linearGradient id="paint0_linear_1545_63231" x1="1.13779" y1="9.6043" x2="8.38024" y2="15.1768" gradientUnits="userSpaceOnUse">
<stop stop-color="#797D80"/>
<stop offset="1" stop-color="#383B3F"/>
</linearGradient>
<linearGradient id="paint1_linear_1545_63231" x1="9.45737" y1="2.38855" x2="8.79697" y2="5.8859" gradientUnits="userSpaceOnUse">
<stop stop-color="#71757B"/>
<stop offset="1" stop-color="#424851"/>
</linearGradient>
<clipPath id="clip0_1545_63231">
<rect width="18" height="18" fill="white" transform="translate(0 0.5)"/>
</clipPath>
</defs>
</svg>
