<svg width="28" height="28" viewBox="0 0 28 28" fill="none" xmlns="http://www.w3.org/2000/svg">
    <path
        d="M19.833 4.08325H8.16634C6.87768 4.08325 5.83301 5.12792 5.83301 6.41659V22.8015C5.83301 23.2482 6.31458 23.5292 6.70344 23.3093L13.6108 19.404C13.7889 19.3032 14.0068 19.3032 14.185 19.404L21.2959 23.4244C21.6848 23.6443 22.1663 23.3634 22.1663 22.9167V6.41659C22.1663 5.12792 21.1217 4.08325 19.833 4.08325Z"
        stroke="#969FAC" stroke-width="1.8" />
    <path
        d="M21.2337 6.41659C21.2337 5.64339 20.6067 5.01636 19.8335 5.01636H8.16683C7.39363 5.01636 6.7666 5.64339 6.7666 6.41659V22.2019L13.1514 18.5914C13.5566 18.3623 14.0412 18.3342 14.4661 18.5059L14.645 18.5914L21.2337 22.317V6.41659ZM23.0999 22.9163C23.0999 24.0777 21.8483 24.8083 20.8372 24.2367L13.8976 20.3129L7.16309 24.1217C6.15205 24.6932 4.90039 23.9626 4.90039 22.8012V6.41659C4.90039 4.61246 6.3627 3.15015 8.16683 3.15015H19.8335C21.6376 3.15015 23.0999 4.61246 23.0999 6.41659V22.9163Z"
        fill="#969FAC" />
</svg>
