<svg width="24" height="24" viewBox="0 0 24 24" fill="none" xmlns="http://www.w3.org/2000/svg">
<path d="M5.99944 3.22407H17.9994C18.5044 3.22407 18.9137 3.63341 18.9137 4.13836V19.8245C18.9137 19.8414 18.91 19.8488 18.9075 19.853C18.9038 19.8592 18.8967 19.8672 18.8856 19.8737C18.8744 19.8803 18.864 19.8826 18.8567 19.8828C18.8519 19.883 18.8436 19.8826 18.8288 19.8744L12.8181 16.5352C12.3031 16.249 11.6749 16.2579 11.1681 16.5584L5.17145 20.1144C5.15642 20.1233 5.1481 20.1238 5.14344 20.1237C5.13626 20.1237 5.12561 20.1215 5.11402 20.1149C5.10243 20.1083 5.09516 20.1002 5.09144 20.0941C5.08903 20.0901 5.08516 20.0827 5.08516 20.0653V4.13836C5.08516 3.63341 5.4945 3.22407 5.99944 3.22407Z" fill="black" fill-opacity="0.2" stroke="white" stroke-width="1.6"/>
</svg>
