<svg width="12" height="12" viewBox="0 0 12 12" fill="none" xmlns="http://www.w3.org/2000/svg">
<path d="M1.04161 4.3285C0.976461 3.7011 0.876012 2.444 1.72432 1.58396C2.10146 0.985191 2.93669 0.863817 3.46737 1.26443L4.77152 2.54717C4.98397 2.80297 5.28794 3.48627 4.77152 4.03579C4.26425 4.57557 4.02017 4.8097 3.93562 4.84872C3.99519 5.29461 4.43499 6.42422 5.26788 7.06532C6.11416 7.71672 6.98903 8.18813 7.16772 7.99637C7.43436 7.71022 7.72123 7.48017 7.86229 7.2957C8.00269 7.14459 8.38177 6.91276 8.73505 6.94931C9.17664 6.995 9.35532 7.06844 9.66104 7.39454C9.90561 7.65542 10.5171 8.30018 10.7635 8.5369C10.9356 8.80569 11.1724 9.40124 10.81 9.86513C10.3569 10.445 9.67115 10.7339 9.20906 10.8879C8.74698 11.0419 7.09454 10.9466 6.714 10.7836C6.57809 10.7253 5.59848 10.2764 4.7075 9.49983C3.50496 8.45169 2.8088 7.68286 1.9135 6.3822C1.41221 5.65394 1.20313 5.03905 1.04161 4.3285Z" fill="#6D7583"/>
</svg>
