<svg width="16" height="16" viewBox="0 0 16 16" fill="none" xmlns="http://www.w3.org/2000/svg">
<path d="M13.9995 11.798C13.9995 12.014 13.9514 12.236 13.8493 12.452C13.7471 12.668 13.6149 12.872 13.4407 13.064C13.1462 13.388 12.8217 13.622 12.4552 13.772C12.0947 13.922 11.7041 14 11.2834 14C10.6705 14 10.0155 13.856 9.3245 13.562C8.63346 13.268 7.94243 12.872 7.2574 12.374C6.56636 11.87 5.91138 11.312 5.28644 10.694C4.66751 10.07 4.10868 9.416 3.60993 8.732C3.11719 8.048 2.72059 7.364 2.43216 6.686C2.14373 6.002 1.99951 5.348 1.99951 4.724C1.99951 4.316 2.07162 3.926 2.21584 3.566C2.36005 3.2 2.5884 2.864 2.90687 2.564C3.29145 2.186 3.71208 2 4.15675 2C4.325 2 4.49325 2.036 4.64348 2.108C4.79971 2.18 4.93792 2.288 5.04608 2.444L6.44017 4.406C6.54834 4.556 6.62645 4.694 6.68053 4.826C6.73461 4.952 6.76466 5.078 6.76466 5.192C6.76466 5.336 6.7226 5.48 6.63847 5.618C6.56035 5.756 6.44618 5.9 6.30197 6.044L5.84528 6.518C5.77918 6.584 5.74914 6.662 5.74914 6.758C5.74914 6.806 5.75515 6.848 5.76716 6.896C5.78519 6.944 5.80322 6.98 5.81524 7.016C5.9234 7.214 6.10968 7.472 6.37407 7.784C6.64448 8.096 6.93291 8.414 7.24538 8.732C7.56987 9.05 7.88234 9.344 8.20081 9.614C8.51328 9.878 8.77167 10.058 8.97598 10.166C9.00602 10.178 9.04208 10.196 9.08414 10.214C9.13221 10.232 9.18028 10.238 9.23436 10.238C9.33652 10.238 9.41463 10.202 9.48073 10.136L9.93742 9.686C10.0876 9.536 10.2319 9.422 10.3701 9.35C10.5083 9.266 10.6465 9.224 10.7967 9.224C10.9109 9.224 11.0311 9.248 11.1633 9.302C11.2955 9.356 11.4337 9.434 11.5839 9.536L13.5729 10.946C13.7291 11.054 13.8373 11.18 13.9034 11.33C13.9635 11.48 13.9995 11.63 13.9995 11.798Z" stroke="#6D7583" stroke-width="1.2" stroke-miterlimit="10"/>
</svg>
