<svg width="15" height="16" viewBox="0 0 15 16" fill="none" xmlns="http://www.w3.org/2000/svg">
<path d="M2.21801 8.5096C1.54962 7.53859 1.27084 6.71874 1.05548 5.77134C0.968615 4.9348 0.834683 3.25867 1.96576 2.11195C2.46862 1.31359 3.58226 1.15176 4.28983 1.68591L6.02869 3.39623C6.31196 3.7373 6.71725 4.64836 6.02869 5.38105C5.35233 6.10077 5.02689 6.41293 4.91416 6.46496C4.99359 7.05948 5.57999 8.56563 6.69051 9.42043C7.81887 10.289 8.98537 10.9175 9.22362 10.6618C9.57914 10.2803 9.96165 9.97356 10.1497 9.7276C10.3369 9.52612 10.8424 9.21701 11.3134 9.26575C11.9022 9.32667 12.1404 9.42459 12.5481 9.85939C12.8742 10.2072 13.6894 11.0669 14.018 11.3825C14.2475 11.7409 14.5632 12.535 14.08 13.1535C13.4759 13.9267 12.5615 14.3118 11.9454 14.5172C11.3293 14.7226 9.12605 14.5955 8.61867 14.3781C8.43745 14.3004 7.1313 13.7019 5.94334 12.6664M2.21801 8.5096C3.41173 10.2438 4.33995 11.2689 5.94334 12.6664M2.21801 8.5096L5.94334 12.6664" stroke="#11181C"/>
</svg>
