<svg width="16" height="16" viewBox="0 0 16 16" fill="none" xmlns="http://www.w3.org/2000/svg">
<g clip-path="url(#clip0_6379_18026)">
<circle cx="8" cy="8" r="8" fill="#0C74F6" fill-opacity="0.04"/>
<circle cx="8" cy="8" r="7.5" stroke="#0C74F6" stroke-opacity="0.6"/>
<path fill-rule="evenodd" clip-rule="evenodd" d="M8 11C8.27614 11 8.5 10.7761 8.5 10.5L8.5 8.5H10.5C10.7761 8.5 11 8.27614 11 8C11 7.72386 10.7761 7.5 10.5 7.5H8.5L8.5 5.5C8.5 5.22386 8.27614 5 8 5C7.72386 5 7.5 5.22386 7.5 5.5L7.5 7.5H5.5C5.22386 7.5 5 7.72386 5 8C5 8.27614 5.22386 8.5 5.5 8.5H7.5L7.5 10.5C7.5 10.7761 7.72386 11 8 11Z" fill="#0C74F6"/>
</g>
<defs>
<clipPath id="clip0_6379_18026">
<rect width="16" height="16" fill="white"/>
</clipPath>
</defs>
</svg>
