<svg width="60" height="70" viewBox="0 0 60 70" fill="none" xmlns="http://www.w3.org/2000/svg">
<g clip-path="url(#clip0_1863_92124)">
<path d="M49.3989 25.5244C48.6767 21.8844 45.8456 18.9666 42.3645 18.2155C42.1189 18.1577 41.8156 18.1144 41.4834 18.0711V16.6411C41.4834 14.9077 40.0823 13.5066 38.3489 13.5066C36.6156 13.5066 35.2145 14.9077 35.2145 16.6411V17.6522C31.9212 17.5511 28.1367 17.5655 24.8434 17.6522V16.6266C24.8434 14.8933 23.4423 13.4922 21.7089 13.4922C19.9756 13.4922 18.5745 14.8933 18.5745 16.6266V18.0711C18.2423 18.1144 17.9389 18.1577 17.6934 18.2155C13.9234 18.9522 11.5112 21.4366 10.6589 25.5244C9.80672 29.5833 9.80672 43.3344 10.6589 47.2633C11.4823 51.0766 13.6634 53.6911 17.6934 54.5722C21.7234 55.4533 37.9301 55.5833 42.3645 54.5722C46.7989 53.5611 48.5901 50.6722 49.3989 47.2633C50.2512 43.7244 50.0634 28.9044 49.3989 25.5244Z" fill="#7FB3E1"/>
<path d="M30.6355 29.0922L32.3689 33.0934C32.4989 33.4111 32.8022 33.6133 33.1344 33.6422L37.4822 34.0611C38.06 34.1189 38.2911 34.8267 37.8578 35.2167L34.5933 38.1056C34.3333 38.3367 34.2322 38.6689 34.3044 39.0011L35.2578 43.2622C35.3878 43.8256 34.7811 44.2589 34.2755 43.97L30.52 41.7456C30.2311 41.5722 29.87 41.5722 29.5811 41.7456L25.8255 43.97C25.3344 44.2589 24.7278 43.8256 24.8433 43.2622L25.7966 39.0011C25.8689 38.6689 25.7533 38.3222 25.5078 38.1056L22.2433 35.2167C21.81 34.8411 22.0411 34.1189 22.6189 34.0611L26.9666 33.6422C27.2989 33.6133 27.6022 33.3967 27.7322 33.0934L29.4655 29.0922C29.6966 28.5578 30.4478 28.5578 30.6789 29.0922H30.6355Z" fill="white"/>
</g>
<defs>
<clipPath id="clip0_1863_92124">
<rect width="52" height="52" fill="white" transform="translate(4 9)"/>
</clipPath>
</defs>
</svg>
