<svg width="60" height="70" viewBox="0 0 60 70" fill="none" xmlns="http://www.w3.org/2000/svg">
<g clip-path="url(#clip0_1863_92134)">
<path d="M48.7056 22.9681C48.1134 19.1981 46.1489 16.9159 42.8123 16.367C38.4934 15.8325 34.2323 15.5581 30.0001 15.5581C25.7823 15.5581 21.5067 15.847 17.1878 16.367C13.8512 16.9159 11.8867 19.1981 11.2945 22.9681C10.2401 30.0314 9.51783 38.0337 9.59005 46.6714C9.61894 49.7626 12.2478 52.247 15.0067 53.0126C17.7656 53.7781 21.6223 54.3992 29.9856 54.457C38.3489 54.3992 42.2489 53.7492 44.9645 53.0126C47.6801 52.2759 50.3667 49.7626 50.3812 46.6714C50.4245 38.0192 49.7312 30.0314 48.6767 22.9681H48.7056Z" fill="#5DBE7B"/>
<path d="M30 31.23C24.9155 31.23 20.7844 27.2577 20.7844 22.3755C20.7844 21.4944 21.4922 20.7866 22.3733 20.7866C23.2544 20.7866 23.9622 21.4944 23.9622 22.3755C23.9622 25.51 26.6633 28.0522 30 28.0522C33.3366 28.0522 36.0378 25.51 36.0378 22.3755C36.0378 21.4944 36.7455 20.7866 37.6266 20.7866C38.5078 20.7866 39.2155 21.4944 39.2155 22.3755C39.2155 27.2577 35.0844 31.23 30 31.23Z" fill="white"/>
</g>
<defs>
<clipPath id="clip0_1863_92134">
<rect width="52" height="52" fill="white" transform="translate(4 9)"/>
</clipPath>
</defs>
</svg>
