<svg width="16" height="16" viewBox="0 0 16 16" fill="none" xmlns="http://www.w3.org/2000/svg">
<mask id="path-1-inside-1_5108_20537" fill="white">
<path fill-rule="evenodd" clip-rule="evenodd" d="M1.59063 6.41411C1.48661 6.73195 1.54836 7.08075 1.75517 7.34356L7.17191 14.2269C7.51345 14.6609 8.14216 14.7359 8.57617 14.3943L14.0771 10.0654C14.5111 9.72388 14.5861 9.09516 14.2446 8.66115L8.82342 1.77222C8.61904 1.5125 8.29955 1.37054 7.96982 1.39293L3.79917 1.67614C3.39251 1.70375 3.04331 1.97542 2.91653 2.3628L1.59063 6.41411ZM6.27889 6.78292C6.83117 6.78292 7.27889 6.33521 7.27889 5.78292C7.27889 5.23064 6.83117 4.78292 6.27889 4.78292C5.7266 4.78292 5.27889 5.23064 5.27889 5.78292C5.27889 6.33521 5.7266 6.78292 6.27889 6.78292Z"/>
</mask>
<path d="M1.75517 7.34356L2.6982 6.60147L1.75517 7.34356ZM1.59063 6.41411L2.73111 6.78736H2.73111L1.59063 6.41411ZM7.17191 14.2269L8.11493 13.4848L8.11493 13.4848L7.17191 14.2269ZM8.57617 14.3943L7.83407 13.4513H7.83407L8.57617 14.3943ZM14.0771 10.0654L13.335 9.1224L14.0771 10.0654ZM14.2446 8.66115L13.3015 9.40325L14.2446 8.66115ZM8.82342 1.77222L9.76644 1.03012V1.03012L8.82342 1.77222ZM7.96982 1.39293L7.88852 0.195685L7.96982 1.39293ZM3.79917 1.67614L3.88047 2.87338L3.79917 1.67614ZM2.91653 2.3628L4.057 2.73605V2.73605L2.91653 2.3628ZM2.6982 6.60147C2.73956 6.65403 2.75191 6.72379 2.73111 6.78736L0.450155 6.04086C0.221306 6.74011 0.357156 7.50747 0.812153 8.08566L2.6982 6.60147ZM8.11493 13.4848L2.6982 6.60147L0.812153 8.08566L6.22888 14.969L8.11493 13.4848ZM7.83407 13.4513C7.92088 13.383 8.04662 13.398 8.11493 13.4848L6.22888 14.969C6.98027 15.9238 8.36344 16.0887 9.31827 15.3373L7.83407 13.4513ZM13.335 9.1224L7.83407 13.4513L9.31827 15.3373L14.8192 11.0084L13.335 9.1224ZM13.3015 9.40325C13.2332 9.31645 13.2482 9.1907 13.335 9.1224L14.8192 11.0084C15.7741 10.257 15.939 8.87388 15.1876 7.91905L13.3015 9.40325ZM7.8804 2.51431L13.3015 9.40325L15.1876 7.91905L9.76644 1.03012L7.8804 2.51431ZM8.05112 2.59017C7.98518 2.59465 7.92128 2.56626 7.8804 2.51431L9.76644 1.03012C9.31681 0.458747 8.61392 0.146426 7.88852 0.195685L8.05112 2.59017ZM3.88047 2.87338L8.05112 2.59017L7.88852 0.195685L3.71787 0.478896L3.88047 2.87338ZM4.057 2.73605C4.03164 2.81353 3.9618 2.86786 3.88047 2.87338L3.71787 0.478896C2.82322 0.539649 2.05497 1.13731 1.77605 1.98955L4.057 2.73605ZM2.73111 6.78736L4.057 2.73605L1.77605 1.98955L0.450155 6.04086L2.73111 6.78736ZM6.07889 5.78292C6.07889 5.67247 6.16843 5.58292 6.27889 5.58292V7.98292C7.49391 7.98292 8.47889 6.99795 8.47889 5.78292H6.07889ZM6.27889 5.98292C6.16843 5.98292 6.07889 5.89338 6.07889 5.78292H8.47889C8.47889 4.5679 7.49391 3.58292 6.27889 3.58292V5.98292ZM6.47889 5.78292C6.47889 5.89338 6.38934 5.98292 6.27889 5.98292V3.58292C5.06386 3.58292 4.07889 4.5679 4.07889 5.78292H6.47889ZM6.27889 5.58292C6.38934 5.58292 6.47889 5.67247 6.47889 5.78292H4.07889C4.07889 6.99795 5.06386 7.98292 6.27889 7.98292V5.58292Z" fill="#969FAC" mask="url(#path-1-inside-1_5108_20537)"/>
</svg>
