<svg width="60" height="70" viewBox="0 0 60 70" fill="none" xmlns="http://www.w3.org/2000/svg">
<g clip-path="url(#clip0_1863_92112)">
<path d="M49.4277 34.9998C49.4277 31.9665 48.7055 29.121 47.4777 26.5643C49.6877 22.9243 48.9511 18.1287 45.5566 15.3554C42.0611 12.4954 37.0055 12.8132 33.9 15.9621C32.6433 15.7021 31.3288 15.5721 30 15.5721C28.6711 15.5721 27.3855 15.7021 26.1433 15.9621C23.0377 12.8276 17.9822 12.4954 14.4866 15.3554C11.1066 18.1143 10.37 22.8954 12.5366 26.521C11.28 29.0921 10.5577 31.9665 10.5577 34.9998C10.5577 39.6798 12.2189 43.9698 14.9922 47.3354C12.9122 49.4732 12.9266 52.8965 15.0355 55.0054C17.1733 57.1432 20.64 57.1432 22.7633 55.0054L24.2077 53.561C26.0277 54.1243 27.9633 54.4421 29.9711 54.4421C31.9788 54.4421 33.9433 54.1243 35.7633 53.561L37.2222 55.0198C39.36 57.1576 42.8266 57.1576 44.95 55.0198C47.0733 52.8965 47.0877 49.4587 44.9789 47.321C47.7377 43.9698 49.3844 39.6798 49.3844 35.0143L49.4277 34.9998Z" fill="#FF8449"/>
<path d="M30 49.1702C22.3156 49.1702 16.0756 42.9157 16.0756 35.2457C16.0756 27.5757 22.33 21.3213 30 21.3213C37.67 21.3213 43.9244 27.5757 43.9244 35.2457C43.9244 42.9157 37.67 49.1702 30 49.1702Z" fill="white"/>
<path d="M28.4833 28.6732L27.9778 35.4621C27.9489 35.8955 28.2089 36.3144 28.6278 36.4588L35.6767 39.0588C36.7455 39.4488 37.9155 38.8132 38.1611 37.701C38.4067 36.5888 37.6122 35.5199 36.4711 35.4332L31.2855 35.0432C30.9822 35.0144 30.7655 34.7399 30.8378 34.4366L32.08 29.2077C32.3255 28.1388 31.5889 27.0988 30.5055 26.9832C29.4944 26.8821 28.5844 27.6332 28.5122 28.6444L28.4833 28.6732Z" fill="#FF8449"/>
</g>
<defs>
<clipPath id="clip0_1863_92112">
<rect width="52" height="52" fill="white" transform="translate(4 9)"/>
</clipPath>
</defs>
</svg>
