<svg width="24" height="24" viewBox="0 0 24 24" fill="none" xmlns="http://www.w3.org/2000/svg">
<g clip-path="url(#clip0_13089_1485)">
<circle cx="12" cy="12" r="10" fill="#F5D90A"/>
<path d="M11.2485 13.1602C11.2485 13.6154 11.6173 13.9842 12.0725 13.9842C12.5277 13.9842 12.8965 13.615 12.8965 13.1598C12.8965 12.6346 13.1393 12.4191 13.6885 11.9813C14.2239 11.5546 14.89 11.0234 15.1245 10.003C15.3174 9.16345 15.1377 8.3419 14.6187 7.69035C14.0341 6.95588 13.0585 6.5 12.0728 6.5C10.7215 6.5 9.54261 7.36631 9.13982 8.65484C9.04718 8.95112 9 9.26025 9 9.57284C9 10.028 9.3688 10.3968 9.82398 10.3968C10.2792 10.3968 10.648 10.028 10.648 9.57284C10.648 9.42713 10.6695 9.28384 10.7125 9.1468C10.8991 8.54937 11.4456 8.14796 12.0725 8.14796C12.5534 8.14796 13.0585 8.37694 13.3295 8.71694C13.538 8.97888 13.5997 9.27933 13.5182 9.63425C13.4176 10.0724 13.1411 10.3101 12.6612 10.6928C12.0653 11.168 11.2485 11.8193 11.2485 13.1602Z" fill="#11181C"/>
<path d="M10.8318 16.2109C10.8318 15.5191 11.3925 14.9584 12.0843 14.9584C12.7761 14.9584 13.3367 15.5191 13.3367 16.2109C13.3367 16.9027 12.7761 17.4633 12.0843 17.4633C11.3925 17.4633 10.8318 16.9027 10.8318 16.2109Z" fill="#11181C"/>
</g>
<defs>
<clipPath id="clip0_13089_1485">
<rect width="24" height="24" fill="white"/>
</clipPath>
</defs>
</svg>
