<svg width="24" height="24" viewBox="0 0 24 24" fill="none" xmlns="http://www.w3.org/2000/svg">
<path d="M15.1582 3.05762C15.5683 2.64766 16.2326 2.6476 16.6426 3.05762C17.0523 3.46766 17.0524 4.13203 16.6426 4.54199L9.28613 11.8994L16.6426 19.2578C17.0523 19.6679 17.0524 20.3322 16.6426 20.7422C16.2326 21.1521 15.5683 21.1519 15.1582 20.7422L7.05762 12.6426C6.64757 12.2325 6.64759 11.5673 7.05762 11.1572L15.1582 3.05762Z" fill="#2E3137"/>
<path d="M15.1584 3.05748C15.5684 2.64755 16.2327 2.64747 16.6427 3.05748C17.0526 3.4675 17.0526 4.13185 16.6427 4.54185L9.28629 11.8993L16.6427 19.2577C17.0525 19.6677 17.0526 20.3321 16.6427 20.742C16.2327 21.152 15.5684 21.1519 15.1584 20.742L7.05777 12.6424C6.64773 12.2324 6.64774 11.5671 7.05777 11.1571L15.1584 3.05748Z" fill="#2E3137"/>
</svg>
