<svg width="16" height="16" viewBox="0 0 16 16" fill="none" xmlns="http://www.w3.org/2000/svg">
    <path
        d="M7.99902 1.66504C11.4978 1.66521 14.3349 4.50117 14.335 8C14.3349 11.4988 11.4978 14.3358 7.99902 14.3359C4.50016 14.3358 1.66417 11.4989 1.66406 8C1.66416 4.50113 4.50015 1.66514 7.99902 1.66504ZM7.99902 2.86426C5.16289 2.86436 2.86338 5.16387 2.86328 8C2.86339 10.8361 5.1629 13.1356 7.99902 13.1357C10.8351 13.1356 13.1347 10.8361 13.1348 8C13.1347 5.16392 10.8351 2.86443 7.99902 2.86426ZM8.59863 7.40039H11.8223V8.60059H7.39941V4.17676H8.59863V7.40039Z"
        fill="#969FAC" />
    <path
        d="M8 1.66406C11.4988 1.66431 14.3352 4.50119 14.3353 8C14.3352 11.4988 11.4988 14.335 8 14.3353C4.50103 14.3353 1.66414 11.499 1.66406 8C1.66413 4.50104 4.50102 1.66406 8 1.66406ZM8 2.86458C5.16376 2.86458 2.86465 5.16378 2.86458 8C2.86466 10.8362 5.16377 13.1354 8 13.1354C10.836 13.1352 13.1353 10.8361 13.1354 8C13.1353 5.16394 10.836 2.86483 8 2.86458ZM8.59961 7.40039H11.8229V8.60026H7.39909V4.17643H8.59961V7.40039Z"
        fill="#969FAC" />
</svg>
