<svg width="16" height="17" viewBox="0 0 16 17" fill="none" xmlns="http://www.w3.org/2000/svg">
<path fill-rule="evenodd" clip-rule="evenodd" d="M11.9249 12.4246C12.1201 12.2294 12.1201 11.9128 11.9249 11.7175L8.74289 8.53553L11.9249 5.35355C12.1201 5.15829 12.1201 4.84171 11.9249 4.64645C11.7296 4.45118 11.413 4.45119 11.2178 4.64645L8.03578 7.82843L4.8538 4.64645C4.65854 4.45118 4.34195 4.45118 4.14669 4.64645C3.95143 4.84171 3.95143 5.15829 4.14669 5.35355L7.32867 8.53553L4.14669 11.7175C3.95143 11.9128 3.95143 12.2294 4.14669 12.4246C4.34195 12.6199 4.65854 12.6199 4.8538 12.4246L8.03578 9.24264L11.2178 12.4246C11.413 12.6199 11.7296 12.6199 11.9249 12.4246Z" fill="#969FAC"/>
</svg>
