<svg width="33" height="32" viewBox="0 0 33 32" fill="none" xmlns="http://www.w3.org/2000/svg">
<circle cx="16.8438" cy="16" r="14" fill="#ECF2FA"/>
<path fill-rule="evenodd" clip-rule="evenodd" d="M13.1974 11.6464C13.0021 11.4512 12.6856 11.4512 12.4903 11.6464C12.295 11.8417 12.295 12.1583 12.4903 12.3535L16.1366 15.9998L12.4901 19.6463C12.2949 19.8416 12.2949 20.1582 12.4901 20.3534C12.6854 20.5487 13.002 20.5487 13.1972 20.3534L16.8437 16.7069L20.4902 20.3534C20.6854 20.5487 21.002 20.5487 21.1973 20.3534C21.3925 20.1582 21.3925 19.8416 21.1973 19.6463L17.5508 15.9998L21.1971 12.3535C21.3924 12.1583 21.3924 11.8417 21.1971 11.6464C21.0019 11.4512 20.6853 11.4512 20.49 11.6464L16.8437 15.2927L13.1974 11.6464Z" fill="#454A52"/>
<path d="M16.1366 15.9998L16.3134 16.1766L16.4902 15.9998L16.3134 15.8231L16.1366 15.9998ZM12.4901 19.6463L12.3134 19.4695L12.4901 19.6463ZM13.1972 20.3534L13.0205 20.1766L13.0205 20.1766L13.1972 20.3534ZM16.8437 16.7069L17.0205 16.5302L16.8437 16.3534L16.6669 16.5302L16.8437 16.7069ZM20.4902 20.3534L20.667 20.1766L20.4902 20.3534ZM21.1973 19.6463L21.3741 19.4695L21.1973 19.6463ZM17.5508 15.9998L17.374 15.8231L17.1973 15.9998L17.374 16.1766L17.5508 15.9998ZM21.1971 12.3535L21.3739 12.5303L21.1971 12.3535ZM20.49 11.6464L20.6668 11.8232L20.49 11.6464ZM16.8437 15.2927L16.6669 15.4695L16.8437 15.6463L17.0205 15.4695L16.8437 15.2927ZM12.6671 11.8232C12.7647 11.7256 12.923 11.7256 13.0206 11.8232L13.3742 11.4696C13.0813 11.1768 12.6064 11.1768 12.3135 11.4696L12.6671 11.8232ZM12.6671 12.1768C12.5694 12.0791 12.5694 11.9208 12.6671 11.8232L12.3135 11.4696C12.0206 11.7625 12.0206 12.2374 12.3135 12.5303L12.6671 12.1768ZM16.3134 15.8231L12.6671 12.1768L12.3135 12.5303L15.9598 16.1766L16.3134 15.8231ZM12.6669 19.8231L16.3134 16.1766L15.9598 15.8231L12.3134 19.4695L12.6669 19.8231ZM12.6669 20.1766C12.5693 20.079 12.5693 19.9207 12.6669 19.8231L12.3134 19.4695C12.0205 19.7624 12.0205 20.2373 12.3134 20.5302L12.6669 20.1766ZM13.0205 20.1766C12.9228 20.2743 12.7645 20.2743 12.6669 20.1766L12.3134 20.5302C12.6062 20.8231 13.0811 20.8231 13.374 20.5302L13.0205 20.1766ZM16.6669 16.5302L13.0205 20.1766L13.374 20.5302L17.0205 16.8837L16.6669 16.5302ZM20.667 20.1766L17.0205 16.5302L16.6669 16.8837L20.3134 20.5302L20.667 20.1766ZM21.0205 20.1766C20.9229 20.2743 20.7646 20.2743 20.667 20.1766L20.3134 20.5302C20.6063 20.8231 21.0812 20.8231 21.3741 20.5302L21.0205 20.1766ZM21.0205 19.8231C21.1181 19.9207 21.1181 20.079 21.0205 20.1766L21.3741 20.5302C21.667 20.2373 21.667 19.7624 21.3741 19.4695L21.0205 19.8231ZM17.374 16.1766L21.0205 19.8231L21.3741 19.4695L17.7276 15.8231L17.374 16.1766ZM21.0203 12.1768L17.374 15.8231L17.7276 16.1766L21.3739 12.5303L21.0203 12.1768ZM21.0203 11.8232C21.118 11.9208 21.118 12.0791 21.0203 12.1768L21.3739 12.5303C21.6668 12.2374 21.6668 11.7625 21.3739 11.4696L21.0203 11.8232ZM20.6668 11.8232C20.7644 11.7256 20.9227 11.7256 21.0203 11.8232L21.3739 11.4696C21.081 11.1768 20.6061 11.1768 20.3132 11.4696L20.6668 11.8232ZM17.0205 15.4695L20.6668 11.8232L20.3132 11.4696L16.6669 15.116L17.0205 15.4695ZM13.0206 11.8232L16.6669 15.4695L17.0205 15.116L13.3742 11.4696L13.0206 11.8232Z" fill="#454A52"/>
</svg>
