<svg width="21" height="20" viewBox="0 0 21 20" fill="none" xmlns="http://www.w3.org/2000/svg">
<path d="M14.0898 6.96215C14.3474 6.70452 14.3474 6.2868 14.0898 6.02917C13.8321 5.77153 13.4144 5.77153 13.1568 6.02917L10.333 8.85296L7.53374 6.05374C7.28967 5.80966 6.89394 5.80966 6.64986 6.05374C6.40578 6.29782 6.40578 6.69355 6.64986 6.93762L9.44908 9.73685L6.62585 12.5601C6.36821 12.8177 6.36821 13.2354 6.62585 13.4931C6.88348 13.7507 7.3012 13.7507 7.55883 13.4931L10.3821 10.6698L13.1808 13.4685C13.4249 13.7126 13.8206 13.7126 14.0647 13.4685C14.3087 13.2245 14.3087 12.8287 14.0647 12.5847L11.266 9.78595L14.0898 6.96215Z" fill="white" fill-opacity="0.6"/>
</svg>
