<svg width="48" height="48" viewBox="0 0 48 48" fill="none" xmlns="http://www.w3.org/2000/svg">
<path fill-rule="evenodd" clip-rule="evenodd" d="M30.9592 17.8481C31.2684 17.5389 31.2684 17.0376 30.9592 16.7285C30.65 16.4193 30.1488 16.4193 29.8396 16.7285L23.6819 22.8862L17.5242 16.7285C17.215 16.4193 16.7137 16.4193 16.4046 16.7285C16.0954 17.0376 16.0954 17.5389 16.4046 17.8481L22.5623 24.0058L16.4046 30.1635C16.0954 30.4727 16.0954 30.9739 16.4046 31.2831C16.7137 31.5923 17.215 31.5923 17.5242 31.2831L23.6819 25.1254L29.8396 31.2831C30.1488 31.5923 30.65 31.5923 30.9592 31.2831C31.2684 30.9739 31.2684 30.4727 30.9592 30.1635L24.8015 24.0058L30.9592 17.8481Z" fill="#0A0C11"/>
</svg>
