<svg width="25" height="24" viewBox="0 0 25 24" fill="none" xmlns="http://www.w3.org/2000/svg">
<path d="M20.0057 5.29296C20.3963 5.68358 20.3963 6.31664 20.0057 6.70726L14.3143 12.3987L20.007 18.0914C20.3977 18.482 20.3977 19.1151 20.007 19.5057C19.6164 19.8963 18.9834 19.8963 18.5927 19.5057L12.9 13.813L7.20726 19.5057C6.81664 19.8963 6.18358 19.8963 5.79296 19.5057C5.40235 19.1151 5.40234 18.482 5.79296 18.0914L11.4857 12.3987L5.79428 6.70726C5.40366 6.31664 5.40366 5.68358 5.79428 5.29296C6.1849 4.90235 6.81796 4.90234 7.20858 5.29296L12.9 10.9844L18.5914 5.29296C18.982 4.90234 19.6151 4.90235 20.0057 5.29296Z" fill="#2E3137"/>
</svg>
