<svg width="24" height="24" viewBox="0 0 24 24" fill="none" xmlns="http://www.w3.org/2000/svg">
<path d="M8.18696 4.4541C8.3478 4.24395 8.59733 4.1207 8.86196 4.1207H19.496C20.7939 4.1207 21.846 5.17283 21.846 6.4707V16.9055C21.846 18.2034 20.7939 19.2555 19.496 19.2555H8.86196C8.59733 19.2555 8.3478 19.1322 8.18696 18.9221L2.81335 11.9008C2.71727 11.7753 2.71727 11.6009 2.81335 11.4754L8.18696 4.4541Z" stroke="#525965" stroke-width="1.3"/>
<path fill-rule="evenodd" clip-rule="evenodd" d="M17.0516 8.18951C16.8636 7.98723 16.5588 7.98723 16.3708 8.18951L13.9472 10.7975L11.5236 8.18962C11.3356 7.98734 11.0308 7.98734 10.8428 8.18962L10.6977 8.34578C10.5097 8.54806 10.5097 8.87602 10.6977 9.07829L13.1213 11.6862L10.6987 14.293C10.5107 14.4952 10.5107 14.8232 10.6987 15.0255L10.8438 15.1816C11.0318 15.3839 11.3366 15.3839 11.5246 15.1816L13.9472 12.5748L16.3698 15.1817C16.5578 15.384 16.8626 15.384 17.0506 15.1817L17.1957 15.0256C17.3837 14.8233 17.3837 14.4954 17.1957 14.2931L14.773 11.6862L17.1967 9.07818C17.3847 8.8759 17.3847 8.54795 17.1967 8.34567L17.0516 8.18951Z" fill="#525965"/>
</svg>
