<svg width="170" height="95" viewBox="0 0 170 95" fill="none" xmlns="http://www.w3.org/2000/svg">
<path fill-rule="evenodd" clip-rule="evenodd" d="M27.3643 25.5374C37.1031 12.9035 45.603 12.0303 49.4433 13.6745C52.9466 15.1745 56.2771 20.5473 52.1971 29.5379L52.197 29.5381C50.1797 33.9838 48.8189 36.9377 47.808 39.132L47.808 39.1321L47.8079 39.1322C45.4655 44.2167 45.002 45.2229 42.6033 51.2626C40.7959 55.8135 39.5952 60.5156 39.7374 64.7418C39.8839 69.0926 41.5427 73.607 46.0878 76.1106C53.923 80.4265 62.557 76.436 68.1321 71.6498C74.6418 66.0614 79.9587 62.378 84.1379 60.5212C88.3939 58.6301 90.3 59.1107 91.1899 59.6854C91.2489 59.7235 91.2643 59.7468 91.2772 59.7692C91.2905 59.7922 91.3728 59.9398 91.3976 60.3133C91.4515 61.1289 91.21 62.9222 89.5366 65.9205C88.3094 68.1192 87.0099 70.8082 86.3457 73.4135C85.7891 75.5968 85.1268 79.8982 88.3109 82.9617C91.4228 85.9557 95.3811 86.1016 98.5251 85.5058C101.62 84.9192 104.849 83.4703 107.78 81.9575C109.952 80.8359 112.245 79.5237 114.427 78.2753C115.213 77.8251 115.985 77.3832 116.732 76.9616C119.671 75.302 122.297 73.9074 124.587 73.0184C127.449 71.9071 130.928 71.0047 134.168 70.8956C137.447 70.7851 139.859 71.4938 141.411 72.8601C143.484 74.6849 146.643 74.484 148.468 72.4114C150.293 70.3388 150.092 67.1793 148.019 65.3546C143.821 61.6584 138.477 60.7447 133.831 60.9012C129.147 61.059 124.531 62.3129 120.968 63.6963C117.945 64.8698 114.771 66.5848 111.815 68.2538C110.95 68.7424 110.106 69.2256 109.278 69.6991L109.277 69.6996L109.277 69.6998C107.162 70.9099 105.158 72.057 103.192 73.0717C100.432 74.4968 98.2684 75.3765 96.6632 75.6806C96.4343 75.724 96.2361 75.7517 96.0661 75.7682C96.4282 74.4225 97.2236 72.6663 98.2685 70.7942C100.471 66.849 101.603 63.0939 101.376 59.653C101.135 56.0081 99.3677 53.0627 96.6152 51.285C91.5051 47.9847 85.5226 48.9632 80.0774 51.3826C74.5554 53.8362 68.3587 58.2758 61.6183 64.0623C57.0011 68.0262 53.0775 68.544 50.9126 67.3515C50.4577 67.101 49.8041 66.5529 49.7318 64.4053C49.6553 62.133 50.3296 58.9007 51.8971 54.9537C54.1934 49.1719 54.5553 48.3864 56.8212 43.4685L56.8212 43.4684C57.8276 41.2841 59.2095 38.2848 61.3033 33.6704C66.8243 21.5044 63.7934 8.9407 53.3793 4.48174C43.3021 0.167061 30.3285 5.31243 19.4443 19.4322C6.22869 36.5763 2.20685 52.7031 3.12468 65.3029C3.58076 71.5637 5.26332 76.9821 7.68374 81.1554C10.0248 85.1917 13.4 88.6113 17.5298 89.7921C20.1848 90.5512 22.9525 89.0142 23.7116 86.3592C24.4708 83.7042 22.9338 80.9364 20.2788 80.1773C19.5953 79.9819 17.9822 78.9799 16.3341 76.1383C14.7654 73.4336 13.4582 69.5175 13.0983 64.5764C12.3841 54.7723 15.4254 41.0253 27.3643 25.5374ZM161.75 74.729C164.511 74.729 166.75 72.4904 166.75 69.729C166.75 66.9676 164.511 64.729 161.75 64.729C158.989 64.729 156.75 66.9676 156.75 69.729C156.75 72.4904 158.989 74.729 161.75 74.729Z" fill="#DFE3E6"/>
</svg>
