<svg width="83" height="80" viewBox="0 0 83 80" fill="none" xmlns="http://www.w3.org/2000/svg">
<circle cx="40.5005" cy="39.9966" r="40.0005" fill="#CDD1DA"/>
<path d="M60.2832 21.998H18.3112C15.654 21.998 13.5 24.1521 13.5 26.8092V53.1869C13.5 55.844 15.654 57.998 18.3112 57.998H62.6888C65.346 57.998 67.5 55.844 67.5 53.1869V29.2148C67.5 25.2291 64.2689 21.998 60.2832 21.998Z" fill="#F7F7F7"/>
<path d="M19.0137 21.998C16.1212 21.998 13.9155 24.5862 14.3739 27.442C14.5664 28.6409 15.2155 29.7188 16.1851 30.4497L28.8525 39.998L52.2391 57.998H62.6888C65.346 57.998 67.5 55.844 67.5 53.1869V29.2148C67.5 25.2291 64.2689 21.998 60.2832 21.998H19.0137Z" fill="#E6E6E6"/>
<path d="M13.9157 27.7972C13.6769 28.3435 13.8743 28.9823 14.3797 29.2986L40.8974 45.8947C41.7227 46.4112 42.7778 46.3794 43.5704 45.8141L67.0655 29.0579C67.3382 28.8635 67.5 28.5493 67.5 28.2144C67.5 24.7812 64.7168 21.998 61.2837 21.998H18.1155C18.0104 21.998 17.9058 22.0118 17.8043 22.039L16.8103 22.3053C16.4571 22.4 16.166 22.6502 16.0195 22.9853L13.9157 27.7972Z" fill="#D1D3D3"/>
<path fill-rule="evenodd" clip-rule="evenodd" d="M18.2812 21.998H62.7187C65.2649 21.998 67.3463 23.9883 67.4919 26.498H67.5V26.7793V28.0047C67.5 28.4603 67.2426 28.8767 66.8351 29.0805L41.5758 41.7101C40.8986 42.0488 40.1014 42.0488 39.4242 41.7101L14.1649 29.0805C13.7574 28.8767 13.5 28.4603 13.5 28.0047V26.7793V26.498H13.5081C13.6537 23.9883 15.7351 21.998 18.2812 21.998Z" fill="white"/>
<g filter="url(#filter0_d_6974_25987)">
<circle cx="69.6523" cy="21" r="11" fill="#30C550"/>
</g>
<path d="M71.2626 14.8164H68.0312L68.7194 22.9696H70.5745L71.2626 14.8164ZM69.6469 24.0617C68.7344 24.0617 68.0612 24.7349 68.0612 25.6474C68.0612 26.56 68.7344 27.2182 69.6469 27.2182C70.5595 27.2182 71.2327 26.56 71.2327 25.6474C71.2327 24.7349 70.5595 24.0617 69.6469 24.0617Z" fill="white"/>
<defs>
<filter id="filter0_d_6974_25987" x="56.9372" y="9.14244" width="25.4302" height="25.4302" filterUnits="userSpaceOnUse" color-interpolation-filters="sRGB">
<feFlood flood-opacity="0" result="BackgroundImageFix"/>
<feColorMatrix in="SourceAlpha" type="matrix" values="0 0 0 0 0 0 0 0 0 0 0 0 0 0 0 0 0 0 127 0" result="hardAlpha"/>
<feOffset dy="0.857558"/>
<feGaussianBlur stdDeviation="0.857558"/>
<feColorMatrix type="matrix" values="0 0 0 0 0 0 0 0 0 0 0 0 0 0 0 0 0 0 0.25 0"/>
<feBlend mode="normal" in2="BackgroundImageFix" result="effect1_dropShadow_6974_25987"/>
<feBlend mode="normal" in="SourceGraphic" in2="effect1_dropShadow_6974_25987" result="shape"/>
</filter>
</defs>
</svg>
