<svg width="49" height="48" viewBox="0 0 49 48" fill="none" xmlns="http://www.w3.org/2000/svg">
<circle cx="24" cy="24" r="23" fill="#E1F0FF"/>
<path fill-rule="evenodd" clip-rule="evenodd" d="M22 18C22 16.8954 22.8954 16 24 16C25.1046 16 26 16.8954 26 18V26C26 27.1046 25.1046 28 24 28C22.8954 28 22 27.1046 22 26L22 18Z" fill="#6D7583"/>
<path fill-rule="evenodd" clip-rule="evenodd" d="M22 32C22 30.8954 22.8954 30 24 30C25.1046 30 26 30.8954 26 32C26 33.1046 25.1046 34 24 34C22.8954 34 22 33.1046 22 32Z" fill="#6D7583"/>
</svg>
