<svg width="21" height="20" viewBox="0 0 21 20" fill="none" xmlns="http://www.w3.org/2000/svg">
<path d="M10.9284 5.40527H4.77604C4.50036 5.40545 4.27654 5.62967 4.27604 5.90527V15.124C4.27604 15.4001 4.50005 15.6238 4.77604 15.624H13.9948C14.2709 15.624 14.4948 15.4001 14.4948 15.124V10.7852H15.8278V15.124C15.8278 16.1365 15.0073 16.957 13.9948 16.957H4.77604C3.76367 16.9569 2.94303 16.1364 2.94303 15.124V5.90527C2.94354 4.89329 3.76398 4.07244 4.77604 4.07227H10.9284V5.40527ZM17.2565 3.02051C17.433 3.02067 17.6024 3.0921 17.7272 3.2168C17.8519 3.34171 17.9224 3.51101 17.9225 3.6875V7.86426C17.9225 8.23224 17.6244 8.53091 17.2565 8.53125C16.8883 8.53125 16.5885 8.23245 16.5885 7.86426L16.5895 5.26074L11.9333 9.76953C11.6687 10.0256 11.246 10.0184 10.9899 9.75391C10.7342 9.48936 10.7412 9.0675 11.0055 8.81152L15.61 4.35449H12.9489C12.581 4.35415 12.283 4.05541 12.2829 3.6875C12.2831 3.31958 12.5819 3.02159 12.9499 3.02148L17.2565 3.02051Z" fill="#6D7583"/>
<path d="M10.9281 5.42546H4.77653C4.50059 5.42546 4.27637 5.65008 4.27604 5.92594V15.1447C4.27625 15.4207 4.50052 15.6444 4.77653 15.6444H13.9953C14.2711 15.6441 14.4947 15.4205 14.495 15.1447V10.8063H15.828V15.1447L15.819 15.3319C15.7314 16.1946 15.0451 16.8807 14.1825 16.9684L13.9953 16.9774H4.77653L4.58854 16.9684C3.72593 16.8806 3.04047 16.1945 2.9528 15.3319L2.94303 15.1447V5.92594C2.94334 4.97712 3.66446 4.19627 4.58854 4.10221L4.77653 4.09245H10.9281V5.42546ZM17.2554 3.04102C17.4322 3.04102 17.6024 3.11212 17.7274 3.23714C17.8522 3.36214 17.9227 3.53167 17.9227 3.70833V7.88477C17.9226 8.2528 17.6242 8.55189 17.2562 8.55208C16.8882 8.55206 16.5892 8.25351 16.5889 7.88558V5.28141L11.9331 9.78988C11.6686 10.0459 11.2468 10.0388 10.9907 9.77441C10.7347 9.50997 10.7411 9.08817 11.0054 8.83203L15.609 4.37484H12.9495C12.5816 4.37467 12.2832 4.07628 12.283 3.70833C12.283 3.34015 12.5814 3.04103 12.9495 3.04102H17.2554Z" fill="#6D7583"/>
</svg>
