<svg width="20" height="21" viewBox="0 0 20 21" fill="none" xmlns="http://www.w3.org/2000/svg">
<path d="M16.2314 11.9453C16.2314 15.4706 13.3773 18.3285 9.85645 18.3285C6.33563 18.3285 3.48145 15.4706 3.48145 11.9453" stroke="#525965" stroke-width="1.2" stroke-linecap="round"/>
<path fill-rule="evenodd" clip-rule="evenodd" d="M3.48145 8.75033C3.48145 5.22951 6.33563 2.36719 9.85645 2.36719V2.36719C13.3773 2.36719 16.2314 5.22951 16.2314 8.75033V8.75033H3.48145V8.75033Z" stroke="#525965" stroke-width="1.2"/>
<path d="M7.73145 8.49895V7.35109C7.73145 6.88104 8.112 6.5 8.58145 6.5H11.1314C11.6009 6.5 11.9814 6.88104 11.9814 7.35109V8.49791" stroke="#525965" stroke-width="1.2"/>
<path d="M9.85585 8.75C9.85585 8.75 8.82811 10.6395 3.48085 10.6395H2.88184" stroke="#525965" stroke-width="1.2"/>
<path d="M3.42552 13.3003H2.82813C2.09462 13.3003 1.5 12.7049 1.5 11.9704C1.5 11.236 2.09462 10.6406 2.82813 10.6406H3.63304H3.89063" stroke="#525965" stroke-width="1.2"/>
<ellipse cx="13.0439" cy="12.4772" rx="0.53125" ry="0.531928" fill="#525965"/>
<ellipse cx="6.93457" cy="12.4772" rx="0.53125" ry="0.531928" fill="#525965"/>
<path d="M13.5156 8.75C13.5156 8.75 13.5156 10.6395 15.9877 10.6395H16.6523" stroke="#525965" stroke-width="1.2"/>
<path d="M16.043 13.3003H16.7744C17.5079 13.3003 18.1025 12.7049 18.1025 11.9704C18.1025 11.236 17.5079 10.6406 16.7744 10.6406H15.8355H15.5779" stroke="#525965" stroke-width="1.2"/>
<path d="M3.51162 8.75V10.6373" stroke="#525965" stroke-width="1.2"/>
<path d="M16.2314 8.75V10.6373" stroke="#525965" stroke-width="1.2"/>
<path d="M16.2314 8.75034H18.5004" stroke="#525965" stroke-width="1.2" stroke-linecap="round"/>
<path d="M8.67188 15.1257C9.00795 15.4596 9.47072 15.666 9.98162 15.666C10.4985 15.666 10.9662 15.4548 11.3032 15.1138" stroke="#525965" stroke-width="1.2" stroke-linecap="round"/>
</svg>
