<svg width="20" height="20" viewBox="0 0 20 20" fill="none" xmlns="http://www.w3.org/2000/svg">
<circle cx="10.0001" cy="9.99426" r="8.12708" stroke="#525965" stroke-width="1.2"/>
<path fill-rule="evenodd" clip-rule="evenodd" d="M10.2951 9.9848C11.1039 9.9848 11.5628 9.54756 11.5628 8.77382C11.5628 8.01723 11.0734 7.56731 10.2601 7.56731H8.78718V9.9848H10.2951ZM8 12.8483V7.27383C8 7.02462 8.15296 6.86719 8.39322 6.86719H10.3653C11.5807 6.86719 12.3761 7.61034 12.3761 8.74746C12.3761 9.62642 11.8993 10.3084 11.1084 10.5576L12.2627 12.6162C12.3239 12.7259 12.3455 12.8042 12.3455 12.8915C12.3455 13.0975 12.1709 13.2549 11.9434 13.2549C11.7643 13.2549 11.6591 13.1892 11.5583 13.0012L10.2951 10.68H8.78718V12.8483C8.78718 13.093 8.62974 13.2549 8.39322 13.2549C8.15744 13.2549 8 13.093 8 12.8483Z" fill="#525965"/>
<path fill-rule="evenodd" clip-rule="evenodd" d="M8.28612 7.15096C8.27164 7.16591 8.25 7.20055 8.25 7.27383V12.8483C8.25 12.9164 8.27102 12.9521 8.28777 12.9694C8.30384 12.986 8.33442 13.0049 8.39322 13.0049C8.4526 13.0049 8.48336 12.9859 8.49943 12.9693C8.51617 12.9521 8.53718 12.9164 8.53718 12.8483V10.43H10.4437L11.7787 12.8832C11.8189 12.9582 11.8458 12.9812 11.8579 12.9891C11.8664 12.9946 11.8853 13.0049 11.9434 13.0049C11.9994 13.0049 12.0391 12.9858 12.0622 12.9649C12.0844 12.9449 12.0955 12.9204 12.0955 12.8915C12.0955 12.8575 12.0906 12.821 12.0445 12.7382C12.0444 12.7381 12.0445 12.7382 12.0445 12.7382L10.7399 10.4116L11.0333 10.3192C11.7116 10.1054 12.1261 9.52654 12.1261 8.74746C12.1261 8.23972 11.9501 7.83874 11.6558 7.56353C11.3597 7.28679 10.9222 7.11719 10.3653 7.11719H8.39322C8.32916 7.11719 8.29978 7.13685 8.28612 7.15096ZM7.92691 6.80315C8.04979 6.67624 8.21701 6.61719 8.39322 6.61719H10.3653C11.0238 6.61719 11.5917 6.81916 11.9972 7.19828C12.4044 7.57893 12.6261 8.11809 12.6261 8.74746C12.6261 9.6193 12.1985 10.3374 11.4666 10.6851L12.4808 12.4939C12.5569 12.6304 12.5955 12.751 12.5955 12.8915C12.5955 13.2589 12.2844 13.5049 11.9434 13.5049C11.8223 13.5049 11.6991 13.4823 11.585 13.408C11.4748 13.3363 11.3988 13.2327 11.3384 13.12C11.3382 13.1198 11.3385 13.1203 11.3384 13.12L10.1466 10.93H9.03718V12.8483C9.03718 13.0249 8.97947 13.1925 8.85836 13.3174C8.73658 13.443 8.57035 13.5049 8.39322 13.5049C8.21624 13.5049 8.0502 13.4428 7.92861 13.3173C7.8077 13.1924 7.75 13.0249 7.75 12.8483V7.27383C7.75 7.0979 7.80484 6.92922 7.92691 6.80315ZM8.53718 7.31731H10.2601C10.7114 7.31731 11.1041 7.44256 11.3861 7.70325C11.6707 7.96631 11.8128 8.33972 11.8128 8.77382C11.8128 9.21041 11.6822 9.58563 11.4049 9.8503C11.1294 10.1133 10.7429 10.2348 10.2951 10.2348H8.53718V7.31731ZM9.03718 7.81731V9.7348H10.2951C10.6562 9.7348 10.9036 9.63766 11.0597 9.48863C11.2141 9.34124 11.3128 9.11097 11.3128 8.77382C11.3128 8.45132 11.2102 8.22148 11.0467 8.07044C10.8807 7.91702 10.622 7.81731 10.2601 7.81731H9.03718Z" fill="#525965"/>
</svg>
