<svg width="20" height="21" viewBox="0 0 20 21" fill="none" xmlns="http://www.w3.org/2000/svg">
<path d="M10.2832 3.1854C10.2832 3.1854 10.1795 3.20445 9.89868 3.1854C8.62788 3.09922 4.0311 3.27552 2.22242 8.32973" stroke="#525965" stroke-width="1.2" stroke-linecap="round"/>
<path d="M9.71582 3.1854C9.71582 3.1854 9.81948 3.20445 10.1003 3.1854C11.3711 3.09922 15.9679 3.27552 17.7766 8.32973" stroke="#525965" stroke-width="1.2" stroke-linecap="round"/>
<path d="M10.0264 3.28125C10.0264 3.28125 13.2295 4.32015 13.9663 8.33254" stroke="#525965" stroke-width="1.2" stroke-linecap="round"/>
<path d="M9.72949 3.28125C9.72949 3.28125 6.52632 4.32015 5.78956 8.33254" stroke="#525965" stroke-width="1.2" stroke-linecap="round"/>
<path d="M2.24316 8.33088H17.777" stroke="#525965" stroke-width="1.2" stroke-linecap="round"/>
<path d="M4.39648 12.4531C4.39648 12.4531 5.43299 13.2845 5.36044 17.1111" stroke="#525965" stroke-width="1.2" stroke-linecap="round"/>
<path d="M5.25293 14.5864H7.99133" stroke="#525965" stroke-width="1.2" stroke-linecap="round"/>
<path d="M7.42806 14.5859C7.42806 14.5859 7.11773 15.4564 7.22117 17.1082" stroke="#525965" stroke-width="1.2" stroke-linecap="round"/>
<path d="M15.6602 12.4531C15.6602 12.4531 14.6237 13.2845 14.6962 17.1111" stroke="#525965" stroke-width="1.2" stroke-linecap="round"/>
<path d="M14.8037 14.5864H12.0653" stroke="#525965" stroke-width="1.2" stroke-linecap="round"/>
<path d="M12.6286 14.5859C12.6286 14.5859 12.9389 15.4564 12.8355 17.1082" stroke="#525965" stroke-width="1.2" stroke-linecap="round"/>
<path d="M9.96857 3.28125V17.1122" stroke="#525965" stroke-width="1.2" stroke-linecap="round"/>
<path d="M8.0752 12.2918H11.8732" stroke="#525965" stroke-width="1.2" stroke-linecap="round"/>
</svg>
