<svg width="20" height="21" viewBox="0 0 20 21" fill="none" xmlns="http://www.w3.org/2000/svg">
<path d="M3.37695 8.20656V8.20656V5.6132C3.37695 4.55398 4.23562 3.69531 5.29484 3.69531H14.6647C15.7239 3.69531 16.5826 4.55398 16.5826 5.6132V8.24433V8.24433" stroke="#525965" stroke-width="1.2"/>
<mask id="path-2-inside-1_5108_10344" fill="white">
<path fill-rule="evenodd" clip-rule="evenodd" d="M1.57617 9.74672C1.57617 8.73025 2.40018 7.90625 3.41664 7.90625C4.4331 7.90625 5.25711 8.73026 5.25711 9.74672V11.5163H14.7426V9.74672C14.7426 8.73025 15.5667 7.90625 16.5831 7.90625C17.5996 7.90625 18.4236 8.73026 18.4236 9.74672V14.2063H18.4235V14.3972C18.4235 14.8391 18.0654 15.1972 17.6235 15.1972H2.37617C1.93434 15.1972 1.57617 14.8391 1.57617 14.3972V14.2063V12.5163V9.74672Z"/>
</mask>
<path d="M5.25711 11.5163H4.05711V12.7163H5.25711V11.5163ZM14.7426 11.5163V12.7163H15.9426V11.5163H14.7426ZM18.4236 14.2063V15.4063H19.6236V14.2063H18.4236ZM18.4235 14.2063V13.0063H17.2235V14.2063H18.4235ZM3.41664 6.70625C1.73744 6.70625 0.376172 8.06751 0.376172 9.74672H2.77617C2.77617 9.393 3.06292 9.10625 3.41664 9.10625V6.70625ZM6.45711 9.74672C6.45711 8.06751 5.09584 6.70625 3.41664 6.70625V9.10625C3.77036 9.10625 4.05711 9.393 4.05711 9.74672H6.45711ZM6.45711 11.5163V9.74672H4.05711V11.5163H6.45711ZM14.7426 10.3163H5.25711V12.7163H14.7426V10.3163ZM15.9426 11.5163V9.74672H13.5426V11.5163H15.9426ZM15.9426 9.74672C15.9426 9.393 16.2294 9.10625 16.5831 9.10625V6.70625C14.9039 6.70625 13.5426 8.06751 13.5426 9.74672H15.9426ZM16.5831 9.10625C16.9368 9.10625 17.2236 9.393 17.2236 9.74672H19.6236C19.6236 8.06751 18.2623 6.70625 16.5831 6.70625V9.10625ZM17.2236 9.74672V14.2063H19.6236V9.74672H17.2236ZM18.4236 13.0063H18.4235V15.4063H18.4236V13.0063ZM19.6235 14.3972V14.2063H17.2235V14.3972H19.6235ZM17.6235 16.3972C18.7281 16.3972 19.6235 15.5018 19.6235 14.3972H17.2235C17.2235 14.1763 17.4026 13.9972 17.6235 13.9972V16.3972ZM2.37617 16.3972H17.6235V13.9972H2.37617V16.3972ZM0.376172 14.3972C0.376172 15.5018 1.2716 16.3972 2.37617 16.3972V13.9972C2.59709 13.9972 2.77617 14.1763 2.77617 14.3972H0.376172ZM0.376172 14.2063V14.3972H2.77617V14.2063H0.376172ZM0.376172 12.5163V14.2063H2.77617V12.5163H0.376172ZM0.376172 9.74672V12.5163H2.77617V9.74672H0.376172Z" fill="#525965" mask="url(#path-2-inside-1_5108_10344)"/>
<path d="M3.37706 15.0625L3.38089 16.934" stroke="#525965" stroke-width="1.2" stroke-linecap="round"/>
<path d="M16.618 15.0078L16.6185 16.9286" stroke="#525965" stroke-width="1.2" stroke-linecap="round"/>
</svg>
