<svg width="20" height="20" viewBox="0 0 20 20" fill="none" xmlns="http://www.w3.org/2000/svg">
<path d="M14.5367 10.5132L15.1651 12.2247C15.3152 12.6334 15.0987 13.084 14.6815 13.231C14.5943 13.2617 14.5024 13.2774 14.4098 13.2774H5.585C5.14164 13.2774 4.78223 12.9253 4.78223 12.4909C4.78223 12.3994 4.79854 12.3085 4.83044 12.2225L5.49205 10.4375V10.4375" stroke="#525965" stroke-width="1.2"/>
<path fill-rule="evenodd" clip-rule="evenodd" d="M3.41309 9.69375C3.41309 9.36238 3.68172 9.09375 4.01309 9.09375H15.9862C16.3175 9.09375 16.5862 9.36238 16.5862 9.69375V10.042C16.5862 10.3734 16.3175 10.642 15.9862 10.642H4.01309C3.68172 10.642 3.41309 10.3734 3.41309 10.042L3.41309 9.69375Z" stroke="#525965" stroke-width="1.2"/>
<path d="M5.97266 9.09273V6.84127C5.97266 6.84127 6.20472 1.75 9.95986 1.75" stroke="#525965" stroke-width="1.2" stroke-linecap="round"/>
<path d="M14.0518 9.09273V6.84127C14.0518 6.84127 13.8197 1.75 10.0646 1.75" stroke="#525965" stroke-width="1.2" stroke-linecap="round"/>
<path d="M6.17572 13.3203C6.17572 13.3203 4.66298 14.8919 4.32227 18.2395" stroke="#525965" stroke-width="1.2" stroke-linecap="round"/>
<path d="M14.0128 13.3203C14.0128 13.3203 15.5255 14.8919 15.8662 18.2395" stroke="#525965" stroke-width="1.2" stroke-linecap="round"/>
</svg>
