<svg width="20" height="21" viewBox="0 0 20 21" fill="none" xmlns="http://www.w3.org/2000/svg">
<path d="M6.9753 2.20312H6.38274C6.21705 2.20312 6.08274 2.33744 6.08274 2.50312V5.06522C6.08274 5.06522 6.08274 6.28572 5.52261 7.6734C4.96248 9.06108 4.85087 8.74221 4.66253 10.2894C4.4978 11.6426 4.62123 16.9189 4.65477 18.2204C4.65895 18.3827 4.7918 18.5117 4.95419 18.5117H6.9753" stroke="#525965" stroke-width="1.2"/>
<path d="M6.97588 2.20312H7.56844C7.73412 2.20312 7.86844 2.33744 7.86844 2.50312V5.06522C7.86844 5.06522 7.86844 6.26328 8.42857 7.65096C8.9887 9.03864 9.1003 8.74221 9.28864 10.2894C9.45338 11.6426 9.32994 16.9189 9.29641 18.2204C9.29222 18.3827 9.15938 18.5117 8.99699 18.5117H6.97588" stroke="#525965" stroke-width="1.2"/>
<path d="M4.85352 10.6953H6.09889C6.30216 10.6953 6.46694 10.8601 6.46694 11.0634V15.8481C6.46694 16.0514 6.30216 16.2162 6.09889 16.2162H4.85352" stroke="#525965" stroke-width="1.2" stroke-linecap="round"/>
<path d="M12.4613 15.3556V13.1H14.8309V15.3556C14.8309 16.01 14.3004 16.5404 13.6461 16.5404C12.9918 16.5404 12.4613 16.01 12.4613 15.3556Z" stroke="#525965" stroke-width="1.2"/>
<path d="M13.6142 17V18.5289" stroke="#525965" stroke-width="1.2"/>
<path d="M12.293 18.5263H14.904" stroke="#525965" stroke-width="1.2" stroke-linecap="round"/>
</svg>
