<svg width="20" height="21" viewBox="0 0 20 21" fill="none" xmlns="http://www.w3.org/2000/svg">
<path d="M3.62009 13.2299L4.21948 13.203V13.203L3.62009 13.2299ZM3.56883 13.147L3.86071 12.6228L3.8607 12.6228L3.56883 13.147ZM3.87495 18.9066L3.27555 18.9335V18.9335L3.87495 18.9066ZM6.56526 18.9065L7.16468 18.9327V18.9327L6.56526 18.9065ZM6.81398 13.2297L6.21456 13.2034V13.2034L6.81398 13.2297ZM6.86486 13.1469L6.57066 12.624L6.57065 12.624L6.86486 13.1469ZM7.98503 12.5167L8.27923 13.0396H8.27923L7.98503 12.5167ZM2.43629 12.5164L2.72816 11.9922L2.72816 11.9922L2.43629 12.5164ZM6.20714 4.07357C6.20714 4.62421 5.76077 5.07059 5.21013 5.07059V6.27059C6.42351 6.27059 7.40714 5.28695 7.40714 4.07357H6.20714ZM5.21013 3.07656C5.76077 3.07656 6.20714 3.52294 6.20714 4.07357H7.40714C7.40714 2.8602 6.42351 1.87656 5.21013 1.87656V3.07656ZM4.21312 4.07357C4.21312 3.52294 4.6595 3.07656 5.21013 3.07656V1.87656C3.99676 1.87656 3.01312 2.8602 3.01312 4.07357H4.21312ZM5.21013 5.07059C4.6595 5.07059 4.21312 4.62421 4.21312 4.07357H3.01312C3.01312 5.28695 3.99676 6.27059 5.21013 6.27059V5.07059ZM4.21948 13.203C4.2086 12.9604 4.07282 12.7409 3.86071 12.6228L3.27696 13.6712C3.12545 13.5869 3.02847 13.43 3.02069 13.2568L4.21948 13.203ZM4.47435 18.8797L4.21948 13.203L3.02069 13.2568L3.27555 18.9335L4.47435 18.8797ZM3.97485 18.4021C4.24227 18.4021 4.46235 18.6125 4.47435 18.8797L3.27555 18.9335C3.29235 19.3075 3.60046 19.6021 3.97485 19.6021V18.4021ZM6.46535 18.4021H3.97485V19.6021H6.46535V18.4021ZM5.96583 18.8802C5.97755 18.6128 6.19773 18.4021 6.46535 18.4021V19.6021C6.84003 19.6021 7.14828 19.3071 7.16468 18.9327L5.96583 18.8802ZM6.21456 13.2034L5.96583 18.8802L7.16468 18.9327L7.41341 13.2559L6.21456 13.2034ZM6.57065 12.624C6.35981 12.7426 6.22515 12.9617 6.21456 13.2034L7.41341 13.2559C7.40584 13.4286 7.30966 13.5851 7.15906 13.6698L6.57065 12.624ZM7.69084 11.9937L6.57066 12.624L7.15905 13.6698L8.27923 13.0396L7.69084 11.9937ZM7.53794 12.2552C7.53794 12.1468 7.59639 12.0469 7.69084 11.9937L8.27923 13.0396C8.56259 12.8802 8.73794 12.5803 8.73794 12.2552H7.53794ZM7.53794 9.10728V12.2552H8.73794V9.10728H7.53794ZM6.13794 7.70728C6.91114 7.70728 7.53794 8.33408 7.53794 9.10728H8.73794C8.73794 7.67134 7.57388 6.50728 6.13794 6.50728V7.70728ZM4.28223 7.70728H6.13794V6.50728H4.28223V7.70728ZM2.88223 9.10728C2.88223 8.33408 3.50903 7.70728 4.28223 7.70728V6.50728C2.84629 6.50728 1.68223 7.67134 1.68223 9.10728H2.88223ZM2.88223 12.2543V9.10728H1.68223V12.2543H2.88223ZM2.72816 11.9922C2.82327 12.0452 2.88223 12.1455 2.88223 12.2543H1.68223C1.68223 12.5809 1.85911 12.8818 2.14442 13.0407L2.72816 11.9922ZM3.8607 12.6228L2.72816 11.9922L2.14442 13.0407L3.27696 13.6712L3.8607 12.6228Z" fill="#525965"/>
<path d="M12.708 14.6545L12.1088 14.6873L12.708 14.6545ZM12.9404 18.9075L13.5395 18.8748H13.5395L12.9404 18.9075ZM15.6325 18.9074L16.2316 18.9395L15.6325 18.9074ZM15.8599 14.6547L16.4591 14.6867L15.8599 14.6547ZM17.7153 14.4422L17.1249 14.5491L17.1249 14.5491L17.7153 14.4422ZM16.6552 8.58663L16.0648 8.69351L16.6552 8.58663ZM11.8988 8.5863L12.4892 8.69329L11.8988 8.5863ZM10.8376 14.4422L10.2472 14.3352H10.2472L10.8376 14.4422ZM15.2734 4.07357C15.2734 4.62421 14.8271 5.07059 14.2764 5.07059V6.27059C15.4898 6.27059 16.4734 5.28695 16.4734 4.07357H15.2734ZM14.2764 3.07656C14.8271 3.07656 15.2734 3.52294 15.2734 4.07357H16.4734C16.4734 2.8602 15.4898 1.87656 14.2764 1.87656V3.07656ZM13.2794 4.07357C13.2794 3.52294 13.7258 3.07656 14.2764 3.07656V1.87656C13.0631 1.87656 12.0794 2.8602 12.0794 4.07357H13.2794ZM14.2764 5.07059C13.7258 5.07059 13.2794 4.62421 13.2794 4.07357H12.0794C12.0794 5.28695 13.0631 6.27059 14.2764 6.27059V5.07059ZM13.3071 14.6218C13.2868 14.2506 12.9799 13.96 12.6081 13.96V15.16C12.3426 15.16 12.1233 14.9524 12.1088 14.6873L13.3071 14.6218ZM13.5395 18.8748L13.3071 14.6218L12.1088 14.6873L12.3413 18.9403L13.5395 18.8748ZM13.0402 18.4021C13.3058 18.4021 13.525 18.6096 13.5395 18.8748L12.3413 18.9403C12.3616 19.3115 12.6685 19.6021 13.0402 19.6021V18.4021ZM15.5326 18.4021H13.0402V19.6021H15.5326V18.4021ZM15.0333 18.8754C15.0475 18.61 15.2668 18.4021 15.5326 18.4021V19.6021C15.9047 19.6021 16.2117 19.311 16.2316 18.9395L15.0333 18.8754ZM15.2608 14.6226L15.0333 18.8754L16.2316 18.9395L16.4591 14.6867L15.2608 14.6226ZM15.9598 13.96C15.5877 13.96 15.2807 14.2511 15.2608 14.6226L16.4591 14.6867C16.4449 14.9521 16.2256 15.16 15.9598 15.16V13.96ZM17.6169 13.96H15.9598V15.16H17.6169V13.96ZM17.1249 14.5491C17.0693 14.2423 17.3051 13.96 17.6169 13.96V15.16C18.0534 15.16 18.3834 14.7648 18.3057 14.3353L17.1249 14.5491ZM16.0648 8.69351L17.1249 14.5491L18.3057 14.3353L17.2456 8.47974L16.0648 8.69351ZM14.884 7.70728C15.4643 7.70728 15.9614 8.12251 16.0648 8.69351L17.2456 8.47974C17.0389 7.33773 16.0446 6.50728 14.884 6.50728V7.70728ZM13.67 7.70728H14.884V6.50728H13.67V7.70728ZM12.4892 8.69329C12.5927 8.12239 13.0898 7.70728 13.67 7.70728V6.50728C12.5096 6.50728 11.5153 7.3375 11.3084 8.47931L12.4892 8.69329ZM11.428 14.5492L12.4892 8.69329L11.3084 8.47931L10.2472 14.3352L11.428 14.5492ZM10.936 13.96C11.2478 13.96 11.4836 14.2423 11.428 14.5492L10.2472 14.3352C10.1693 14.7647 10.4994 15.16 10.936 15.16V13.96ZM12.6081 13.96H10.936V15.16H12.6081V13.96Z" fill="#525965"/>
</svg>
