<svg width="20" height="21" viewBox="0 0 20 21" fill="none" xmlns="http://www.w3.org/2000/svg">
<path d="M17.0398 14.4453V16.8054C17.0398 16.9082 16.9565 16.9915 16.8537 16.9915H15.1041C15.0013 16.9915 14.918 16.9082 14.918 16.8054V15.2377V15.2377" stroke="#525965" stroke-width="1.2"/>
<path d="M2.99047 14.4453V16.8054C2.99047 16.9082 3.07379 16.9915 3.17656 16.9915H4.92622C5.02899 16.9915 5.1123 16.9082 5.1123 16.8054V15.2377" stroke="#525965" stroke-width="1.2"/>
<path d="M4.64186 6.10652C4.94612 5.41855 5.62706 4.975 6.37906 4.975H10.0143H13.6596C14.4077 4.975 15.0859 5.41397 15.3925 6.0965L16.7821 9.19012V13.6171C16.7821 14.3903 16.1553 15.0171 15.3821 15.0171H4.64648C3.87329 15.0171 3.24648 14.3903 3.24648 13.6171V9.26168L4.64186 6.10652Z" stroke="#525965" stroke-width="1.2"/>
<path d="M2.95996 10.2242H16.9802" stroke="#525965" stroke-width="1.2"/>
<path d="M17.0918 8.90559L17.7447 8.56884H18.4568" stroke="#525965" stroke-width="1.2" stroke-linecap="round"/>
<path d="M2.95996 9.01375L2.29384 8.7263H1.54259" stroke="#525965" stroke-width="1.2" stroke-linecap="round"/>
<path d="M5.19824 12.657H6.40478" stroke="#525965" stroke-width="1.2" stroke-linecap="round"/>
<path d="M13.6514 12.6539H14.8579" stroke="#525965" stroke-width="1.2" stroke-linecap="round"/>
</svg>
