<svg width="20" height="21" viewBox="0 0 20 21" fill="none" xmlns="http://www.w3.org/2000/svg">
<path d="M1.62305 6.14062C1.62305 7.49078 2.40699 8.65784 3.54453 9.21144" stroke="#525965" stroke-width="1.2" stroke-linecap="round"/>
<path fill-rule="evenodd" clip-rule="evenodd" d="M4.4678 8.69788L10.6805 8.672C11.057 8.67043 11.4007 8.45756 11.5698 8.12121L13.7672 3.75079C13.8037 3.6783 13.9067 3.6771 13.9448 3.74872L14.5105 4.81145C14.6841 5.13772 15.0236 5.3416 15.3932 5.3416H18.1635C18.2794 5.3416 18.3697 5.43962 18.3534 5.55441C18.2721 6.12744 17.9434 7.69994 16.7439 8.29968H16.3004C15.8474 8.29968 15.4509 8.60426 15.3342 9.04202L14.0531 13.8461L13.8626 18.0922C13.8578 18.199 13.7698 18.2832 13.6628 18.2832H12.1808C12.0804 18.2832 11.9956 18.2088 11.9825 18.1093L11.5476 14.7993C11.499 14.4294 11.2485 14.1173 10.8979 13.9898L8.12493 12.9815C7.69833 12.8264 7.22076 12.978 6.96183 13.3509L5.81375 15.004L5.33692 18.1135C5.32195 18.2111 5.23798 18.2832 5.13923 18.2832H3.53008C3.41962 18.2832 3.33008 18.1937 3.33008 18.0832V10.1485V9.83561C3.33008 9.20726 3.83945 8.69788 4.4678 8.69788V8.69788Z" stroke="#525965" stroke-width="1.2"/>
<path d="M11.1221 8.6875C11.4912 8.71415 11.8943 8.84799 11.8943 8.84799L15.023 9.98571" stroke="#525965" stroke-width="1.2" stroke-linecap="square"/>
</svg>
