<svg width="87" height="22" viewBox="0 0 87 22" fill="none" xmlns="http://www.w3.org/2000/svg">
<rect x="0.4" y="0.4" width="85.4857" height="21.2" rx="3.6" fill="#FAFEFD"/>
<rect x="0.4" y="0.4" width="85.4857" height="21.2" rx="3.6" stroke="url(#paint0_linear_6_7114)" stroke-width="0.8"/>
<path d="M9.11524 5.85714C8.62626 5.85714 8.19751 6.18253 8.0676 6.6522L6.87677 10.9577C6.78143 11.3024 7.04173 11.6429 7.40059 11.6429H9.3543L7.58699 15.3703C7.41672 15.7294 7.67964 16.1429 8.07827 16.1429H8.54336C8.72176 16.1429 8.89354 16.0756 9.02422 15.9546L15.098 10.3307C15.4596 9.99585 15.2218 9.39282 14.7281 9.39282H12.5845L14.3279 6.69127C14.5604 6.331 14.3008 5.85714 13.8709 5.85714H9.11524Z" fill="#3A37C8"/>
<path fill-rule="evenodd" clip-rule="evenodd" d="M9.76081 11.3857L7.81933 15.4804C7.73061 15.6676 7.86693 15.8857 8.07827 15.8857H8.54336C8.6571 15.8857 8.76646 15.8428 8.84951 15.7659L14.9233 10.142C15.1118 9.96746 14.99 9.64997 14.7281 9.64997H12.1125L14.1119 6.55183C14.233 6.36411 14.0989 6.11428 13.8709 6.11428H9.11524C8.74132 6.11428 8.41437 6.36305 8.31544 6.72075L7.12461 11.0263C7.07491 11.2059 7.21039 11.3857 7.40059 11.3857H9.76081ZM14.3279 6.69127C14.5604 6.331 14.3008 5.85714 13.8709 5.85714H9.11524C8.62626 5.85714 8.19751 6.18253 8.0676 6.6522L6.87677 10.9577C6.78143 11.3024 7.04173 11.6429 7.40059 11.6429H9.3543L7.58699 15.3703C7.41672 15.7294 7.67964 16.1429 8.07827 16.1429H8.54336C8.72176 16.1429 8.89354 16.0756 9.02422 15.9546L15.098 10.3307C15.4596 9.99585 15.2218 9.39282 14.7281 9.39282H12.5845L14.3279 6.69127Z" fill="black" fill-opacity="0.08"/>
<path d="M23.2691 8.74503C23.2654 9.26811 23.355 9.79301 23.5379 10.3197C23.7245 10.8465 24.0025 11.3293 24.3719 11.7683C24.7414 12.2036 25.1895 12.5419 25.7162 12.7833L24.9371 13.8807C24.3957 13.632 23.9257 13.2717 23.527 12.7998C23.1282 12.3243 22.8137 11.7756 22.5832 11.1537C22.3528 11.8378 22.0309 12.4395 21.6175 12.9589C21.2079 13.4783 20.7232 13.8697 20.1635 14.1331L19.3515 13.0247C19.8855 12.776 20.3409 12.423 20.7177 11.9658C21.0945 11.5049 21.378 10.9946 21.5682 10.435C21.762 9.87531 21.8608 9.312 21.8644 8.74503V8.13051H19.7465V6.98925H25.2772V8.13051H23.2691V8.74503ZM27.461 9.83142H28.9315V11.0056H27.461V16.0096H26.0564V6.02357H27.461V9.83142ZM37.6665 16.0315H36.2728V6.02357H37.6665V16.0315ZM34.5719 10.7093H31.2798V12.5419C32.0626 12.5382 32.7924 12.5108 33.4691 12.4596C34.1494 12.4084 34.8463 12.3261 35.5595 12.2127L35.6803 13.343C34.9048 13.4783 34.133 13.5716 33.3648 13.6228C32.5967 13.6704 31.7188 13.6941 30.7311 13.6941H29.8313V9.60097H33.1453V7.98785H29.8203V6.85756H34.5719V10.7093ZM42.7473 7.73545C42.7473 8.18172 42.8296 8.60969 42.9942 9.01937C43.1588 9.42539 43.4112 9.78935 43.7514 10.1112C44.0915 10.4295 44.5177 10.6727 45.0298 10.841L44.2726 11.9384C43.7568 11.7481 43.3124 11.4775 42.9393 11.1263C42.5699 10.7752 42.2772 10.3618 42.0614 9.88629C41.8419 10.424 41.5329 10.8885 41.1341 11.2799C40.7391 11.6677 40.2599 11.964 39.6966 12.1688L38.9394 11.0714C39.4771 10.8959 39.9234 10.638 40.2782 10.2978C40.6367 9.95762 40.9019 9.56622 41.0738 9.12362C41.2457 8.68102 41.3317 8.21464 41.3317 7.72448V6.63809H42.7473V7.73545ZM47.422 13.4088H46.0284V9.28274H44.1519V8.15245H46.0284V6.03454H47.422V13.4088ZM47.6305 15.834H40.772V12.6297H42.1876V14.7147H47.6305V15.834ZM57.1337 11.7957H55.7401V9.46929H54.1598V8.32803H55.7401V6.02357H57.1337V11.7957ZM57.1337 15.8998H50.4178V12.2127H57.1337V15.8998ZM51.8225 14.7805H55.762V13.3101H51.8225V14.7805ZM54.4781 7.65864H52.4919C52.4992 8.05369 52.587 8.43777 52.7552 8.81087C52.9271 9.18397 53.1832 9.52233 53.5234 9.82593C53.8636 10.1259 54.2842 10.3582 54.7853 10.5228L54.094 11.6311C53.5526 11.4519 53.0881 11.1921 52.7004 10.852C52.3163 10.5081 52.0127 10.1021 51.7895 9.63389C51.5591 10.1497 51.2409 10.5959 50.8348 10.9727C50.4325 11.3458 49.946 11.6238 49.3753 11.8067L48.6621 10.7093C49.1815 10.5447 49.6186 10.3051 49.9734 9.99054C50.3282 9.6723 50.5952 9.31383 50.7745 8.91512C50.9537 8.51275 51.0507 8.09393 51.0653 7.65864H49.0571V6.52836H54.4781V7.65864ZM68.8974 9.85337H70.313V11.0056H68.8974V15.9876H67.4928V6.02357H68.8974V9.85337ZM66.2308 7.04412C66.2235 8.63529 65.8651 10.0417 65.1554 11.2635C64.4495 12.4816 63.2972 13.482 61.6987 14.2648L60.9086 13.1894C62.0974 12.5931 63.0101 11.8871 63.6466 11.0714C64.2867 10.2557 64.6726 9.29371 64.8043 8.18537H61.4793V7.04412H66.2308ZM78.8286 9.64487H71.8823V6.1772H73.2759V8.52556H78.8286V9.64487ZM79.8601 11.6421H70.73V10.5008H79.8601V11.6421ZM75.2731 12.2676C75.9937 12.2712 76.6137 12.3462 77.1331 12.4925C77.6526 12.6388 78.0513 12.851 78.3293 13.129C78.6073 13.4033 78.7481 13.7344 78.7518 14.1221C78.7481 14.5135 78.6073 14.8482 78.3293 15.1262C78.0513 15.4042 77.6526 15.6145 77.1331 15.7572C76.6137 15.9035 75.9937 15.9767 75.2731 15.9767C74.5452 15.9767 73.9197 15.9035 73.3966 15.7572C72.8736 15.6145 72.4712 15.4042 72.1895 15.1262C71.9115 14.8482 71.7725 14.5135 71.7725 14.1221C71.7725 13.7344 71.9115 13.4033 72.1895 13.129C72.4712 12.851 72.8736 12.6388 73.3966 12.4925C73.9197 12.3462 74.5452 12.2712 75.2731 12.2676ZM75.2731 13.354C74.5708 13.3613 74.0477 13.4271 73.7039 13.5515C73.3637 13.6722 73.1954 13.8624 73.1991 14.1221C73.1918 14.3818 73.3637 14.5793 73.7149 14.7147C74.066 14.8464 74.5854 14.9122 75.2731 14.9122C75.9462 14.9122 76.4583 14.8464 76.8094 14.7147C77.1606 14.5793 77.3398 14.3818 77.3471 14.1221C77.3435 13.8624 77.1679 13.6722 76.8204 13.5515C76.4766 13.4271 75.9608 13.3613 75.2731 13.354Z" fill="#3A37C8"/>
<defs>
<linearGradient id="paint0_linear_6_7114" x1="0" y1="11" x2="86.2857" y2="11" gradientUnits="userSpaceOnUse">
<stop stop-color="#4B6ADA"/>
<stop offset="1" stop-color="#3A37C8"/>
</linearGradient>
</defs>
</svg>
