<svg width="24" height="24" viewBox="0 0 24 24" fill="none" xmlns="http://www.w3.org/2000/svg">
<path d="M13.504 6.47267C15.0412 4.94015 17.5328 4.94025 19.0694 6.47267L19.0899 6.49318C20.6294 8.02942 20.6381 10.5164 19.1095 12.0635L14.8058 16.417C14.7991 16.4237 14.7935 16.4309 14.7862 16.4375C14.7089 16.5147 14.628 16.5868 14.546 16.6563L12.8956 18.3037C12.3955 18.8026 11.5852 18.8026 11.0851 18.3037L8.54112 15.7656L8.546 15.7598L4.8917 12.0635C3.3626 10.5164 3.37211 8.02936 4.91221 6.49318L4.93174 6.47267C6.46836 4.9401 8.96055 4.9401 10.4972 6.47267C10.5039 6.47993 10.51 6.48652 10.5167 6.49318L11.089 7.07228C11.5905 7.57969 12.4106 7.57957 12.9122 7.07228L13.4845 6.49318L13.504 6.47267Z" fill="#2E3137"/>
<path d="M13.504 6.47267L12.9392 5.90613L12.9318 5.91345L12.9247 5.92095L13.504 6.47267ZM19.0694 6.47267L19.6351 5.90699L19.6343 5.90621L19.0694 6.47267ZM19.0899 6.49318L18.5243 7.05887L18.5248 7.05945L19.0899 6.49318ZM19.1095 12.0635L19.6784 12.6259L19.6786 12.6258L19.1095 12.0635ZM14.8058 16.417L15.3707 16.9834L15.3747 16.9794L14.8058 16.417ZM14.7862 16.4375L14.2461 15.8474L14.2333 15.8591L14.2211 15.8713L14.7862 16.4375ZM14.546 16.6563L14.0289 16.0458L14.004 16.067L13.9808 16.0901L14.546 16.6563ZM12.8956 18.3037L13.4605 18.8702L13.4608 18.8699L12.8956 18.3037ZM11.0851 18.3037L10.52 18.8701L10.5201 18.8702L11.0851 18.3037ZM8.54112 15.7656L7.92654 15.2535L7.4583 15.8154L7.97609 16.332L8.54112 15.7656ZM8.546 15.7598L9.16058 16.2719L9.6256 15.7139L9.11491 15.1973L8.546 15.7598ZM4.8917 12.0635L4.32271 12.6259L4.3228 12.6259L4.8917 12.0635ZM4.91221 6.49318L5.47718 7.05959L5.48444 7.05234L5.49152 7.0449L4.91221 6.49318ZM4.93174 6.47267L4.3668 5.90624L4.35952 5.9135L4.35243 5.92095L4.93174 6.47267ZM10.4972 6.47267L11.0858 5.93092L11.0742 5.91833L11.0621 5.90624L10.4972 6.47267ZM10.5167 6.49318L11.0858 5.93085L11.0816 5.92675L10.5167 6.49318ZM11.089 7.07228L10.5199 7.6346L10.52 7.63466L11.089 7.07228ZM12.9122 7.07228L13.481 7.6348L13.4812 7.6346L12.9122 7.07228ZM13.4845 6.49318L14.0535 7.0555L14.0587 7.05025L14.0638 7.0449L13.4845 6.49318ZM13.504 6.47267L14.0688 7.03922C15.2938 5.81794 17.2802 5.81813 18.5045 7.03913L19.0694 6.47267L19.6343 5.90621C17.7854 4.06238 14.7886 4.06236 12.9392 5.90613L13.504 6.47267ZM19.0694 6.47267L18.5038 7.03836L18.5243 7.05887L19.0899 6.49318L19.6556 5.9275L19.6351 5.90699L19.0694 6.47267ZM19.0899 6.49318L18.5248 7.05945C19.7526 8.28468 19.7596 10.2673 18.5404 11.5012L19.1095 12.0635L19.6786 12.6258C21.5166 10.7655 21.5061 7.77417 19.655 5.92691L19.0899 6.49318ZM19.1095 12.0635L18.5405 11.5011L14.2368 15.8546L14.8058 16.417L15.3747 16.9794L19.6784 12.6259L19.1095 12.0635ZM14.8058 16.417L14.2408 15.8506C14.2279 15.8635 14.2177 15.8744 14.2119 15.8808C14.2089 15.884 14.2064 15.8867 14.2052 15.8881C14.2046 15.8888 14.2039 15.8895 14.2037 15.8897C14.2034 15.8901 14.2034 15.8901 14.2035 15.8899C14.2037 15.8898 14.2084 15.8846 14.2151 15.8776C14.2221 15.8703 14.2327 15.8597 14.2461 15.8474L14.7862 16.4375L15.3264 17.0276C15.3591 16.9977 15.3831 16.971 15.3889 16.9646C15.3898 16.9636 15.3906 16.9627 15.3911 16.9622C15.3917 16.9615 15.3918 16.9615 15.392 16.9612C15.3923 16.9609 15.3914 16.9619 15.39 16.9634C15.3872 16.9664 15.3803 16.9739 15.3707 16.9834L14.8058 16.417ZM14.7862 16.4375L14.2211 15.8713C14.1644 15.9279 14.1011 15.9847 14.0289 16.0458L14.546 16.6563L15.0631 17.2667C15.1548 17.189 15.2534 17.1016 15.3514 17.0037L14.7862 16.4375ZM14.546 16.6563L13.9808 16.0901L12.3304 17.7375L12.8956 18.3037L13.4608 18.8699L15.1112 17.2225L14.546 16.6563ZM12.8956 18.3037L12.3307 17.7373C12.1428 17.9247 11.8379 17.9247 11.65 17.7373L11.0851 18.3037L10.5201 18.8702C11.3325 19.6804 12.6481 19.6804 13.4605 18.8702L12.8956 18.3037ZM11.0851 18.3037L11.6501 17.7374L9.10615 15.1993L8.54112 15.7656L7.97609 16.332L10.52 18.8701L11.0851 18.3037ZM8.54112 15.7656L9.1557 16.2778L9.16058 16.2719L8.546 15.7598L7.93142 15.2476L7.92654 15.2535L8.54112 15.7656ZM8.546 15.7598L9.11491 15.1973L5.46061 11.501L4.8917 12.0635L4.3228 12.6259L7.97709 16.3222L8.546 15.7598ZM4.8917 12.0635L5.4607 11.5011C4.24133 10.2674 4.24871 8.28493 5.47718 7.05959L4.91221 6.49318L4.34725 5.92677C2.49551 7.7738 2.48386 10.7653 4.32271 12.6259L4.8917 12.0635ZM4.91221 6.49318L5.49152 7.0449L5.51105 7.0244L4.93174 6.47267L4.35243 5.92095L4.3329 5.94146L4.91221 6.49318ZM4.93174 6.47267L5.49668 7.0391C6.72106 5.81796 8.70786 5.81796 9.93223 7.0391L10.4972 6.47267L11.0621 5.90624C9.21324 4.06224 6.21567 4.06224 4.3668 5.90624L4.93174 6.47267ZM10.4972 6.47267L9.90853 7.01443C9.91771 7.02441 9.93295 7.04085 9.95177 7.05961L10.5167 6.49318L11.0816 5.92675C11.0871 5.93219 11.09 5.93546 11.0858 5.93092L10.4972 6.47267ZM10.5167 6.49318L9.94767 7.0555L10.5199 7.6346L11.089 7.07228L11.658 6.50997L11.0857 5.93086L10.5167 6.49318ZM11.089 7.07228L10.52 7.63466C11.3348 8.45903 12.6664 8.45861 13.481 7.6348L12.9122 7.07228L12.3434 6.50977C12.1547 6.70054 11.8462 6.70036 11.6579 6.5099L11.089 7.07228ZM12.9122 7.07228L13.4812 7.6346L14.0535 7.0555L13.4845 6.49318L12.9154 5.93086L12.3432 6.50997L12.9122 7.07228ZM13.4845 6.49318L14.0638 7.0449L14.0833 7.0244L13.504 6.47267L12.9247 5.92095L12.9052 5.94146L13.4845 6.49318Z" fill="#2E3137"/>
<path d="M12.9402 5.90629C14.7318 4.12065 17.6004 4.06396 19.4587 5.73832L19.6355 5.90629L19.655 5.92679C21.5059 7.77391 21.517 10.7657 19.6794 12.626L15.3748 16.9786C15.3687 16.985 15.3603 16.9931 15.3513 17.002L15.3523 17.0039C15.2657 17.0904 15.1768 17.1677 15.0945 17.2383L13.4617 18.8702C12.7 19.6298 11.4954 19.6774 10.6785 19.0127L10.5212 18.8702L7.45874 15.8155L7.46656 15.8047L4.32398 12.626C2.49007 10.7703 2.49643 7.78953 4.33374 5.94144L4.35327 5.92094L4.36011 5.91312L4.36792 5.90629C6.15918 4.12038 9.02823 4.0644 10.8865 5.73929L11.0632 5.90629L11.075 5.91801L11.0867 5.9307L11.6589 6.5098C11.8471 6.70004 12.1549 6.70023 12.3435 6.5098L12.9158 5.9307L12.9255 5.92094L12.9324 5.91312L12.9402 5.90629Z" fill="#2E3137"/>
</svg>
