<svg width="24" height="24" viewBox="0 0 24 24" fill="none" xmlns="http://www.w3.org/2000/svg">
<path d="M12.939 5.90657C14.7306 4.12054 17.5991 4.06407 19.4576 5.7386L19.6333 5.90657L19.6539 5.92708C21.5049 7.77433 21.5163 10.766 19.6783 12.6263L15.3736 16.9788C15.3674 16.9854 15.3593 16.9932 15.3501 17.0023L15.3511 17.0042C15.2643 17.0909 15.1758 17.1679 15.0933 17.2386L13.4605 18.8704C12.6482 19.6804 11.3324 19.6804 10.5201 18.8704L7.45757 15.8158L7.46538 15.806L4.32183 12.6263C2.48315 10.7658 2.49477 7.77409 4.34624 5.92708L4.3521 5.92122L4.35894 5.91341L4.36675 5.90657C6.15784 4.12043 9.02691 4.06398 10.8853 5.7386L11.0611 5.90657L11.0738 5.91829L11.0855 5.93098L11.6578 6.51009C11.8459 6.70034 12.1537 6.70056 12.3423 6.51009L12.9146 5.93098L12.9244 5.92122L12.9312 5.91341L12.939 5.90657ZM18.3873 6.92903C17.1586 5.8217 15.261 5.8554 14.0738 7.03255L14.063 7.04524L14.0582 7.05013L14.0533 7.05598L13.481 7.63509C12.6663 8.45867 11.3338 8.45937 10.5191 7.63509L9.94683 7.05598C9.93841 7.0475 9.93092 7.03851 9.92437 7.03157C8.70176 5.82034 6.7249 5.82001 5.50249 7.03157L5.49077 7.04524L5.48394 7.05306L5.4771 7.05989C4.24863 8.28523 4.24113 10.2676 5.4605 11.5013L9.62554 15.7142L9.62358 15.7161L11.65 17.7376C11.8378 17.925 12.1417 17.9248 12.3296 17.7376L13.98 16.0902L14.0035 16.0677L14.0279 16.0462C14.1001 15.9851 14.1636 15.928 14.2203 15.8714C14.2256 15.8657 14.2321 15.8586 14.2398 15.8509L18.5396 11.5013C19.7588 10.2674 19.7517 8.28512 18.524 7.05989L18.5044 7.03938L18.3873 6.92903Z" fill="#969FAC"/>
</svg>
