<svg width="24" height="24" viewBox="0 0 24 24" fill="none" xmlns="http://www.w3.org/2000/svg">
    <path
        d="M12.001 2.50098C17.247 2.50113 21.4997 6.75396 21.5 12C21.5 17.2463 17.2472 21.4989 12.001 21.499C6.75469 21.4989 2.50195 17.2463 2.50195 12C2.50221 6.75391 6.75485 2.50105 12.001 2.50098ZM12.001 4.10059C7.6385 4.10066 4.10182 7.63757 4.10156 12C4.10156 16.3626 7.63835 19.8993 12.001 19.8994C16.3635 19.8993 19.9004 16.3626 19.9004 12C19.9001 7.63761 16.3634 4.10074 12.001 4.10059ZM12 15.25C12.5523 15.25 13 15.6977 13 16.25C13 16.8023 12.5523 17.25 12 17.25C11.4477 17.25 11 16.8023 11 16.25C11 15.6977 11.4477 15.25 12 15.25ZM12.8096 13.75H11.21V6.75H12.8096V13.75Z"
        fill="#6D7583" />
</svg>
