<svg width="39" height="38" viewBox="0 0 39 38" fill="none" xmlns="http://www.w3.org/2000/svg">
<mask id="path-1-inside-1_6547_18584" fill="white">
<path fill-rule="evenodd" clip-rule="evenodd" d="M19.5 0C9.00659 0 0.5 8.50659 0.5 19C0.5 22.6397 1.52343 26.0404 3.29821 28.93L1.05443 33.7545C0.644984 34.6348 1.41323 35.6077 2.37653 35.4287L8.27654 34.3324C11.4213 36.6383 15.3016 38 19.5 38C29.9934 38 38.5 29.4934 38.5 19C38.5 8.50659 29.9934 0 19.5 0Z"/>
</mask>
<path fill-rule="evenodd" clip-rule="evenodd" d="M19.5 0C9.00659 0 0.5 8.50659 0.5 19C0.5 22.6397 1.52343 26.0404 3.29821 28.93L1.05443 33.7545C0.644984 34.6348 1.41323 35.6077 2.37653 35.4287L8.27654 34.3324C11.4213 36.6383 15.3016 38 19.5 38C29.9934 38 38.5 29.4934 38.5 19C38.5 8.50659 29.9934 0 19.5 0Z" fill="#E1E6EE"/>
<path d="M3.29821 28.93L3.75158 29.1408L3.86487 28.8972L3.72426 28.6683L3.29821 28.93ZM1.05443 33.7545L1.50779 33.9653L1.05443 33.7545ZM2.37653 35.4287L2.46788 35.9203H2.46788L2.37653 35.4287ZM8.27654 34.3324L8.5722 33.9292L8.3978 33.8013L8.18519 33.8408L8.27654 34.3324ZM1 19C1 8.78273 9.28273 0.5 19.5 0.5V-0.5C8.73045 -0.5 0 8.23045 0 19H1ZM3.72426 28.6683C1.99645 25.8552 1 22.5447 1 19H0C0 22.7347 1.05041 26.2256 2.87216 29.1917L3.72426 28.6683ZM1.50779 33.9653L3.75158 29.1408L2.84484 28.7191L0.60106 33.5436L1.50779 33.9653ZM2.28519 34.9371C1.70881 35.0442 1.27514 34.4656 1.50779 33.9653L0.60106 33.5436C0.0148309 34.8041 1.11765 36.1712 2.46788 35.9203L2.28519 34.9371ZM8.18519 33.8408L2.28519 34.9371L2.46788 35.9203L8.36788 34.824L8.18519 33.8408ZM19.5 37.5C15.4115 37.5 11.6341 36.1743 8.5722 33.9292L7.98088 34.7356C11.2085 37.1022 15.1917 38.5 19.5 38.5V37.5ZM38 19C38 29.2173 29.7173 37.5 19.5 37.5V38.5C30.2696 38.5 39 29.7696 39 19H38ZM19.5 0.5C29.7173 0.5 38 8.78273 38 19H39C39 8.23045 30.2696 -0.5 19.5 -0.5V0.5Z" fill="#DAE0EA" mask="url(#path-1-inside-1_6547_18584)"/>
<path fill-rule="evenodd" clip-rule="evenodd" d="M19.4063 11.9648C18.8488 11.9648 18.399 12.4206 18.4063 12.978L18.512 21.0391C18.5192 21.5862 18.9648 22.026 19.5119 22.026H19.8512C20.3962 22.026 20.8408 21.5896 20.8511 21.0447L21.0023 12.9836C21.0128 12.4241 20.5621 11.9648 20.0025 11.9648H19.4063ZM19.2067 24.3086C18.7649 24.3086 18.4067 24.6668 18.4067 25.1086V25.9191C18.4067 26.361 18.7649 26.7191 19.2067 26.7191H20.0982C20.54 26.7191 20.8982 26.361 20.8982 25.9191V25.1086C20.8982 24.6668 20.54 24.3086 20.0982 24.3086H19.2067Z" fill="#415779"/>
</svg>
