<svg width="29" height="28" viewBox="0 0 29 28" fill="none" xmlns="http://www.w3.org/2000/svg">
<path d="M3.97874 24.4682C2.26791 24.4682 1.22442 22.5621 2.15093 21.1035L12.6722 4.53971C13.5258 3.19594 15.4743 3.19594 16.3279 4.53971L26.8492 21.1035C27.7757 22.5621 26.7322 24.4682 25.0213 24.4682H3.97874Z" fill="url(#paint0_linear_77_16174)" stroke="url(#paint1_linear_77_16174)" stroke-width="0.7"/>
<path d="M13.8035 10.5024C13.5224 10.5024 13.2944 10.7304 13.2944 11.0115V16.757C13.2944 17.0381 13.5224 17.2661 13.8035 17.2661H14.5476C14.8287 17.2661 15.0567 17.0381 15.0567 16.757V11.0115C15.0567 10.7304 14.8287 10.5024 14.5476 10.5024H13.8035Z" fill="#182047"/>
<path d="M13.7364 18.8373C13.4552 18.8373 13.2273 19.0652 13.2273 19.3464V20.0379C13.2273 20.3191 13.4552 20.547 13.7364 20.547H14.6273C14.9085 20.547 15.1364 20.3191 15.1364 20.0379V19.3464C15.1364 19.0652 14.9085 18.8373 14.6273 18.8373H13.7364Z" fill="#182047"/>
<defs>
<linearGradient id="paint0_linear_77_16174" x1="3.52099" y1="3.09786" x2="3.61899" y2="24.933" gradientUnits="userSpaceOnUse">
<stop stop-color="#FFC200"/>
<stop offset="1" stop-color="#F5BA00"/>
</linearGradient>
<linearGradient id="paint1_linear_77_16174" x1="3.47877" y1="2.71039" x2="3.57178" y2="25.1769" gradientUnits="userSpaceOnUse">
<stop stop-color="#F1B700"/>
<stop offset="1" stop-color="#E8B000"/>
</linearGradient>
</defs>
</svg>
