<svg width="83" height="29" viewBox="0 0 83 29" fill="none" xmlns="http://www.w3.org/2000/svg">
    <mask id="path-1-inside-1_9109_14494" fill="white">
        <path fill-rule="evenodd" clip-rule="evenodd"
            d="M37.0808 4.74997L40.8 0.468629C41.4627 -0.15621 42.5373 -0.15621 43.2 0.468629L46.9192 4.74997H71C77.6274 4.74997 83 10.1226 83 16.75C83 23.3774 77.6274 28.75 71 28.75H12C5.37259 28.75 0 23.3774 0 16.75C0 10.1226 5.37258 4.74997 12 4.74997H37.0808Z" />
    </mask>
    <path fill-rule="evenodd" clip-rule="evenodd"
        d="M37.0808 4.74997L40.8 0.468629C41.4627 -0.15621 42.5373 -0.15621 43.2 0.468629L46.9192 4.74997H71C77.6274 4.74997 83 10.1226 83 16.75C83 23.3774 77.6274 28.75 71 28.75H12C5.37259 28.75 0 23.3774 0 16.75C0 10.1226 5.37258 4.74997 12 4.74997H37.0808Z"
        fill="white" />
    <path
        d="M37.0808 4.74997V5.74997H37.5367L37.8357 5.40578L37.0808 4.74997ZM40.8 0.468629L40.114 -0.258978L40.0778 -0.224796L40.0451 -0.187178L40.8 0.468629ZM43.2 0.468629L43.9549 -0.187178L43.9222 -0.224796L43.886 -0.258978L43.2 0.468629ZM46.9192 4.74997L46.1643 5.40578L46.4633 5.74997H46.9192V4.74997ZM37.8357 5.40578L41.5549 1.12444L40.0451 -0.187178L36.3259 4.09416L37.8357 5.40578ZM41.486 1.19624C41.7635 0.934588 42.2365 0.934588 42.514 1.19624L43.886 -0.258978C42.838 -1.24701 41.162 -1.24701 40.114 -0.258978L41.486 1.19624ZM42.4451 1.12444L46.1643 5.40578L47.6741 4.09416L43.9549 -0.187178L42.4451 1.12444ZM46.9192 5.74997H71V3.74997H46.9192V5.74997ZM71 5.74997C77.0751 5.74997 82 10.6748 82 16.75H84C84 9.57027 78.1797 3.74997 71 3.74997V5.74997ZM82 16.75C82 22.8251 77.0751 27.75 71 27.75V29.75C78.1797 29.75 84 23.9297 84 16.75H82ZM71 27.75H12V29.75H71V27.75ZM12 27.75C5.92487 27.75 1 22.8251 1 16.75H-1C-1 23.9297 4.8203 29.75 12 29.75V27.75ZM1 16.75C1 10.6748 5.92487 5.74997 12 5.74997V3.74997C4.8203 3.74997 -1 9.57027 -1 16.75H1ZM12 5.74997H37.0808V3.74997H12V5.74997Z"
        fill="black" mask="url(#path-1-inside-1_9109_14494)" />
</svg>