<svg width="83" height="29" viewBox="0 0 83 29" fill="none" xmlns="http://www.w3.org/2000/svg">
    <mask id="path-1-inside-1_9109_14485" fill="white">
        <path fill-rule="evenodd" clip-rule="evenodd"
            d="M12 0.75C5.37258 0.75 0 6.12258 0 12.75C0 19.3774 5.37259 24.75 12 24.75H15.5219L18.8 28.5236C19.4627 29.1484 20.5373 29.1484 21.2 28.5236L24.4781 24.75H71C77.6274 24.75 83 19.3774 83 12.75C83 6.12258 77.6274 0.75 71 0.75H12Z" />
    </mask>
    <path fill-rule="evenodd" clip-rule="evenodd"
        d="M12 0.75C5.37258 0.75 0 6.12258 0 12.75C0 19.3774 5.37259 24.75 12 24.75H15.5219L18.8 28.5236C19.4627 29.1484 20.5373 29.1484 21.2 28.5236L24.4781 24.75H71C77.6274 24.75 83 19.3774 83 12.75C83 6.12258 77.6274 0.75 71 0.75H12Z"
        fill="white" />
    <path
        d="M15.5219 24.75L16.2768 24.0942L15.9778 23.75H15.5219V24.75ZM18.8 28.5236L18.0451 29.1794L18.0777 29.217L18.114 29.2512L18.8 28.5236ZM21.2 28.5236L21.886 29.2512L21.9223 29.217L21.9549 29.1794L21.2 28.5236ZM24.4781 24.75V23.75H24.0222L23.7232 24.0942L24.4781 24.75ZM1 12.75C1 6.67487 5.92487 1.75 12 1.75V-0.25C4.8203 -0.25 -1 5.5703 -1 12.75H1ZM12 23.75C5.92487 23.75 1 18.8251 1 12.75H-1C-1 19.9297 4.8203 25.75 12 25.75V23.75ZM15.5219 23.75H12V25.75H15.5219V23.75ZM14.767 25.4058L18.0451 29.1794L19.5549 27.8678L16.2768 24.0942L14.767 25.4058ZM18.114 29.2512C19.162 30.2392 20.838 30.2392 21.886 29.2512L20.514 27.7959C20.2365 28.0576 19.7635 28.0576 19.486 27.7959L18.114 29.2512ZM21.9549 29.1794L25.233 25.4058L23.7232 24.0942L20.4451 27.8678L21.9549 29.1794ZM71 23.75H24.4781V25.75H71V23.75ZM82 12.75C82 18.8251 77.0751 23.75 71 23.75V25.75C78.1797 25.75 84 19.9297 84 12.75H82ZM71 1.75C77.0751 1.75 82 6.67487 82 12.75H84C84 5.5703 78.1797 -0.25 71 -0.25V1.75ZM12 1.75H71V-0.25H12V1.75Z"
        fill="black" mask="url(#path-1-inside-1_9109_14485)" />
</svg>