<svg width="24" height="24" viewBox="0 0 24 24" fill="none" xmlns="http://www.w3.org/2000/svg">
<g clip-path="url(#clip0_115_29474)">
<path d="M14.4167 6.91793C14.4167 5.85869 13.558 5 12.4987 5L-nan -nanL12.4987 5C12.0587 5 11.6751 5.29948 11.5684 5.72638L10.9394 8.24254C10.8281 8.6877 10.4281 9 9.96922 9H9V17H16.2994C17.3159 17 18.1707 16.2375 18.2864 15.2277L18.7447 11.2277C18.8808 10.0407 17.9525 9 16.7577 9H15.2167C14.7748 9 14.4167 8.64183 14.4167 8.2V6.91793Z" fill="white"/>
<path fill-rule="evenodd" clip-rule="evenodd" d="M12.5306 6.00054L11.9095 8.48507C11.6894 9.36544 10.9048 9.98598 10 9.99977V16H16.2994C16.8077 16 17.2351 15.6188 17.2929 15.1138L17.7512 11.1138C17.8193 10.5203 17.3551 10 16.7577 10H15.2167C14.2226 10 13.4167 9.19411 13.4167 8.2V6.91793C13.4167 6.42165 13.0228 6.01736 12.5306 6.00054ZM9.96922 9C10.4281 9 10.8281 8.6877 10.9394 8.24254L11.5684 5.72638C11.6751 5.29948 12.0587 5 12.4987 5C13.558 5 14.4167 5.85869 14.4167 6.91793V8.2C14.4167 8.64183 14.7748 9 15.2167 9H16.7577C17.9525 9 18.8808 10.0407 18.7447 11.2277L18.2864 15.2277C18.1707 16.2375 17.3159 17 16.2994 17H9V9H9.96922Z" fill="#525965"/>
<path d="M6 10C6 9.44772 6.44772 9 7 9H10V17H7C6.44772 17 6 16.5523 6 16V10Z" fill="white"/>
<path fill-rule="evenodd" clip-rule="evenodd" d="M9 10H7V16H9V10ZM7 9C6.44772 9 6 9.44772 6 10V16C6 16.5523 6.44772 17 7 17H10V9H7Z" fill="#525965"/>
</g>
<defs>
<clipPath id="clip0_115_29474">
<rect width="24" height="24" fill="white"/>
</clipPath>
</defs>
</svg>
