<svg width="32" height="32" viewBox="0 0 32 32" fill="none" xmlns="http://www.w3.org/2000/svg">
<g clip-path="url(#clip0_18236_27819)">
<path d="M17.8746 8.50774C19.7912 6.59703 22.8983 6.59703 24.8141 8.50774L24.8385 8.53215C26.7581 10.4474 26.7697 13.5486 24.8639 15.4775L19.4977 20.9052C19.4894 20.9135 19.4823 20.9223 19.4732 20.9306C19.3765 21.0272 19.275 21.1172 19.1725 21.204L17.1031 23.2695C16.487 23.8839 15.4897 23.8839 14.8736 23.2695L12.5709 20.9716C12.5567 20.9577 12.5411 20.9447 12.527 20.9306L12.5025 20.9052L12.4293 20.832L11.6881 20.0917L11.693 20.0859L7.13731 15.4775C5.23066 13.5486 5.24234 10.4474 7.1627 8.53215L7.18711 8.50774C9.10293 6.59703 12.2098 6.59703 14.1256 8.50774C14.1339 8.51669 14.1427 8.52391 14.151 8.53215L14.8775 9.26848C15.4953 9.89339 16.5047 9.89322 17.1227 9.26848L17.8502 8.53215L17.8746 8.50774Z" fill="#B7BEC8"/>
<path d="M17.8746 8.50774L16.866 7.49604L16.8645 7.49758L17.8746 8.50774ZM24.8141 8.50774L25.8242 7.49758L25.8229 7.49624L24.8141 8.50774ZM24.8385 8.53215L23.8283 9.5423L23.8295 9.54345L24.8385 8.53215ZM24.8639 15.4775L25.8798 16.4818L25.8801 16.4815L24.8639 15.4775ZM19.4977 20.9052L20.5065 21.9167L20.5136 21.9096L19.4977 20.9052ZM19.4732 20.9306L18.508 19.8775L18.4856 19.898L18.464 19.9195L19.4732 20.9306ZM19.1725 21.204L18.2494 20.1137L18.2047 20.1516L18.1633 20.1929L19.1725 21.204ZM17.1031 23.2695L18.1119 24.281L18.1123 24.2806L17.1031 23.2695ZM14.8736 23.2695L13.8646 24.2807L13.8648 24.281L14.8736 23.2695ZM12.5709 20.9716L13.58 19.9604L13.5738 19.9542L13.5676 19.9481L12.5709 20.9716ZM12.527 20.9306L11.4972 21.9207L11.5076 21.9315L11.5182 21.9421L12.527 20.9306ZM12.5025 20.9052L13.5323 19.915L13.5226 19.9049L13.5127 19.895L12.5025 20.9052ZM12.4293 20.832L13.4395 19.8218L13.4388 19.8211L12.4293 20.832ZM11.6881 20.0917L10.5906 19.1772L9.7549 20.1801L10.6786 21.1025L11.6881 20.0917ZM11.693 20.0859L12.7904 21.0004L13.6208 20.004L12.7089 19.0815L11.693 20.0859ZM7.13731 15.4775L6.12131 16.4817L6.12136 16.4818L7.13731 15.4775ZM7.1627 8.53215L8.1715 9.54365L8.17285 9.5423L7.1627 8.53215ZM7.18711 8.50774L6.17831 7.49624L6.17696 7.49758L7.18711 8.50774ZM14.1256 8.50774L15.1755 7.53898L15.1554 7.51718L15.1344 7.49624L14.1256 8.50774ZM14.151 8.53215L15.1679 7.52873L15.1598 7.52065L14.151 8.53215ZM14.8775 9.26848L13.8607 10.2719L13.8616 10.2728L14.8775 9.26848ZM17.1227 9.26848L18.1383 10.2731L18.1389 10.2725L17.1227 9.26848ZM17.8502 8.53215L16.84 7.52198L16.834 7.52808L17.8502 8.53215ZM17.8746 8.50774L18.8832 9.51944C20.2424 8.16445 22.4471 8.16474 23.8053 9.51924L24.8141 8.50774L25.8229 7.49624C23.3494 5.02932 19.34 5.02961 16.866 7.49604L17.8746 8.50774ZM24.8141 8.50774L23.8039 9.51789L23.8283 9.5423L24.8385 8.53215L25.8486 7.522L25.8242 7.49758L24.8141 8.50774ZM24.8385 8.53215L23.8295 9.54345C25.1927 10.9036 25.2007 13.104 23.8477 14.4734L24.8639 15.4775L25.8801 16.4815C28.3387 13.9931 28.3235 9.9912 25.8475 7.52085L24.8385 8.53215ZM24.8639 15.4775L23.848 14.4731L18.4818 19.9008L19.4977 20.9052L20.5136 21.9096L25.8798 16.4818L24.8639 15.4775ZM19.4977 20.9052L18.4889 19.8937C18.4692 19.9133 18.4538 19.9297 18.4453 19.9388C18.441 19.9434 18.4375 19.9473 18.4359 19.949C18.4355 19.9495 18.4351 19.9499 18.4348 19.9502C18.4345 19.9506 18.4344 19.9507 18.4342 19.9509C18.434 19.9511 18.4342 19.9509 18.4346 19.9505C18.4356 19.9493 18.444 19.9402 18.4557 19.9282C18.4678 19.9157 18.4856 19.898 18.508 19.8775L19.4732 20.9306L20.4385 21.9837C20.4901 21.9364 20.5281 21.8949 20.5369 21.8853C20.5383 21.8838 20.5395 21.8825 20.5402 21.8817C20.5413 21.8805 20.5409 21.8809 20.5414 21.8803C20.5418 21.8799 20.5402 21.8817 20.5379 21.8841C20.5334 21.8891 20.5219 21.9013 20.5065 21.9167L19.4977 20.9052ZM19.4732 20.9306L18.464 19.9195C18.4054 19.978 18.3361 20.0403 18.2494 20.1137L19.1725 21.204L20.0956 22.2943C20.2138 22.1942 20.3476 22.0763 20.4825 21.9417L19.4732 20.9306ZM19.1725 21.204L18.1633 20.1929L16.0939 22.2583L17.1031 23.2695L18.1123 24.2806L20.1817 22.2151L19.1725 21.204ZM17.1031 23.2695L16.0943 22.258C16.0358 22.3163 15.9409 22.3163 15.8824 22.258L14.8736 23.2695L13.8648 24.281C15.0385 25.4515 16.9383 25.4515 18.1119 24.281L17.1031 23.2695ZM14.8736 23.2695L15.8827 22.2582L13.58 19.9604L12.5709 20.9716L11.5618 21.9828L13.8646 24.2807L14.8736 23.2695ZM12.5709 20.9716L13.5676 19.9481C13.5514 19.9324 13.5374 19.9194 13.5281 19.9108C13.5233 19.9064 13.5192 19.9026 13.5161 19.8998C13.5136 19.8975 13.5103 19.8945 13.5095 19.8938C13.5061 19.8907 13.5084 19.8928 13.5121 19.8962C13.5162 19.9001 13.5248 19.9081 13.5358 19.9191L12.527 20.9306L11.5182 21.9421C11.5362 21.9601 11.552 21.9751 11.5634 21.9857C11.5745 21.996 11.5842 22.0049 11.5883 22.0086C11.5943 22.014 11.593 22.0129 11.5919 22.0119C11.59 22.01 11.5833 22.0039 11.5742 21.9951L12.5709 20.9716ZM12.527 20.9306L13.5567 19.9404L13.5323 19.915L12.5025 20.9052L11.4728 21.8954L11.4972 21.9207L12.527 20.9306ZM12.5025 20.9052L13.5127 19.895L13.4395 19.8218L12.4293 20.832L11.4191 21.8421L11.4924 21.9154L12.5025 20.9052ZM12.4293 20.832L13.4388 19.8211L12.6976 19.0809L11.6881 20.0917L10.6786 21.1025L11.4198 21.8428L12.4293 20.832ZM11.6881 20.0917L12.7855 21.0063L12.7904 21.0004L11.693 20.0859L10.5955 19.1713L10.5906 19.1772L11.6881 20.0917ZM11.693 20.0859L12.7089 19.0815L8.15326 14.4731L7.13731 15.4775L6.12136 16.4818L10.677 21.0902L11.693 20.0859ZM7.13731 15.4775L8.15331 14.4732C6.79978 13.1039 6.80779 10.9037 8.1715 9.54365L7.1627 8.53215L6.1539 7.52065C3.6769 9.99105 3.66155 13.9933 6.12131 16.4817L7.13731 15.4775ZM7.1627 8.53215L8.17285 9.5423L8.19727 9.51789L7.18711 8.50774L6.17696 7.49758L6.15255 7.522L7.1627 8.53215ZM7.18711 8.50774L8.19592 9.51924C9.55415 8.16463 11.7586 8.16463 13.1168 9.51924L14.1256 8.50774L15.1344 7.49624C12.661 5.02943 8.6517 5.02943 6.17831 7.49624L7.18711 8.50774ZM14.1256 8.50774L13.0757 9.4765C13.1205 9.52505 13.1597 9.56105 13.1691 9.56976C13.1706 9.57112 13.1719 9.57229 13.1727 9.57304C13.1754 9.57553 13.1722 9.57261 13.1742 9.57448C13.1748 9.57502 13.1734 9.57371 13.1713 9.57176C13.1672 9.56794 13.1562 9.55766 13.1422 9.54365L14.151 8.53215L15.1598 7.52065C15.1416 7.50252 15.1264 7.48824 15.1181 7.48048C15.1138 7.47655 15.1103 7.47328 15.1087 7.47186C15.1063 7.46959 15.1072 7.47048 15.1074 7.47067C15.1086 7.47172 15.117 7.47948 15.1281 7.49027C15.1397 7.50153 15.1562 7.51809 15.1755 7.53898L14.1256 8.50774ZM14.151 8.53215L13.1341 9.53554L13.8607 10.2719L14.8775 9.26848L15.8944 8.26509L15.1679 7.52876L14.151 8.53215ZM14.8775 9.26848L13.8616 10.2728C15.0388 11.4636 16.9615 11.4629 18.1383 10.2731L17.1227 9.26848L16.107 8.26389C16.048 8.32357 15.9518 8.32315 15.8935 8.26416L14.8775 9.26848ZM17.1227 9.26848L18.1389 10.2725L18.8664 9.53622L17.8502 8.53215L16.834 7.52808L16.1065 8.26441L17.1227 9.26848ZM17.8502 8.53215L18.8604 9.5423L18.8848 9.51789L17.8746 8.50774L16.8645 7.49758L16.84 7.522L17.8502 8.53215Z" fill="#B7BEC8"/>
</g>
<defs>
<clipPath id="clip0_18236_27819">
<rect width="32" height="32" fill="white"/>
</clipPath>
</defs>
</svg>
