<svg width="31" height="40" viewBox="0 0 31 40" fill="none" xmlns="http://www.w3.org/2000/svg">
<ellipse cx="15.5007" cy="38.75" rx="7.91667" ry="1.25" fill="#EDF2F8"/>
<mask id="path-2-inside-1_5_18324" fill="white">
<path fill-rule="evenodd" clip-rule="evenodd" d="M2.95885 23.8694C1.50418 21.4251 0.5 18.6228 0.5 15.5729C0.5 7.10282 7.18 0.225914 15.5 0C23.82 0.225914 30.5 7.10282 30.5 15.5729C30.5 18.6228 29.517 21.5045 27.9873 23.8694C27.0271 25.3538 22.3873 31.2183 22.1228 31.5344C19.8371 34.2659 17.7724 36.6184 16.5769 37.9639C15.9786 38.6373 14.9724 38.682 14.3485 38.0323C13.3102 36.9511 11.5055 34.9651 8.6797 31.5344C8.41722 31.2157 3.99119 25.604 2.95885 23.8694ZM15.0028 20.8333C17.9943 20.8333 20.4194 18.4082 20.4194 15.4167C20.4194 12.4251 17.9943 10 15.0028 10C12.0112 10 9.5861 12.4251 9.5861 15.4167C9.5861 18.4082 12.0112 20.8333 15.0028 20.8333Z"/>
</mask>
<path fill-rule="evenodd" clip-rule="evenodd" d="M2.95885 23.8694C1.50418 21.4251 0.5 18.6228 0.5 15.5729C0.5 7.10282 7.18 0.225914 15.5 0C23.82 0.225914 30.5 7.10282 30.5 15.5729C30.5 18.6228 29.517 21.5045 27.9873 23.8694C27.0271 25.3538 22.3873 31.2183 22.1228 31.5344C19.8371 34.2659 17.7724 36.6184 16.5769 37.9639C15.9786 38.6373 14.9724 38.682 14.3485 38.0323C13.3102 36.9511 11.5055 34.9651 8.6797 31.5344C8.41722 31.2157 3.99119 25.604 2.95885 23.8694ZM15.0028 20.8333C17.9943 20.8333 20.4194 18.4082 20.4194 15.4167C20.4194 12.4251 17.9943 10 15.0028 10C12.0112 10 9.5861 12.4251 9.5861 15.4167C9.5861 18.4082 12.0112 20.8333 15.0028 20.8333Z" fill="url(#paint0_linear_5_18324)"/>
<path d="M2.95885 23.8694L3.24529 23.6989L2.95885 23.8694ZM15.5 0L15.509 -0.333211L15.5 -0.333456L15.491 -0.333211L15.5 0ZM27.9873 23.8694L27.7074 23.6883L27.9873 23.8694ZM22.1228 31.5344L21.8672 31.3205L22.1228 31.5344ZM16.5769 37.9639L16.8261 38.1853L16.5769 37.9639ZM14.3485 38.0323L14.1081 38.2632L14.3485 38.0323ZM8.6797 31.5344L8.93699 31.3225H8.93699L8.6797 31.5344ZM0.166667 15.5729C0.166667 18.6975 1.19556 21.5583 2.67241 24.0399L3.24529 23.6989C1.81279 21.2919 0.833333 18.548 0.833333 15.5729H0.166667ZM15.491 -0.333211C6.98805 -0.10233 0.166667 6.92465 0.166667 15.5729H0.833333C0.833333 7.28098 7.37195 0.554159 15.509 0.333211L15.491 -0.333211ZM30.8333 15.5729C30.8333 6.92465 24.0119 -0.10233 15.509 -0.333211L15.491 0.333211C23.6281 0.554159 30.1667 7.28098 30.1667 15.5729H30.8333ZM28.2672 24.0504C29.8277 21.638 30.8333 18.6942 30.8333 15.5729H30.1667C30.1667 18.5513 29.2064 21.371 27.7074 23.6883L28.2672 24.0504ZM22.3785 31.7483C22.6432 31.4319 27.2948 25.5536 28.2672 24.0504L27.7074 23.6883C26.7594 25.1539 22.1314 31.0047 21.8672 31.3205L22.3785 31.7483ZM16.8261 38.1853C18.023 36.8383 20.09 34.4831 22.3785 31.7483L21.8672 31.3205C19.5842 34.0487 17.5218 36.3986 16.3277 37.7425L16.8261 38.1853ZM14.1081 38.2632C14.8738 39.0604 16.1055 38.9964 16.8261 38.1853L16.3277 37.7425C15.8518 38.2781 15.0711 38.3035 14.5889 37.8014L14.1081 38.2632ZM8.42241 31.7463C11.2521 35.1818 13.0625 37.1745 14.1081 38.2632L14.5889 37.8014C13.5579 36.7278 11.7588 34.7484 8.93699 31.3225L8.42241 31.7463ZM2.67241 24.0399C3.20067 24.9275 4.57909 26.7813 5.84313 28.4353C7.11178 30.0953 8.28703 31.582 8.42241 31.7463L8.93699 31.3225C8.80988 31.1682 7.64088 29.6897 6.37281 28.0305C5.10013 26.3652 3.74936 24.5459 3.24529 23.6989L2.67241 24.0399ZM20.0861 15.4167C20.0861 18.2241 17.8102 20.5 15.0028 20.5V21.1667C18.1784 21.1667 20.7528 18.5923 20.7528 15.4167H20.0861ZM15.0028 10.3333C17.8102 10.3333 20.0861 12.6092 20.0861 15.4167H20.7528C20.7528 12.241 18.1784 9.66667 15.0028 9.66667V10.3333ZM9.91943 15.4167C9.91943 12.6092 12.1953 10.3333 15.0028 10.3333V9.66667C11.8271 9.66667 9.25277 12.241 9.25277 15.4167H9.91943ZM15.0028 20.5C12.1953 20.5 9.91943 18.2241 9.91943 15.4167H9.25277C9.25277 18.5923 11.8271 21.1667 15.0028 21.1667V20.5Z" fill="url(#paint1_linear_5_18324)" mask="url(#path-2-inside-1_5_18324)"/>
<defs>
<linearGradient id="paint0_linear_5_18324" x1="0.997234" y1="0" x2="0.997234" y2="37.4302" gradientUnits="userSpaceOnUse">
<stop stop-color="#D6DEE3"/>
<stop offset="1" stop-color="#E3EAF0"/>
</linearGradient>
<linearGradient id="paint1_linear_5_18324" x1="15.5" y1="0" x2="15.5" y2="38.4951" gradientUnits="userSpaceOnUse">
<stop stop-color="#CAD3DB"/>
<stop offset="1" stop-color="#DCE5ED"/>
</linearGradient>
</defs>
</svg>
