<svg width="16" height="16" viewBox="0 0 16 16" fill="none" xmlns="http://www.w3.org/2000/svg">
<path d="M8.00008 1.34619C9.7907 1.34633 11.2682 2.76125 11.2683 4.53825V6.81624H11.5554C11.7998 6.81624 12.0263 6.81564 12.2123 6.83577C12.4083 6.85702 12.6219 6.90643 12.8178 7.04867C12.921 7.12367 13.0123 7.21433 13.0873 7.31755C13.2296 7.51341 13.279 7.72768 13.3002 7.92367C13.3203 8.10954 13.3197 8.33571 13.3197 8.57992V12.9562C13.3197 13.2006 13.3203 13.4271 13.3002 13.6131C13.279 13.809 13.2295 14.0227 13.0873 14.2186C13.0123 14.3218 12.921 14.4131 12.8178 14.4881C12.622 14.6303 12.4082 14.6798 12.2123 14.701C12.0263 14.7211 11.7998 14.7205 11.5554 14.7205H4.44474C4.20038 14.7205 3.97384 14.7211 3.78784 14.701C3.5918 14.6798 3.37766 14.6305 3.18172 14.4881C3.07847 14.4131 2.98787 14.3219 2.91284 14.2186C2.77059 14.0227 2.72119 13.8091 2.69995 13.6131C2.67983 13.4271 2.68042 13.2006 2.68042 12.9562V8.57992C2.68042 8.33571 2.67983 8.10954 2.69995 7.92367C2.72121 7.72769 2.77055 7.5134 2.91284 7.31755L2.97209 7.24268C3.03403 7.17021 3.10443 7.10485 3.18172 7.04867L3.25594 6.99919C3.43074 6.89412 3.61634 6.85436 3.78784 6.83577C3.97375 6.81567 4.19987 6.81624 4.44409 6.81624H4.73185V4.53825C4.732 2.76119 6.20937 1.34623 8.00008 1.34619ZM4.44409 7.88265C4.17616 7.88265 4.01763 7.88386 3.90243 7.89632C3.80597 7.90678 3.79422 7.92069 3.80542 7.9139C3.79526 7.92173 3.78593 7.9311 3.77808 7.94124C3.7845 7.93049 3.77088 7.94277 3.7605 8.03825C3.74802 8.15344 3.74683 8.31198 3.74683 8.57992V12.9562C3.74683 13.2243 3.74803 13.3833 3.7605 13.4985C3.76683 13.5568 3.77449 13.5842 3.77808 13.5942C3.78613 13.6048 3.79553 13.6141 3.80607 13.6222C3.81546 13.6257 3.8426 13.634 3.90243 13.6405C4.01769 13.6529 4.17657 13.6541 4.44474 13.6541H11.5554C11.8236 13.6541 11.9825 13.6529 12.0977 13.6405C12.1539 13.6344 12.1813 13.6266 12.1921 13.6229C12.2031 13.6146 12.2131 13.6051 12.2214 13.5942C12.225 13.5843 12.2333 13.557 12.2397 13.4985C12.2521 13.3833 12.2533 13.2243 12.2533 12.9562V8.57992C12.2533 8.31198 12.2521 8.15344 12.2397 8.03825C12.233 7.9771 12.2248 7.94995 12.2214 7.94124C12.2134 7.93089 12.2039 7.92183 12.1934 7.9139C12.1835 7.91033 12.1562 7.90267 12.0977 7.89632C11.9825 7.88384 11.8236 7.88265 11.5554 7.88265H4.44409ZM8.00008 2.4126C6.76995 2.41264 5.79841 3.37841 5.79826 4.53825V6.81624H10.2019V4.53825C10.2018 3.37847 9.23012 2.41274 8.00008 2.4126Z" fill="#E54147"/>
</svg>
