<svg width="24" height="24" viewBox="0 0 24 24" fill="none" xmlns="http://www.w3.org/2000/svg">
<path d="M5.07187 6C5.07187 5.25442 5.67629 4.65 6.42188 4.65H17.4219C18.1675 4.65 18.7719 5.25442 18.7719 6V14.9472C18.7719 15.4546 18.4875 15.919 18.0356 16.1497L12.5356 18.957C12.1501 19.1537 11.6936 19.1537 11.3081 18.957L5.80814 16.1497C5.35628 15.919 5.07187 15.4546 5.07187 14.9472V6Z" stroke="#2E3137" stroke-width="1.3"/>
<path fill-rule="evenodd" clip-rule="evenodd" d="M15.942 9.60804C16.1585 9.89436 16.102 10.302 15.8156 10.5186L11.8491 13.5186C11.6386 13.6777 11.3529 13.6939 11.1258 13.5594L8.59238 12.0594C8.28348 11.8766 8.18133 11.4779 8.36422 11.169C8.54712 10.8601 8.9458 10.7579 9.2547 10.9408L11.4128 12.2186L15.0314 9.48171C15.3178 9.26516 15.7254 9.32172 15.942 9.60804Z" fill="#2E3137"/>
</svg>
