<svg width="375" height="136" viewBox="0 0 375 136" fill="none" xmlns="http://www.w3.org/2000/svg">
<rect width="375" height="136" fill="#E6ECF3"/>
<g clip-path="url(#clip0_4_13684)">
<path d="M198.655 61.9341H197.484C197.343 61.9341 197.229 62.048 197.229 62.1886V76.0165C197.229 76.1571 197.343 76.2711 197.484 76.2711H198.655C198.795 76.2711 198.909 76.1571 198.909 76.0165V62.1886C198.909 62.048 198.795 61.9341 198.655 61.9341Z" fill="#B6C0CC"/>
<path d="M190.465 62.2715C187.913 62.2715 186.119 64.3842 186.119 68.9341C186.119 73.484 187.913 75.5967 190.465 75.5967C193.017 75.5967 194.798 73.484 194.798 68.9341C194.798 64.3842 193.004 62.2715 190.465 62.2715ZM190.465 74.0694C188.938 74.0694 187.78 72.574 187.78 68.9341C187.78 65.2941 188.938 63.7987 190.465 63.7987C191.992 63.7987 193.131 65.3069 193.131 68.9341C193.131 72.5613 191.954 74.0694 190.465 74.0694Z" fill="#B6C0CC"/>
<path d="M202.594 67.0376H214.341C214.481 67.0376 214.595 66.9231 214.595 66.7831V62.1886C214.602 62.0486 214.487 61.9341 214.347 61.9341H213.227C213.087 61.9341 212.973 62.0486 212.973 62.1886V63.0095C212.973 63.1495 212.852 63.2641 212.712 63.2641H204.223C204.083 63.2641 203.968 63.1495 203.968 63.0095V62.1886C203.975 62.0486 203.86 61.9341 203.72 61.9341H202.6C202.46 61.9341 202.345 62.0486 202.345 62.1886V66.7831C202.339 66.9231 202.454 67.0376 202.594 67.0376ZM203.968 64.7531C203.968 64.6131 204.083 64.4986 204.223 64.4986H212.712C212.852 64.4986 212.966 64.6131 212.966 64.7531V65.5231C212.966 65.6631 212.852 65.7776 212.712 65.7776H204.223C204.083 65.7776 203.968 65.6631 203.968 65.5231V64.7531Z" fill="#B6C0CC"/>
<path d="M201.569 68.1831H215.378C215.518 68.1831 215.632 68.2977 215.632 68.4377V69.2204C215.632 69.3604 215.518 69.4749 215.378 69.4749H201.569C201.429 69.4749 201.314 69.3604 201.314 69.2204V68.4313C201.314 68.2913 201.429 68.1768 201.569 68.1768V68.1831Z" fill="#B6C0CC"/>
<path d="M214.64 74.8774H204.184C204.044 74.8774 203.93 74.7628 203.93 74.6228V74.1901C203.93 74.0501 204.044 73.9356 204.184 73.9356H214.385C214.525 73.9356 214.64 73.821 214.64 73.681V70.8493C214.64 70.7093 214.525 70.5947 214.385 70.5947H202.524C202.384 70.5947 202.269 70.7093 202.269 70.8493V71.5683C202.269 71.7083 202.384 71.8229 202.524 71.8229H212.762C212.902 71.8229 213.017 71.9374 213.017 72.0774V72.5101C213.017 72.6501 212.902 72.7647 212.762 72.7647H202.562C202.422 72.7647 202.307 72.8792 202.307 73.0192V75.851C202.307 75.991 202.422 76.1055 202.562 76.1055H214.646C214.786 76.1055 214.901 75.991 214.901 75.851V75.1319C214.901 74.9919 214.786 74.8774 214.646 74.8774H214.64Z" fill="#B6C0CC"/>
<path d="M182.167 61.9341H183.236C183.376 61.9341 183.491 62.0486 183.491 62.1886V76.0165C183.491 76.1565 183.376 76.2711 183.236 76.2711H182.167C182.027 76.2711 181.913 76.1565 181.913 76.0165V62.1886C181.913 62.0486 182.027 61.9341 182.167 61.9341Z" fill="#B6C0CC"/>
<path d="M179.781 62.0229H178.712C178.572 62.0229 178.457 62.1375 178.457 62.2775V67.8328C178.457 67.9728 178.343 68.0874 178.203 68.0874H176.726C176.586 68.0874 176.472 68.2019 176.472 68.3419V69.3601C176.472 69.5001 176.586 69.6146 176.726 69.6146H178.203C178.343 69.6146 178.457 69.7291 178.457 69.8691V75.7745C178.457 75.9145 178.572 76.029 178.712 76.029H179.781C179.921 76.029 180.035 75.9145 180.035 75.7745V62.2839C180.035 62.1439 179.921 62.0293 179.781 62.0293V62.0229Z" fill="#B6C0CC"/>
<path d="M176.872 73.3949C176.872 73.3949 176.828 73.414 176.802 73.4204C176.796 73.4204 176.777 73.4077 176.77 73.414C175.765 73.7768 174.524 73.9358 172.971 73.9358H171.966C171.832 73.9295 171.731 73.8213 171.724 73.694V69.7996C171.724 69.6659 171.832 69.5578 171.972 69.5514H175.46C175.6 69.5514 175.708 69.4369 175.708 69.2969V68.3232C175.708 68.1832 175.593 68.0687 175.453 68.0687H171.972C171.839 68.0687 171.731 67.9542 171.731 67.8205V64.1679C171.731 64.0279 171.845 63.9197 171.979 63.9197H176.16H176.172C176.306 63.907 176.408 63.7988 176.408 63.6652V62.6979C176.408 62.5579 176.293 62.4497 176.16 62.4434H171.731H170.388C170.248 62.4434 170.133 62.5579 170.133 62.6979V75.1513C170.133 75.2913 170.248 75.4058 170.388 75.4058H172.889C174.556 75.4058 176.013 75.2085 176.961 74.8331C176.993 74.8204 177.019 74.8013 177.038 74.7758C177.038 74.7758 177.038 74.7758 177.044 74.7758C177.044 74.7758 177.044 74.7758 177.044 74.7695C177.082 74.7249 177.114 74.6676 177.114 74.604V73.6495C177.114 73.5095 177 73.3949 176.86 73.3949H176.872Z" fill="#B6C0CC"/>
<path d="M229.085 61.9341H230.237C230.377 61.9341 230.491 62.0486 230.491 62.1886V70.2257C230.491 70.3657 230.377 70.4803 230.237 70.4803H229.085C228.945 70.4803 228.831 70.3657 228.831 70.2257V62.1886C228.831 62.0486 228.945 61.9341 229.085 61.9341Z" fill="#B6C0CC"/>
<path d="M227.558 69.2522C227.558 69.2522 227.596 69.2204 227.615 69.2013C227.621 69.1949 227.634 69.1886 227.64 69.1822C227.64 69.1758 227.659 69.1695 227.659 69.1695C227.672 69.144 227.71 69.0231 227.71 69.0167V68.1895C227.71 68.0495 227.596 67.935 227.456 67.935C227.437 67.935 227.424 67.954 227.405 67.954C227.399 67.954 227.386 67.9413 227.379 67.9477C226.419 68.2849 224.93 68.4695 223.192 68.4695H219.654C219.527 68.4631 219.425 68.3613 219.419 68.234V66.9486C219.419 66.815 219.527 66.7132 219.661 66.7068H225.999C226.139 66.7068 226.247 66.5923 226.247 66.4523V62.5451C226.247 62.4051 226.132 62.2905 225.992 62.2905H217.987C217.847 62.2905 217.732 62.4051 217.732 62.5451V63.4041C217.732 63.5441 217.847 63.6587 217.987 63.6587H224.357C224.49 63.6587 224.592 63.7669 224.599 63.9005V65.1477C224.599 65.2814 224.49 65.3832 224.357 65.3896H218.019C217.879 65.3896 217.764 65.5041 217.764 65.6441C217.764 65.6441 217.764 65.6441 217.764 65.6505V69.5831C217.764 69.5831 217.764 69.5831 217.764 69.5895C217.764 69.7295 217.879 69.844 218.019 69.844H223.122C225.044 69.844 226.648 69.6213 227.551 69.2713L227.558 69.2522Z" fill="#B6C0CC"/>
<path d="M229.709 71.7656C229.187 71.3774 228.379 71.1802 227.291 71.1802H221.226C220.138 71.1802 219.324 71.3774 218.808 71.7656C218.286 72.1538 218.025 72.8029 218.025 73.7001C218.025 74.5974 218.286 75.2528 218.808 75.6537C219.33 76.0546 220.144 76.2583 221.226 76.2583H227.291C228.379 76.2583 229.187 76.0546 229.709 75.6537C230.231 75.2528 230.492 74.591 230.492 73.7001C230.492 72.8092 230.231 72.1602 229.709 71.7656ZM228.735 74.6228C228.468 74.8137 227.997 74.9156 227.342 74.9156H221.175C220.514 74.9156 220.049 74.8201 219.782 74.6228C219.514 74.4319 219.381 74.1201 219.381 73.7001C219.381 73.2801 219.514 72.981 219.782 72.7965C220.049 72.6183 220.52 72.5229 221.175 72.5229H227.342C227.997 72.5229 228.468 72.612 228.735 72.7965C229.002 72.9747 229.136 73.2801 229.136 73.7001C229.136 74.1201 229.002 74.4256 228.735 74.6228Z" fill="#B6C0CC"/>
<path d="M149.751 81.6546C156.931 81.6546 162.752 75.834 162.752 68.654C162.752 61.4739 156.931 55.6533 149.751 55.6533C142.571 55.6533 136.75 61.4739 136.75 68.654C136.75 75.834 142.571 81.6546 149.751 81.6546Z" fill="#E6ECF3"/>
<path d="M161.912 63.0861C161.67 62.0552 161.256 61.0816 160.855 60.4007C160.62 59.9998 160.41 59.5798 160.187 59.1344C159.112 56.9771 157.896 54.5272 153.06 53.1718C151.017 52.599 149.064 53.6299 147.772 54.3108C147.371 54.5208 147.027 54.7054 146.811 54.7626C146.487 54.8517 146.207 54.8454 145.876 54.8326C145.284 54.8135 144.609 54.7945 143.585 55.3608C141.708 56.4044 140.511 57.7726 139.932 59.5798C137.73 61.9661 136.381 65.1479 136.381 68.6478C136.381 76.0231 142.382 82.0239 149.757 82.0239C157.133 82.0239 163.134 76.0231 163.134 68.6478C163.134 66.6624 162.694 64.7788 161.918 63.0797L161.912 63.0861ZM159.042 70.7668C158.412 71.9632 157.445 72.6377 156.566 72.5041C156.433 72.4405 156.274 72.4977 156.204 72.6314C155.784 73.5159 155.211 74.4004 154.893 74.744C153.62 76.1313 150.642 79.383 146.245 76.5195C144.794 75.5777 143.668 74.0886 142.891 72.0905C142.891 72.0905 142.891 72.0905 142.891 72.0841C142.878 72.0586 142.866 72.0395 142.847 72.0205C142.847 72.0205 142.84 72.0077 142.834 72.0014C142.789 71.9568 142.738 71.9314 142.675 71.925C142.662 71.925 142.656 71.925 142.643 71.925C142.643 71.925 142.637 71.925 142.63 71.925C141.739 71.9632 140.759 71.2696 140.187 70.1878C139.83 69.5132 139.684 68.7751 139.773 68.126C139.856 67.5087 140.149 67.0378 140.588 66.8024C140.67 66.7578 140.753 66.726 140.842 66.7006C141.02 66.9424 141.192 67.1269 141.326 67.2478C141.339 67.5406 141.389 68.3105 141.574 69.3351C141.599 69.4687 141.714 69.5578 141.841 69.5578C141.86 69.5578 141.873 69.5578 141.892 69.5578C142.039 69.5323 142.134 69.3923 142.109 69.246C141.918 68.1896 141.879 67.3942 141.867 67.1842C142.007 66.866 142.789 65.1733 143.362 64.467C143.388 64.4352 143.419 64.4033 143.445 64.3779C145.558 63.1116 147.957 64.117 147.982 64.1234C148.122 64.1806 148.275 64.1234 148.338 63.9834C148.396 63.8434 148.338 63.6906 148.198 63.627C148.109 63.5888 146.34 62.8443 144.399 63.3852C145.271 62.5134 146.181 61.4889 146.461 59.7898C147.32 59.5162 151.558 58.2944 153.276 60.1398C154.053 60.9798 154.377 62.2016 154.638 63.4297C153.111 63.1943 151.73 63.697 151.654 63.7225C151.514 63.7734 151.444 63.9324 151.495 64.0724C151.546 64.2124 151.705 64.2824 151.845 64.2315C151.864 64.2315 153.296 63.7097 154.759 64.0024C155.135 65.7906 155.555 67.5851 157.324 68.1196C157.324 68.1769 157.317 68.2278 157.311 68.2724C157.292 68.5205 157.285 68.616 157.209 68.9914C157.177 69.1378 157.273 69.2778 157.419 69.3096C157.438 69.3096 157.457 69.3096 157.476 69.3096C157.604 69.3096 157.712 69.2205 157.744 69.0932C157.826 68.686 157.839 68.5587 157.858 68.3105C157.858 68.2851 157.858 68.2596 157.858 68.2342C158.055 68.2596 158.265 68.2787 158.488 68.2787C158.571 68.2787 158.66 68.2787 158.749 68.2787C158.953 68.2724 159.144 68.2469 159.328 68.2214C159.602 68.9405 159.5 69.9141 159.042 70.7796V70.7668ZM155.243 76.6149C156.337 77.1113 157.145 77.6522 157.82 78.3521C156.986 79.0458 156.057 79.6312 155.065 80.0957C155.179 78.7658 155.224 77.5312 155.243 76.6149ZM144.686 80.2039C143.699 79.7712 142.777 79.2112 141.937 78.5494C142.548 77.9703 143.362 77.474 144.393 77.0285C144.469 78.0212 144.565 79.1221 144.686 80.2039ZM137.132 68.6478C137.132 65.8542 138.049 63.2706 139.589 61.177C139.55 61.5143 139.525 61.8707 139.519 62.2334C139.48 64.0088 140.002 65.3579 140.53 66.236C140.467 66.2615 140.397 66.2869 140.333 66.3251C139.735 66.6433 139.34 67.2542 139.232 68.0496C139.13 68.8133 139.296 69.6596 139.703 70.4359C140.333 71.6259 141.415 72.4086 142.452 72.4532C142.936 73.6495 143.547 74.674 144.278 75.5077C144.298 75.8004 144.317 76.1186 144.342 76.4558C143.146 76.9522 142.21 77.5249 141.51 78.1994C138.825 75.8831 137.126 72.4595 137.126 68.6478H137.132ZM145.258 80.4394C145.087 78.9503 144.959 77.3722 144.87 76.1186C145.208 76.4367 145.57 76.7231 145.952 76.9713C147.32 77.8622 148.567 78.1994 149.681 78.1994C151.966 78.1994 153.684 76.7676 154.715 75.7177C154.715 76.6404 154.676 78.4094 154.498 80.3376C153.035 80.9357 151.431 81.2666 149.757 81.2666C148.173 81.2666 146.658 80.9675 145.258 80.433V80.4394ZM158.227 77.9958C157.464 77.194 156.522 76.5767 155.255 76.0295C155.255 75.6031 155.255 75.2977 155.255 75.1513C155.268 75.1386 155.281 75.1195 155.294 75.1068C155.612 74.7631 156.159 73.9359 156.605 73.045C156.668 73.045 156.732 73.0641 156.795 73.0641C157.807 73.0641 158.851 72.3005 159.525 71.0214C160.047 70.035 160.162 68.9469 159.869 68.0878C160.709 67.8524 161.326 67.3815 161.708 66.6751C161.867 66.3824 161.969 66.0642 162.039 65.7333C162.262 66.6688 162.383 67.6487 162.383 68.6542C162.383 72.3577 160.779 75.6922 158.234 78.0022L158.227 77.9958Z" fill="#B6C0CC"/>
<path d="M149.91 70.862C150.177 70.862 150.477 70.8047 150.801 70.6329C150.935 70.5629 150.986 70.4038 150.916 70.2702C150.846 70.1366 150.687 70.0857 150.553 70.1557C149.802 70.5438 149.236 70.1302 149.21 70.1111C149.096 70.022 148.924 70.0411 148.835 70.1557C148.746 70.2702 148.765 70.442 148.879 70.5375C148.905 70.5566 149.306 70.862 149.91 70.862Z" fill="#B6C0CC"/>
<path d="M153.047 72.3764C149.904 73.7764 147.193 72.6564 147.167 72.6437C147.027 72.5864 146.875 72.6437 146.811 72.7837C146.754 72.9237 146.811 73.0764 146.951 73.14C147.021 73.1718 148.122 73.63 149.732 73.63C150.744 73.63 151.966 73.4518 153.264 72.8727C153.397 72.8091 153.461 72.65 153.397 72.5164C153.334 72.3828 153.175 72.3191 153.041 72.3828L153.047 72.3764Z" fill="#B6C0CC"/>
<path d="M153.308 65.5996C152.818 65.5996 152.417 66.1978 152.417 66.9423C152.417 67.6868 152.818 68.285 153.308 68.285C153.798 68.285 154.199 67.6868 154.199 66.9423C154.199 66.1978 153.798 65.5996 153.308 65.5996Z" fill="#B6C0CC"/>
<path d="M147.308 66.8593C147.308 66.1211 146.907 65.5166 146.417 65.5166C145.927 65.5166 145.526 66.1148 145.526 66.8593C145.526 67.6038 145.927 68.202 146.417 68.202C146.907 68.202 147.308 67.6038 147.308 66.8593Z" fill="#B6C0CC"/>
</g>
<defs>
<clipPath id="clip0_4_13684">
<rect width="130" height="57" fill="white" transform="translate(122 39)"/>
</clipPath>
</defs>
</svg>
