<svg width="16" height="16" viewBox="0 0 16 16" fill="none" xmlns="http://www.w3.org/2000/svg">
<path d="M8.07494 8.2683C9.52974 8.2683 10.7091 7.08895 10.7091 5.63415C10.7091 4.17935 9.52974 3 8.07494 3C6.62013 3 5.44078 4.17935 5.44078 5.63415C5.44078 7.08895 6.62013 8.2683 8.07494 8.2683Z" fill="#97A2BB"/>
<path d="M12.8135 12.0186C12.811 10.7843 12.1612 9.88365 11.2334 9.32337C10.3312 8.77854 9.16202 8.54481 7.99565 8.54481C6.82928 8.54481 5.66013 8.77854 4.75792 9.32337C3.82832 9.88474 3.17773 10.7878 3.17773 12.0258C3.17773 12.3538 3.39039 12.5407 3.47117 12.6012C3.56462 12.6712 3.65967 12.7095 3.71545 12.7297C3.83489 12.7729 3.97235 12.8011 4.09715 12.8218C4.35755 12.865 4.70808 12.898 5.10298 12.9235C5.89968 12.9749 6.95141 13.0001 7.99565 13.0001C9.03989 13.0001 10.0916 12.9749 10.8883 12.9235C11.2832 12.898 11.6337 12.865 11.8941 12.8218C12.0189 12.8011 12.1564 12.7729 12.2758 12.7297C12.3316 12.7095 12.4267 12.6712 12.5201 12.6012C12.6009 12.5407 12.8136 12.3538 12.8136 12.0258L12.8135 12.0186Z" fill="#97A2BB"/>
</svg>
