<svg width="96" height="96" viewBox="0 0 96 96" fill="none" xmlns="http://www.w3.org/2000/svg">
<g filter="url(#filter0_dd_5878_55540)">
<rect x="32" y="40" width="32" height="32" rx="12" fill="white"/>
<path d="M47.4829 63.2558C51.6587 63.2558 55.0438 59.8706 55.0438 55.6948C55.0438 51.519 51.6587 48.1338 47.4829 48.1338C43.307 48.1338 39.9219 51.519 39.9219 55.6948C39.9219 59.8706 43.307 63.2558 47.4829 63.2558Z" fill="url(#paint0_linear_5878_55540)"/>
<path d="M47.4829 63.2558C51.6587 63.2558 55.0438 59.8706 55.0438 55.6948C55.0438 51.519 51.6587 48.1338 47.4829 48.1338C43.307 48.1338 39.9219 51.519 39.9219 55.6948C39.9219 59.8706 43.307 63.2558 47.4829 63.2558Z" fill="url(#paint1_radial_5878_55540)"/>
<path d="M47.4829 63.2558C51.6587 63.2558 55.0438 59.8706 55.0438 55.6948C55.0438 51.519 51.6587 48.1338 47.4829 48.1338C43.307 48.1338 39.9219 51.519 39.9219 55.6948C39.9219 59.8706 43.307 63.2558 47.4829 63.2558Z" fill="url(#paint2_radial_5878_55540)"/>
<path d="M47.4829 63.2558C51.6587 63.2558 55.0438 59.8706 55.0438 55.6948C55.0438 51.519 51.6587 48.1338 47.4829 48.1338C43.307 48.1338 39.9219 51.519 39.9219 55.6948C39.9219 59.8706 43.307 63.2558 47.4829 63.2558Z" fill="url(#paint3_radial_5878_55540)"/>
<path d="M47.4829 63.2558C51.6587 63.2558 55.0438 59.8706 55.0438 55.6948C55.0438 51.519 51.6587 48.1338 47.4829 48.1338C43.307 48.1338 39.9219 51.519 39.9219 55.6948C39.9219 59.8706 43.307 63.2558 47.4829 63.2558Z" fill="url(#paint4_radial_5878_55540)"/>
<path d="M47.4829 63.2558C51.6587 63.2558 55.0438 59.8706 55.0438 55.6948C55.0438 51.519 51.6587 48.1338 47.4829 48.1338C43.307 48.1338 39.9219 51.519 39.9219 55.6948C39.9219 59.8706 43.307 63.2558 47.4829 63.2558Z" fill="url(#paint5_radial_5878_55540)"/>
<path d="M47.4836 60.8968C50.3567 60.8968 52.6859 58.5677 52.6859 55.6945C52.6859 52.8213 50.3567 50.4922 47.4836 50.4922C44.6104 50.4922 42.2812 52.8213 42.2812 55.6945C42.2812 58.5677 44.6104 60.8968 47.4836 60.8968Z" fill="#D8CBF0"/>
<path d="M47.4836 60.8968C50.3567 60.8968 52.6859 58.5677 52.6859 55.6945C52.6859 52.8213 50.3567 50.4922 47.4836 50.4922C44.6104 50.4922 42.2812 52.8213 42.2812 55.6945C42.2812 58.5677 44.6104 60.8968 47.4836 60.8968Z" fill="url(#paint6_radial_5878_55540)"/>
<path d="M47.4836 60.8968C50.3567 60.8968 52.6859 58.5677 52.6859 55.6945C52.6859 52.8213 50.3567 50.4922 47.4836 50.4922C44.6104 50.4922 42.2812 52.8213 42.2812 55.6945C42.2812 58.5677 44.6104 60.8968 47.4836 60.8968Z" fill="url(#paint7_radial_5878_55540)"/>
<path d="M47.4836 60.8968C50.3567 60.8968 52.6859 58.5677 52.6859 55.6945C52.6859 52.8213 50.3567 50.4922 47.4836 50.4922C44.6104 50.4922 42.2812 52.8213 42.2812 55.6945C42.2812 58.5677 44.6104 60.8968 47.4836 60.8968Z" fill="url(#paint8_radial_5878_55540)"/>
<path d="M41.4969 47.467C41.1735 47.467 40.9182 47.6935 40.9182 47.9638V50.2447C40.9182 50.3908 40.782 50.5004 40.6203 50.5004C40.45 50.5004 40.3224 50.3835 40.3224 50.2447V47.9857C40.3224 47.7154 40.0756 47.4743 39.7606 47.467C39.4287 47.4597 39.1563 47.6862 39.1563 47.9638V50.2447C39.1563 50.3908 39.0202 50.5004 38.8585 50.5004C38.6882 50.5004 38.5606 50.3835 38.5606 50.2447V47.9857C38.5606 47.7154 38.3137 47.4743 37.9988 47.467C37.6669 47.4597 37.3945 47.6862 37.3945 47.9638V50.1849V50.5722V51.9726C37.3945 53.386 38.8499 53.769 38.8499 54.7683C38.8499 55.7677 38.8499 63.7124 38.8499 63.7124C38.8499 64.1981 39.2589 64.6258 39.7479 64.6258C40.2368 64.6258 40.6458 64.1981 40.6458 63.7124C40.6458 63.7124 40.6458 55.8032 40.6458 54.7683C40.6458 53.7335 42.1012 53.3968 42.1012 51.9726V50.5722V50.1849V47.9638C42.0842 47.6935 41.8203 47.467 41.4969 47.467Z" fill="url(#paint9_linear_5878_55540)"/>
<path d="M41.4969 47.467C41.1735 47.467 40.9182 47.6935 40.9182 47.9638V50.2447C40.9182 50.3908 40.782 50.5004 40.6203 50.5004C40.45 50.5004 40.3224 50.3835 40.3224 50.2447V47.9857C40.3224 47.7154 40.0756 47.4743 39.7606 47.467C39.4287 47.4597 39.1563 47.6862 39.1563 47.9638V50.2447C39.1563 50.3908 39.0202 50.5004 38.8585 50.5004C38.6882 50.5004 38.5606 50.3835 38.5606 50.2447V47.9857C38.5606 47.7154 38.3137 47.4743 37.9988 47.467C37.6669 47.4597 37.3945 47.6862 37.3945 47.9638V50.1849V50.5722V51.9726C37.3945 53.386 38.8499 53.769 38.8499 54.7683C38.8499 55.7677 38.8499 63.7124 38.8499 63.7124C38.8499 64.1981 39.2589 64.6258 39.7479 64.6258C40.2368 64.6258 40.6458 64.1981 40.6458 63.7124C40.6458 63.7124 40.6458 55.8032 40.6458 54.7683C40.6458 53.7335 42.1012 53.3968 42.1012 51.9726V50.5722V50.1849V47.9638C42.0842 47.6935 41.8203 47.467 41.4969 47.467Z" fill="url(#paint10_linear_5878_55540)"/>
<path d="M41.4969 47.467C41.1735 47.467 40.9182 47.6935 40.9182 47.9638V50.2447C40.9182 50.3908 40.782 50.5004 40.6203 50.5004C40.45 50.5004 40.3224 50.3835 40.3224 50.2447V47.9857C40.3224 47.7154 40.0756 47.4743 39.7606 47.467C39.4287 47.4597 39.1563 47.6862 39.1563 47.9638V50.2447C39.1563 50.3908 39.0202 50.5004 38.8585 50.5004C38.6882 50.5004 38.5606 50.3835 38.5606 50.2447V47.9857C38.5606 47.7154 38.3137 47.4743 37.9988 47.467C37.6669 47.4597 37.3945 47.6862 37.3945 47.9638V50.1849V50.5722V51.9726C37.3945 53.386 38.8499 53.769 38.8499 54.7683C38.8499 55.7677 38.8499 63.7124 38.8499 63.7124C38.8499 64.1981 39.2589 64.6258 39.7479 64.6258C40.2368 64.6258 40.6458 64.1981 40.6458 63.7124C40.6458 63.7124 40.6458 55.8032 40.6458 54.7683C40.6458 53.7335 42.1012 53.3968 42.1012 51.9726V50.5722V50.1849V47.9638C42.0842 47.6935 41.8203 47.467 41.4969 47.467Z" fill="black" fill-opacity="0.05"/>
<path d="M41.4969 47.467C41.1735 47.467 40.9182 47.6935 40.9182 47.9638V50.2447C40.9182 50.3908 40.782 50.5004 40.6203 50.5004C40.45 50.5004 40.3224 50.3835 40.3224 50.2447V47.9857C40.3224 47.7154 40.0756 47.4743 39.7606 47.467C39.4287 47.4597 39.1563 47.6862 39.1563 47.9638V50.2447C39.1563 50.3908 39.0202 50.5004 38.8585 50.5004C38.6882 50.5004 38.5606 50.3835 38.5606 50.2447V47.9857C38.5606 47.7154 38.3137 47.4743 37.9988 47.467C37.6669 47.4597 37.3945 47.6862 37.3945 47.9638V50.1849V50.5722V51.9726C37.3945 53.386 38.8499 53.769 38.8499 54.7683C38.8499 55.7677 38.8499 63.7124 38.8499 63.7124C38.8499 64.1981 39.2589 64.6258 39.7479 64.6258C40.2368 64.6258 40.6458 64.1981 40.6458 63.7124C40.6458 63.7124 40.6458 55.8032 40.6458 54.7683C40.6458 53.7335 42.1012 53.3968 42.1012 51.9726V50.5722V50.1849V47.9638C42.0842 47.6935 41.8203 47.467 41.4969 47.467Z" fill="url(#paint11_linear_5878_55540)"/>
<path d="M41.4969 47.467C41.1735 47.467 40.9182 47.6935 40.9182 47.9638V50.2447C40.9182 50.3908 40.782 50.5004 40.6203 50.5004C40.45 50.5004 40.3224 50.3835 40.3224 50.2447V47.9857C40.3224 47.7154 40.0756 47.4743 39.7606 47.467C39.4287 47.4597 39.1563 47.6862 39.1563 47.9638V50.2447C39.1563 50.3908 39.0202 50.5004 38.8585 50.5004C38.6882 50.5004 38.5606 50.3835 38.5606 50.2447V47.9857C38.5606 47.7154 38.3137 47.4743 37.9988 47.467C37.6669 47.4597 37.3945 47.6862 37.3945 47.9638V50.1849V50.5722V51.9726C37.3945 53.386 38.8499 53.769 38.8499 54.7683C38.8499 55.7677 38.8499 63.7124 38.8499 63.7124C38.8499 64.1981 39.2589 64.6258 39.7479 64.6258C40.2368 64.6258 40.6458 64.1981 40.6458 63.7124C40.6458 63.7124 40.6458 55.8032 40.6458 54.7683C40.6458 53.7335 42.1012 53.3968 42.1012 51.9726V50.5722V50.1849V47.9638C42.0842 47.6935 41.8203 47.467 41.4969 47.467Z" fill="url(#paint12_linear_5878_55540)"/>
<path d="M41.4969 47.467C41.1735 47.467 40.9182 47.6935 40.9182 47.9638V50.2447C40.9182 50.3908 40.782 50.5004 40.6203 50.5004C40.45 50.5004 40.3224 50.3835 40.3224 50.2447V47.9857C40.3224 47.7154 40.0756 47.4743 39.7606 47.467C39.4287 47.4597 39.1563 47.6862 39.1563 47.9638V50.2447C39.1563 50.3908 39.0202 50.5004 38.8585 50.5004C38.6882 50.5004 38.5606 50.3835 38.5606 50.2447V47.9857C38.5606 47.7154 38.3137 47.4743 37.9988 47.467C37.6669 47.4597 37.3945 47.6862 37.3945 47.9638V50.1849V50.5722V51.9726C37.3945 53.386 38.8499 53.769 38.8499 54.7683C38.8499 55.7677 38.8499 63.7124 38.8499 63.7124C38.8499 64.1981 39.2589 64.6258 39.7479 64.6258C40.2368 64.6258 40.6458 64.1981 40.6458 63.7124C40.6458 63.7124 40.6458 55.8032 40.6458 54.7683C40.6458 53.7335 42.1012 53.3968 42.1012 51.9726V50.5722V50.1849V47.9638C42.0842 47.6935 41.8203 47.467 41.4969 47.467Z" fill="url(#paint13_radial_5878_55540)"/>
<path d="M41.4969 47.467C41.1735 47.467 40.9182 47.6935 40.9182 47.9638V50.2447C40.9182 50.3908 40.782 50.5004 40.6203 50.5004C40.45 50.5004 40.3224 50.3835 40.3224 50.2447V47.9857C40.3224 47.7154 40.0756 47.4743 39.7606 47.467C39.4287 47.4597 39.1563 47.6862 39.1563 47.9638V50.2447C39.1563 50.3908 39.0202 50.5004 38.8585 50.5004C38.6882 50.5004 38.5606 50.3835 38.5606 50.2447V47.9857C38.5606 47.7154 38.3137 47.4743 37.9988 47.467C37.6669 47.4597 37.3945 47.6862 37.3945 47.9638V50.1849V50.5722V51.9726C37.3945 53.386 38.8499 53.769 38.8499 54.7683C38.8499 55.7677 38.8499 63.7124 38.8499 63.7124C38.8499 64.1981 39.2589 64.6258 39.7479 64.6258C40.2368 64.6258 40.6458 64.1981 40.6458 63.7124C40.6458 63.7124 40.6458 55.8032 40.6458 54.7683C40.6458 53.7335 42.1012 53.3968 42.1012 51.9726V50.5722V50.1849V47.9638C42.0842 47.6935 41.8203 47.467 41.4969 47.467Z" fill="url(#paint14_radial_5878_55540)"/>
<path d="M41.4969 47.467C41.1735 47.467 40.9182 47.6935 40.9182 47.9638V50.2447C40.9182 50.3908 40.782 50.5004 40.6203 50.5004C40.45 50.5004 40.3224 50.3835 40.3224 50.2447V47.9857C40.3224 47.7154 40.0756 47.4743 39.7606 47.467C39.4287 47.4597 39.1563 47.6862 39.1563 47.9638V50.2447C39.1563 50.3908 39.0202 50.5004 38.8585 50.5004C38.6882 50.5004 38.5606 50.3835 38.5606 50.2447V47.9857C38.5606 47.7154 38.3137 47.4743 37.9988 47.467C37.6669 47.4597 37.3945 47.6862 37.3945 47.9638V50.1849V50.5722V51.9726C37.3945 53.386 38.8499 53.769 38.8499 54.7683C38.8499 55.7677 38.8499 63.7124 38.8499 63.7124C38.8499 64.1981 39.2589 64.6258 39.7479 64.6258C40.2368 64.6258 40.6458 64.1981 40.6458 63.7124C40.6458 63.7124 40.6458 55.8032 40.6458 54.7683C40.6458 53.7335 42.1012 53.3968 42.1012 51.9726V50.5722V50.1849V47.9638C42.0842 47.6935 41.8203 47.467 41.4969 47.467Z" fill="url(#paint15_radial_5878_55540)"/>
<path d="M41.4969 47.467C41.1735 47.467 40.9182 47.6935 40.9182 47.9638V50.2447C40.9182 50.3908 40.782 50.5004 40.6203 50.5004C40.45 50.5004 40.3224 50.3835 40.3224 50.2447V47.9857C40.3224 47.7154 40.0756 47.4743 39.7606 47.467C39.4287 47.4597 39.1563 47.6862 39.1563 47.9638V50.2447C39.1563 50.3908 39.0202 50.5004 38.8585 50.5004C38.6882 50.5004 38.5606 50.3835 38.5606 50.2447V47.9857C38.5606 47.7154 38.3137 47.4743 37.9988 47.467C37.6669 47.4597 37.3945 47.6862 37.3945 47.9638V50.1849V50.5722V51.9726C37.3945 53.386 38.8499 53.769 38.8499 54.7683C38.8499 55.7677 38.8499 63.7124 38.8499 63.7124C38.8499 64.1981 39.2589 64.6258 39.7479 64.6258C40.2368 64.6258 40.6458 64.1981 40.6458 63.7124C40.6458 63.7124 40.6458 55.8032 40.6458 54.7683C40.6458 53.7335 42.1012 53.3968 42.1012 51.9726V50.5722V50.1849V47.9638C42.0842 47.6935 41.8203 47.467 41.4969 47.467Z" fill="url(#paint16_radial_5878_55540)"/>
<path d="M41.4969 47.467C41.1735 47.467 40.9182 47.6935 40.9182 47.9638V50.2447C40.9182 50.3908 40.782 50.5004 40.6203 50.5004C40.45 50.5004 40.3224 50.3835 40.3224 50.2447V47.9857C40.3224 47.7154 40.0756 47.4743 39.7606 47.467C39.4287 47.4597 39.1563 47.6862 39.1563 47.9638V50.2447C39.1563 50.3908 39.0202 50.5004 38.8585 50.5004C38.6882 50.5004 38.5606 50.3835 38.5606 50.2447V47.9857C38.5606 47.7154 38.3137 47.4743 37.9988 47.467C37.6669 47.4597 37.3945 47.6862 37.3945 47.9638V50.1849V50.5722V51.9726C37.3945 53.386 38.8499 53.769 38.8499 54.7683C38.8499 55.7677 38.8499 63.7124 38.8499 63.7124C38.8499 64.1981 39.2589 64.6258 39.7479 64.6258C40.2368 64.6258 40.6458 64.1981 40.6458 63.7124C40.6458 63.7124 40.6458 55.8032 40.6458 54.7683C40.6458 53.7335 42.1012 53.3968 42.1012 51.9726V50.5722V50.1849V47.9638C42.0842 47.6935 41.8203 47.467 41.4969 47.467Z" fill="url(#paint17_radial_5878_55540)"/>
<path d="M41.4969 47.467C41.1735 47.467 40.9182 47.6935 40.9182 47.9638V50.2447C40.9182 50.3908 40.782 50.5004 40.6203 50.5004C40.45 50.5004 40.3224 50.3835 40.3224 50.2447V47.9857C40.3224 47.7154 40.0756 47.4743 39.7606 47.467C39.4287 47.4597 39.1563 47.6862 39.1563 47.9638V50.2447C39.1563 50.3908 39.0202 50.5004 38.8585 50.5004C38.6882 50.5004 38.5606 50.3835 38.5606 50.2447V47.9857C38.5606 47.7154 38.3137 47.4743 37.9988 47.467C37.6669 47.4597 37.3945 47.6862 37.3945 47.9638V50.1849V50.5722V51.9726C37.3945 53.386 38.8499 53.769 38.8499 54.7683C38.8499 55.7677 38.8499 63.7124 38.8499 63.7124C38.8499 64.1981 39.2589 64.6258 39.7479 64.6258C40.2368 64.6258 40.6458 64.1981 40.6458 63.7124C40.6458 63.7124 40.6458 55.8032 40.6458 54.7683C40.6458 53.7335 42.1012 53.3968 42.1012 51.9726V50.5722V50.1849V47.9638C42.0842 47.6935 41.8203 47.467 41.4969 47.467Z" fill="url(#paint18_radial_5878_55540)"/>
<path d="M41.4969 47.467C41.1735 47.467 40.9182 47.6935 40.9182 47.9638V50.2447C40.9182 50.3908 40.782 50.5004 40.6203 50.5004C40.45 50.5004 40.3224 50.3835 40.3224 50.2447V47.9857C40.3224 47.7154 40.0756 47.4743 39.7606 47.467C39.4287 47.4597 39.1563 47.6862 39.1563 47.9638V50.2447C39.1563 50.3908 39.0202 50.5004 38.8585 50.5004C38.6882 50.5004 38.5606 50.3835 38.5606 50.2447V47.9857C38.5606 47.7154 38.3137 47.4743 37.9988 47.467C37.6669 47.4597 37.3945 47.6862 37.3945 47.9638V50.1849V50.5722V51.9726C37.3945 53.386 38.8499 53.769 38.8499 54.7683C38.8499 55.7677 38.8499 63.7124 38.8499 63.7124C38.8499 64.1981 39.2589 64.6258 39.7479 64.6258C40.2368 64.6258 40.6458 64.1981 40.6458 63.7124C40.6458 63.7124 40.6458 55.8032 40.6458 54.7683C40.6458 53.7335 42.1012 53.3968 42.1012 51.9726V50.5722V50.1849V47.9638C42.0842 47.6935 41.8203 47.467 41.4969 47.467Z" fill="url(#paint19_radial_5878_55540)"/>
<path d="M41.4969 47.467C41.1735 47.467 40.9182 47.6935 40.9182 47.9638V50.2447C40.9182 50.3908 40.782 50.5004 40.6203 50.5004C40.45 50.5004 40.3224 50.3835 40.3224 50.2447V47.9857C40.3224 47.7154 40.0756 47.4743 39.7606 47.467C39.4287 47.4597 39.1563 47.6862 39.1563 47.9638V50.2447C39.1563 50.3908 39.0202 50.5004 38.8585 50.5004C38.6882 50.5004 38.5606 50.3835 38.5606 50.2447V47.9857C38.5606 47.7154 38.3137 47.4743 37.9988 47.467C37.6669 47.4597 37.3945 47.6862 37.3945 47.9638V50.1849V50.5722V51.9726C37.3945 53.386 38.8499 53.769 38.8499 54.7683C38.8499 55.7677 38.8499 63.7124 38.8499 63.7124C38.8499 64.1981 39.2589 64.6258 39.7479 64.6258C40.2368 64.6258 40.6458 64.1981 40.6458 63.7124C40.6458 63.7124 40.6458 55.8032 40.6458 54.7683C40.6458 53.7335 42.1012 53.3968 42.1012 51.9726V50.5722V50.1849V47.9638C42.0842 47.6935 41.8203 47.467 41.4969 47.467Z" fill="url(#paint20_radial_5878_55540)"/>
<path d="M41.4969 47.467C41.1735 47.467 40.9182 47.6935 40.9182 47.9638V50.2447C40.9182 50.3908 40.782 50.5004 40.6203 50.5004C40.45 50.5004 40.3224 50.3835 40.3224 50.2447V47.9857C40.3224 47.7154 40.0756 47.4743 39.7606 47.467C39.4287 47.4597 39.1563 47.6862 39.1563 47.9638V50.2447C39.1563 50.3908 39.0202 50.5004 38.8585 50.5004C38.6882 50.5004 38.5606 50.3835 38.5606 50.2447V47.9857C38.5606 47.7154 38.3137 47.4743 37.9988 47.467C37.6669 47.4597 37.3945 47.6862 37.3945 47.9638V50.1849V50.5722V51.9726C37.3945 53.386 38.8499 53.769 38.8499 54.7683C38.8499 55.7677 38.8499 63.7124 38.8499 63.7124C38.8499 64.1981 39.2589 64.6258 39.7479 64.6258C40.2368 64.6258 40.6458 64.1981 40.6458 63.7124C40.6458 63.7124 40.6458 55.8032 40.6458 54.7683C40.6458 53.7335 42.1012 53.3968 42.1012 51.9726V50.5722V50.1849V47.9638C42.0842 47.6935 41.8203 47.467 41.4969 47.467Z" fill="url(#paint21_radial_5878_55540)"/>
<path d="M41.4969 47.467C41.1735 47.467 40.9182 47.6935 40.9182 47.9638V50.2447C40.9182 50.3908 40.782 50.5004 40.6203 50.5004C40.45 50.5004 40.3224 50.3835 40.3224 50.2447V47.9857C40.3224 47.7154 40.0756 47.4743 39.7606 47.467C39.4287 47.4597 39.1563 47.6862 39.1563 47.9638V50.2447C39.1563 50.3908 39.0202 50.5004 38.8585 50.5004C38.6882 50.5004 38.5606 50.3835 38.5606 50.2447V47.9857C38.5606 47.7154 38.3137 47.4743 37.9988 47.467C37.6669 47.4597 37.3945 47.6862 37.3945 47.9638V50.1849V50.5722V51.9726C37.3945 53.386 38.8499 53.769 38.8499 54.7683C38.8499 55.7677 38.8499 63.7124 38.8499 63.7124C38.8499 64.1981 39.2589 64.6258 39.7479 64.6258C40.2368 64.6258 40.6458 64.1981 40.6458 63.7124C40.6458 63.7124 40.6458 55.8032 40.6458 54.7683C40.6458 53.7335 42.1012 53.3968 42.1012 51.9726V50.5722V50.1849V47.9638C42.0842 47.6935 41.8203 47.467 41.4969 47.467Z" fill="url(#paint22_radial_5878_55540)"/>
<path d="M41.4969 47.467C41.1735 47.467 40.9182 47.6935 40.9182 47.9638V50.2447C40.9182 50.3908 40.782 50.5004 40.6203 50.5004C40.45 50.5004 40.3224 50.3835 40.3224 50.2447V47.9857C40.3224 47.7154 40.0756 47.4743 39.7606 47.467C39.4287 47.4597 39.1563 47.6862 39.1563 47.9638V50.2447C39.1563 50.3908 39.0202 50.5004 38.8585 50.5004C38.6882 50.5004 38.5606 50.3835 38.5606 50.2447V47.9857C38.5606 47.7154 38.3137 47.4743 37.9988 47.467C37.6669 47.4597 37.3945 47.6862 37.3945 47.9638V50.1849V50.5722V51.9726C37.3945 53.386 38.8499 53.769 38.8499 54.7683C38.8499 55.7677 38.8499 63.7124 38.8499 63.7124C38.8499 64.1981 39.2589 64.6258 39.7479 64.6258C40.2368 64.6258 40.6458 64.1981 40.6458 63.7124C40.6458 63.7124 40.6458 55.8032 40.6458 54.7683C40.6458 53.7335 42.1012 53.3968 42.1012 51.9726V50.5722V50.1849V47.9638C42.0842 47.6935 41.8203 47.467 41.4969 47.467Z" fill="url(#paint23_radial_5878_55540)"/>
<path d="M41.4969 47.467C41.1735 47.467 40.9182 47.6935 40.9182 47.9638V50.2447C40.9182 50.3908 40.782 50.5004 40.6203 50.5004C40.45 50.5004 40.3224 50.3835 40.3224 50.2447V47.9857C40.3224 47.7154 40.0756 47.4743 39.7606 47.467C39.4287 47.4597 39.1563 47.6862 39.1563 47.9638V50.2447C39.1563 50.3908 39.0202 50.5004 38.8585 50.5004C38.6882 50.5004 38.5606 50.3835 38.5606 50.2447V47.9857C38.5606 47.7154 38.3137 47.4743 37.9988 47.467C37.6669 47.4597 37.3945 47.6862 37.3945 47.9638V50.1849V50.5722V51.9726C37.3945 53.386 38.8499 53.769 38.8499 54.7683C38.8499 55.7677 38.8499 63.7124 38.8499 63.7124C38.8499 64.1981 39.2589 64.6258 39.7479 64.6258C40.2368 64.6258 40.6458 64.1981 40.6458 63.7124C40.6458 63.7124 40.6458 55.8032 40.6458 54.7683C40.6458 53.7335 42.1012 53.3968 42.1012 51.9726V50.5722V50.1849V47.9638C42.0842 47.6935 41.8203 47.467 41.4969 47.467Z" fill="url(#paint24_radial_5878_55540)"/>
<path d="M41.4969 47.467C41.1735 47.467 40.9182 47.6935 40.9182 47.9638V50.2447C40.9182 50.3908 40.782 50.5004 40.6203 50.5004C40.45 50.5004 40.3224 50.3835 40.3224 50.2447V47.9857C40.3224 47.7154 40.0756 47.4743 39.7606 47.467C39.4287 47.4597 39.1563 47.6862 39.1563 47.9638V50.2447C39.1563 50.3908 39.0202 50.5004 38.8585 50.5004C38.6882 50.5004 38.5606 50.3835 38.5606 50.2447V47.9857C38.5606 47.7154 38.3137 47.4743 37.9988 47.467C37.6669 47.4597 37.3945 47.6862 37.3945 47.9638V50.1849V50.5722V51.9726C37.3945 53.386 38.8499 53.769 38.8499 54.7683C38.8499 55.7677 38.8499 63.7124 38.8499 63.7124C38.8499 64.1981 39.2589 64.6258 39.7479 64.6258C40.2368 64.6258 40.6458 64.1981 40.6458 63.7124C40.6458 63.7124 40.6458 55.8032 40.6458 54.7683C40.6458 53.7335 42.1012 53.3968 42.1012 51.9726V50.5722V50.1849V47.9638C42.0842 47.6935 41.8203 47.467 41.4969 47.467Z" fill="url(#paint25_radial_5878_55540)"/>
<path d="M41.4969 47.467C41.1735 47.467 40.9182 47.6935 40.9182 47.9638V50.2447C40.9182 50.3908 40.782 50.5004 40.6203 50.5004C40.45 50.5004 40.3224 50.3835 40.3224 50.2447V47.9857C40.3224 47.7154 40.0756 47.4743 39.7606 47.467C39.4287 47.4597 39.1563 47.6862 39.1563 47.9638V50.2447C39.1563 50.3908 39.0202 50.5004 38.8585 50.5004C38.6882 50.5004 38.5606 50.3835 38.5606 50.2447V47.9857C38.5606 47.7154 38.3137 47.4743 37.9988 47.467C37.6669 47.4597 37.3945 47.6862 37.3945 47.9638V50.1849V50.5722V51.9726C37.3945 53.386 38.8499 53.769 38.8499 54.7683C38.8499 55.7677 38.8499 63.7124 38.8499 63.7124C38.8499 64.1981 39.2589 64.6258 39.7479 64.6258C40.2368 64.6258 40.6458 64.1981 40.6458 63.7124C40.6458 63.7124 40.6458 55.8032 40.6458 54.7683C40.6458 53.7335 42.1012 53.3968 42.1012 51.9726V50.5722V50.1849V47.9638C42.0842 47.6935 41.8203 47.467 41.4969 47.467Z" fill="url(#paint26_radial_5878_55540)"/>
<path d="M41.4969 47.467C41.1735 47.467 40.9182 47.6935 40.9182 47.9638V50.2447C40.9182 50.3908 40.782 50.5004 40.6203 50.5004C40.45 50.5004 40.3224 50.3835 40.3224 50.2447V47.9857C40.3224 47.7154 40.0756 47.4743 39.7606 47.467C39.4287 47.4597 39.1563 47.6862 39.1563 47.9638V50.2447C39.1563 50.3908 39.0202 50.5004 38.8585 50.5004C38.6882 50.5004 38.5606 50.3835 38.5606 50.2447V47.9857C38.5606 47.7154 38.3137 47.4743 37.9988 47.467C37.6669 47.4597 37.3945 47.6862 37.3945 47.9638V50.1849V50.5722V51.9726C37.3945 53.386 38.8499 53.769 38.8499 54.7683C38.8499 55.7677 38.8499 63.7124 38.8499 63.7124C38.8499 64.1981 39.2589 64.6258 39.7479 64.6258C40.2368 64.6258 40.6458 64.1981 40.6458 63.7124C40.6458 63.7124 40.6458 55.8032 40.6458 54.7683C40.6458 53.7335 42.1012 53.3968 42.1012 51.9726V50.5722V50.1849V47.9638C42.0842 47.6935 41.8203 47.467 41.4969 47.467Z" fill="url(#paint27_radial_5878_55540)"/>
<path d="M41.4969 47.467C41.1735 47.467 40.9182 47.6935 40.9182 47.9638V50.2447C40.9182 50.3908 40.782 50.5004 40.6203 50.5004C40.45 50.5004 40.3224 50.3835 40.3224 50.2447V47.9857C40.3224 47.7154 40.0756 47.4743 39.7606 47.467C39.4287 47.4597 39.1563 47.6862 39.1563 47.9638V50.2447C39.1563 50.3908 39.0202 50.5004 38.8585 50.5004C38.6882 50.5004 38.5606 50.3835 38.5606 50.2447V47.9857C38.5606 47.7154 38.3137 47.4743 37.9988 47.467C37.6669 47.4597 37.3945 47.6862 37.3945 47.9638V50.1849V50.5722V51.9726C37.3945 53.386 38.8499 53.769 38.8499 54.7683C38.8499 55.7677 38.8499 63.7124 38.8499 63.7124C38.8499 64.1981 39.2589 64.6258 39.7479 64.6258C40.2368 64.6258 40.6458 64.1981 40.6458 63.7124C40.6458 63.7124 40.6458 55.8032 40.6458 54.7683C40.6458 53.7335 42.1012 53.3968 42.1012 51.9726V50.5722V50.1849V47.9638C42.0842 47.6935 41.8203 47.467 41.4969 47.467Z" fill="url(#paint28_radial_5878_55540)"/>
<path d="M41.4969 47.467C41.1735 47.467 40.9182 47.6935 40.9182 47.9638V50.2447C40.9182 50.3908 40.782 50.5004 40.6203 50.5004C40.45 50.5004 40.3224 50.3835 40.3224 50.2447V47.9857C40.3224 47.7154 40.0756 47.4743 39.7606 47.467C39.4287 47.4597 39.1563 47.6862 39.1563 47.9638V50.2447C39.1563 50.3908 39.0202 50.5004 38.8585 50.5004C38.6882 50.5004 38.5606 50.3835 38.5606 50.2447V47.9857C38.5606 47.7154 38.3137 47.4743 37.9988 47.467C37.6669 47.4597 37.3945 47.6862 37.3945 47.9638V50.1849V50.5722V51.9726C37.3945 53.386 38.8499 53.769 38.8499 54.7683C38.8499 55.7677 38.8499 63.7124 38.8499 63.7124C38.8499 64.1981 39.2589 64.6258 39.7479 64.6258C40.2368 64.6258 40.6458 64.1981 40.6458 63.7124C40.6458 63.7124 40.6458 55.8032 40.6458 54.7683C40.6458 53.7335 42.1012 53.3968 42.1012 51.9726V50.5722V50.1849V47.9638C42.0842 47.6935 41.8203 47.467 41.4969 47.467Z" fill="url(#paint29_radial_5878_55540)"/>
<path d="M56.5068 48.8404C56.5068 48.082 55.8783 47.4668 55.1036 47.4668C53.9844 47.4668 53.0891 48.3516 53.0977 49.4388V54.1158C53.0977 55.1794 53.7103 56.1309 54.6902 56.5548V63.8061C54.6902 64.2563 55.0518 64.62 55.4994 64.62H55.6975C56.1451 64.62 56.5067 64.2563 56.5067 63.8061L56.5068 48.8404Z" fill="url(#paint30_linear_5878_55540)"/>
<path d="M56.5068 48.8404C56.5068 48.082 55.8783 47.4668 55.1036 47.4668C53.9844 47.4668 53.0891 48.3516 53.0977 49.4388V54.1158C53.0977 55.1794 53.7103 56.1309 54.6902 56.5548V63.8061C54.6902 64.2563 55.0518 64.62 55.4994 64.62H55.6975C56.1451 64.62 56.5067 64.2563 56.5067 63.8061L56.5068 48.8404Z" fill="url(#paint31_radial_5878_55540)"/>
<path d="M56.5068 48.8404C56.5068 48.082 55.8783 47.4668 55.1036 47.4668C53.9844 47.4668 53.0891 48.3516 53.0977 49.4388V54.1158C53.0977 55.1794 53.7103 56.1309 54.6902 56.5548V63.8061C54.6902 64.2563 55.0518 64.62 55.4994 64.62H55.6975C56.1451 64.62 56.5067 64.2563 56.5067 63.8061L56.5068 48.8404Z" fill="url(#paint32_radial_5878_55540)"/>
<path d="M56.5068 48.8404C56.5068 48.082 55.8783 47.4668 55.1036 47.4668C53.9844 47.4668 53.0891 48.3516 53.0977 49.4388V54.1158C53.0977 55.1794 53.7103 56.1309 54.6902 56.5548V63.8061C54.6902 64.2563 55.0518 64.62 55.4994 64.62H55.6975C56.1451 64.62 56.5067 64.2563 56.5067 63.8061L56.5068 48.8404Z" fill="url(#paint33_radial_5878_55540)"/>
<path d="M56.5068 48.8404C56.5068 48.082 55.8783 47.4668 55.1036 47.4668C53.9844 47.4668 53.0891 48.3516 53.0977 49.4388V54.1158C53.0977 55.1794 53.7103 56.1309 54.6902 56.5548V63.8061C54.6902 64.2563 55.0518 64.62 55.4994 64.62H55.6975C56.1451 64.62 56.5067 64.2563 56.5067 63.8061L56.5068 48.8404Z" fill="url(#paint34_radial_5878_55540)"/>
<path d="M56.5068 48.8404C56.5068 48.082 55.8783 47.4668 55.1036 47.4668C53.9844 47.4668 53.0891 48.3516 53.0977 49.4388V54.1158C53.0977 55.1794 53.7103 56.1309 54.6902 56.5548V63.8061C54.6902 64.2563 55.0518 64.62 55.4994 64.62H55.6975C56.1451 64.62 56.5067 64.2563 56.5067 63.8061L56.5068 48.8404Z" fill="url(#paint35_radial_5878_55540)"/>
<path d="M56.5068 48.8404C56.5068 48.082 55.8783 47.4668 55.1036 47.4668C53.9844 47.4668 53.0891 48.3516 53.0977 49.4388V54.1158C53.0977 55.1794 53.7103 56.1309 54.6902 56.5548V63.8061C54.6902 64.2563 55.0518 64.62 55.4994 64.62H55.6975C56.1451 64.62 56.5067 64.2563 56.5067 63.8061L56.5068 48.8404Z" fill="url(#paint36_radial_5878_55540)"/>
<path d="M56.5068 48.8404C56.5068 48.082 55.8783 47.4668 55.1036 47.4668C53.9844 47.4668 53.0891 48.3516 53.0977 49.4388V54.1158C53.0977 55.1794 53.7103 56.1309 54.6902 56.5548V63.8061C54.6902 64.2563 55.0518 64.62 55.4994 64.62H55.6975C56.1451 64.62 56.5067 64.2563 56.5067 63.8061L56.5068 48.8404Z" fill="url(#paint37_radial_5878_55540)"/>
<path d="M56.5068 48.8404C56.5068 48.082 55.8783 47.4668 55.1036 47.4668C53.9844 47.4668 53.0891 48.3516 53.0977 49.4388V54.1158C53.0977 55.1794 53.7103 56.1309 54.6902 56.5548V63.8061C54.6902 64.2563 55.0518 64.62 55.4994 64.62H55.6975C56.1451 64.62 56.5067 64.2563 56.5067 63.8061L56.5068 48.8404Z" fill="url(#paint38_radial_5878_55540)"/>
</g>
<defs>
<filter id="filter0_dd_5878_55540" x="0" y="0" width="96" height="96" filterUnits="userSpaceOnUse" color-interpolation-filters="sRGB">
<feFlood flood-opacity="0" result="BackgroundImageFix"/>
<feColorMatrix in="SourceAlpha" type="matrix" values="0 0 0 0 0 0 0 0 0 0 0 0 0 0 0 0 0 0 127 0" result="hardAlpha"/>
<feOffset dy="-8"/>
<feGaussianBlur stdDeviation="16"/>
<feComposite in2="hardAlpha" operator="out"/>
<feColorMatrix type="matrix" values="0 0 0 0 0.427451 0 0 0 0 0.458824 0 0 0 0 0.513726 0 0 0 0.08 0"/>
<feBlend mode="normal" in2="BackgroundImageFix" result="effect1_dropShadow_5878_55540"/>
<feColorMatrix in="SourceAlpha" type="matrix" values="0 0 0 0 0 0 0 0 0 0 0 0 0 0 0 0 0 0 127 0" result="hardAlpha"/>
<feOffset dy="8"/>
<feGaussianBlur stdDeviation="8"/>
<feComposite in2="hardAlpha" operator="out"/>
<feColorMatrix type="matrix" values="0 0 0 0 0.427451 0 0 0 0 0.458824 0 0 0 0 0.513726 0 0 0 0.08 0"/>
<feBlend mode="normal" in2="effect1_dropShadow_5878_55540" result="effect2_dropShadow_5878_55540"/>
<feBlend mode="normal" in="SourceGraphic" in2="effect2_dropShadow_5878_55540" result="shape"/>
</filter>
<linearGradient id="paint0_linear_5878_55540" x1="46.6208" y1="48.1338" x2="47.4829" y2="63.2558" gradientUnits="userSpaceOnUse">
<stop offset="0.115334" stop-color="#BCBBC4"/>
<stop offset="0.227922" stop-color="#8F8D9B"/>
<stop offset="0.689257" stop-color="#A8A0BC"/>
<stop offset="0.766146" stop-color="#BFA1E2"/>
</linearGradient>
<radialGradient id="paint1_radial_5878_55540" cx="0" cy="0" r="1" gradientUnits="userSpaceOnUse" gradientTransform="translate(47.4829 55.6948) rotate(90) scale(7.56098 7.56098)">
<stop offset="0.943572" stop-color="#DDCEF5"/>
<stop offset="1" stop-color="#DDCEF5" stop-opacity="0"/>
</radialGradient>
<radialGradient id="paint2_radial_5878_55540" cx="0" cy="0" r="1" gradientUnits="userSpaceOnUse" gradientTransform="translate(44.6075 56.3754) rotate(-36.6264) scale(7.13548 7.13547)">
<stop offset="0.324467" stop-color="#EAE0FD"/>
<stop offset="0.633232" stop-color="#E7DDF9" stop-opacity="0"/>
</radialGradient>
<radialGradient id="paint3_radial_5878_55540" cx="0" cy="0" r="1" gradientUnits="userSpaceOnUse" gradientTransform="translate(47.9747 57.4978) rotate(144.796) scale(9.0606 11.3314)">
<stop offset="0.856316" stop-color="white" stop-opacity="0"/>
<stop offset="0.890511" stop-color="white" stop-opacity="0.3"/>
<stop offset="0.956564" stop-color="white" stop-opacity="0"/>
</radialGradient>
<radialGradient id="paint4_radial_5878_55540" cx="0" cy="0" r="1" gradientUnits="userSpaceOnUse" gradientTransform="translate(54.1982 53.518) rotate(88.5024) scale(3.28823 1.66633)">
<stop offset="0.675676" stop-color="#C2B2DB"/>
<stop offset="1" stop-color="#C2B2DB" stop-opacity="0"/>
</radialGradient>
<radialGradient id="paint5_radial_5878_55540" cx="0" cy="0" r="1" gradientUnits="userSpaceOnUse" gradientTransform="translate(54.8213 53.0883) rotate(82.7368) scale(4.41827 2.23899)">
<stop offset="0.675676" stop-color="#C2B2DB"/>
<stop offset="1" stop-color="#C2B2DB" stop-opacity="0"/>
</radialGradient>
<radialGradient id="paint6_radial_5878_55540" cx="0" cy="0" r="1" gradientUnits="userSpaceOnUse" gradientTransform="translate(46.6216 56.6878) rotate(82.9973) scale(7.07057 8.09712)">
<stop offset="0.596424" stop-color="#DACEF3"/>
<stop offset="0.754428" stop-color="#CCB9EB"/>
<stop offset="0.962131" stop-color="#BCA7DC"/>
</radialGradient>
<radialGradient id="paint7_radial_5878_55540" cx="0" cy="0" r="1" gradientUnits="userSpaceOnUse" gradientTransform="translate(50.1097 52.0369) rotate(142.239) scale(12.8163 12.2326)">
<stop offset="0.476664" stop-color="#DACEF3" stop-opacity="0"/>
<stop offset="0.693657" stop-color="#E9E2FD"/>
<stop offset="0.816307" stop-color="#EBE8FB"/>
<stop offset="0.962131" stop-color="#EAE7F9"/>
</radialGradient>
<radialGradient id="paint8_radial_5878_55540" cx="0" cy="0" r="1" gradientUnits="userSpaceOnUse" gradientTransform="translate(44.4622 52.5767) rotate(56.149) scale(12.3003 14.0862)">
<stop offset="0.536739" stop-color="#DACEF3" stop-opacity="0"/>
<stop offset="0.754428" stop-color="#B9B5CA"/>
<stop offset="0.962131" stop-color="#B2AEC4"/>
</radialGradient>
<linearGradient id="paint9_linear_5878_55540" x1="38.8302" y1="59.6103" x2="40.6486" y2="59.6103" gradientUnits="userSpaceOnUse">
<stop stop-color="#A29CAE"/>
<stop offset="0.2" stop-color="#AFA5C1"/>
<stop offset="0.789474" stop-color="#C9C1D9"/>
<stop offset="1" stop-color="#BFBACB"/>
</linearGradient>
<linearGradient id="paint10_linear_5878_55540" x1="39.7479" y1="47.4668" x2="39.7479" y2="64.6258" gradientUnits="userSpaceOnUse">
<stop offset="0.389773" stop-color="#BBB2CC"/>
<stop offset="0.432164" stop-color="#BEB5CE" stop-opacity="0"/>
</linearGradient>
<linearGradient id="paint11_linear_5878_55540" x1="39.7479" y1="47.4668" x2="39.7479" y2="64.6258" gradientUnits="userSpaceOnUse">
<stop offset="0.001543" stop-color="#9F9BA9"/>
<stop offset="0.0266132" stop-color="#9F9BA9" stop-opacity="0"/>
</linearGradient>
<linearGradient id="paint12_linear_5878_55540" x1="37.3945" y1="59.6103" x2="42.1013" y2="59.6103" gradientUnits="userSpaceOnUse">
<stop stop-color="#A29CAE"/>
<stop offset="0.0631842" stop-color="#A29CAE" stop-opacity="0"/>
<stop offset="0.934443" stop-color="#A29CAE" stop-opacity="0"/>
<stop offset="1" stop-color="#A29CAE"/>
</linearGradient>
<radialGradient id="paint13_radial_5878_55540" cx="0" cy="0" r="1" gradientUnits="userSpaceOnUse" gradientTransform="translate(38.6962 50.2692) rotate(90) scale(0.545536)">
<stop stop-color="white"/>
<stop offset="1" stop-color="white" stop-opacity="0"/>
</radialGradient>
<radialGradient id="paint14_radial_5878_55540" cx="0" cy="0" r="1" gradientUnits="userSpaceOnUse" gradientTransform="translate(38.8397 48.5369) rotate(90) scale(2.53627 0.623867)">
<stop offset="0.37766" stop-color="#A29CAE"/>
<stop offset="1" stop-color="#A29CAE" stop-opacity="0"/>
</radialGradient>
<radialGradient id="paint15_radial_5878_55540" cx="0" cy="0" r="1" gradientUnits="userSpaceOnUse" gradientTransform="translate(38.8397 50.183) rotate(90) scale(0.574249)">
<stop stop-color="#A29CAE"/>
<stop offset="1" stop-color="#A29CAE" stop-opacity="0"/>
</radialGradient>
<radialGradient id="paint16_radial_5878_55540" cx="0" cy="0" r="1" gradientUnits="userSpaceOnUse" gradientTransform="translate(40.6295 48.623) rotate(90) scale(2.45013 0.602679)">
<stop offset="0.37766" stop-color="#A29CAE"/>
<stop offset="1" stop-color="#A29CAE" stop-opacity="0"/>
</radialGradient>
<radialGradient id="paint17_radial_5878_55540" cx="0" cy="0" r="1" gradientUnits="userSpaceOnUse" gradientTransform="translate(40.4721 50.2904) rotate(90) scale(0.489175)">
<stop stop-color="white"/>
<stop offset="1" stop-color="white" stop-opacity="0"/>
</radialGradient>
<radialGradient id="paint18_radial_5878_55540" cx="0" cy="0" r="1" gradientUnits="userSpaceOnUse" gradientTransform="translate(40.6295 50.1735) rotate(90) scale(0.583819)">
<stop offset="0.477231" stop-color="#A29CAE"/>
<stop offset="1" stop-color="#A29CAE" stop-opacity="0"/>
</radialGradient>
<radialGradient id="paint19_radial_5878_55540" cx="0" cy="0" r="1" gradientUnits="userSpaceOnUse" gradientTransform="translate(38.2757 47.7817) rotate(41.4237) scale(0.487251 0.595171)">
<stop stop-color="#C9C7D0"/>
<stop offset="1" stop-color="#CDCAD5" stop-opacity="0"/>
</radialGradient>
<radialGradient id="paint20_radial_5878_55540" cx="0" cy="0" r="1" gradientUnits="userSpaceOnUse" gradientTransform="translate(39.995 47.6635) rotate(39.2072) scale(0.526985 0.643706)">
<stop stop-color="#C9C7D0"/>
<stop offset="1" stop-color="#CDCAD5" stop-opacity="0"/>
</radialGradient>
<radialGradient id="paint21_radial_5878_55540" cx="0" cy="0" r="1" gradientUnits="userSpaceOnUse" gradientTransform="translate(41.7896 47.6528) rotate(48.6914) scale(0.472084 0.576645)">
<stop stop-color="#C9C7D0"/>
<stop offset="1" stop-color="#CDCAD5" stop-opacity="0"/>
</radialGradient>
<radialGradient id="paint22_radial_5878_55540" cx="0" cy="0" r="1" gradientUnits="userSpaceOnUse" gradientTransform="translate(39.7479 44.565) rotate(90) scale(20.0609 4.97578)">
<stop offset="0.961641" stop-color="#9883B3" stop-opacity="0"/>
<stop offset="1" stop-color="#8F78AB"/>
</radialGradient>
<radialGradient id="paint23_radial_5878_55540" cx="0" cy="0" r="1" gradientUnits="userSpaceOnUse" gradientTransform="translate(37.8305 53.4552) rotate(46.106) scale(1.71417 0.470194)">
<stop stop-color="#A19CAB"/>
<stop offset="1" stop-color="#A19CAB" stop-opacity="0"/>
</radialGradient>
<radialGradient id="paint24_radial_5878_55540" cx="0" cy="0" r="1" gradientUnits="userSpaceOnUse" gradientTransform="translate(37.1534 52.9743) rotate(60.6758) scale(1.92415 0.818984)">
<stop stop-color="#A19CAB"/>
<stop offset="1" stop-color="#A19CAB" stop-opacity="0"/>
</radialGradient>
<radialGradient id="paint25_radial_5878_55540" cx="0" cy="0" r="1" gradientUnits="userSpaceOnUse" gradientTransform="translate(41.912 53.0256) rotate(103.241) scale(1.00288 0.42686)">
<stop stop-color="#A19CAB"/>
<stop offset="1" stop-color="#A19CAB" stop-opacity="0"/>
</radialGradient>
<radialGradient id="paint26_radial_5878_55540" cx="0" cy="0" r="1" gradientUnits="userSpaceOnUse" gradientTransform="translate(41.5865 53.4945) rotate(133.091) scale(1.62512 0.445768)">
<stop stop-color="#A19CAB"/>
<stop offset="1" stop-color="#A19CAB" stop-opacity="0"/>
</radialGradient>
<radialGradient id="paint27_radial_5878_55540" cx="0" cy="0" r="1" gradientUnits="userSpaceOnUse" gradientTransform="translate(41.8067 49.8672) rotate(90) scale(2.50755 0.258412)">
<stop offset="0.37766" stop-color="white" stop-opacity="0.15"/>
<stop offset="1" stop-color="white" stop-opacity="0"/>
</radialGradient>
<radialGradient id="paint28_radial_5878_55540" cx="0" cy="0" r="1" gradientUnits="userSpaceOnUse" gradientTransform="translate(40.102 49.0101) rotate(90) scale(1.47178 0.187838)">
<stop offset="0.37766" stop-color="white" stop-opacity="0.17"/>
<stop offset="1" stop-color="white" stop-opacity="0"/>
</radialGradient>
<radialGradient id="paint29_radial_5878_55540" cx="0" cy="0" r="1" gradientUnits="userSpaceOnUse" gradientTransform="translate(38.3133 49.1781) rotate(90) scale(1.35906 0.173452)">
<stop offset="0.37766" stop-color="white" stop-opacity="0.18"/>
<stop offset="1" stop-color="white" stop-opacity="0"/>
</radialGradient>
<linearGradient id="paint30_linear_5878_55540" x1="56.5068" y1="52.2933" x2="54.605" y2="52.2933" gradientUnits="userSpaceOnUse">
<stop stop-color="#C4C2CB"/>
<stop offset="0.514744" stop-color="#B2A8C2"/>
<stop offset="1" stop-color="#948CA2"/>
</linearGradient>
<radialGradient id="paint31_radial_5878_55540" cx="0" cy="0" r="1" gradientUnits="userSpaceOnUse" gradientTransform="translate(53.0977 56.047) rotate(35.4843) scale(3.09519 1.03548)">
<stop stop-color="#9B89B3"/>
<stop offset="1" stop-color="#A28EBB" stop-opacity="0"/>
</radialGradient>
<radialGradient id="paint32_radial_5878_55540" cx="0" cy="0" r="1" gradientUnits="userSpaceOnUse" gradientTransform="translate(54.4862 51.7876) rotate(0.616057) scale(1.58289 6.19596)">
<stop offset="0.682353" stop-color="#B1A8C0"/>
<stop offset="1" stop-color="#BBB4C8" stop-opacity="0"/>
</radialGradient>
<radialGradient id="paint33_radial_5878_55540" cx="0" cy="0" r="1" gradientUnits="userSpaceOnUse" gradientTransform="translate(55.9898 55.7516) rotate(-157.62) scale(0.247083 0.911674)">
<stop stop-color="#D7D2E0" stop-opacity="0.8"/>
<stop offset="1" stop-color="#E1DEE8" stop-opacity="0"/>
</radialGradient>
<radialGradient id="paint34_radial_5878_55540" cx="0" cy="0" r="1" gradientUnits="userSpaceOnUse" gradientTransform="translate(55.1632 56.1615) rotate(-71.9657) scale(0.303879 0.731094)">
<stop stop-color="#D7D2E0" stop-opacity="0.5"/>
<stop offset="1" stop-color="#E1DEE8" stop-opacity="0"/>
</radialGradient>
<radialGradient id="paint35_radial_5878_55540" cx="0" cy="0" r="1" gradientUnits="userSpaceOnUse" gradientTransform="translate(55.8151 55.6978) rotate(-152.354) scale(0.318605 1.17557)">
<stop stop-color="#BAB2C7"/>
<stop offset="1" stop-color="#BAB2C7" stop-opacity="0"/>
</radialGradient>
<radialGradient id="paint36_radial_5878_55540" cx="0" cy="0" r="1" gradientUnits="userSpaceOnUse" gradientTransform="translate(54.9473 55.8396) rotate(-65.4623) scale(0.31901 1.17707)">
<stop stop-color="#BAB2C7"/>
<stop offset="1" stop-color="#BAB2C7" stop-opacity="0"/>
</radialGradient>
<radialGradient id="paint37_radial_5878_55540" cx="0" cy="0" r="1" gradientUnits="userSpaceOnUse" gradientTransform="translate(56.041 48.4046) rotate(136.219) scale(0.714173 1.11665)">
<stop stop-color="#D7D2E0"/>
<stop offset="1" stop-color="#E1DEE8" stop-opacity="0"/>
</radialGradient>
<radialGradient id="paint38_radial_5878_55540" cx="0" cy="0" r="1" gradientUnits="userSpaceOnUse" gradientTransform="translate(55.5925 48.5029) rotate(135) scale(0.818344 1.27952)">
<stop stop-color="#BAB3C8"/>
<stop offset="1" stop-color="#BAB3C8" stop-opacity="0"/>
</radialGradient>
</defs>
</svg>
