<svg width="96" height="96" viewBox="0 0 96 96" fill="none" xmlns="http://www.w3.org/2000/svg">
<g filter="url(#filter0_dd_5878_55542)">
<rect x="32" y="40" width="32" height="32" rx="12" fill="white"/>
<path d="M39.3792 65.5689L55.5424 60.9309L56.0593 60.4559V51.2357L55.3888 49.9365L38.3594 54.7562V64.5631C38.3594 65.3675 38.6845 65.7346 39.3792 65.5689Z" fill="url(#paint0_linear_5878_55542)"/>
<path d="M39.3792 65.5689L55.5424 60.9309L56.0593 60.4559V51.2357L55.3888 49.9365L38.3594 54.7562V64.5631C38.3594 65.3675 38.6845 65.7346 39.3792 65.5689Z" fill="url(#paint1_linear_5878_55542)"/>
<path d="M39.3792 65.5689L55.5424 60.9309L56.0593 60.4559V51.2357L55.3888 49.9365L38.3594 54.7562V64.5631C38.3594 65.3675 38.6845 65.7346 39.3792 65.5689Z" fill="url(#paint2_linear_5878_55542)"/>
<path d="M39.3792 65.5689L55.5424 60.9309L56.0593 60.4559V51.2357L55.3888 49.9365L38.3594 54.7562V64.5631C38.3594 65.3675 38.6845 65.7346 39.3792 65.5689Z" fill="url(#paint3_linear_5878_55542)"/>
<path d="M39.3792 65.5689L55.5424 60.9309L56.0593 60.4559V51.2357L55.3888 49.9365L38.3594 54.7562V64.5631C38.3594 65.3675 38.6845 65.7346 39.3792 65.5689Z" fill="url(#paint4_linear_5878_55542)"/>
<path d="M45.5528 47.646L39.0096 53.6984C37.7325 54.789 38.3961 55.5434 39.623 55.2729L54.7337 50.938C55.1222 50.8456 55.3676 50.8155 55.3676 51.2652V53.9029C55.3676 54.3543 55.4091 54.589 55.1222 54.6799C55.1222 54.6799 40.55 59.0726 40.2364 59.1579C39.9228 59.2432 39.226 59.3735 39.0096 59.3419C38.7932 59.3104 38.5188 59.1579 38.3961 59.1579C38.2734 59.1579 38.2734 59.2291 38.2734 59.5669V60.989C38.2734 61.0959 38.3657 61.1646 38.3657 61.1646C38.712 61.3857 39.1878 61.4814 39.623 61.3663L54.8768 56.9496C55.1222 56.8883 55.3676 57.0523 55.3676 57.3585V60.8356C55.3676 61.0465 55.4951 61.0578 55.5855 61.0465C56.2365 60.8592 56.6865 60.474 56.6865 59.8122V51.2652C56.6865 50.7053 56.2815 49.7705 55.3676 49.4862L48.1292 47.7891C47.4416 47.646 46.1132 47.212 45.5528 47.646Z" fill="url(#paint5_linear_5878_55542)"/>
<path d="M45.5528 47.646L39.0096 53.6984C37.7325 54.789 38.3961 55.5434 39.623 55.2729L54.7337 50.938C55.1222 50.8456 55.3676 50.8155 55.3676 51.2652V53.9029C55.3676 54.3543 55.4091 54.589 55.1222 54.6799C55.1222 54.6799 40.55 59.0726 40.2364 59.1579C39.9228 59.2432 39.226 59.3735 39.0096 59.3419C38.7932 59.3104 38.5188 59.1579 38.3961 59.1579C38.2734 59.1579 38.2734 59.2291 38.2734 59.5669V60.989C38.2734 61.0959 38.3657 61.1646 38.3657 61.1646C38.712 61.3857 39.1878 61.4814 39.623 61.3663L54.8768 56.9496C55.1222 56.8883 55.3676 57.0523 55.3676 57.3585V60.8356C55.3676 61.0465 55.4951 61.0578 55.5855 61.0465C56.2365 60.8592 56.6865 60.474 56.6865 59.8122V51.2652C56.6865 50.7053 56.2815 49.7705 55.3676 49.4862L48.1292 47.7891C47.4416 47.646 46.1132 47.212 45.5528 47.646Z" fill="url(#paint6_linear_5878_55542)"/>
<path d="M45.5528 47.646L39.0096 53.6984C37.7325 54.789 38.3961 55.5434 39.623 55.2729L54.7337 50.938C55.1222 50.8456 55.3676 50.8155 55.3676 51.2652V53.9029C55.3676 54.3543 55.4091 54.589 55.1222 54.6799C55.1222 54.6799 40.55 59.0726 40.2364 59.1579C39.9228 59.2432 39.226 59.3735 39.0096 59.3419C38.7932 59.3104 38.5188 59.1579 38.3961 59.1579C38.2734 59.1579 38.2734 59.2291 38.2734 59.5669V60.989C38.2734 61.0959 38.3657 61.1646 38.3657 61.1646C38.712 61.3857 39.1878 61.4814 39.623 61.3663L54.8768 56.9496C55.1222 56.8883 55.3676 57.0523 55.3676 57.3585V60.8356C55.3676 61.0465 55.4951 61.0578 55.5855 61.0465C56.2365 60.8592 56.6865 60.474 56.6865 59.8122V51.2652C56.6865 50.7053 56.2815 49.7705 55.3676 49.4862L48.1292 47.7891C47.4416 47.646 46.1132 47.212 45.5528 47.646Z" fill="url(#paint7_linear_5878_55542)"/>
<path d="M45.5528 47.646L39.0096 53.6984C37.7325 54.789 38.3961 55.5434 39.623 55.2729L54.7337 50.938C55.1222 50.8456 55.3676 50.8155 55.3676 51.2652V53.9029C55.3676 54.3543 55.4091 54.589 55.1222 54.6799C55.1222 54.6799 40.55 59.0726 40.2364 59.1579C39.9228 59.2432 39.226 59.3735 39.0096 59.3419C38.7932 59.3104 38.5188 59.1579 38.3961 59.1579C38.2734 59.1579 38.2734 59.2291 38.2734 59.5669V60.989C38.2734 61.0959 38.3657 61.1646 38.3657 61.1646C38.712 61.3857 39.1878 61.4814 39.623 61.3663L54.8768 56.9496C55.1222 56.8883 55.3676 57.0523 55.3676 57.3585V60.8356C55.3676 61.0465 55.4951 61.0578 55.5855 61.0465C56.2365 60.8592 56.6865 60.474 56.6865 59.8122V51.2652C56.6865 50.7053 56.2815 49.7705 55.3676 49.4862L48.1292 47.7891C47.4416 47.646 46.1132 47.212 45.5528 47.646Z" fill="url(#paint8_linear_5878_55542)"/>
<path d="M45.5528 47.646L39.0096 53.6984C37.7325 54.789 38.3961 55.5434 39.623 55.2729L54.7337 50.938C55.1222 50.8456 55.3676 50.8155 55.3676 51.2652V53.9029C55.3676 54.3543 55.4091 54.589 55.1222 54.6799C55.1222 54.6799 40.55 59.0726 40.2364 59.1579C39.9228 59.2432 39.226 59.3735 39.0096 59.3419C38.7932 59.3104 38.5188 59.1579 38.3961 59.1579C38.2734 59.1579 38.2734 59.2291 38.2734 59.5669V60.989C38.2734 61.0959 38.3657 61.1646 38.3657 61.1646C38.712 61.3857 39.1878 61.4814 39.623 61.3663L54.8768 56.9496C55.1222 56.8883 55.3676 57.0523 55.3676 57.3585V60.8356C55.3676 61.0465 55.4951 61.0578 55.5855 61.0465C56.2365 60.8592 56.6865 60.474 56.6865 59.8122V51.2652C56.6865 50.7053 56.2815 49.7705 55.3676 49.4862L48.1292 47.7891C47.4416 47.646 46.1132 47.212 45.5528 47.646Z" fill="url(#paint9_radial_5878_55542)"/>
<path d="M45.5528 47.646L39.0096 53.6984C37.7325 54.789 38.3961 55.5434 39.623 55.2729L54.7337 50.938C55.1222 50.8456 55.3676 50.8155 55.3676 51.2652V53.9029C55.3676 54.3543 55.4091 54.589 55.1222 54.6799C55.1222 54.6799 40.55 59.0726 40.2364 59.1579C39.9228 59.2432 39.226 59.3735 39.0096 59.3419C38.7932 59.3104 38.5188 59.1579 38.3961 59.1579C38.2734 59.1579 38.2734 59.2291 38.2734 59.5669V60.989C38.2734 61.0959 38.3657 61.1646 38.3657 61.1646C38.712 61.3857 39.1878 61.4814 39.623 61.3663L54.8768 56.9496C55.1222 56.8883 55.3676 57.0523 55.3676 57.3585V60.8356C55.3676 61.0465 55.4951 61.0578 55.5855 61.0465C56.2365 60.8592 56.6865 60.474 56.6865 59.8122V51.2652C56.6865 50.7053 56.2815 49.7705 55.3676 49.4862L48.1292 47.7891C47.4416 47.646 46.1132 47.212 45.5528 47.646Z" fill="url(#paint10_linear_5878_55542)"/>
<path d="M45.5528 47.646L39.0096 53.6984C37.7325 54.789 38.3961 55.5434 39.623 55.2729L54.7337 50.938C55.1222 50.8456 55.3676 50.8155 55.3676 51.2652V53.9029C55.3676 54.3543 55.4091 54.589 55.1222 54.6799C55.1222 54.6799 40.55 59.0726 40.2364 59.1579C39.9228 59.2432 39.226 59.3735 39.0096 59.3419C38.7932 59.3104 38.5188 59.1579 38.3961 59.1579C38.2734 59.1579 38.2734 59.2291 38.2734 59.5669V60.989C38.2734 61.0959 38.3657 61.1646 38.3657 61.1646C38.712 61.3857 39.1878 61.4814 39.623 61.3663L54.8768 56.9496C55.1222 56.8883 55.3676 57.0523 55.3676 57.3585V60.8356C55.3676 61.0465 55.4951 61.0578 55.5855 61.0465C56.2365 60.8592 56.6865 60.474 56.6865 59.8122V51.2652C56.6865 50.7053 56.2815 49.7705 55.3676 49.4862L48.1292 47.7891C47.4416 47.646 46.1132 47.212 45.5528 47.646Z" fill="url(#paint11_linear_5878_55542)"/>
<path d="M45.5528 47.646L39.0096 53.6984C37.7325 54.789 38.3961 55.5434 39.623 55.2729L54.7337 50.938C55.1222 50.8456 55.3676 50.8155 55.3676 51.2652V53.9029C55.3676 54.3543 55.4091 54.589 55.1222 54.6799C55.1222 54.6799 40.55 59.0726 40.2364 59.1579C39.9228 59.2432 39.226 59.3735 39.0096 59.3419C38.7932 59.3104 38.5188 59.1579 38.3961 59.1579C38.2734 59.1579 38.2734 59.2291 38.2734 59.5669V60.989C38.2734 61.0959 38.3657 61.1646 38.3657 61.1646C38.712 61.3857 39.1878 61.4814 39.623 61.3663L54.8768 56.9496C55.1222 56.8883 55.3676 57.0523 55.3676 57.3585V60.8356C55.3676 61.0465 55.4951 61.0578 55.5855 61.0465C56.2365 60.8592 56.6865 60.474 56.6865 59.8122V51.2652C56.6865 50.7053 56.2815 49.7705 55.3676 49.4862L48.1292 47.7891C47.4416 47.646 46.1132 47.212 45.5528 47.646Z" fill="url(#paint12_radial_5878_55542)"/>
<path d="M45.5528 47.646L39.0096 53.6984C37.7325 54.789 38.3961 55.5434 39.623 55.2729L54.7337 50.938C55.1222 50.8456 55.3676 50.8155 55.3676 51.2652V53.9029C55.3676 54.3543 55.4091 54.589 55.1222 54.6799C55.1222 54.6799 40.55 59.0726 40.2364 59.1579C39.9228 59.2432 39.226 59.3735 39.0096 59.3419C38.7932 59.3104 38.5188 59.1579 38.3961 59.1579C38.2734 59.1579 38.2734 59.2291 38.2734 59.5669V60.989C38.2734 61.0959 38.3657 61.1646 38.3657 61.1646C38.712 61.3857 39.1878 61.4814 39.623 61.3663L54.8768 56.9496C55.1222 56.8883 55.3676 57.0523 55.3676 57.3585V60.8356C55.3676 61.0465 55.4951 61.0578 55.5855 61.0465C56.2365 60.8592 56.6865 60.474 56.6865 59.8122V51.2652C56.6865 50.7053 56.2815 49.7705 55.3676 49.4862L48.1292 47.7891C47.4416 47.646 46.1132 47.212 45.5528 47.646Z" fill="url(#paint13_radial_5878_55542)"/>
<path d="M45.5528 47.646L39.0096 53.6984C37.7325 54.789 38.3961 55.5434 39.623 55.2729L54.7337 50.938C55.1222 50.8456 55.3676 50.8155 55.3676 51.2652V53.9029C55.3676 54.3543 55.4091 54.589 55.1222 54.6799C55.1222 54.6799 40.55 59.0726 40.2364 59.1579C39.9228 59.2432 39.226 59.3735 39.0096 59.3419C38.7932 59.3104 38.5188 59.1579 38.3961 59.1579C38.2734 59.1579 38.2734 59.2291 38.2734 59.5669V60.989C38.2734 61.0959 38.3657 61.1646 38.3657 61.1646C38.712 61.3857 39.1878 61.4814 39.623 61.3663L54.8768 56.9496C55.1222 56.8883 55.3676 57.0523 55.3676 57.3585V60.8356C55.3676 61.0465 55.4951 61.0578 55.5855 61.0465C56.2365 60.8592 56.6865 60.474 56.6865 59.8122V51.2652C56.6865 50.7053 56.2815 49.7705 55.3676 49.4862L48.1292 47.7891C47.4416 47.646 46.1132 47.212 45.5528 47.646Z" fill="url(#paint14_radial_5878_55542)"/>
<path d="M45.5528 47.646L39.0096 53.6984C37.7325 54.789 38.3961 55.5434 39.623 55.2729L54.7337 50.938C55.1222 50.8456 55.3676 50.8155 55.3676 51.2652V53.9029C55.3676 54.3543 55.4091 54.589 55.1222 54.6799C55.1222 54.6799 40.55 59.0726 40.2364 59.1579C39.9228 59.2432 39.226 59.3735 39.0096 59.3419C38.7932 59.3104 38.5188 59.1579 38.3961 59.1579C38.2734 59.1579 38.2734 59.2291 38.2734 59.5669V60.989C38.2734 61.0959 38.3657 61.1646 38.3657 61.1646C38.712 61.3857 39.1878 61.4814 39.623 61.3663L54.8768 56.9496C55.1222 56.8883 55.3676 57.0523 55.3676 57.3585V60.8356C55.3676 61.0465 55.4951 61.0578 55.5855 61.0465C56.2365 60.8592 56.6865 60.474 56.6865 59.8122V51.2652C56.6865 50.7053 56.2815 49.7705 55.3676 49.4862L48.1292 47.7891C47.4416 47.646 46.1132 47.212 45.5528 47.646Z" fill="url(#paint15_radial_5878_55542)"/>
<path d="M45.5528 47.646L39.0096 53.6984C37.7325 54.789 38.3961 55.5434 39.623 55.2729L54.7337 50.938C55.1222 50.8456 55.3676 50.8155 55.3676 51.2652V53.9029C55.3676 54.3543 55.4091 54.589 55.1222 54.6799C55.1222 54.6799 40.55 59.0726 40.2364 59.1579C39.9228 59.2432 39.226 59.3735 39.0096 59.3419C38.7932 59.3104 38.5188 59.1579 38.3961 59.1579C38.2734 59.1579 38.2734 59.2291 38.2734 59.5669V60.989C38.2734 61.0959 38.3657 61.1646 38.3657 61.1646C38.712 61.3857 39.1878 61.4814 39.623 61.3663L54.8768 56.9496C55.1222 56.8883 55.3676 57.0523 55.3676 57.3585V60.8356C55.3676 61.0465 55.4951 61.0578 55.5855 61.0465C56.2365 60.8592 56.6865 60.474 56.6865 59.8122V51.2652C56.6865 50.7053 56.2815 49.7705 55.3676 49.4862L48.1292 47.7891C47.4416 47.646 46.1132 47.212 45.5528 47.646Z" fill="url(#paint16_radial_5878_55542)"/>
<path d="M45.5528 47.646L39.0096 53.6984C37.7325 54.789 38.3961 55.5434 39.623 55.2729L54.7337 50.938C55.1222 50.8456 55.3676 50.8155 55.3676 51.2652V53.9029C55.3676 54.3543 55.4091 54.589 55.1222 54.6799C55.1222 54.6799 40.55 59.0726 40.2364 59.1579C39.9228 59.2432 39.226 59.3735 39.0096 59.3419C38.7932 59.3104 38.5188 59.1579 38.3961 59.1579C38.2734 59.1579 38.2734 59.2291 38.2734 59.5669V60.989C38.2734 61.0959 38.3657 61.1646 38.3657 61.1646C38.712 61.3857 39.1878 61.4814 39.623 61.3663L54.8768 56.9496C55.1222 56.8883 55.3676 57.0523 55.3676 57.3585V60.8356C55.3676 61.0465 55.4951 61.0578 55.5855 61.0465C56.2365 60.8592 56.6865 60.474 56.6865 59.8122V51.2652C56.6865 50.7053 56.2815 49.7705 55.3676 49.4862L48.1292 47.7891C47.4416 47.646 46.1132 47.212 45.5528 47.646Z" fill="url(#paint17_radial_5878_55542)"/>
<path d="M44.889 48.9647C44.9717 48.5522 45.1087 47.3882 46.5402 47.1035L48.0864 47.8957L48.6495 49.5851C48.1214 51.0035 47.0327 50.9022 46.5974 50.9022H45.3089C44.889 50.9022 44.6504 50.6636 44.7076 50.2245L44.889 48.9647Z" fill="#D52D26"/>
<path d="M44.889 48.9647C44.9717 48.5522 45.1087 47.3882 46.5402 47.1035L48.0864 47.8957L48.6495 49.5851C48.1214 51.0035 47.0327 50.9022 46.5974 50.9022H45.3089C44.889 50.9022 44.6504 50.6636 44.7076 50.2245L44.889 48.9647Z" fill="url(#paint18_radial_5878_55542)"/>
<path d="M44.889 48.9647C44.9717 48.5522 45.1087 47.3882 46.5402 47.1035L48.0864 47.8957L48.6495 49.5851C48.1214 51.0035 47.0327 50.9022 46.5974 50.9022H45.3089C44.889 50.9022 44.6504 50.6636 44.7076 50.2245L44.889 48.9647Z" fill="url(#paint19_radial_5878_55542)"/>
<path d="M44.889 48.9647C44.9717 48.5522 45.1087 47.3882 46.5402 47.1035L48.0864 47.8957L48.6495 49.5851C48.1214 51.0035 47.0327 50.9022 46.5974 50.9022H45.3089C44.889 50.9022 44.6504 50.6636 44.7076 50.2245L44.889 48.9647Z" fill="url(#paint20_radial_5878_55542)"/>
<path d="M44.889 48.9647C44.9717 48.5522 45.1087 47.3882 46.5402 47.1035L48.0864 47.8957L48.6495 49.5851C48.1214 51.0035 47.0327 50.9022 46.5974 50.9022H45.3089C44.889 50.9022 44.6504 50.6636 44.7076 50.2245L44.889 48.9647Z" fill="url(#paint21_radial_5878_55542)"/>
<path d="M44.889 48.9647C44.9717 48.5522 45.1087 47.3882 46.5402 47.1035L48.0864 47.8957L48.6495 49.5851C48.1214 51.0035 47.0327 50.9022 46.5974 50.9022H45.3089C44.889 50.9022 44.6504 50.6636 44.7076 50.2245L44.889 48.9647Z" fill="url(#paint22_radial_5878_55542)"/>
<path d="M44.889 48.9647C44.9717 48.5522 45.1087 47.3882 46.5402 47.1035L48.0864 47.8957L48.6495 49.5851C48.1214 51.0035 47.0327 50.9022 46.5974 50.9022H45.3089C44.889 50.9022 44.6504 50.6636 44.7076 50.2245L44.889 48.9647Z" fill="url(#paint23_radial_5878_55542)"/>
<path d="M44.889 48.9647C44.9717 48.5522 45.1087 47.3882 46.5402 47.1035L48.0864 47.8957L48.6495 49.5851C48.1214 51.0035 47.0327 50.9022 46.5974 50.9022H45.3089C44.889 50.9022 44.6504 50.6636 44.7076 50.2245L44.889 48.9647Z" fill="url(#paint24_radial_5878_55542)"/>
<path d="M44.889 48.9647C44.9717 48.5522 45.1087 47.3882 46.5402 47.1035L48.0864 47.8957L48.6495 49.5851C48.1214 51.0035 47.0327 50.9022 46.5974 50.9022H45.3089C44.889 50.9022 44.6504 50.6636 44.7076 50.2245L44.889 48.9647Z" fill="url(#paint25_radial_5878_55542)"/>
<path d="M44.889 48.9647C44.9717 48.5522 45.1087 47.3882 46.5402 47.1035L48.0864 47.8957L48.6495 49.5851C48.1214 51.0035 47.0327 50.9022 46.5974 50.9022H45.3089C44.889 50.9022 44.6504 50.6636 44.7076 50.2245L44.889 48.9647Z" fill="url(#paint26_radial_5878_55542)"/>
<path d="M44.889 48.9647C44.9717 48.5522 45.1087 47.3882 46.5402 47.1035L48.0864 47.8957L48.6495 49.5851C48.1214 51.0035 47.0327 50.9022 46.5974 50.9022H45.3089C44.889 50.9022 44.6504 50.6636 44.7076 50.2245L44.889 48.9647Z" fill="url(#paint27_radial_5878_55542)"/>
<path d="M44.889 48.9647C44.9717 48.5522 45.1087 47.3882 46.5402 47.1035L48.0864 47.8957L48.6495 49.5851C48.1214 51.0035 47.0327 50.9022 46.5974 50.9022H45.3089C44.889 50.9022 44.6504 50.6636 44.7076 50.2245L44.889 48.9647Z" fill="url(#paint28_radial_5878_55542)"/>
<path d="M44.889 48.9647C44.9717 48.5522 45.1087 47.3882 46.5402 47.1035L48.0864 47.8957L48.6495 49.5851C48.1214 51.0035 47.0327 50.9022 46.5974 50.9022H45.3089C44.889 50.9022 44.6504 50.6636 44.7076 50.2245L44.889 48.9647Z" fill="url(#paint29_radial_5878_55542)"/>
<path d="M44.889 48.9647C44.9717 48.5522 45.1087 47.3882 46.5402 47.1035L48.0864 47.8957L48.6495 49.5851C48.1214 51.0035 47.0327 50.9022 46.5974 50.9022H45.3089C44.889 50.9022 44.6504 50.6636 44.7076 50.2245L44.889 48.9647Z" fill="url(#paint30_radial_5878_55542)"/>
<path d="M44.889 48.9647C44.9717 48.5522 45.1087 47.3882 46.5402 47.1035L48.0864 47.8957L48.6495 49.5851C48.1214 51.0035 47.0327 50.9022 46.5974 50.9022H45.3089C44.889 50.9022 44.6504 50.6636 44.7076 50.2245L44.889 48.9647Z" fill="url(#paint31_radial_5878_55542)"/>
<path d="M44.889 48.9647C44.9717 48.5522 45.1087 47.3882 46.5402 47.1035L48.0864 47.8957L48.6495 49.5851C48.1214 51.0035 47.0327 50.9022 46.5974 50.9022H45.3089C44.889 50.9022 44.6504 50.6636 44.7076 50.2245L44.889 48.9647Z" fill="url(#paint32_radial_5878_55542)"/>
<path d="M44.889 48.9647C44.9717 48.5522 45.1087 47.3882 46.5402 47.1035L48.0864 47.8957L48.6495 49.5851C48.1214 51.0035 47.0327 50.9022 46.5974 50.9022H45.3089C44.889 50.9022 44.6504 50.6636 44.7076 50.2245L44.889 48.9647Z" fill="url(#paint33_radial_5878_55542)"/>
<path d="M44.889 48.9647C44.9717 48.5522 45.1087 47.3882 46.5402 47.1035L48.0864 47.8957L48.6495 49.5851C48.1214 51.0035 47.0327 50.9022 46.5974 50.9022H45.3089C44.889 50.9022 44.6504 50.6636 44.7076 50.2245L44.889 48.9647Z" fill="url(#paint34_radial_5878_55542)"/>
<path d="M44.889 48.9647C44.9717 48.5522 45.1087 47.3882 46.5402 47.1035L48.0864 47.8957L48.6495 49.5851C48.1214 51.0035 47.0327 50.9022 46.5974 50.9022H45.3089C44.889 50.9022 44.6504 50.6636 44.7076 50.2245L44.889 48.9647Z" fill="url(#paint35_radial_5878_55542)"/>
<path d="M48.1167 48.8689C47.8282 48.5444 47.9068 48.0481 47.9068 48.0481C47.9068 48.0481 47.4385 48.0481 47.21 47.7999L46.4274 46.9886C46.385 46.9314 46.4274 46.8684 46.4846 46.8263C46.4846 46.8263 46.9451 46.4774 47.6586 46.9314C48.0538 47.2226 48.8049 48.1532 48.9948 48.5444C49.3406 49.135 48.8994 49.642 48.8994 49.642C48.8484 49.7041 48.7895 49.722 48.718 49.642L48.1167 48.8689Z" fill="#8DC527"/>
<path d="M48.1167 48.8689C47.8282 48.5444 47.9068 48.0481 47.9068 48.0481C47.9068 48.0481 47.4385 48.0481 47.21 47.7999L46.4274 46.9886C46.385 46.9314 46.4274 46.8684 46.4846 46.8263C46.4846 46.8263 46.9451 46.4774 47.6586 46.9314C48.0538 47.2226 48.8049 48.1532 48.9948 48.5444C49.3406 49.135 48.8994 49.642 48.8994 49.642C48.8484 49.7041 48.7895 49.722 48.718 49.642L48.1167 48.8689Z" fill="url(#paint36_radial_5878_55542)"/>
</g>
<defs>
<filter id="filter0_dd_5878_55542" x="0" y="0" width="96" height="96" filterUnits="userSpaceOnUse" color-interpolation-filters="sRGB">
<feFlood flood-opacity="0" result="BackgroundImageFix"/>
<feColorMatrix in="SourceAlpha" type="matrix" values="0 0 0 0 0 0 0 0 0 0 0 0 0 0 0 0 0 0 127 0" result="hardAlpha"/>
<feOffset dy="-8"/>
<feGaussianBlur stdDeviation="16"/>
<feComposite in2="hardAlpha" operator="out"/>
<feColorMatrix type="matrix" values="0 0 0 0 0.427451 0 0 0 0 0.458824 0 0 0 0 0.513726 0 0 0 0.08 0"/>
<feBlend mode="normal" in2="BackgroundImageFix" result="effect1_dropShadow_5878_55542"/>
<feColorMatrix in="SourceAlpha" type="matrix" values="0 0 0 0 0 0 0 0 0 0 0 0 0 0 0 0 0 0 127 0" result="hardAlpha"/>
<feOffset dy="8"/>
<feGaussianBlur stdDeviation="8"/>
<feComposite in2="hardAlpha" operator="out"/>
<feColorMatrix type="matrix" values="0 0 0 0 0.427451 0 0 0 0 0.458824 0 0 0 0 0.513726 0 0 0 0.08 0"/>
<feBlend mode="normal" in2="effect1_dropShadow_5878_55542" result="effect2_dropShadow_5878_55542"/>
<feBlend mode="normal" in="SourceGraphic" in2="effect2_dropShadow_5878_55542" result="shape"/>
</filter>
<linearGradient id="paint0_linear_5878_55542" x1="38.1066" y1="58.1201" x2="54.0207" y2="58.0996" gradientUnits="userSpaceOnUse">
<stop offset="0.0148428" stop-color="#CA957F"/>
<stop offset="0.0489989" stop-color="#FFB4A4"/>
<stop offset="0.077346" stop-color="#FFD6B0"/>
<stop offset="0.141789" stop-color="#FFD9B0"/>
<stop offset="0.520656" stop-color="#FFC18A"/>
<stop offset="0.915048" stop-color="#FF9D50"/>
</linearGradient>
<linearGradient id="paint1_linear_5878_55542" x1="46.1867" y1="60.2324" x2="47.2093" y2="63.5957" gradientUnits="userSpaceOnUse">
<stop offset="0.781568" stop-color="#FFB37B" stop-opacity="0"/>
<stop offset="0.886147" stop-color="#FF9C81"/>
<stop offset="0.926915" stop-color="#F67F9D"/>
</linearGradient>
<linearGradient id="paint2_linear_5878_55542" x1="50.0422" y1="55.9668" x2="50.7805" y2="58.6328" gradientUnits="userSpaceOnUse">
<stop offset="0.260607" stop-color="#F08456" stop-opacity="0"/>
<stop offset="0.759837" stop-color="#E4794B"/>
<stop offset="0.918554" stop-color="#E4794B" stop-opacity="0"/>
</linearGradient>
<linearGradient id="paint3_linear_5878_55542" x1="47.2093" y1="51.291" x2="47.7863" y2="53.3418" gradientUnits="userSpaceOnUse">
<stop offset="0.260607" stop-color="#F08456" stop-opacity="0"/>
<stop offset="0.759837" stop-color="#E4794B"/>
<stop offset="0.918554" stop-color="#E4794B" stop-opacity="0"/>
</linearGradient>
<linearGradient id="paint4_linear_5878_55542" x1="38.3594" y1="59.4531" x2="39.6242" y2="59.4531" gradientUnits="userSpaceOnUse">
<stop stop-color="#C29677"/>
<stop offset="0.578441" stop-color="#FEB3A3"/>
<stop offset="1" stop-color="#FFCEB1" stop-opacity="0"/>
</linearGradient>
<linearGradient id="paint5_linear_5878_55542" x1="44.1972" y1="48.2766" x2="48.5654" y2="63.0627" gradientUnits="userSpaceOnUse">
<stop stop-color="#F3CFA2"/>
<stop offset="0.255825" stop-color="#F3CFA2"/>
<stop offset="0.298159" stop-color="#FFF0CB"/>
<stop offset="0.321715" stop-color="#FFD5CE"/>
<stop offset="0.547438" stop-color="#FFD6CF"/>
<stop offset="0.604194" stop-color="#FFFEE2"/>
<stop offset="0.620631" stop-color="#FFE4E5"/>
<stop offset="0.972283" stop-color="#FFE3E3"/>
<stop offset="1" stop-color="#F9AAE0"/>
</linearGradient>
<linearGradient id="paint6_linear_5878_55542" x1="38.2734" y1="60.1916" x2="39.4189" y2="60.1916" gradientUnits="userSpaceOnUse">
<stop stop-color="#C69C9B"/>
<stop offset="0.140632" stop-color="#DDA4B5"/>
<stop offset="1" stop-color="#F8B6D3" stop-opacity="0"/>
</linearGradient>
<linearGradient id="paint7_linear_5878_55542" x1="42.5771" y1="50.2966" x2="42.8745" y2="50.6144" gradientUnits="userSpaceOnUse">
<stop stop-color="#B7A287"/>
<stop offset="0.81576" stop-color="#CFB18C" stop-opacity="0"/>
</linearGradient>
<linearGradient id="paint8_linear_5878_55542" x1="50.9751" y1="48.4099" x2="50.9238" y2="48.6406" gradientUnits="userSpaceOnUse">
<stop stop-color="#B7A287"/>
<stop offset="0.81576" stop-color="#CFB18C" stop-opacity="0"/>
</linearGradient>
<radialGradient id="paint9_radial_5878_55542" cx="0" cy="0" r="1" gradientUnits="userSpaceOnUse" gradientTransform="translate(55.9892 54.4367) rotate(90) scale(4.33991 2.00977)">
<stop stop-color="#FFDED3"/>
<stop offset="1" stop-color="#FFDED5" stop-opacity="0"/>
</radialGradient>
<linearGradient id="paint10_linear_5878_55542" x1="56.6865" y1="54.4367" x2="55.0869" y2="54.4367" gradientUnits="userSpaceOnUse">
<stop stop-color="#D6C0AA"/>
<stop offset="0.0416696" stop-color="#F6D4BC"/>
<stop offset="0.19231" stop-color="#FFDED4"/>
<stop offset="1" stop-color="#FFDED3" stop-opacity="0"/>
</linearGradient>
<linearGradient id="paint11_linear_5878_55542" x1="55.1176" y1="59.7712" x2="55.7226" y2="61.2375" gradientUnits="userSpaceOnUse">
<stop offset="0.292722" stop-color="#FFD6E3" stop-opacity="0"/>
<stop offset="0.58947" stop-color="#F4A8DC" stop-opacity="0"/>
<stop offset="0.945341" stop-color="#E596DD"/>
</linearGradient>
<radialGradient id="paint12_radial_5878_55542" cx="0" cy="0" r="1" gradientUnits="userSpaceOnUse" gradientTransform="translate(46.0737 50.3889) rotate(87.9905) scale(1.16966 2.89152)">
<stop offset="0.51952" stop-color="#B28162"/>
<stop offset="1" stop-color="#C29A79" stop-opacity="0"/>
</radialGradient>
<radialGradient id="paint13_radial_5878_55542" cx="0" cy="0" r="1" gradientUnits="userSpaceOnUse" gradientTransform="translate(46.0076 50.7395) rotate(88.0585) scale(0.355702 1.40853)">
<stop offset="0.51952" stop-color="#7D5033"/>
<stop offset="1" stop-color="#C29A79" stop-opacity="0"/>
</radialGradient>
<radialGradient id="paint14_radial_5878_55542" cx="0" cy="0" r="1" gradientUnits="userSpaceOnUse" gradientTransform="translate(45.8652 50.6883) rotate(83.8298) scale(0.300307 1.11838)">
<stop offset="0.77401" stop-color="#7D5033"/>
<stop offset="1" stop-color="#623612" stop-opacity="0"/>
</radialGradient>
<radialGradient id="paint15_radial_5878_55542" cx="0" cy="0" r="1" gradientUnits="userSpaceOnUse" gradientTransform="translate(45.998 50.658) rotate(90.4658) scale(0.32584 1.21347)">
<stop offset="0.77401" stop-color="#7D5033"/>
<stop offset="1" stop-color="#623612" stop-opacity="0"/>
</radialGradient>
<radialGradient id="paint16_radial_5878_55542" cx="0" cy="0" r="1" gradientUnits="userSpaceOnUse" gradientTransform="translate(46.3594 50.6195) rotate(94.1346) scale(0.338009 1.25879)">
<stop offset="0.77401" stop-color="#7D5033"/>
<stop offset="1" stop-color="#623612" stop-opacity="0"/>
</radialGradient>
<radialGradient id="paint17_radial_5878_55542" cx="0" cy="0" r="1" gradientUnits="userSpaceOnUse" gradientTransform="translate(46.5529 50.5877) rotate(90) scale(0.385682 1.43633)">
<stop offset="0.77401" stop-color="#7D5033"/>
<stop offset="1" stop-color="#623612" stop-opacity="0"/>
</radialGradient>
<radialGradient id="paint18_radial_5878_55542" cx="0" cy="0" r="1" gradientUnits="userSpaceOnUse" gradientTransform="translate(47.6214 48.2151) rotate(113.864) scale(2.94002 3.05608)">
<stop offset="0.141926" stop-color="#FF6A83"/>
<stop offset="0.52076" stop-color="#EE2D47"/>
<stop offset="1" stop-color="#F32F59" stop-opacity="0"/>
</radialGradient>
<radialGradient id="paint19_radial_5878_55542" cx="0" cy="0" r="1" gradientUnits="userSpaceOnUse" gradientTransform="translate(47.9201 48.1973) rotate(87.7454) scale(0.851062 0.26134)">
<stop offset="0.192708" stop-color="#8F0018"/>
<stop offset="0.442708" stop-color="#FC4662" stop-opacity="0"/>
</radialGradient>
<radialGradient id="paint20_radial_5878_55542" cx="0" cy="0" r="1" gradientUnits="userSpaceOnUse" gradientTransform="translate(47.9546 48.4253) rotate(76.3001) scale(0.595311 0.217528)">
<stop offset="0.192708" stop-color="#8F0018"/>
<stop offset="0.442708" stop-color="#FC4662" stop-opacity="0"/>
</radialGradient>
<radialGradient id="paint21_radial_5878_55542" cx="0" cy="0" r="1" gradientUnits="userSpaceOnUse" gradientTransform="translate(48.0084 48.5945) rotate(65.0715) scale(0.802823 0.270029)">
<stop offset="0.192708" stop-color="#8F0018"/>
<stop offset="0.442708" stop-color="#FC4662" stop-opacity="0"/>
</radialGradient>
<radialGradient id="paint22_radial_5878_55542" cx="0" cy="0" r="1" gradientUnits="userSpaceOnUse" gradientTransform="translate(48.1084 48.8124) rotate(53.5691) scale(0.669087 0.225047)">
<stop offset="0.192708" stop-color="#8F0018"/>
<stop offset="0.442708" stop-color="#FC4662" stop-opacity="0"/>
</radialGradient>
<radialGradient id="paint23_radial_5878_55542" cx="0" cy="0" r="1" gradientUnits="userSpaceOnUse" gradientTransform="translate(48.2469 48.9533) rotate(56.839) scale(1.07789 0.362548)">
<stop offset="0.192708" stop-color="#8F0018"/>
<stop offset="0.442708" stop-color="#FC4662" stop-opacity="0"/>
</radialGradient>
<radialGradient id="paint24_radial_5878_55542" cx="0" cy="0" r="1" gradientUnits="userSpaceOnUse" gradientTransform="translate(48.5268 49.3285) rotate(48.535) scale(1.23637 0.353883)">
<stop offset="0.192708" stop-color="#8F0018"/>
<stop offset="0.442708" stop-color="#FC4662" stop-opacity="0"/>
</radialGradient>
<radialGradient id="paint25_radial_5878_55542" cx="0" cy="0" r="1" gradientUnits="userSpaceOnUse" gradientTransform="translate(48.1879 48.8021) rotate(62.253) scale(1.77848 0.509048)">
<stop offset="0.192708" stop-color="#8F0018"/>
<stop offset="0.442708" stop-color="#FC4662" stop-opacity="0"/>
</radialGradient>
<radialGradient id="paint26_radial_5878_55542" cx="0" cy="0" r="1" gradientUnits="userSpaceOnUse" gradientTransform="translate(48.1879 48.8021) rotate(62.253) scale(1.77848 0.509048)">
<stop offset="0.192708" stop-color="#8F0018"/>
<stop offset="0.442708" stop-color="#FC4662" stop-opacity="0"/>
</radialGradient>
<radialGradient id="paint27_radial_5878_55542" cx="0" cy="0" r="1" gradientUnits="userSpaceOnUse" gradientTransform="translate(47.7049 47.9489) rotate(-168.977) scale(1.35592 0.388101)">
<stop offset="0.272943" stop-color="#8F0018"/>
<stop offset="0.442708" stop-color="#FC4662" stop-opacity="0"/>
</radialGradient>
<radialGradient id="paint28_radial_5878_55542" cx="0" cy="0" r="1" gradientUnits="userSpaceOnUse" gradientTransform="translate(47.7049 47.9489) rotate(-168.977) scale(1.35592 0.388101)">
<stop offset="0.272943" stop-color="#8F0018"/>
<stop offset="0.442708" stop-color="#FC4662" stop-opacity="0"/>
</radialGradient>
<radialGradient id="paint29_radial_5878_55542" cx="0" cy="0" r="1" gradientUnits="userSpaceOnUse" gradientTransform="translate(47.2852 47.8521) rotate(-145.049) scale(0.671289 0.192141)">
<stop offset="0.272943" stop-color="#8F0018"/>
<stop offset="0.442708" stop-color="#B5001B" stop-opacity="0"/>
</radialGradient>
<radialGradient id="paint30_radial_5878_55542" cx="0" cy="0" r="1" gradientUnits="userSpaceOnUse" gradientTransform="translate(47.161 47.7338) rotate(-134.57) scale(0.693456 0.198486)">
<stop offset="0.272943" stop-color="#8F0018"/>
<stop offset="0.442708" stop-color="#B5001B" stop-opacity="0"/>
</radialGradient>
<radialGradient id="paint31_radial_5878_55542" cx="0" cy="0" r="1" gradientUnits="userSpaceOnUse" gradientTransform="translate(47.0164 47.5614) rotate(-130.764) scale(0.392605 0.112374)">
<stop stop-color="#8F0018"/>
<stop offset="1" stop-color="#B5001B" stop-opacity="0"/>
</radialGradient>
<radialGradient id="paint32_radial_5878_55542" cx="0" cy="0" r="1" gradientUnits="userSpaceOnUse" gradientTransform="translate(47.0164 47.5614) rotate(-130.764) scale(0.392605 0.112374)">
<stop stop-color="#8F0018"/>
<stop offset="1" stop-color="#B5001B" stop-opacity="0"/>
</radialGradient>
<radialGradient id="paint33_radial_5878_55542" cx="0" cy="0" r="1" gradientUnits="userSpaceOnUse" gradientTransform="translate(46.897 47.4062) rotate(-137.007) scale(0.443845 0.12704)">
<stop stop-color="#8F0018"/>
<stop offset="1" stop-color="#B5001B" stop-opacity="0"/>
</radialGradient>
<radialGradient id="paint34_radial_5878_55542" cx="0" cy="0" r="1" gradientUnits="userSpaceOnUse" gradientTransform="translate(46.7628 47.2908) rotate(-131.929) scale(0.389482 0.11148)">
<stop stop-color="#8F0018"/>
<stop offset="1" stop-color="#B5001B" stop-opacity="0"/>
</radialGradient>
<radialGradient id="paint35_radial_5878_55542" cx="0" cy="0" r="1" gradientUnits="userSpaceOnUse" gradientTransform="translate(46.6744 47.1942) rotate(-129.759) scale(0.352503 0.100896)">
<stop stop-color="#8F0018"/>
<stop offset="1" stop-color="#B5001B" stop-opacity="0"/>
</radialGradient>
<radialGradient id="paint36_radial_5878_55542" cx="0" cy="0" r="1" gradientUnits="userSpaceOnUse" gradientTransform="translate(47.7687 48.1969) rotate(90) scale(1.49863 1.3585)">
<stop stop-color="#B1EB67"/>
<stop offset="0.901386" stop-color="#AFEA63" stop-opacity="0"/>
</radialGradient>
</defs>
</svg>
