<svg width="21" height="20" viewBox="0 0 21 20" fill="none" xmlns="http://www.w3.org/2000/svg">
<path d="M13.1035 4.97089L13.299 5.03605L13.4903 4.95952L16.8916 3.59898C17.1133 3.5103 17.3545 3.67357 17.3545 3.91234V14.9534C17.3545 15.0914 17.2705 15.2155 17.1423 15.2668L13.2638 16.8182L7.89651 15.0291L7.70103 14.964L7.50972 15.0405L4.10835 16.401C3.88666 16.4897 3.64551 16.3264 3.64551 16.0877V5.04659C3.64551 4.90858 3.72953 4.78448 3.85766 4.73322L7.73622 3.1818L13.1035 4.97089Z" stroke="#525965" stroke-width="1.125"/>
<path fill-rule="evenodd" clip-rule="evenodd" d="M7.71844 13.4515C7.46243 13.4515 7.25488 13.2439 7.25488 12.9879V5.15887C7.25488 4.90286 7.46243 4.69531 7.71844 4.69531C7.97446 4.69531 8.18201 4.90286 8.18201 5.15887V12.9879C8.18201 13.2439 7.97446 13.4515 7.71844 13.4515ZM13.2812 15.3057C13.0252 15.3057 12.8176 15.0982 12.8176 14.8422V7.01312C12.8176 6.7571 13.0252 6.54956 13.2812 6.54956C13.5372 6.54956 13.7448 6.7571 13.7448 7.01312V14.8422C13.7448 15.0982 13.5372 15.3057 13.2812 15.3057Z" fill="#525965"/>
</svg>
