<svg width="68" height="31" viewBox="0 0 68 31" fill="none" xmlns="http://www.w3.org/2000/svg">
<mask id="path-1-inside-1_5878_55422" fill="white">
<path fill-rule="evenodd" clip-rule="evenodd" d="M4 0C1.79086 0 0 1.79086 0 4V23C0 25.2091 1.79086 27 4 27H29.1803L32.7968 30.6945C33.1955 31.1018 33.8826 31.1018 34.2814 30.6945L37.8978 27H64C66.2091 27 68 25.2091 68 23V4C68 1.79086 66.2091 0 64 0H4Z"/>
</mask>
<path fill-rule="evenodd" clip-rule="evenodd" d="M4 0C1.79086 0 0 1.79086 0 4V23C0 25.2091 1.79086 27 4 27H29.1803L32.7968 30.6945C33.1955 31.1018 33.8826 31.1018 34.2814 30.6945L37.8978 27H64C66.2091 27 68 25.2091 68 23V4C68 1.79086 66.2091 0 64 0H4Z" fill="white"/>
<path d="M29.1803 27L29.8949 26.3005L29.6008 26H29.1803V27ZM32.7968 30.6945L33.5114 29.995L32.7968 30.6945ZM34.2814 30.6945L34.996 31.394L34.2814 30.6945ZM37.8978 27V26H37.4773L37.1832 26.3005L37.8978 27ZM1 4C1 2.34315 2.34315 1 4 1V-1C1.23858 -1 -1 1.23858 -1 4H1ZM1 23V4H-1V23H1ZM4 26C2.34315 26 1 24.6569 1 23H-1C-1 25.7614 1.23858 28 4 28V26ZM29.1803 26H4V28H29.1803V26ZM33.5114 29.995L29.8949 26.3005L28.4657 27.6995L32.0821 31.394L33.5114 29.995ZM33.5668 29.995C33.5683 29.9934 33.5685 29.9941 33.5644 29.9957C33.5594 29.9977 33.5506 30 33.5391 30C33.5276 30 33.5187 29.9977 33.5137 29.9957C33.5096 29.9941 33.5098 29.9934 33.5114 29.995L32.0821 31.394C32.8731 32.202 34.2051 32.202 34.996 31.394L33.5668 29.995ZM37.1832 26.3005L33.5668 29.995L34.996 31.394L38.6124 27.6995L37.1832 26.3005ZM64 26H37.8978V28H64V26ZM67 23C67 24.6569 65.6569 26 64 26V28C66.7614 28 69 25.7614 69 23H67ZM67 4V23H69V4H67ZM64 1C65.6569 1 67 2.34315 67 4H69C69 1.23858 66.7614 -1 64 -1V1ZM4 1H64V-1H4V1Z" fill="#11181C" mask="url(#path-1-inside-1_5878_55422)"/>
</svg>
