<svg width="56" height="56" viewBox="0 0 56 56" fill="none" xmlns="http://www.w3.org/2000/svg">
    <path
        d="M14.9612 46.7943L14.9612 46.7943C14.6222 46.6235 14.329 46.3849 14.0935 46.1014C13.8583 45.8183 13.6838 45.4943 13.5734 45.1517C13.4647 44.8143 13.4186 44.4604 13.4352 44.1089L14.002 28.0246C12.6759 27.5787 11.5002 26.7291 10.6142 25.5863C9.42833 24.0568 8.83909 22.1083 8.93514 20.1465C8.94339 17.6156 9.70023 14.9337 10.9418 12.8452C12.1479 10.8163 14.0895 8.925 16.6178 8.925C19.1447 8.925 21.0904 10.8145 22.3008 12.843C23.5475 14.9324 24.3096 17.6169 24.317 20.151C24.3937 21.9096 23.9204 23.6584 22.9544 25.1034C22.2205 26.2014 21.2297 27.0807 20.0763 27.6439L20.7365 44.1125L20.7365 44.114C20.7505 44.4703 20.7004 44.8283 20.5868 45.1686L19.0928 44.67L20.5868 45.1687C20.4731 45.5093 20.2962 45.8307 20.0597 46.1113L20.0596 46.1113C19.8229 46.3922 19.5294 46.6282 19.1909 46.7972M14.9612 46.7943L19.1909 46.7972M14.9612 46.7943C15.301 46.9655 15.6755 47.0626 16.0614 47.0743L16.0851 47.075H16.1088H18.0462H18.0703L18.0943 47.0743C18.4785 47.0625 18.8517 46.9665 19.1909 46.7972M14.9612 46.7943L19.1909 46.7972M19.1909 46.7972C19.1909 46.7972 19.1909 46.7972 19.1909 46.7972M19.1909 46.7972C19.1909 46.7972 19.1909 46.7972 19.1909 46.7972"
        stroke="#D7DBDF" stroke-width="3.15" />
    <path
        d="M47.0742 21.7584L47.0707 21.8073C46.9665 23.2769 46.3513 24.6582 45.342 25.7457C44.4835 26.6706 43.4184 27.2936 41.8505 27.6457L42.5121 44.0764C42.5368 44.4581 42.4812 44.839 42.3505 45.1965C42.2157 45.5648 42.0057 45.8965 41.7392 46.1744C41.4729 46.4522 41.1554 46.6711 40.8092 46.8234C40.4631 46.9756 40.0917 47.0598 39.7164 47.0739L39.6869 47.075H39.6574H37.3997H37.3702L37.3406 47.0739C36.9654 47.0598 36.594 46.9756 36.2479 46.8234C35.9016 46.6711 35.5842 46.4522 35.3179 46.1744C35.0514 45.8965 34.8413 45.5648 34.7066 45.1965C34.5759 44.839 34.5203 44.458 34.545 44.0764L35.2105 27.5469C34.8511 27.4454 34.4775 27.3262 34.1111 27.1899C33.3153 26.8939 32.2969 26.4265 31.634 25.7027C30.6065 24.5808 29.9968 23.1535 29.9267 21.6442L29.9244 21.5954L29.9252 21.5466C29.9355 20.8842 30.0036 20.2241 30.1286 19.5728L30.8098 11.1274C30.8568 10.5036 31.1508 9.94275 31.598 9.54496L47.0742 21.7584ZM47.0742 21.7584L47.0746 21.7094M47.0742 21.7584L47.0746 21.7094M47.0746 21.7094C47.0797 21.1115 47.0311 20.5147 46.9294 19.9251L46.2089 11.1968C46.1614 10.5743 45.868 10.0139 45.4208 9.61623C44.9741 9.21891 44.4036 9.00737 43.8262 8.9966L43.8115 8.99633M47.0746 21.7094L43.8115 8.99633M43.8115 8.99633H43.7968M43.8115 8.99633H43.7968M43.7968 8.99633H43.2037H43.1876M43.7968 8.99633H43.1876M43.1876 8.99633L43.1714 8.99666M43.1876 8.99633L43.1714 8.99666M43.1714 8.99666C42.8662 9.00291 42.5629 9.06509 42.2778 9.18205C41.9926 9.29908 41.7277 9.47019 41.5014 9.69069C41.3015 9.88546 41.1347 10.1158 41.0124 10.3733C40.8826 10.1069 40.704 9.86643 40.487 9.66423C40.0286 9.23706 39.432 9.0085 38.8273 8.99663L38.8118 8.99633M43.1714 8.99666L38.8118 8.99633M38.8118 8.99633H38.7964M38.8118 8.99633H38.7964M38.7964 8.99633H38.1842H38.171M38.7964 8.99633H38.171M38.171 8.99633L38.1578 8.99655M38.171 8.99633L38.1578 8.99655M38.1578 8.99655C37.5827 9.00618 37.0144 9.21323 36.5659 9.60328L37.5914 10.7825M38.1578 8.99655L37.5914 10.7825M37.5914 10.7825L36.5659 9.60328C36.333 9.80583 36.14 10.0519 35.9997 10.3281C35.8818 10.0718 35.7184 9.83796 35.518 9.63816C35.0737 9.19529 34.483 8.95118 33.8799 8.92634L33.8475 8.925M37.5914 10.7825L33.8475 8.925M33.8475 8.925H33.8151M33.8475 8.925H33.8151M33.8151 8.925H33.222H33.2073M33.8151 8.925H33.2073M33.2073 8.925L33.1926 8.92527M33.2073 8.925L33.1926 8.92527M33.1926 8.92527C32.6148 8.93605 32.0444 9.14789 31.598 9.54496L33.1926 8.92527ZM35.5949 19.3209C35.5949 19.3209 35.5955 19.321 35.5965 19.3213L35.5949 19.3209Z"
        stroke="#D7DBDF" stroke-width="3.15" />
</svg>
