<svg width="16" height="16" viewBox="0 0 16 16" fill="none" xmlns="http://www.w3.org/2000/svg">
<path fill-rule="evenodd" clip-rule="evenodd" d="M6.78785 11.165L8.00012 12.6696L9.21239 11.165H11.5442C12.0965 11.165 12.5442 10.7173 12.5442 10.165V3.73657C12.5442 3.18429 12.0965 2.73657 11.5442 2.73657H4.45605C3.90377 2.73657 3.45605 3.18429 3.45605 3.73657V10.165C3.45605 10.7173 3.90377 11.165 4.45605 11.165H6.78785ZM8.00012 14.2635L6.30936 12.165H4.45605C3.35148 12.165 2.45605 11.2696 2.45605 10.165V3.73657C2.45605 2.632 3.35149 1.73657 4.45605 1.73657H11.5442C12.6488 1.73657 13.5442 2.632 13.5442 3.73657V10.165C13.5442 11.2696 12.6488 12.165 11.5442 12.165H9.69088L8.00012 14.2635Z" fill="#97A2BB"/>
<rect x="5.45605" y="5.26636" width="5" height="1" fill="#97A2BB"/>
<rect x="5.45605" y="7.73657" width="3" height="1" fill="#97A2BB"/>
</svg>
