<svg width="96" height="96" viewBox="0 0 96 96" fill="none" xmlns="http://www.w3.org/2000/svg">
<mask id="mask0_7020_17768" style="mask-type:alpha" maskUnits="userSpaceOnUse" x="0" y="0" width="96" height="96">
<rect width="96" height="96" rx="10" fill="#E9EEF5"/>
</mask>
<g mask="url(#mask0_7020_17768)">
<rect width="96" height="96" rx="10" fill="#F2F5F9"/>
<rect x="0.5" y="0.5" width="95" height="95" rx="9.5" stroke="#E6ECF3"/>
<path fill-rule="evenodd" clip-rule="evenodd" d="M62.2115 30.4404C62.1732 29.9104 61.7321 29.5 61.2007 29.5C60.6538 29.5 60.2055 29.9341 60.1879 30.4808L59.8475 41.0554C59.8479 41.0668 59.8482 41.0783 59.8482 41.0899C59.8482 41.5743 59.4555 41.9669 58.9712 41.9669C58.4868 41.9669 58.0941 41.5743 58.0941 41.0899C58.0941 41.0496 58.0969 41.0099 58.1021 40.971L57.6254 30.4962C57.6009 29.9585 57.1579 29.5352 56.6196 29.5352C56.0814 29.5352 55.6383 29.9585 55.6138 30.4962L55.1371 40.9712C55.1423 41.01 55.145 41.0497 55.145 41.0899C55.145 41.5743 54.7524 41.9669 54.268 41.9669C53.7837 41.9669 53.391 41.5743 53.391 41.0899C53.391 41.0814 53.3911 41.0729 53.3914 41.0644L53.0525 30.5024C53.035 29.9557 52.5867 29.5215 52.0396 29.5215C51.5083 29.5215 51.0672 29.9318 51.0288 30.4617L50.2587 41.0898H50.2522L50.2378 42.9852C50.2189 45.4591 52.2191 47.4747 54.6931 47.4747H55.0138H55.2576L54.7578 64.4671C54.7217 65.6955 55.7076 66.7109 56.9366 66.7109C58.1655 66.7109 59.1515 65.6955 59.1154 64.4671L58.6156 47.4747H58.862C61.1594 47.4747 63.0169 45.6032 62.9996 43.3059L62.9829 41.0898H62.9806L62.2115 30.4404ZM33.0333 36.8475C32.6433 32.9168 35.7307 29.5078 39.6808 29.5078C43.6308 29.5078 46.7183 32.9168 46.3283 36.8475L45.827 41.8996C45.5705 44.4845 43.7449 46.5657 41.3508 47.2373L41.8575 64.4671C41.8937 65.6955 40.9077 66.7109 39.6787 66.7109C38.4498 66.7109 37.4638 65.6955 37.4999 64.4671L38.0067 47.2361C35.6146 46.5634 33.7909 44.483 33.5346 41.8996L33.0333 36.8475Z" fill="url(#paint0_linear_7020_17768)"/>
</g>
<defs>
<linearGradient id="paint0_linear_7020_17768" x1="47.9998" y1="24.5067" x2="47.9998" y2="70.6345" gradientUnits="userSpaceOnUse">
<stop stop-color="#D5DDE7"/>
<stop offset="1" stop-color="#D3DDEA"/>
</linearGradient>
</defs>
</svg>
