<svg width="20" height="20" viewBox="0 0 20 20" fill="none" xmlns="http://www.w3.org/2000/svg">
<path fill-rule="evenodd" clip-rule="evenodd" d="M11.6 4.3C11.6 5.01797 11.018 5.6 10.3 5.6C9.58203 5.6 9 5.01797 9 4.3C9 3.58203 9.58203 3 10.3 3C11.018 3 11.6 3.58203 11.6 4.3ZM11.6 9.8C11.6 10.518 11.018 11.1 10.3 11.1C9.58203 11.1 9 10.518 9 9.8C9 9.08203 9.58203 8.5 10.3 8.5C11.018 8.5 11.6 9.08203 11.6 9.8ZM10.3 16.6C11.018 16.6 11.6 16.018 11.6 15.3C11.6 14.582 11.018 14 10.3 14C9.58203 14 9 14.582 9 15.3C9 16.018 9.58203 16.6 10.3 16.6Z" fill="#C0C6D3"/>
</svg>
