<svg width="24" height="24" viewBox="0 0 24 24" fill="none" xmlns="http://www.w3.org/2000/svg">
<path fill-rule="evenodd" clip-rule="evenodd" d="M19.3528 1.87595C19.3793 1.50411 19.0994 1.18114 18.7276 1.15458C18.3557 1.12802 18.0328 1.40792 18.0062 1.77977C17.9637 2.37527 17.6841 2.74982 17.3512 2.99621C17.0836 3.19421 16.7861 3.30378 16.567 3.35225L15.7757 2.88671C15.4544 2.69767 15.0407 2.80489 14.8516 3.1262C14.6626 3.44751 14.7698 3.86122 15.0911 4.05026L16.2684 4.74288L16.4782 4.72765C16.9171 4.6958 17.5753 4.50983 18.1542 4.08138C18.7556 3.63637 19.2781 2.92108 19.3528 1.87595Z" fill="black"/>
<path fill-rule="evenodd" clip-rule="evenodd" d="M8.45724 13.8368C8.31037 13.5868 7.98865 13.5032 7.73865 13.6501C7.48865 13.7969 7.40504 14.1186 7.55191 14.3686C7.96701 15.0752 8.85329 15.8348 10.1725 15.8348C11.4534 15.8348 12.413 15.2124 12.9189 14.374C13.0687 14.1257 12.9889 13.803 12.7407 13.6532C12.4924 13.5034 12.1697 13.5832 12.0199 13.8315C11.7055 14.3524 11.0884 14.7848 10.1725 14.7848C9.29506 14.7848 8.72183 14.2872 8.45724 13.8368ZM8.65986 10.3228C9.03266 10.3228 9.33486 10.625 9.33486 10.9978V11.7478C9.33486 12.1205 9.03266 12.4228 8.65986 12.4228C8.28707 12.4228 7.98486 12.1205 7.98486 11.7478V10.9978C7.98486 10.625 8.28707 10.3228 8.65986 10.3228ZM12.3349 10.9978C12.3349 10.625 12.0327 10.3228 11.6599 10.3228C11.2871 10.3228 10.9849 10.625 10.9849 10.9978V11.7478C10.9849 12.1205 11.2871 12.4228 11.6599 12.4228C12.0327 12.4228 12.3349 12.1205 12.3349 11.7478V10.9978Z" fill="black"/>
<path fill-rule="evenodd" clip-rule="evenodd" d="M13.5405 5.52362L12.7518 5.44531C12.5049 5.4208 12.2542 5.40821 12 5.40821C7.85786 5.40821 4.5 8.76608 4.5 12.9082C4.5 17.0503 7.85786 20.4082 12 20.4082C16.1421 20.4082 19.5 17.0503 19.5 12.9082C19.5 11.1041 18.8649 9.45234 17.8046 8.15843L17.2422 7.47205L17.9492 5.71184L14.8718 3.93511L13.5405 5.52362ZM18.1917 5.10809L18.1914 5.10898L18.1917 5.10809ZM18.9648 7.20771C20.2367 8.75988 21 10.7449 21 12.9082C21 17.8788 16.9706 21.9082 12 21.9082C7.02944 21.9082 3 17.8788 3 12.9082C3 7.93765 7.02944 3.90821 12 3.90821C12.3037 3.90821 12.604 3.92326 12.9 3.95265L14.1267 2.48899C14.3606 2.20991 14.7611 2.13916 15.0765 2.32122L19.2627 4.73812C19.586 4.92478 19.7228 5.32078 19.5836 5.66719L18.9648 7.20771Z" fill="black"/>
</svg>
