<svg width="24" height="24" viewBox="0 0 24 24" fill="none" xmlns="http://www.w3.org/2000/svg">
<path fill-rule="evenodd" clip-rule="evenodd" d="M5.2912 10.5C5.66428 7.12504 8.52558 4.5 12 4.5C15.4745 4.5 18.3358 7.125 18.7088 10.5H17.25C16.8358 10.5 16.5 10.8358 16.5 11.25V15C16.5 15.4142 16.8358 15.75 17.25 15.75H18.75V17.2502C18.75 18.0785 18.0785 18.75 17.25 18.75H14.25C14.25 18.3358 13.9142 18 13.5 18H12C11.5858 18 11.25 18.3358 11.25 18.75V20.25C11.25 20.6642 11.5858 21 12 21H13.5C13.9142 21 14.25 20.6642 14.25 20.25H17.25C18.9068 20.25 20.25 18.9072 20.25 17.2502V15V11.25V11.2499C20.25 6.69348 16.5563 3 12 3C7.44365 3 3.75 6.69365 3.75 11.25V15C3.75 15.4142 4.08579 15.75 4.5 15.75H6.75C7.16421 15.75 7.5 15.4142 7.5 15V11.25C7.5 10.8358 7.16421 10.5 6.75 10.5H5.2912Z" fill="black"/>
</svg>
