<svg width="24" height="24" viewBox="0 0 24 24" fill="none" xmlns="http://www.w3.org/2000/svg">
<path fill-rule="evenodd" clip-rule="evenodd" d="M8.25 3H6.75V4.5H5.25C4.42157 4.5 3.75 5.17157 3.75 6V19.5C3.75 20.3284 4.42157 21 5.25 21H18.75C19.5784 21 20.25 20.3284 20.25 19.5V6C20.25 5.17157 19.5784 4.5 18.75 4.5H17.25V3H15.75V4.5H8.25V3ZM15.6857 11.1855L11.2501 15.3107L8.625 12.7499L9.68566 11.6892L11.2501 13.1894L14.625 10.1249L15.6857 11.1855ZM5.25 6H18.75V19.5H5.25L5.25 6Z" fill="black"/>
</svg>
