<svg width="24" height="24" viewBox="0 0 24 24" fill="none" xmlns="http://www.w3.org/2000/svg">
<path fill-rule="evenodd" clip-rule="evenodd" d="M6 4.5H18V14.625H13.125V19.5H6V4.5ZM14.625 18.9414L16.1242 17.3673L17.1957 16.125H14.625V18.9414ZM17.2358 18.375L19.5 15.75V4C19.5 3.44772 19.0523 3 18.5 3H5.5C4.94772 3 4.5 3.44772 4.5 4V20C4.5 20.5523 4.94772 21 5.5 21H14.7358L17.2358 18.375ZM8.67188 7.21875H15.4219V8.56875H8.67188V7.21875ZM15.4219 10.5937L8.67188 10.5938V11.9438L15.4219 11.9437V10.5937Z" fill="black"/>
</svg>
