<svg width="24" height="24" viewBox="0 0 24 24" fill="none" xmlns="http://www.w3.org/2000/svg">
<path fill-rule="evenodd" clip-rule="evenodd" d="M14.0557 15.1574L18.375 17.1205V5.69433L14.0558 7.65741H6.375C5.96079 7.65741 5.625 7.99319 5.625 8.4074V14.4074C5.625 14.8216 5.96079 15.1574 6.375 15.1574H9.00576L9.4052 18.9497L10.4518 19.0461L10.0664 15.1574H14.0557ZM19.4864 5.08303L19.4856 5.08351L19.4864 5.08303ZM11.6939 16.6574L12.0194 19.8138C12.0573 20.2782 11.6671 20.6644 11.2031 20.6217L8.64413 20.386C8.2831 20.3527 7.99755 20.066 7.9658 19.7048L7.63184 16.6574H6.375C5.13236 16.6574 4.125 15.65 4.125 14.4074V8.4074C4.125 7.16476 5.13236 6.1574 6.375 6.1574H13.6705L18.7636 3.76871C19.2634 3.4938 19.875 3.85542 19.875 4.42587V18.389C19.875 18.9594 19.2634 19.321 18.7636 19.0461L13.6704 16.6574H11.6939Z" fill="black"/>
</svg>
