<svg width="24" height="24" viewBox="0 0 24 24" fill="none" xmlns="http://www.w3.org/2000/svg">
<path fill-rule="evenodd" clip-rule="evenodd" d="M4.25 6C4.25 5.0335 5.0335 4.25 6 4.25H18C18.9665 4.25 19.75 5.0335 19.75 6V11H18.25V6C18.25 5.86193 18.1381 5.75 18 5.75H6C5.86193 5.75 5.75 5.86193 5.75 6V11H4.25V6Z" fill="#11181C"/>
<path fill-rule="evenodd" clip-rule="evenodd" d="M4.63178 10.7984C4.55002 10.8875 4.5 11.0064 4.5 11.1366V18.0001C4.5 18.2762 4.72386 18.5001 5 18.5001H19C19.2761 18.5001 19.5 18.2762 19.5 18.0001V11.1366C19.5 11.0067 19.4502 10.8881 19.3689 10.7991L13.3986 14.8249C12.5538 15.3945 11.4479 15.3945 10.6032 14.8249L4.63178 10.7984ZM19.1438 9.14171C20.1813 9.21542 21 10.0804 21 11.1366V18.0001C21 19.1046 20.1046 20.0001 19 20.0001H5C3.89543 20.0001 3 19.1046 3 18.0001V11.1366C3 10.0799 3.81958 9.21455 4.85777 9.1416L11.4418 13.5813C11.7797 13.8091 12.2221 13.8091 12.5599 13.5813L19.1438 9.14171Z" fill="#11181C"/>
</svg>
