<svg width="24" height="24" viewBox="0 0 24 24" fill="none" xmlns="http://www.w3.org/2000/svg">
    <path fill-rule="evenodd" clip-rule="evenodd"
        d="M7.59575 20.4769L5.29787 19.2581L4.5 19.6813V4.1748H19.5V19.6813L18.6335 19.2217L16.7186 20.4405L14.4894 19.2581L12.1915 20.4769L9.89362 19.2581L7.59575 20.4769ZM3 4.1748V22.1748L5.29787 20.9561L7.59575 22.1748L9.89362 20.9561L12.1915 22.1748L14.4894 20.9561L16.7872 22.1748L18.7021 20.9561L21 22.1748V4.1748C21 3.34638 20.3284 2.6748 19.5 2.6748H4.5C3.67157 2.6748 3 3.34638 3 4.1748ZM7.33301 9H8.69412L10.0906 12.9174L11.1745 9.25836L11.1738 9.25653H11.175H12.5349H12.5361L12.5356 9.25836L13.987 13.3414L15.1125 9H16.4736L16.0482 10.6411H17.2491V12.077H15.6759L14.9181 15H14.5766L14.5766 15.0001H13.2155L11.9169 11.3469L10.8347 15.0001H9.47363L9.47367 15H9.4719L8.42991 12.077H6.75V10.6411H7.91804L7.33301 9Z"
        fill="black" />
</svg>