<svg width="24" height="24" viewBox="0 0 24 24" fill="none" xmlns="http://www.w3.org/2000/svg">
<path fill-rule="evenodd" clip-rule="evenodd" d="M7.54327 16.875H7.04709L6.64878 17.1709L4.5 18.7671V13.875V12.75V8.29688C4.5 6.64002 5.84315 5.29688 7.5 5.29688H16.5C18.1569 5.29688 19.5 6.64002 19.5 8.29688V13.875C19.5 15.5319 18.1569 16.875 16.5 16.875H7.54327ZM7.5 3.79688C5.01472 3.79688 3 5.81159 3 8.29688V12.75V13.875V20.2586C3 20.875 3.70239 21.2282 4.19724 20.8606L7.54327 18.375H16.5C18.9853 18.375 21 16.3603 21 13.875V8.29688C21 5.81159 18.9853 3.79688 16.5 3.79688H7.5ZM9 12.0938C9.51777 12.0938 9.9375 11.674 9.9375 11.1562C9.9375 10.6385 9.51777 10.2188 9 10.2188C8.48223 10.2188 8.0625 10.6385 8.0625 11.1562C8.0625 11.674 8.48223 12.0938 9 12.0938ZM12 12.0938C12.5178 12.0938 12.9375 11.674 12.9375 11.1562C12.9375 10.6385 12.5178 10.2188 12 10.2188C11.4822 10.2188 11.0625 10.6385 11.0625 11.1562C11.0625 11.674 11.4822 12.0938 12 12.0938ZM15.9375 11.1562C15.9375 11.674 15.5178 12.0938 15 12.0938C14.4822 12.0938 14.0625 11.674 14.0625 11.1562C14.0625 10.6385 14.4822 10.2188 15 10.2188C15.5178 10.2188 15.9375 10.6385 15.9375 11.1562Z" fill="black"/>
</svg>
