<svg width="24" height="24" viewBox="0 0 24 24" fill="none" xmlns="http://www.w3.org/2000/svg">
<path fill-rule="evenodd" clip-rule="evenodd" d="M7.63064 19.5652C8.4342 20.0291 8.75649 20.9204 8.62758 21.9467C9.68605 22.3055 10.8203 22.5 11.9999 22.5C13.1584 22.5 14.2731 22.3124 15.3152 21.9659C15.2068 20.9133 15.5521 20.0336 16.3655 19.564C17.166 19.1019 18.2096 19.2284 19.0433 19.7873C20.6627 18.3218 21.8228 16.3582 22.2821 14.1382C21.3048 13.7581 20.735 12.96 20.735 11.9998C20.735 11.0349 21.2804 10.1289 22.2546 9.73315C21.7657 7.51155 20.5733 5.55379 18.9229 4.10532C18.0979 4.73288 17.1614 4.89253 16.3677 4.43428C15.5953 3.98834 15.2563 3.02036 15.3448 2.044C14.2942 1.69118 13.1694 1.5 11.9999 1.5C10.8322 1.5 9.70898 1.69063 8.6597 2.04246C8.78121 3.02253 8.40963 3.98597 7.63287 4.43443C6.85786 4.88189 5.83777 4.72736 5.02248 4.15352C3.36918 5.62476 2.18398 7.61066 1.71822 9.85985C2.60254 10.2794 3.264 11.1203 3.264 11.9984C3.264 12.8919 2.65629 13.6972 1.7124 14.1119C2.17197 16.3625 3.35154 18.351 5 19.8264C5.84814 19.2286 6.83151 19.1038 7.63064 19.5652ZM5.29607 18.005C6.27807 17.6691 7.37715 17.6868 8.38064 18.2662C9.40492 18.8575 9.92893 19.8 10.0946 20.7982C10.7078 20.9303 11.3451 21 11.9999 21C12.6409 21 13.265 20.9332 13.8661 20.8066C14.0468 19.7941 14.5898 18.8572 15.6155 18.265C16.6114 17.69 17.7327 17.6682 18.7229 17.9837C19.5302 17.0774 20.1563 16.0079 20.5457 14.8321C19.7314 14.1418 19.235 13.15 19.235 11.9998C19.235 10.9013 19.6848 9.83249 20.5156 9.07849C20.1145 7.90907 19.4785 6.84725 18.663 5.94973C17.7127 6.30612 16.6341 6.32014 15.6177 5.73332C14.6136 5.15361 14.0972 4.18351 13.9126 3.20334C13.2972 3.07026 12.6574 3 11.9999 3C11.3497 3 10.7168 3.06872 10.1076 3.19897C9.92075 4.20292 9.37192 5.16244 8.38287 5.73347C7.38987 6.30678 6.28353 6.29922 5.31819 5.97041C4.47876 6.89992 3.8314 8.00419 3.43684 9.22081C4.19936 9.90182 4.764 10.8679 4.764 11.9984C4.764 13.1362 4.22612 14.1005 3.43722 14.7803C3.82834 15.9858 4.46764 17.0809 5.29607 18.005Z" fill="#525965"/>
<path fill-rule="evenodd" clip-rule="evenodd" d="M12 14.25C13.2426 14.25 14.25 13.2426 14.25 12C14.25 10.7574 13.2426 9.75 12 9.75C10.7574 9.75 9.75 10.7574 9.75 12C9.75 13.2426 10.7574 14.25 12 14.25ZM12 15.75C14.0711 15.75 15.75 14.0711 15.75 12C15.75 9.92893 14.0711 8.25 12 8.25C9.92893 8.25 8.25 9.92893 8.25 12C8.25 14.0711 9.92893 15.75 12 15.75Z" fill="#525965"/>
</svg>
