<svg width="24" height="24" viewBox="0 0 24 24" fill="none" xmlns="http://www.w3.org/2000/svg">
<path fill-rule="evenodd" clip-rule="evenodd" d="M14.5518 5H5C3.89543 5 3 5.89543 3 7V19C3 20.1046 3.89543 21 5 21H17C18.1046 21 19 20.1046 19 19V11.9997L17.5 13.4997V19C17.5 19.2761 17.2761 19.5 17 19.5H5C4.72386 19.5 4.5 19.2761 4.5 19V7C4.5 6.72386 4.72386 6.5 5 6.5H13.0518L14.5518 5Z" fill="#11181C"/>
<path d="M17.9627 3.41421C18.7438 2.63316 20.0101 2.63317 20.7912 3.41421L21.8621 4.48517C22.6432 5.26621 22.6432 6.53254 21.8621 7.31359L15.2554 13.9203C14.9765 14.1992 14.6213 14.3894 14.2346 14.467L11.4222 15.0313C10.722 15.1718 10.1045 14.5543 10.245 13.8542L10.8093 11.0417C10.8869 10.655 11.0771 10.2998 11.356 10.0209L17.9627 3.41421Z" fill="white"/>
<path fill-rule="evenodd" clip-rule="evenodd" d="M20.8015 5.54583L19.7305 4.47487C19.5352 4.27961 19.2187 4.27961 19.0234 4.47487L12.4167 11.0816C12.3469 11.1513 12.2994 11.2401 12.28 11.3368L11.8634 13.4129L13.9395 12.9963C14.0362 12.9769 14.125 12.9294 14.1947 12.8597L20.8015 6.25293C20.9967 6.05767 20.9967 5.74109 20.8015 5.54583ZM20.7912 3.41421C20.0101 2.63317 18.7438 2.63316 17.9627 3.41421L11.356 10.0209C11.0771 10.2998 10.8869 10.655 10.8093 11.0417L10.245 13.8542C10.1045 14.5543 10.722 15.1718 11.4222 15.0313L14.2346 14.467C14.6213 14.3894 14.9765 14.1992 15.2554 13.9203L21.8621 7.31359C22.6432 6.53254 22.6432 5.26621 21.8621 4.48517L20.7912 3.41421Z" fill="#11181C"/>
</svg>
