<svg width="24" height="24" viewBox="0 0 24 24" fill="none" xmlns="http://www.w3.org/2000/svg">
<path fill-rule="evenodd" clip-rule="evenodd" d="M8.2498 4.5H4.28667L3.65756 8.58927C3.44232 9.9883 4.52476 11.25 5.94025 11.25C7.21578 11.25 8.2498 10.216 8.2498 8.94045V4.5ZM4.28667 3C3.54632 3 2.91669 3.54017 2.80412 4.27191L2.175 8.36118C1.94483 9.8573 2.61436 11.2582 3.75 12.0585V18.75C3.75 19.9926 4.75736 21 6 21H18C19.2426 21 20.25 19.9926 20.25 18.75V12.0584C21.3855 11.2581 22.055 9.85722 21.8248 8.36119L21.1957 4.27191C21.0831 3.54017 20.4535 3 19.7131 3H15.75H14.25H9.7498H8.25H4.28667ZM18.0595 12.75C18.2959 12.75 18.5266 12.7287 18.75 12.688V18.75C18.75 19.1642 18.4142 19.5 18 19.5H6C5.58579 19.5 5.25 19.1642 5.25 18.75V12.688C5.47336 12.7287 5.70399 12.75 5.94025 12.75C7.18473 12.75 8.28984 12.1533 8.98505 11.2303C9.66824 12.1523 10.7643 12.75 12 12.75C13.2356 12.75 14.3317 12.1524 15.0149 11.2305C15.7101 12.1533 16.8151 12.75 18.0595 12.75ZM14.25 4.5V8.94045V9C14.25 10.2426 13.2426 11.25 12 11.25C10.7574 11.25 9.75 10.2426 9.75 9V4.5H14.25ZM18.0595 11.25C16.784 11.25 15.75 10.216 15.75 8.94045V4.5H19.7131L20.3422 8.58927C20.5575 9.9883 19.475 11.25 18.0595 11.25ZM17.25 14.25H15.75V16.5H17.25V14.25Z" fill="black"/>
</svg>
