<svg width="24" height="24" viewBox="0 0 24 24" fill="none" xmlns="http://www.w3.org/2000/svg">
<path fill-rule="evenodd" clip-rule="evenodd" d="M15 10.875V9.375H12.75H11.25H9V10.875L11.25 10.875V15.375H12.75V10.875L15 10.875Z" fill="black"/>
<path fill-rule="evenodd" clip-rule="evenodd" d="M12 19.8906C16.3579 19.8906 19.8906 16.3579 19.8906 12C19.8906 7.64213 16.3579 4.10938 12 4.10938C7.64213 4.10938 4.10938 7.64213 4.10938 12C4.10938 16.3579 7.64213 19.8906 12 19.8906ZM12 21.4688C17.2294 21.4688 21.4688 17.2294 21.4688 12C21.4688 6.77055 17.2294 2.53125 12 2.53125C6.77055 2.53125 2.53125 6.77055 2.53125 12C2.53125 17.2294 6.77055 21.4688 12 21.4688Z" fill="black"/>
</svg>
