<svg width="37" height="45" viewBox="0 0 37 45" fill="none" xmlns="http://www.w3.org/2000/svg">
<path fill-rule="evenodd" clip-rule="evenodd" d="M33.1196 4.93647C33.0814 4.4065 32.6402 3.99609 32.1089 3.99609C31.5619 3.99609 31.1136 4.43017 31.096 4.97687L30.7557 15.5515C30.7561 15.5629 30.7563 15.5744 30.7563 15.586C30.7563 16.0704 30.3637 16.463 29.8793 16.463C29.3949 16.463 29.0023 16.0704 29.0023 15.586C29.0023 15.5457 29.005 15.506 29.0103 15.4671L28.5336 4.99231C28.5091 4.45461 28.066 4.03125 27.5278 4.03125C26.9895 4.03125 26.5464 4.45461 26.522 4.99231L26.0452 15.4673C26.0505 15.5061 26.0532 15.5458 26.0532 15.586C26.0532 16.0704 25.6605 16.463 25.1762 16.463C24.6918 16.463 24.2992 16.0704 24.2992 15.586C24.2992 15.5775 24.2993 15.569 24.2995 15.5605L23.9607 4.99852C23.9431 4.45175 23.4948 4.01758 22.9477 4.01758C22.4165 4.01758 21.9754 4.42788 21.937 4.95778L21.1668 15.5859H21.1604L21.1459 17.4813C21.127 19.9552 23.1273 21.9708 25.6013 21.9708H25.9219H26.1657L25.6659 38.9632C25.6298 40.1916 26.6158 41.207 27.8447 41.207C29.0737 41.207 30.0597 40.1916 30.0235 38.9632L29.5238 21.9708H29.7702C32.0675 21.9708 33.925 20.0993 33.9077 17.802L33.8911 15.5859H33.8888L33.1196 4.93647ZM3.94149 11.3436C3.55147 7.41286 6.63892 4.00391 10.589 4.00391C14.539 4.00391 17.6265 7.41286 17.2365 11.3436L16.7352 16.3957C16.4787 18.9806 14.6531 21.0618 12.259 21.7334L12.7657 38.9632C12.8019 40.1916 11.8159 41.207 10.5869 41.207C9.35798 41.207 8.37199 40.1916 8.40812 38.9632L8.91491 21.7322C6.52275 21.0595 4.6991 18.9791 4.44277 16.3957L3.94149 11.3436Z" fill="url(#paint0_linear_5101_54530)"/>
<defs>
<linearGradient id="paint0_linear_5101_54530" x1="18.908" y1="-0.997238" x2="18.908" y2="45.1306" gradientUnits="userSpaceOnUse">
<stop stop-color="#D5DDE7"/>
<stop offset="1" stop-color="#D3DDEA"/>
</linearGradient>
</defs>
</svg>
