<svg width="50" height="51" viewBox="0 0 50 51" fill="none" xmlns="http://www.w3.org/2000/svg">
<path fill-rule="evenodd" clip-rule="evenodd" d="M34.4524 39.0419C34.4585 38.4236 34.4558 37.9578 34.4542 37.6817L34.4536 37.5665C34.4759 37.5436 34.5017 37.5161 34.5228 37.4932C35.0662 36.9136 36.0098 35.5321 36.7715 34.0303C36.8079 34.0334 36.8441 34.0375 36.8804 34.0415C36.9529 34.0497 37.0254 34.0578 37.099 34.0578C38.843 34.0578 40.6328 32.7714 41.79 30.6305C42.682 28.9787 42.8874 27.1493 42.3769 25.7129C43.8169 25.3131 44.8814 24.525 45.5387 23.3429C45.8098 22.8537 45.9894 22.3176 46.1067 21.7563C46.4905 23.3303 46.7006 24.9695 46.7006 26.6568C46.7006 32.8688 43.9449 38.4657 39.5648 42.3432C38.2468 41.003 36.633 39.9629 34.4524 39.0419ZM16.6003 39.194C17.1836 39.7278 17.8044 40.2055 18.4629 40.6236C20.8125 42.1173 22.9568 42.6878 24.8698 42.6878C28.7945 42.6878 31.7474 40.288 33.5266 38.5239C33.5219 40.0703 33.4621 43.044 33.1558 46.2789C30.6359 47.2801 27.8837 47.8368 25.0001 47.8368C22.2772 47.8368 19.6717 47.3396 17.2681 46.4427C16.9688 43.9398 16.7493 41.2983 16.6003 39.194ZM7.52556 14.1168C7.45749 14.6872 7.41289 15.2772 7.39998 15.8912C7.33895 18.8752 8.2321 21.1387 9.14285 22.6095C9.02783 22.653 8.91516 22.6977 8.80718 22.7538C7.77672 23.2842 7.10539 24.3128 6.91761 25.6496C6.73687 26.9303 7.02558 28.3542 7.72977 29.6566C8.80718 31.6532 10.6721 32.9694 12.4584 33.0438C13.2905 35.053 14.3409 36.7678 15.6003 38.1733C15.632 38.6636 15.6683 39.1974 15.7106 39.7656C13.6485 40.5995 12.0453 41.5594 10.8435 42.6889C6.22985 38.8022 3.30042 33.0587 3.30042 26.6565C3.30042 21.9669 4.87194 17.63 7.52556 14.1168ZM11.5627 43.2693C12.6167 42.3013 14.011 41.4617 15.782 40.7183C15.9123 42.3792 16.0789 44.2349 16.2867 46.0471C14.5872 45.3174 13.0028 44.3793 11.5627 43.2693ZM38.8633 42.9355C37.4291 44.1016 35.8376 45.0868 34.1264 45.8646C34.3236 43.6366 34.4046 41.5655 34.4363 40.0248C36.3235 40.8553 37.7049 41.7614 38.8633 42.9355ZM36.7117 33.1196C36.4747 33.0096 36.1989 33.1047 36.0885 33.3315C35.3703 34.816 34.3797 36.3029 33.8375 36.8802C31.651 39.2113 26.5315 44.6685 18.9697 39.8642C16.4757 38.2789 14.5356 35.7806 13.2024 32.4369C13.2012 32.4346 13.1997 32.4326 13.1983 32.4305L13.1963 32.4278C13.1956 32.4267 13.1948 32.4255 13.1942 32.4243C13.1766 32.3819 13.1496 32.3464 13.1202 32.312C13.1178 32.3092 13.1156 32.3063 13.1136 32.3033L13.1106 32.2987C13.1069 32.293 13.1031 32.2873 13.0979 32.2822C13.0252 32.2078 12.9289 32.1665 12.8221 32.1574L12.8094 32.1556L12.8093 32.1556C12.7959 32.1536 12.7824 32.1516 12.7681 32.1516C12.7647 32.1516 12.7616 32.1508 12.7584 32.15C12.7549 32.1491 12.7513 32.1482 12.747 32.1482C11.2189 32.2181 9.53238 31.0508 8.55121 29.234C7.93621 28.0966 7.68271 26.8675 7.83645 25.7724C7.98316 24.7334 8.48196 23.9453 9.24131 23.5558C9.37863 23.4848 9.52651 23.4321 9.67674 23.3897C9.98658 23.7952 10.2765 24.1045 10.5042 24.3038C10.5253 24.7895 10.6086 26.0874 10.9255 27.8022C10.9654 28.021 11.1614 28.1745 11.382 28.1745C11.409 28.1745 11.4372 28.1722 11.4654 28.1676C11.7165 28.1229 11.8855 27.8869 11.8386 27.6418C11.5123 25.8697 11.4419 24.5364 11.4278 24.1778C11.6731 23.6475 13.0122 20.7975 14.004 19.6199C14.0287 19.5906 14.0564 19.5613 14.0839 19.5322L14.0839 19.5322C14.1048 19.5101 14.1256 19.4882 14.1448 19.4664C17.7737 17.3381 21.9073 19.0231 21.9484 19.0403C22.1843 19.1388 22.4566 19.0334 22.5587 18.8032C22.6596 18.5741 22.5517 18.3072 22.3169 18.2086C22.1608 18.1422 19.1199 16.8959 15.7868 17.7997C17.282 16.3323 18.8465 14.6187 19.337 11.7675C20.8111 11.3105 28.103 9.26232 31.0512 12.3586C32.3915 13.7664 32.9408 15.818 33.395 17.881C30.7731 17.4881 28.3929 18.3266 28.2662 18.3736C28.0244 18.4607 27.9023 18.7218 27.9927 18.9555C28.0819 19.1903 28.3483 19.3106 28.5889 19.2236L28.589 19.2235C28.6224 19.2118 31.0815 18.3477 33.6027 18.8375C34.2471 21.8364 34.9736 24.8525 38.0098 25.746C38.0016 25.8399 37.9945 25.9247 37.9887 25.9992C37.9558 26.4104 37.9417 26.5811 37.8115 27.2077C37.7598 27.4528 37.923 27.6911 38.1741 27.7415C38.2058 27.7472 38.2363 27.7506 38.2668 27.7506C38.484 27.7506 38.6776 27.6017 38.7222 27.3875C38.863 26.7071 38.8806 26.4952 38.9147 26.0702C38.9171 26.044 38.9196 26.0129 38.922 25.9818L38.9252 25.9407C39.2656 25.9866 39.62 26.0198 40.0109 26.0198C40.1564 26.0198 40.3078 26.0163 40.4616 26.0095C40.8101 25.9934 41.1387 25.9568 41.4568 25.9098C41.9274 27.1137 41.7526 28.7552 40.9674 30.2077C39.8829 32.2169 38.2175 33.351 36.7117 33.1196ZM44.0871 12.8081C43.6826 12.1353 43.3226 11.4304 42.9416 10.6845L42.9404 10.6821L42.9397 10.6807C41.0914 7.06016 38.9959 2.95544 30.6875 0.678479C27.1736 -0.282592 23.817 1.44711 21.5941 2.5926L21.5641 2.60804C20.8914 2.95431 20.3116 3.25279 19.9381 3.3555C19.3844 3.50892 18.8952 3.49412 18.3275 3.47695L18.3266 3.47693C17.3056 3.44485 16.1472 3.40934 14.3832 4.36583C11.1545 6.11729 9.0994 8.41745 8.1065 11.4438C4.31913 15.4474 2 20.7911 2 26.656C2 39.0343 12.3175 49.1043 25 49.1043C37.6825 49.1043 48 39.0343 48 26.656C48 23.3238 47.2465 20.1622 45.9062 17.3168C45.4896 15.5871 44.7772 13.9559 44.0871 12.8081ZM26.81 29.9813C27.0377 29.8656 27.1269 29.593 27.0095 29.3708C26.891 29.1485 26.6116 29.0615 26.384 29.176C25.0906 29.8267 24.1188 29.1348 24.0707 29.0993C23.8688 28.9469 23.5789 28.9813 23.4205 29.1795C23.2632 29.3765 23.2984 29.6606 23.5015 29.8152C23.5426 29.8461 24.2362 30.3628 25.2737 30.3628C25.7279 30.3628 26.249 30.2642 26.81 29.9813ZM19.9522 33.5943C20.0531 33.3641 20.3254 33.2587 20.5613 33.3549C20.6082 33.3744 25.2688 35.2565 30.6688 32.9048C30.9035 32.8028 31.1769 32.9048 31.2814 33.1339C31.3859 33.363 31.2814 33.631 31.0467 33.733C28.8156 34.7055 26.7206 35.0079 24.9777 35.0079C22.2044 35.0079 20.3219 34.2416 20.1963 34.1889C19.9604 34.0892 19.8512 33.8234 19.9522 33.5943ZM29.5745 23.7877C29.5745 25.0317 30.261 26.0397 31.1084 26.0397C31.9558 26.0397 32.6424 25.0317 32.6424 23.7877C32.6424 22.5437 31.9558 21.5356 31.1084 21.5356C30.261 21.5356 29.5745 22.5437 29.5745 23.7877ZM17.724 23.6436C17.724 22.4008 18.4106 21.3916 19.258 21.3916C20.1053 21.3916 20.7919 22.4008 20.7919 23.6436C20.7919 24.8877 20.1053 25.8957 19.258 25.8957C18.4106 25.8957 17.724 24.8877 17.724 23.6436Z" fill="#CFD8E1"/>
</svg>
