<svg width="32" height="32" viewBox="0 0 32 32" fill="none" xmlns="http://www.w3.org/2000/svg">
<rect x="0.25" y="0.25" width="31.5" height="31.5" rx="7.75" fill="white" stroke="#C4EAEF" stroke-width="0.5"/>
<ellipse cx="21.5989" cy="15.9997" rx="2.98761" ry="2.89029" fill="#05A2C2"/>
<path d="M7.93555 13.4375C7.93555 12.3329 8.83098 11.4375 9.93555 11.4375H11.4441V20.5547H9.93555C8.83098 20.5547 7.93555 19.6593 7.93555 18.5547V13.4375Z" fill="#3DB9CF"/>
<path d="M13.0439 11.0584L20.0592 6.5643C20.7247 6.13792 21.5986 6.61589 21.5986 7.40634V24.5826C21.5986 25.3731 20.7247 25.851 20.0592 25.4247L13.0439 20.9306V11.0584Z" fill="#3DB9CF"/>
<path d="M11.1357 12.0625C11.1357 11.5102 11.5835 11.0625 12.1357 11.0625H13.0439V20.9297H12.1357C11.5835 20.9297 11.1357 20.482 11.1357 19.9297V12.0625Z" fill="#05A2C2"/>
</svg>
