<svg width="12" height="14" viewBox="0 0 12 14" fill="none" xmlns="http://www.w3.org/2000/svg">
<path d="M3.63469 1C3.06422 1 2.564 1.37962 2.41245 1.92758L1.02314 6.95067C0.911917 7.35282 1.21559 7.75003 1.63427 7.75003H3.91359L1.85173 12.0987C1.65308 12.5176 1.95983 13 2.42489 13H2.9675C3.17563 13 3.37604 12.9215 3.5285 12.7804L10.6145 6.21917C11.0365 5.82849 10.759 5.12496 10.183 5.12496H7.68212L9.71617 1.97315C9.98743 1.55283 9.68453 1 9.18298 1H3.63469Z" fill="white"/>
<path fill-rule="evenodd" clip-rule="evenodd" d="M4.38785 7.45003L2.1228 12.2272C2.01929 12.4455 2.17833 12.7 2.42489 12.7H2.9675C3.10019 12.7 3.22778 12.65 3.32467 12.5603L10.4107 5.99904C10.6307 5.79537 10.4885 5.42496 10.183 5.42496H7.13146L9.46411 1.81048C9.60545 1.59146 9.44894 1.3 9.18298 1.3H3.63469C3.19845 1.3 2.81701 1.59023 2.70159 2.00755L1.31229 7.03064C1.25431 7.24027 1.41237 7.45003 1.63427 7.45003H4.38785ZM9.71617 1.97315C9.98743 1.55283 9.68453 1 9.18298 1H3.63469C3.06422 1 2.564 1.37962 2.41245 1.92758L1.02314 6.95067C0.911917 7.35282 1.21559 7.75003 1.63427 7.75003H3.91359L1.85173 12.0987C1.65308 12.5176 1.95983 13 2.42489 13H2.9675C3.17563 13 3.37604 12.9215 3.5285 12.7804L10.6145 6.21917C11.0365 5.82849 10.759 5.12496 10.183 5.12496H7.68212L9.71617 1.97315Z" fill="black" fill-opacity="0.08"/>
</svg>
