<svg width="16" height="16" viewBox="0 0 16 16" fill="none" xmlns="http://www.w3.org/2000/svg">
<path fill-rule="evenodd" clip-rule="evenodd" d="M8 1C4.68239 1 2 3.49288 2 6.56C2 8.33217 3.03786 10.123 4.21481 11.5899C5.39661 13.0629 6.74501 14.2415 7.41838 14.7944C7.75222 15.0685 8.24778 15.0685 8.58162 14.7944C9.25499 14.2415 10.6034 13.0629 11.7852 11.5899C12.9621 10.123 14 8.33217 14 6.56C14 3.49288 11.3176 1 8 1ZM5.93333 6.46464C5.93333 5.42513 6.85861 4.58244 7.99999 4.58244C9.14138 4.58244 10.0667 5.42513 10.0667 6.46464C10.0667 7.50415 9.14138 8.34684 7.99999 8.34684C6.85861 8.34684 5.93333 7.50415 5.93333 6.46464Z" fill="#6D7583"/>
</svg>
