<svg width="16" height="16" viewBox="0 0 16 16" fill="none" xmlns="http://www.w3.org/2000/svg">
<path d="M6.4 0.92376C7.39008 0.352135 8.60992 0.352136 9.6 0.92376L13.3282 3.07624C14.3183 3.64786 14.9282 4.70427 14.9282 5.84752V10.1525C14.9282 11.2957 14.3183 12.3521 13.3282 12.9238L9.6 15.0762C8.60992 15.6479 7.39008 15.6479 6.4 15.0762L2.6718 12.9238C1.68171 12.3521 1.0718 11.2957 1.0718 10.1525V5.84752C1.0718 4.70427 1.68171 3.64786 2.6718 3.07624L6.4 0.92376Z" fill="#6D7583"/>
<path d="M7.6252 5.00257C7.75406 4.65433 8.24662 4.65432 8.37548 5.00257L9.01994 6.74418C9.06045 6.85367 9.14677 6.93999 9.25626 6.9805L10.9979 7.62496C11.3461 7.75382 11.3461 8.24638 10.9979 8.37524L9.25626 9.01969C9.14677 9.0602 9.06045 9.14653 9.01994 9.25602L8.37548 10.9976C8.24662 11.3459 7.75406 11.3459 7.6252 10.9976L6.98075 9.25602C6.94023 9.14653 6.85391 9.0602 6.74442 9.01969L5.00282 8.37524C4.65457 8.24638 4.65457 7.75382 5.00282 7.62496L6.74442 6.9805C6.85391 6.93999 6.94023 6.85367 6.98075 6.74418L7.6252 5.00257Z" fill="white"/>
</svg>
