<svg width="29" height="28" viewBox="0 0 29 28" fill="none" xmlns="http://www.w3.org/2000/svg">
  <path fill-rule="evenodd" clip-rule="evenodd"
    d="M15.933 8.3C15.933 9.01797 15.351 9.6 14.633 9.6C13.915 9.6 13.333 9.01797 13.333 8.3C13.333 7.58203 13.915 7 14.633 7C15.351 7 15.933 7.58203 15.933 8.3ZM15.933 13.8C15.933 14.518 15.351 15.1 14.633 15.1C13.915 15.1 13.333 14.518 13.333 13.8C13.333 13.082 13.915 12.5 14.633 12.5C15.351 12.5 15.933 13.082 15.933 13.8ZM14.633 20.6C15.351 20.6 15.933 20.018 15.933 19.3C15.933 18.582 15.351 18 14.633 18C13.915 18 13.333 18.582 13.333 19.3C13.333 20.018 13.915 20.6 14.633 20.6Z"
    fill="#969FAC" />
</svg>
