<svg width="41" height="40" viewBox="0 0 41 40" fill="none" xmlns="http://www.w3.org/2000/svg">
<path d="M16.6113 2.3094C19.0865 0.880338 22.1361 0.880338 24.6113 2.3094L33.9318 7.6906C36.407 9.11966 37.9318 11.7607 37.9318 14.6188V25.3812C37.9318 28.2393 36.407 30.8803 33.9318 32.3094L24.6113 37.6906C22.1361 39.1197 19.0865 39.1197 16.6113 37.6906L7.29082 32.3094C4.81561 30.8803 3.29082 28.2393 3.29082 25.3812V14.6188C3.29082 11.7607 4.81561 9.11966 7.29082 7.6906L16.6113 2.3094Z" fill="#FC5C17"/>
<path d="M16.8613 2.74241C19.1818 1.40267 22.0408 1.40267 24.3613 2.74241L33.6818 8.12361C36.0023 9.46336 37.4318 11.9393 37.4318 14.6188V25.3812C37.4318 28.0607 36.0023 30.5366 33.6818 31.8764L24.3613 37.2576C22.0408 38.5973 19.1818 38.5973 16.8613 37.2576L7.54082 31.8764C5.22031 30.5366 3.79082 28.0607 3.79082 25.3812V14.6188C3.79082 11.9393 5.22031 9.46336 7.54082 8.12361L16.8613 2.74241Z" stroke="black" stroke-opacity="0.05"/>
<path d="M19.6745 12.5062C19.9966 11.6356 21.228 11.6356 21.5502 12.5062L23.1613 16.8602C23.2626 17.1339 23.4784 17.3497 23.7521 17.451L28.1061 19.0621C28.9767 19.3843 28.9767 20.6157 28.1061 20.9379L23.7521 22.549C23.4784 22.6503 23.2626 22.8661 23.1613 23.1398L21.5502 27.4938C21.228 28.3644 19.9966 28.3644 19.6745 27.4938L18.0633 23.1398C17.962 22.8661 17.7462 22.6503 17.4725 22.549L13.1185 20.9379C12.2479 20.6157 12.2479 19.3843 13.1185 19.0621L17.4725 17.451C17.7462 17.3497 17.962 17.1339 18.0633 16.8602L19.6745 12.5062Z" fill="white"/>
<path d="M22.0191 12.3327C21.5358 11.0267 19.6888 11.0267 19.2055 12.3327L17.5944 16.6867C17.5438 16.8235 17.4358 16.9314 17.299 16.9821L12.945 18.5932C11.639 19.0765 11.639 20.9235 12.945 21.4068L17.299 23.0179C17.4358 23.0686 17.5438 23.1765 17.5944 23.3133L19.2055 27.6673C19.6888 28.9733 21.5358 28.9733 22.0191 27.6673L23.6302 23.3133C23.6809 23.1765 23.7888 23.0686 23.9256 23.0179L28.2796 21.4068C29.5856 20.9235 29.5856 19.0765 28.2796 18.5932L23.9256 16.9821C23.7888 16.9314 23.6809 16.8235 23.6302 16.6867L22.0191 12.3327Z" stroke="black" stroke-opacity="0.05"/>
</svg>
