<svg width="25" height="24" viewBox="0 0 25 24" fill="none" xmlns="http://www.w3.org/2000/svg">
  <path fill-rule="evenodd" clip-rule="evenodd"
    d="M18.9717 7.51938L13.3114 4.25143C12.8783 4.00135 12.3446 4.00135 11.9114 4.25143L6.25117 7.51938C5.81801 7.76947 5.55117 8.23164 5.55117 8.73182V15.2677C5.55117 15.7679 5.81801 16.2301 6.25117 16.4802L11.9114 19.7481C12.3446 19.9982 12.8783 19.9982 13.3114 19.7481L18.9717 16.4802C19.4048 16.2301 19.6717 15.7679 19.6717 15.2677V8.73182C19.6717 8.23164 19.4048 7.76947 18.9717 7.51938ZM14.1114 2.86579C13.1832 2.32989 12.0396 2.32989 11.1114 2.86579L5.45117 6.13374C4.52297 6.66964 3.95117 7.66002 3.95117 8.73182V15.2677C3.95117 16.3395 4.52297 17.3299 5.45117 17.8658L11.1114 21.1337C12.0396 21.6696 13.1832 21.6696 14.1114 21.1337L19.7717 17.8658C20.6999 17.3299 21.2717 16.3395 21.2717 15.2677V8.73182C21.2717 7.66002 20.6999 6.66964 19.7717 6.13374L14.1114 2.86579Z"
    fill="black" />
  <path
    d="M12.4234 8.50657C12.4879 8.33245 12.7341 8.33245 12.7986 8.50657L13.6594 10.8331C13.6797 10.8878 13.7229 10.931 13.7776 10.9512L16.1041 11.8121C16.2782 11.8765 16.2782 12.1228 16.1041 12.1872L13.7776 13.0481C13.7229 13.0684 13.6797 13.1115 13.6594 13.1663L12.7986 15.4928C12.7341 15.6669 12.4879 15.6669 12.4234 15.4928L11.5625 13.1663C11.5423 13.1115 11.4991 13.0684 11.4444 13.0481L9.1179 12.1872C8.94377 12.1228 8.94377 11.8765 9.1179 11.8121L11.4444 10.9512C11.4991 10.931 11.5423 10.8878 11.5625 10.8331L12.4234 8.50657Z"
    fill="black" />
</svg>
