<svg width="20" height="20" viewBox="0 0 20 20" fill="none" xmlns="http://www.w3.org/2000/svg">
<path d="M14.8303 15.5H5.16979C5.04675 15.5 4.92802 15.4546 4.83633 15.3726C4.74465 15.2905 4.68644 15.1775 4.67285 15.0552L5.45063 7.05522C5.44286 6.98533 5.44993 6.91458 5.47136 6.84761C5.49279 6.78064 5.52811 6.71894 5.57501 6.66654C5.62191 6.61414 5.67933 6.57223 5.74353 6.54353C5.80772 6.51483 5.87725 6.5 5.94757 6.5H14.2192C14.2895 6.5 14.359 6.51483 14.4232 6.54353C14.4874 6.57223 14.5449 6.61414 14.5918 6.66654C14.6387 6.71894 14.674 6.78064 14.6954 6.84761C14.7168 6.91458 14.7239 6.98533 14.7161 7.05522L15.3272 15.0552C15.3137 15.1775 15.2555 15.2905 15.1638 15.3726C15.0721 15.4546 14.9534 15.5 14.8303 15.5Z" stroke="#525965" stroke-width="1.2" stroke-linecap="round" stroke-linejoin="round"/>
<path d="M7.5 8.5V6.5C7.5 5.83696 7.76339 5.20107 8.23223 4.73223C8.70107 4.26339 9.33696 4 10 4C10.663 4 11.2989 4.26339 11.7678 4.73223C12.2366 5.20107 12.5 5.83696 12.5 6.5V8.5" stroke="#525965" stroke-width="1.2" stroke-linecap="round" stroke-linejoin="round"/>
</svg>
