<svg width="18" height="18" viewBox="0 0 18 18" fill="none" xmlns="http://www.w3.org/2000/svg">
<g clip-path="url(#clip0_6379_21175)">
<path d="M14.4349 15.1875H3.56687C3.42844 15.1875 3.29488 15.1365 3.19173 15.0441C3.08858 14.9518 3.0231 14.8247 3.00781 14.6871L3.88281 5.68712C3.87408 5.60849 3.88202 5.52891 3.90613 5.45356C3.93025 5.37822 3.96998 5.3088 4.02274 5.24986C4.0755 5.19091 4.1401 5.14375 4.21232 5.11147C4.28454 5.07919 4.36276 5.0625 4.44187 5.0625H13.7474C13.8266 5.0625 13.9048 5.07919 13.977 5.11147C14.0492 5.14375 14.1138 5.19091 14.1666 5.24986C14.2193 5.3088 14.2591 5.37822 14.2832 5.45356C14.3073 5.52891 14.3152 5.60849 14.3065 5.68712L14.994 14.6871C14.9787 14.8247 14.9132 14.9518 14.8101 15.0441C14.7069 15.1365 14.5734 15.1875 14.4349 15.1875Z" fill="white" fill-opacity="0.4" stroke="white" stroke-width="1.2" stroke-linecap="round" stroke-linejoin="round"/>
<path d="M6.1875 7.3125V5.0625C6.1875 4.31658 6.48382 3.60121 7.01126 3.07376C7.53871 2.54632 8.25408 2.25 9 2.25C9.74592 2.25 10.4613 2.54632 10.9887 3.07376C11.5162 3.60121 11.8125 4.31658 11.8125 5.0625V7.3125" stroke="white" stroke-width="1.2" stroke-linecap="round" stroke-linejoin="round"/>
</g>
<defs>
<clipPath id="clip0_6379_21175">
<rect width="18" height="18" fill="white"/>
</clipPath>
</defs>
</svg>
