<svg width="41" height="41" viewBox="0 0 41 41" fill="none" xmlns="http://www.w3.org/2000/svg">
<circle cx="20.5" cy="20.5" r="20" fill="#0091FF"/>
<path d="M20.5 12.5C19.9477 12.5 19.5 12.9477 19.5 13.5V19H13.5C12.9477 19 12.5 19.4477 12.5 20C12.5 20.5523 12.9477 21 13.5 21H19.5V27.5C19.5 28.0523 19.9477 28.5 20.5 28.5C21.0523 28.5 21.5 28.0523 21.5 27.5V21H27.5C28.0523 21 28.5 20.5523 28.5 20C28.5 19.4477 28.0523 19 27.5 19H21.5V13.5C21.5 12.9477 21.0523 12.5 20.5 12.5Z" fill="white"/>
</svg>
