<svg width="12" height="10" viewBox="0 0 12 10" fill="none" xmlns="http://www.w3.org/2000/svg">
    <path fill-rule="evenodd" clip-rule="evenodd"
        d="M7.43456 0C5.73632 0 4.36477 1.41045 4.36477 3.1439C4.36477 3.88439 4.65808 4.57447 5.07938 5.11095C3.78409 6.01002 2.94768 7.6069 2.94768 9.39247C2.94768 9.72513 3.21151 10 3.5433 10C3.87509 10 4.13892 9.72513 4.13892 9.39247C4.13892 7.73513 5.0508 6.35795 6.28013 5.81768C6.30057 5.8087 6.32029 5.79867 6.33926 5.78768C6.42033 5.74545 6.49282 5.68371 6.54954 5.60421C6.74196 5.33452 6.68555 4.95576 6.42074 4.75721C5.92552 4.38589 5.55601 3.75426 5.55601 3.1439C5.55601 2.07576 6.3999 1.21506 7.43456 1.21506C8.46922 1.21506 9.31311 2.07576 9.31311 3.1439C9.31311 3.68618 8.93476 4.33201 8.4735 4.72735C8.42353 4.77017 8.38212 4.81971 8.34956 4.87357C8.33087 4.90286 8.31446 4.93412 8.30063 4.96717C8.17265 5.27322 8.30973 5.6303 8.61279 5.76349C9.84779 6.30624 10.8143 7.74177 10.8143 9.39247C10.8143 9.72513 11.0781 10 11.4099 10C11.7417 10 12.0055 9.72513 12.0055 9.39247C12.0055 7.59553 11.1159 5.9576 9.8041 5.05104C10.1969 4.5274 10.5044 3.85196 10.5044 3.1439C10.5044 1.41045 9.1328 0 7.43456 0ZM4.2153 0.854938C4.17197 0.538464 3.88488 0.312813 3.56917 0.358239C2.04572 0.577433 1.26927 1.80608 1.21696 3.01262L1.21596 3.02894L1.21661 3.05373C1.22927 3.54394 1.33216 3.99395 1.57073 4.41971C1.68436 4.62251 1.8241 4.81141 1.98853 4.99131C0.731784 5.92567 0 7.69866 0 9.36072C0 9.67986 0.25314 9.94377 0.571739 9.94377C0.890338 9.94377 1.14348 9.67986 1.14348 9.36072C1.14348 8.5492 1.35511 7.74732 1.70946 7.08653C2.06444 6.42457 2.55746 5.91328 3.1136 5.66887C3.19941 5.63115 3.2716 5.57444 3.32736 5.50584C3.35303 5.48178 3.37681 5.45505 3.39832 5.42578C3.58654 5.16962 3.53736 4.80547 3.28593 4.61132C2.91629 4.32589 2.6964 4.07825 2.56354 3.84114C2.43732 3.61587 2.37112 3.36717 2.36031 3.04394C2.39978 2.30837 2.84873 1.63954 3.72893 1.5129C4.04395 1.46757 4.25854 1.17082 4.2153 0.854938Z"
        fill="#F94114" />
</svg>