<svg width="20" height="20" viewBox="0 0 20 20" fill="none" xmlns="http://www.w3.org/2000/svg">
<circle opacity="0.9" cx="10" cy="10" r="10" fill="white"/>
<path fill-rule="evenodd" clip-rule="evenodd" d="M13.869 6.14148C13.6028 5.87521 13.171 5.87521 12.9048 6.14148L10.0125 9.03372L7.11948 6.14065C6.85321 5.87439 6.42151 5.87439 6.15524 6.14065C5.88898 6.40692 5.88898 6.83862 6.15524 7.10489L9.04831 9.99795L6.15512 12.8911C5.88886 13.1574 5.88886 13.5891 6.15512 13.8554C6.42139 14.1216 6.85309 14.1216 7.11936 13.8554L10.0125 10.9622L12.9049 13.8545C13.1712 14.1208 13.6029 14.1208 13.8691 13.8545C14.1354 13.5883 14.1354 13.1566 13.8691 12.8903L10.9768 9.99795L13.869 7.10571C14.1353 6.83945 14.1353 6.40774 13.869 6.14148Z" fill="#262A32"/>
</svg>
