<svg width="21" height="20" viewBox="0 0 21 20" fill="none" xmlns="http://www.w3.org/2000/svg">
<path fill-rule="evenodd" clip-rule="evenodd" d="M6.227 3.11219C6.377 2.72883 6.7466 2.47656 7.15826 2.47656H13.8935C14.305 2.47656 14.6745 2.72863 14.8246 3.11176L15.4974 4.8291H17.7C18.6941 4.8291 19.5 5.63499 19.5 6.6291V15.6291C19.5 16.6232 18.6941 17.4291 17.7 17.4291H3.3C2.30589 17.4291 1.5 16.6232 1.5 15.6291V6.6291C1.5 5.63499 2.30589 4.8291 3.3 4.8291H5.55522L6.227 3.11219ZM14.5529 10.6789C14.5529 12.9157 12.7397 14.7289 10.5029 14.7289C8.26616 14.7289 6.45291 12.9157 6.45291 10.6789C6.45291 8.44215 8.26616 6.62891 10.5029 6.62891C12.7397 6.62891 14.5529 8.44215 14.5529 10.6789ZM12.9998 10.5C12.9998 11.8807 11.8805 13 10.4998 13C9.11907 13 7.99979 11.8807 7.99979 10.5C7.99979 9.11929 9.11907 8 10.4998 8C11.8805 8 12.9998 9.11929 12.9998 10.5Z" fill="#3451B2"/>
</svg>
