<svg width="16" height="16" viewBox="0 0 16 16" fill="none" xmlns="http://www.w3.org/2000/svg">
<path fill-rule="evenodd" clip-rule="evenodd" d="M8 1C4.95886 1 2.5 3.44837 2.5 6.46071C2.5 8.20124 3.45137 9.96006 4.53024 11.4008C5.61356 12.8475 6.84959 14.005 7.46685 14.5481C7.77287 14.8173 8.22713 14.8173 8.53315 14.5481C9.15041 14.005 10.3864 12.8475 11.4698 11.4008C12.5486 9.96006 13.5 8.20124 13.5 6.46071C13.5 3.44837 11.0411 1 8 1ZM6.10555 6.36706C6.10555 5.34611 6.95372 4.51847 7.99999 4.51847C9.04626 4.51847 9.89443 5.34611 9.89443 6.36706C9.89443 7.38801 9.04626 8.21565 7.99999 8.21565C6.95372 8.21565 6.10555 7.38801 6.10555 6.36706Z" fill="#717B98"/>
</svg>
