<svg width="28" height="28" viewBox="0 0 28 28" fill="none" xmlns="http://www.w3.org/2000/svg">
    <path fill-rule="evenodd" clip-rule="evenodd" d="M14 3C9.57652 3 6 6.3832 6 10.5457C6 12.9508 7.38382 15.3812 8.95308 17.372C10.5288 19.371 12.3267 20.9706 13.2245 21.721C13.6696 22.093 14.3304 22.093 14.7755 21.721C15.6733 20.9706 17.4712 19.371 19.0469 17.372C20.6162 15.3812 22 12.9508 22 10.5457C22 6.3832 18.4235 3 14 3ZM11.2444 10.4163C11.2444 9.00554 12.4781 7.86189 14 7.86189C15.5218 7.86189 16.7555 9.00554 16.7555 10.4163C16.7555 11.8271 15.5218 12.9707 14 12.9707C12.4781 12.9707 11.2444 11.8271 11.2444 10.4163Z" fill="#2E3137"/>
</svg>
