<svg width="20" height="21" viewBox="0 0 20 21" fill="none" xmlns="http://www.w3.org/2000/svg">
<path fill-rule="evenodd" clip-rule="evenodd" d="M10 20.0239C15.5228 20.0239 20 15.5468 20 10.0239C20 4.50108 15.5228 0.0239258 10 0.0239258C4.47715 0.0239258 0 4.50108 0 10.0239C0 15.5468 4.47715 20.0239 10 20.0239Z" fill="#969FAC"/>
<path fill-rule="evenodd" clip-rule="evenodd" d="M10 5.02393C7.78826 5.02393 6 6.80456 6 8.99535C6 10.2612 6.69191 11.5403 7.47654 12.5881C8.26441 13.6403 9.16334 14.4821 9.61225 14.8771C9.83481 15.0729 10.1652 15.0729 10.3877 14.8771C10.8367 14.4821 11.7356 13.6403 12.5235 12.5881C13.3081 11.5403 14 10.2612 14 8.99535C14 6.80456 12.2117 5.02393 10 5.02393ZM8.62222 8.92724C8.62222 8.18473 9.23907 7.58281 9.99999 7.58281C10.7609 7.58281 11.3778 8.18473 11.3778 8.92724C11.3778 9.66975 10.7609 10.2717 9.99999 10.2717C9.23907 10.2717 8.62222 9.66975 8.62222 8.92724Z" fill="white"/>
</svg>
