<svg width="17" height="16" viewBox="0 0 17 16" fill="none" xmlns="http://www.w3.org/2000/svg">
<path d="M2.50006 5.31888L2.5 12C2.5 13 3.11498 13.3845 4.32046 12.5976L5.7512 11.7472C6.0617 11.5632 6.57921 11.5442 6.90189 11.7155L10.0982 13.3845C10.4209 13.5494 10.9384 13.5368 11.2489 13.3527L13.8851 11.779C14.22 11.5759 14.5001 11.0809 14.5001 10.6748V4.50027C14.5001 3.5 14 3 13.0001 3.5L11.2489 4.24643C10.9384 4.43046 10.4209 4.4495 10.0982 4.27816L6.90189 2.61555C6.57921 2.45056 6.0617 2.46325 5.7512 2.64728L3.11498 4.22105C2.77403 4.42412 2.50006 4.91909 2.50006 5.31888Z" stroke="white" stroke-linecap="round" stroke-linejoin="round"/>
<path d="M6.5 2.5V11.5" stroke="white" stroke-linecap="round" stroke-linejoin="round"/>
<path d="M10.5 4.5V13.5" stroke="white" stroke-linecap="round" stroke-linejoin="round"/>
</svg>
