<svg width="16" height="16" viewBox="0 0 16 16" fill="none" xmlns="http://www.w3.org/2000/svg">
    <path
        d="M8 1.28366C9.53532 1.28372 11.0097 1.88606 12.0977 2.96009C13.1859 4.03452 13.7988 5.49396 13.7988 7.01673C13.7987 8.01334 13.4193 8.98875 12.903 9.86244C12.3838 10.741 11.7005 11.5601 11.0319 12.255C10.3615 12.9518 9.69302 13.5371 9.19336 13.9477C8.94315 14.1533 8.73404 14.3162 8.58659 14.4282C8.51304 14.4841 8.45455 14.5273 8.41406 14.5571C8.39386 14.5719 8.37753 14.5837 8.36654 14.5916C8.3613 14.5954 8.35718 14.5986 8.35417 14.6007C8.35273 14.6018 8.35117 14.6027 8.35026 14.6033L8.34896 14.6046H8.34831C8.16596 14.7346 7.92908 14.7509 7.73307 14.6535L7.65169 14.6046H7.65104L7.65039 14.6033C7.64952 14.6027 7.64794 14.6017 7.64648 14.6007C7.64347 14.5986 7.6388 14.5955 7.63346 14.5916C7.62252 14.5837 7.60666 14.5718 7.58659 14.5571C7.54615 14.5274 7.48761 14.4841 7.41406 14.4282C7.26663 14.3162 7.05687 14.1534 6.80664 13.9477C6.30706 13.5372 5.63902 12.9516 4.96875 12.255C4.30022 11.5602 3.61625 10.741 3.09701 9.86244C2.5807 8.98879 2.20129 8.01328 2.20117 7.01673C2.20117 5.49391 2.81406 4.03453 3.90234 2.96009C4.99035 1.88598 6.46463 1.28372 8 1.28366ZM8 2.48418C6.77796 2.48424 5.60725 2.96346 4.74544 3.81426C3.88393 4.66486 3.40169 5.81722 3.40169 7.01673C3.40181 7.71635 3.67204 8.47648 4.13021 9.25176C4.58571 10.0224 5.20228 10.7671 5.83333 11.423C6.46243 12.0768 7.09403 12.6303 7.56901 13.0206C7.73406 13.1563 7.8806 13.271 8 13.3637C8.11952 13.2709 8.26636 13.1565 8.43164 13.0206C8.90669 12.6302 9.53816 12.0769 10.1673 11.423C10.7984 10.767 11.4149 10.0225 11.8704 9.25176C12.3286 8.47651 12.5988 7.71632 12.599 7.01673C12.599 5.81723 12.116 4.66486 11.2546 3.81426C10.3927 2.96348 9.22203 2.48424 8 2.48418ZM8 3.72962C9.34449 3.72975 10.4347 4.82005 10.4349 6.16452C10.4349 7.50918 9.34463 8.59929 8 8.59942C6.65537 8.59929 5.5651 7.50918 5.5651 6.16452C5.56533 4.82005 6.65551 3.72975 8 3.72962ZM8 4.93015C7.31825 4.93027 6.76585 5.48279 6.76562 6.16452C6.76562 6.84644 7.31811 7.39942 8 7.39955C8.68189 7.39942 9.23503 6.84644 9.23503 6.16452C9.2348 5.48279 8.68175 4.93027 8 4.93015Z"
        fill="#969FAC" />
</svg>
