<svg width="29" height="28" viewBox="0 0 29 28" fill="none" xmlns="http://www.w3.org/2000/svg">
<g id="icon / plus_gray_28">
<path id="Union" fill-rule="evenodd" clip-rule="evenodd" d="M14.333 7C13.7807 7 13.333 7.44772 13.333 8V13H8.33301C7.78072 13 7.33301 13.4477 7.33301 14C7.33301 14.5523 7.78072 15 8.33301 15H13.333V20C13.333 20.5523 13.7807 21 14.333 21C14.8853 21 15.333 20.5523 15.333 20V15H20.333C20.8853 15 21.333 14.5523 21.333 14C21.333 13.4477 20.8853 13 20.333 13H15.333V8C15.333 7.44772 14.8853 7 14.333 7Z" fill="#969FAC"/>
</g>
</svg>
