<svg width="16" height="16" viewBox="0 0 16 16" fill="none" xmlns="http://www.w3.org/2000/svg">
<path d="M8 14C11.3137 14 14 11.3137 14 8C14 4.68629 11.3137 2 8 2C4.68629 2 2 4.68629 2 8C2 11.3137 4.68629 14 8 14Z" stroke="white" stroke-linecap="round" stroke-linejoin="round"/>
<path d="M4.83333 8.5H2.5C2.22667 8.5 2 8.27333 2 8C2 7.72667 2.22667 7.5 2.5 7.5H4.83333C5.10667 7.5 5.33333 7.72667 5.33333 8C5.33333 8.27333 5.10667 8.5 4.83333 8.5Z" fill="white"/>
<path d="M11.1667 7.5L13.5 7.5C13.7733 7.5 14 7.72667 14 8C14 8.27333 13.7733 8.5 13.5 8.5L11.1667 8.5C10.8933 8.5 10.6667 8.27333 10.6667 8C10.6667 7.72667 10.8933 7.5 11.1667 7.5Z" fill="white"/>
<path d="M7.5 4.83333L7.5 2.5C7.5 2.22667 7.72667 2 8 2C8.27333 2 8.5 2.22667 8.5 2.5L8.5 4.83333C8.5 5.10667 8.27333 5.33333 8 5.33333C7.72667 5.33333 7.5 5.10667 7.5 4.83333Z" fill="white"/>
<path d="M8.5 11.1667L8.5 13.5C8.5 13.7733 8.27333 14 8 14C7.72667 14 7.5 13.7733 7.5 13.5L7.5 11.1667C7.5 10.8933 7.72667 10.6667 8 10.6667C8.27333 10.6667 8.5 10.8933 8.5 11.1667Z" fill="white"/>
</svg>
