<svg width="44" height="44" viewBox="0 0 44 44" fill="none" xmlns="http://www.w3.org/2000/svg">
<circle cx="22" cy="22" r="21.5" fill="white" stroke="#DFE3E6"/>
<path fill-rule="evenodd" clip-rule="evenodd" d="M29.4163 20.875H27.044C26.5781 20.875 26.2003 21.2528 26.2003 21.7187C26.2003 22.1847 26.5781 22.5625 27.044 22.5625H29.4793C29.2054 26.2561 26.2563 29.2052 22.5627 29.4791V27.044C22.5627 26.578 22.185 26.2003 21.719 26.2003C21.253 26.2003 20.8752 26.578 20.8752 27.044V29.416C17.4484 28.9006 14.7809 26.0666 14.521 22.5625H16.9562C17.4222 22.5625 17.8 22.1847 17.8 21.7187C17.8 21.2528 17.4222 20.875 16.9562 20.875H14.5841C15.0716 17.6335 17.6337 15.0714 20.8752 14.5838V16.9562C20.8752 17.4222 21.253 17.8 21.719 17.8C22.185 17.8 22.5627 17.4222 22.5627 16.9562V14.5208C26.0668 14.7806 28.9008 17.4482 29.4163 20.875ZM30.9911 21.594C30.7788 16.8119 26.8347 13 22.0002 13C21.9282 13 21.8564 13.0008 21.7848 13.0025C21.7631 13.0009 21.7411 13 21.719 13C21.6772 13 21.6361 13.003 21.5959 13.0089C16.9478 13.2144 13.216 16.9455 13.0093 21.5932C13.0032 21.6342 13 21.6761 13 21.7187C13 21.7417 13.0009 21.7645 13.0027 21.787C13.0011 21.8578 13.0002 21.9287 13.0002 21.9999C13.0002 26.8336 16.8109 30.7773 21.5919 30.9907C21.6333 30.997 21.6758 31.0002 21.719 31.0002C21.7425 31.0002 21.7658 30.9993 21.7888 30.9974C21.8591 30.999 21.9295 30.9998 22.0002 30.9998C26.9707 30.9998 31.0001 26.9704 31.0001 21.9999C31.0001 21.9285 30.9993 21.8572 30.9976 21.7862C30.9994 21.7639 31.0002 21.7414 31.0002 21.7187C31.0002 21.6764 30.9971 21.6347 30.9911 21.594Z" fill="#525965"/>
</svg>
