<svg width="24" height="24" viewBox="0 0 24 24" fill="none" xmlns="http://www.w3.org/2000/svg">
<circle cx="12" cy="12" r="9" stroke="#525965" stroke-width="1.2"/>
<path fill-rule="evenodd" clip-rule="evenodd" d="M11.8004 14.9918C12.3297 14.9918 12.7476 15.3963 12.7476 15.9122C12.7476 16.4282 12.3297 16.8394 11.8004 16.8394C11.2722 16.8394 10.8476 16.4282 10.8476 15.9122C10.8476 15.3963 11.2722 14.9918 11.8004 14.9918ZM11.0904 13.3892V13.2782C11.0904 12.5512 11.4544 12.0712 12.1864 11.6372C12.9134 11.1982 13.1594 10.8752 13.1594 10.3132C13.1594 9.6742 12.6614 9.2292 11.9404 9.2292C11.2904 9.2292 10.8564 9.5512 10.6684 10.1432C10.5404 10.5062 10.3234 10.6532 10.0014 10.6532C9.59645 10.6532 9.35645 10.4072 9.35645 10.0142C9.35645 9.7622 9.40945 9.5452 9.52045 9.3232C9.88345 8.5262 10.7974 8.0332 12.0044 8.0332C13.5924 8.0332 14.6824 8.9362 14.6824 10.2602C14.6824 11.1572 14.2374 11.7722 13.4404 12.2462C12.6724 12.6922 12.4854 12.9732 12.4384 13.5062C12.3794 13.8932 12.1804 14.1332 11.7824 14.1332C11.3364 14.1332 11.0904 13.8172 11.0904 13.3892Z" fill="#525965"/>
</svg>
