<svg width="20" height="20" viewBox="0 0 20 20" fill="none" xmlns="http://www.w3.org/2000/svg">
<path fill-rule="evenodd" clip-rule="evenodd" d="M17.5819 3.6349C17.251 3.3947 16.7886 3.46473 16.5437 3.79213L12.0468 9.8035C11.3966 10.5142 11 11.4604 11 12.4992C11 14.7065 12.7909 16.4959 15 16.4959C17.2091 16.4959 19 14.7065 19 12.4992C19 10.2919 17.2091 8.5025 15 8.5025C14.9622 8.5025 14.9244 8.50303 14.8869 8.50407L17.7414 4.68812C17.9914 4.35402 17.9196 3.88001 17.5819 3.6349ZM9 12.4992C9 14.7065 7.20914 16.4959 5 16.4959C2.79086 16.4959 1 14.7065 1 12.4992C1 11.4604 1.39662 10.5142 2.04681 9.8035L6.54369 3.79213C6.7886 3.46473 7.25104 3.3947 7.58192 3.6349C7.91957 3.88001 7.99136 4.35402 7.74143 4.68812L4.88686 8.50407C4.92444 8.50303 4.96216 8.5025 5 8.5025C7.20914 8.5025 9 10.2919 9 12.4992Z" fill="#B7BEC8"/>
</svg>
