<svg width="20" height="20" viewBox="0 0 20 20" fill="none" xmlns="http://www.w3.org/2000/svg">
<circle cx="10" cy="10" r="8.5" stroke="#D7DBDF"/>
<path d="M12.6169 7.38255C11.9448 6.71086 11.0224 6.29395 9.998 6.29395C7.94922 6.29395 6.29443 7.95233 6.29443 9.99983C6.29443 12.0473 7.94922 13.7057 9.998 13.7057C11.7269 13.7057 13.1685 12.5245 13.581 10.9263H12.6169C12.2368 12.0056 11.2078 12.7792 9.998 12.7792C8.46373 12.7792 7.21685 11.5331 7.21685 9.99983C7.21685 8.46652 8.46373 7.22042 9.998 7.22042C10.7674 7.22042 11.4535 7.54005 11.9541 8.04497L10.4615 9.53659H13.7062V6.29395L12.6169 7.38255Z" fill="#525965"/>
</svg>
