<svg width="16" height="16" viewBox="0 0 16 16" fill="none" xmlns="http://www.w3.org/2000/svg">
    <path
        d="M8.00049 1.67749C10.7752 1.67765 13.0247 3.92719 13.0249 6.7019V10.2634C13.4347 10.3505 13.7425 10.7144 13.7427 11.1501V11.1892C13.7426 11.6899 13.3362 12.0955 12.8354 12.0955H10.5845C10.3961 13.3556 9.31303 14.3228 8.00049 14.323C6.68785 14.3229 5.60395 13.3557 5.41553 12.0955H3.16455C2.6638 12.0955 2.25744 11.6899 2.25732 11.1892V11.1501C2.25747 10.714 2.56571 10.3501 2.97607 10.2634V6.7019C2.9763 3.92709 5.22562 1.67749 8.00049 1.67749ZM6.50146 12.0955C6.67458 12.7628 7.27913 13.2565 8.00049 13.2566C8.72182 13.2564 9.32661 12.7628 9.49951 12.0955H6.50146ZM8.00049 2.7439C5.81484 2.7439 4.04271 4.51608 4.04248 6.7019V11.0291H11.9585V6.7019C11.9583 4.5844 10.2948 2.85566 8.20361 2.74976L8.00049 2.7439Z"
        fill="#2E3137" />
    <path
        d="M8.00016 1.67749C10.7751 1.67749 13.0248 3.9273 13.0249 6.70223V10.2634C13.4347 10.3506 13.7424 10.715 13.7424 11.1508V11.1892C13.7423 11.6899 13.3361 12.096 12.8354 12.0961H10.5881C10.3996 13.3562 9.3127 14.3225 8.00016 14.3227C6.68763 14.3225 5.60069 13.3562 5.41227 12.0961H3.16423C2.66345 12.0961 2.25739 11.69 2.25732 11.1892V11.1508C2.25732 10.7147 2.56516 10.3502 2.97542 10.2634V6.70223C2.97551 3.9273 5.22521 1.67749 8.00016 1.67749ZM6.50146 12.0961C6.67471 12.763 7.2791 13.2555 8.00016 13.2556C8.72123 13.2555 9.32554 12.763 9.49886 12.0961H6.50146ZM8.00016 2.7439C5.81436 2.7439 4.04192 4.51636 4.04183 6.70223V11.0297H11.9585V6.70223C11.9584 4.5847 10.2951 2.85517 8.20394 2.7491L8.00016 2.7439Z"
        fill="#2E3137" />
</svg>
