<svg width="16" height="16" viewBox="0 0 16 16" fill="none" xmlns="http://www.w3.org/2000/svg">
<g id="img / icon / reservation_detail_location">
<g id="Group 3466660">
<path id="Vector" d="M8.01175 8.76668C9.23283 8.76668 10.2227 7.77723 10.2227 6.55668C10.2227 5.33613 9.23283 4.34668 8.01175 4.34668C6.79067 4.34668 5.80078 5.33613 5.80078 6.55668C5.80078 7.77723 6.79067 8.76668 8.01175 8.76668Z" stroke="#2E3137" stroke-linecap="round" stroke-linejoin="round"/>
<path id="Vector_2" d="M13.7345 6.26599C13.7345 10.8285 8.00006 14.3772 8.00006 14.3772C8.00006 14.3772 2.26562 10.8285 2.26562 6.26599C2.26562 4.92148 2.86979 3.63203 3.9452 2.68132C5.02062 1.73061 6.4792 1.1965 8.00006 1.1965C9.52093 1.1965 10.9795 1.73061 12.0549 2.68132C13.1303 3.63203 13.7345 4.92148 13.7345 6.26599V6.26599Z" stroke="#2E3137" stroke-linecap="round" stroke-linejoin="round"/>
</g>
</g>
</svg>
