<svg width="16" height="16" viewBox="0 0 16 16" fill="none" xmlns="http://www.w3.org/2000/svg">
<g id="img / icon / reservation_detail_tel">
<path id="Vector" d="M5.7643 7.59564C6.14865 8.72537 6.91914 9.70592 7.95238 10.3802C8.02809 10.4288 8.1155 10.4581 8.20603 10.4651C8.29655 10.4721 8.38706 10.4566 8.46864 10.4201L10.2566 9.63291C10.3357 9.5981 10.423 9.58271 10.5106 9.58813C10.5982 9.59356 10.6833 9.61963 10.7583 9.66399L13.6283 11.3624C13.7258 11.4198 13.8016 11.5053 13.8442 11.6063C13.8868 11.7073 13.894 11.8181 13.8645 11.9222C13.6607 12.6237 13.1934 13.2266 12.55 13.6179C11.9067 14.0092 10.5615 14.3474 9.79957 14.2333C7.44624 13.8808 5.89191 12.4719 4.46399 10.6461C3.03607 8.8204 2.42149 6.54221 2.75543 4.31274C2.8636 3.59091 3.24578 2.93544 3.83041 2.46907C4.41505 2.00269 5.16205 1.75739 5.93155 1.7791C6.04544 1.78303 6.15549 1.82199 6.24511 1.89011C6.33473 1.95823 6.39907 2.05181 6.42844 2.15676L7.30521 5.25064C7.32789 5.33067 7.32947 5.41446 7.30979 5.49457C7.29012 5.57468 7.24981 5.6486 7.19246 5.70977L5.87168 7.11839C5.81169 7.18167 5.77027 7.25891 5.75144 7.34256C5.73262 7.42621 5.73705 7.51341 5.7643 7.59564Z" stroke="#2E3137" stroke-linecap="round" stroke-linejoin="round"/>
</g>
</svg>
