<svg width="28" height="29" viewBox="0 0 28 29" fill="none" xmlns="http://www.w3.org/2000/svg">
<path d="M19.4697 4.25C21.4195 4.25 23 5.79432 23 7.69922V21.3008C23 23.2057 21.4195 24.75 19.4697 24.75H8.53027C6.58045 24.75 5 23.2057 5 21.3008V7.69922C5 5.79432 6.58045 4.25 8.53027 4.25H19.4697ZM9.5 12.4502C8.92019 12.4503 8.44922 12.9202 8.44922 13.5C8.44932 14.0797 8.92026 14.5497 9.5 14.5498H13.4893C14.0687 14.5493 14.539 14.0795 14.5391 13.5C14.5391 12.9204 14.0687 12.4507 13.4893 12.4502H9.5ZM9.5 8.13184C8.92019 8.13194 8.44922 8.60181 8.44922 9.18164C8.44932 9.76138 8.92026 10.2313 9.5 10.2314H16.7998C17.3794 10.2312 17.8505 9.76129 17.8506 9.18164C17.8506 8.6019 17.3795 8.1321 16.7998 8.13184H9.5Z" fill="#B7BEC8"/>
</svg>
