<svg width="28" height="28" viewBox="0 0 28 28" fill="none" xmlns="http://www.w3.org/2000/svg">
<path d="M19.4697 3.75C21.4195 3.75 23 5.29432 23 7.19922V20.8008C23 22.7057 21.4195 24.25 19.4697 24.25H8.53027C6.58045 24.25 5 22.7057 5 20.8008V7.19922C5 5.29432 6.58045 3.75 8.53027 3.75H19.4697ZM9.5 11.9502C8.92019 11.9503 8.44922 12.4202 8.44922 13C8.44932 13.5797 8.92026 14.0497 9.5 14.0498H13.4893C14.0687 14.0493 14.539 13.5795 14.5391 13C14.5391 12.4204 14.0687 11.9507 13.4893 11.9502H9.5ZM9.5 7.63184C8.92019 7.63194 8.44922 8.10181 8.44922 8.68164C8.44932 9.26138 8.92026 9.73134 9.5 9.73145H16.7998C17.3794 9.73118 17.8505 9.26129 17.8506 8.68164C17.8506 8.1019 17.3795 7.6321 16.7998 7.63184H9.5Z" fill="#2E3137"/>
</svg>
