<svg width="28" height="28" viewBox="0 0 28 28" fill="none" xmlns="http://www.w3.org/2000/svg">
<ellipse cx="14" cy="14" rx="14" ry="14" transform="rotate(90 14 14)" fill="black" fill-opacity="0.9"/>
<path fill-rule="evenodd" clip-rule="evenodd" d="M11.0861 19.0435C11.6218 19.3528 11.8367 19.9469 11.7507 20.6311C12.4564 20.8703 13.2125 21 13.999 21C14.7713 21 15.5144 20.8749 16.2091 20.6439C16.1369 19.9422 16.3671 19.3558 16.9094 19.0427C17.443 18.7346 18.1388 18.8189 18.6946 19.1916C19.7741 18.2145 20.5476 16.9055 20.8537 15.4255C20.2022 15.1721 19.8224 14.64 19.8224 13.9999C19.8224 13.3566 20.186 12.7526 20.8354 12.4888C20.5095 11.0077 19.7146 9.70252 18.6143 8.73688C18.0643 9.15525 17.44 9.26169 16.9108 8.95619C16.3959 8.6589 16.1699 8.01357 16.2289 7.36267C15.5285 7.12746 14.7786 7 13.999 7C13.2205 7 12.4717 7.12709 11.7722 7.36164C11.8532 8.01502 11.6054 8.65731 11.0876 8.95629C10.5709 9.25459 9.89087 9.15158 9.34734 8.76901C8.24515 9.74984 7.45501 11.0738 7.1445 12.5732C7.73405 12.853 8.17502 13.4135 8.17502 13.9989C8.17502 14.5946 7.76988 15.1315 7.14062 15.4079C7.447 16.9083 8.23338 18.234 9.33236 19.2176C9.89778 18.8191 10.5534 18.7359 11.0861 19.0435ZM9.52974 18.0033C10.1844 17.7794 10.9171 17.7912 11.5861 18.1774C12.269 18.5717 12.6183 19.2 12.7287 19.8655C13.1375 19.9535 13.5624 20 13.999 20C14.4263 20 14.8424 19.9555 15.2431 19.8711C15.3636 19.1961 15.7255 18.5715 16.4094 18.1766C17.0733 17.7933 17.8208 17.7788 18.4809 17.9891C19.0192 17.3849 19.4365 16.6719 19.6962 15.8881C19.1533 15.4279 18.8224 14.7666 18.8224 13.9999C18.8224 13.2675 19.1222 12.555 19.6761 12.0523C19.4087 11.2727 18.9847 10.5648 18.441 9.96649C17.8075 10.2041 17.0884 10.2134 16.4108 9.82221C15.7414 9.43574 15.3971 8.789 15.2741 8.13556C14.8638 8.04684 14.4373 8 13.999 8C13.5655 8 13.1436 8.04581 12.7374 8.13265C12.6129 8.80195 12.247 9.44163 11.5876 9.82231C10.9256 10.2045 10.188 10.1995 9.54448 9.98028C8.98486 10.5999 8.55329 11.3361 8.29025 12.1472C8.7986 12.6012 9.17502 13.2453 9.17502 13.9989C9.17502 14.7574 8.81644 15.4003 8.2905 15.8536C8.55125 16.6572 8.97745 17.3873 9.52974 18.0033Z" fill="white"/>
<path fill-rule="evenodd" clip-rule="evenodd" d="M14 15.5C14.8284 15.5 15.5 14.8284 15.5 14C15.5 13.1716 14.8284 12.5 14 12.5C13.1716 12.5 12.5 13.1716 12.5 14C12.5 14.8284 13.1716 15.5 14 15.5ZM14 16.5C15.3807 16.5 16.5 15.3807 16.5 14C16.5 12.6193 15.3807 11.5 14 11.5C12.6193 11.5 11.5 12.6193 11.5 14C11.5 15.3807 12.6193 16.5 14 16.5Z" fill="white"/>
</svg>
