<svg width="40" height="40" viewBox="0 0 40 40" fill="none" xmlns="http://www.w3.org/2000/svg">
<path d="M40 20C40 31.0457 31.0457 40 20 40C8.9543 40 0 31.0457 0 20C0 8.9543 8.9543 0 20 0C31.0457 0 40 8.9543 40 20Z" fill="white"/>
<path d="M39 20C39 9.50659 30.4934 1 20 1C9.50659 1 1 9.50659 1 20C1 30.4934 9.50659 39 20 39V40C8.9543 40 0 31.0457 0 20C0 8.9543 8.9543 0 20 0C31.0457 0 40 8.9543 40 20C40 31.0457 31.0457 40 20 40V39C30.4934 39 39 30.4934 39 20Z" fill="#DFE3E6"/>
<path d="M26.9041 18.827C27.3874 18.827 27.779 19.2194 27.779 19.7026V26.5321C27.7789 27.5558 26.9445 28.3745 25.9292 28.3745H14.0705C13.0552 28.3745 12.2208 27.5558 12.2207 26.5321V19.745L12.2248 19.6562C12.2694 19.2148 12.6424 18.8701 13.0955 18.8701C13.5487 18.8701 13.9217 19.2148 13.9663 19.6562L13.9704 19.745V26.5321C13.9704 26.5768 14.0091 26.6248 14.0705 26.6248H25.9292C25.9905 26.6248 26.0292 26.5768 26.0293 26.5321V19.7026L26.0334 19.6131C26.078 19.1718 26.451 18.827 26.9041 18.827ZM19.4001 11.8812C19.7417 11.5396 20.2954 11.5396 20.637 11.8812L24.2381 15.4823C24.5798 15.8239 24.5797 16.3775 24.2381 16.7192C23.8964 17.0608 23.3428 17.0609 23.0011 16.7192L20.8747 14.5928V21.4849C20.8747 21.9681 20.4831 22.3597 19.9998 22.3597C19.5166 22.3597 19.125 21.9681 19.125 21.4849V14.6302L17.036 16.7192C16.6943 17.0609 16.1407 17.0608 15.799 16.7192C15.4574 16.3775 15.4573 15.8239 15.799 15.4823L19.4001 11.8812Z" fill="#969FAC"/>
<path d="M40 20C40 31.0457 31.0457 40 20 40C8.9543 40 0 31.0457 0 20C0 8.9543 8.9543 0 20 0C31.0457 0 40 8.9543 40 20Z" fill="white"/>
<path d="M39 20C39 9.50659 30.4934 1 20 1C9.50659 1 1 9.50659 1 20C1 30.4934 9.50659 39 20 39V40C8.9543 40 0 31.0457 0 20C0 8.9543 8.9543 0 20 0C31.0457 0 40 8.9543 40 20C40 31.0457 31.0457 40 20 40V39C30.4934 39 39 30.4934 39 20Z" fill="#DFE3E6"/>
<path d="M26.9043 18.8271C27.3875 18.8271 27.7791 19.2195 27.7791 19.7028V26.5322C27.7791 27.5559 26.9446 28.3747 25.9294 28.3747H14.0706C13.0554 28.3747 12.2209 27.5559 12.2209 26.5322V19.7451L12.2249 19.6564C12.2696 19.215 12.6425 18.8703 13.0957 18.8703C13.5489 18.8703 13.9218 19.215 13.9665 19.6564L13.9705 19.7451V26.5322C13.9706 26.5769 14.0093 26.625 14.0706 26.625H25.9294C25.9907 26.625 26.0294 26.5769 26.0295 26.5322V19.7028L26.0335 19.6133C26.0782 19.1719 26.4512 18.8272 26.9043 18.8271ZM19.4002 11.8813C19.7419 11.5398 20.2955 11.5398 20.6372 11.8813L24.2383 15.4824C24.58 15.8241 24.5799 16.3777 24.2383 16.7194C23.8966 17.061 23.343 17.0611 23.0013 16.7194L20.8748 14.5929V21.485C20.8748 21.9683 20.4832 22.3599 20 22.3599C19.5168 22.3598 19.1252 21.9682 19.1252 21.485V14.6304L17.0361 16.7194C16.6945 17.0611 16.1409 17.061 15.7992 16.7194C15.4575 16.3777 15.4575 15.8241 15.7992 15.4824L19.4002 11.8813Z" fill="#969FAC"/>
</svg>
