<svg width="74" height="52" viewBox="0 0 74 52" fill="none" xmlns="http://www.w3.org/2000/svg">
<path d="M41.8592 23.9532C42.7066 25.3665 44.2534 26.3124 46.0212 26.3124C48.6994 26.3124 50.8705 24.1413 50.8705 21.4631C50.8705 18.7849 48.6994 16.6138 46.0212 16.6138C44.9286 16.6138 43.9204 16.9751 43.1096 17.5848C42.7064 17.8557 42.3924 18.121 42.3924 18.121C40.3364 19.8576 39.2708 21.2009 38.2878 23.9532H41.8592Z" fill="#F4A836"/>
<path d="M32.9419 17.5848C33.345 17.8557 33.659 18.121 33.659 18.121C35.7151 19.8576 36.7806 21.2009 37.7636 23.9532H34.1922C33.3449 25.3665 31.798 26.3124 30.0303 26.3124C27.3521 26.3124 25.181 24.1413 25.181 21.4631C25.181 18.7849 27.3521 16.6138 30.0303 16.6138C31.1229 16.6138 32.131 16.9751 32.9419 17.5848Z" fill="#F4A836"/>
<rect x="19.5454" y="23.4286" width="36.9595" height="28.5715" rx="4.19397" fill="url(#paint0_linear_7024_25654)"/>
<path d="M34.3553 21.053C34.3553 19.8949 35.2942 18.9561 36.4523 18.9561H39.5978C40.756 18.9561 41.6948 19.8949 41.6948 21.053V52H34.3553V21.053Z" fill="#FFC630"/>
<path d="M64.2103 4.62329C63.761 4.62329 63.5747 4.98493 63.509 5.5L63.0483 8.59393C62.9091 10.4615 61.5802 11.8233 59.5853 12.1456L57.8767 12.5247C57.3726 12.6233 57 12.8425 57 13.2261C57 13.6425 57.4164 13.8288 57.8767 13.9274L59.5853 14.3066C61.4049 14.6726 62.8514 16.0535 63.0483 17.8582L63.509 21C63.5638 21.5041 63.8596 21.8767 64.2103 21.8767C64.6048 21.8767 64.8459 21.5151 64.9117 21L65.2716 17.9247C65.4158 15.9877 66.9281 14.6288 68.8144 14.2688L70.6233 13.9274C71.1164 13.8398 71.5 13.6425 71.5 13.2261C71.5 12.8096 71.1164 12.6343 70.6233 12.5247L68.7536 12.1442C66.8624 11.7795 65.3674 10.4072 65.2724 8.49611L64.9117 5.5C64.835 4.99589 64.6596 4.62329 64.2103 4.62329Z" fill="#FFC630"/>
<path d="M7.50626 14.3057C7.31532 14.3057 7.23615 14.4593 7.20821 14.6782L7.01245 16.305C6.9533 17.0986 6.38858 17.6773 5.54083 17.8143L4.67481 17.9754C4.46058 18.0173 4.30225 18.1104 4.30225 18.2734C4.30225 18.4504 4.47921 18.5296 4.67481 18.5715L5.54083 18.7326C6.31407 18.8881 6.92879 19.4749 7.01245 20.2419L7.20821 21.8686C7.23149 22.0828 7.35723 22.2412 7.50626 22.2412C7.67391 22.2412 7.77636 22.0875 7.80431 21.8686L7.95727 20.2701C8.01853 19.447 8.66119 18.8695 9.46279 18.7165L10.3377 18.5715C10.5473 18.5342 10.7103 18.4504 10.7103 18.2734C10.7103 18.0965 10.5473 18.0219 10.3377 17.9754L9.43692 17.8137C8.63325 17.6587 7.99794 17.0756 7.95758 16.2634L7.80431 14.6782C7.77171 14.464 7.69719 14.3057 7.50626 14.3057Z" fill="#F5AB2B"/>
<path d="M11.7252 23.2412C11.4467 23.2412 11.3313 23.4653 11.2905 23.7845L11.005 26.1568C10.9188 27.3141 10.0952 28.1581 8.85897 28.3578L7.59604 28.5928C7.28364 28.6539 7.05273 28.7897 7.05273 29.0274C7.05273 29.2855 7.3108 29.4009 7.59604 29.4621L8.85897 29.697C9.98658 29.9239 10.883 30.7796 11.005 31.898L11.2905 34.2703C11.3245 34.5827 11.5078 34.8136 11.7252 34.8136C11.9696 34.8136 12.1191 34.5895 12.1598 34.2703L12.3829 31.9392C12.4722 30.7388 13.4094 29.8967 14.5784 29.6736L15.8543 29.4621C16.1599 29.4077 16.3976 29.2855 16.3976 29.0274C16.3976 28.7693 16.1599 28.6607 15.8543 28.5928L14.5407 28.357C13.3687 28.131 12.4422 27.2806 12.3833 26.0962L12.1598 23.7845C12.1123 23.4721 12.0036 23.2412 11.7252 23.2412Z" fill="#FFC630"/>
<defs>
<linearGradient id="paint0_linear_7024_25654" x1="56.5049" y1="35.8795" x2="19.5454" y2="36.5348" gradientUnits="userSpaceOnUse">
<stop stop-color="#F7254B"/>
<stop offset="1" stop-color="#F84429"/>
</linearGradient>
</defs>
</svg>
