<svg width="74" height="68" viewBox="0 0 74 68" fill="none" xmlns="http://www.w3.org/2000/svg">
<path fill-rule="evenodd" clip-rule="evenodd" d="M2.70039 7.7002C1.98242 7.7002 1.40039 8.28223 1.40039 9.0002C1.40039 9.71817 1.98242 10.3002 2.70039 10.3002H7.16893C7.34821 10.3002 7.52261 10.3586 7.66574 10.4666C7.80887 10.5745 7.91293 10.7262 7.96218 10.8986L10.5498 19.9551C10.5547 19.9738 10.56 19.9924 10.5657 20.0108L17.5697 44.5249C17.901 45.6846 18.6011 46.7047 19.564 47.431C20.5268 48.1573 21.7001 48.5502 22.9062 48.5502H48.3696C49.5757 48.5502 50.7489 48.1573 51.7118 47.431C52.6747 46.7047 53.3747 45.6846 53.7061 44.5249L60.7182 19.9823C60.8303 19.5901 60.7518 19.168 60.5061 18.8423C60.2604 18.5167 59.8762 18.3252 59.4683 18.3252H12.7881L10.4621 10.1843C10.2577 9.46863 9.82565 8.83906 9.23145 8.39085C8.63725 7.94265 7.91322 7.7002 7.16893 7.7002H2.70039ZM20.0697 43.8106L13.531 20.9252H57.7448L51.2061 43.8106C51.03 44.427 50.6579 44.9693 50.1461 45.3553C49.6343 45.7414 49.0107 45.9502 48.3696 45.9502H22.9062C22.2651 45.9502 21.6415 45.7414 21.1297 45.3553C20.6179 44.9693 20.2458 44.427 20.0697 43.8106ZM21.8254 59.5252C22.7367 59.5252 23.4754 58.7865 23.4754 57.8752C23.4754 56.9639 22.7367 56.2252 21.8254 56.2252C20.9141 56.2252 20.1754 56.9639 20.1754 57.8752C20.1754 58.7865 20.9141 59.5252 21.8254 59.5252ZM26.0754 57.8752C26.0754 60.2224 24.1726 62.1252 21.8254 62.1252C19.4782 62.1252 17.5754 60.2224 17.5754 57.8752C17.5754 55.528 19.4782 53.6252 21.8254 53.6252C24.1726 53.6252 26.0754 55.528 26.0754 57.8752ZM49.4504 59.5252C50.3617 59.5252 51.1004 58.7865 51.1004 57.8752C51.1004 56.9639 50.3617 56.2252 49.4504 56.2252C48.5391 56.2252 47.8004 56.9639 47.8004 57.8752C47.8004 58.7865 48.5391 59.5252 49.4504 59.5252ZM53.7004 57.8752C53.7004 60.2224 51.7976 62.1252 49.4504 62.1252C47.1032 62.1252 45.2004 60.2224 45.2004 57.8752C45.2004 55.528 47.1032 53.6252 49.4504 53.6252C51.7976 53.6252 53.7004 55.528 53.7004 57.8752Z" fill="#DFE4EB"/>
<circle cx="58.5752" cy="19.5" r="14" fill="#DFE4EB"/>
<path fill-rule="evenodd" clip-rule="evenodd" d="M63.2065 17.1319C63.7142 16.6242 63.7142 15.8011 63.2065 15.2934C62.6988 14.7857 61.8757 14.7857 61.368 15.2934L58.5751 18.0863L55.7823 15.2935C55.2746 14.7858 54.4515 14.7858 53.9438 15.2935C53.4361 15.8012 53.4361 16.6243 53.9438 17.132L56.7366 19.9248L53.9434 22.718C53.4357 23.2257 53.4357 24.0488 53.9434 24.5565C54.4511 25.0642 55.2742 25.0642 55.7819 24.5565L58.5751 21.7633L61.3684 24.5566C61.8761 25.0643 62.6992 25.0643 63.2069 24.5566C63.7146 24.0489 63.7146 23.2258 63.2069 22.7181L60.4136 19.9248L63.2065 17.1319Z" fill="white"/>
</svg>
