<svg width="25" height="24" viewBox="0 0 25 24" fill="none" xmlns="http://www.w3.org/2000/svg">
<g clip-path="url(#clip0_19092_55895)">
<path d="M12.8979 1.69336C18.6969 1.69336 23.3979 5.90176 23.3979 11.093C23.3979 13.1654 22.6425 15.0764 21.3711 16.6292C20.9055 17.198 20.6925 17.9318 20.8329 18.653L21.2637 21.3532C21.3823 22 21.0698 22.3047 20.3979 22L17.0523 20.4224C16.5597 20.1662 15.9927 20.0828 15.4509 20.2058C14.6337 20.3912 13.7793 20.4926 12.8979 20.4926C7.09895 20.4926 2.39795 16.2842 2.39795 11.093C2.39795 5.90176 7.09895 1.69336 12.8979 1.69336Z" fill="#DFE3E6"/>
<path d="M8.5504 10.2178C9.1996 10.2178 9.7252 10.744 9.7252 11.3926C9.7252 11.704 9.6016 12.0028 9.3808 12.2236C9.1606 12.4438 8.8618 12.568 8.5498 12.568C7.9006 12.568 7.375 12.0418 7.375 11.3932C7.375 10.7446 7.9012 10.2184 8.5498 10.2184L8.5504 10.2178Z" fill="#525965"/>
<path d="M17.2456 12.5674C17.8944 12.5674 18.4204 12.0414 18.4204 11.3926C18.4204 10.7437 17.8944 10.2178 17.2456 10.2178C16.5968 10.2178 16.0708 10.7437 16.0708 11.3926C16.0708 12.0414 16.5968 12.5674 17.2456 12.5674Z" fill="#525965"/>
<path d="M12.8979 12.5674C13.5468 12.5674 14.0727 12.0414 14.0727 11.3926C14.0727 10.7437 13.5468 10.2178 12.8979 10.2178C12.2491 10.2178 11.7231 10.7437 11.7231 11.3926C11.7231 12.0414 12.2491 12.5674 12.8979 12.5674Z" fill="#525965"/>
</g>
<defs>
<clipPath id="clip0_19092_55895">
<rect width="24" height="24" fill="white" transform="translate(0.897949)"/>
</clipPath>
</defs>
</svg>
