<svg width="44" height="44" viewBox="0 0 44 44" fill="none" xmlns="http://www.w3.org/2000/svg">
<path d="M20.2186 3.49072C20.9608 2.03622 23.0392 2.03622 23.7814 3.49072L28.1325 12.0166C28.4231 12.586 28.9684 12.9822 29.5998 13.0826L39.0529 14.5861C40.6656 14.8426 41.3078 16.8191 40.1539 17.9746L33.3898 24.7473C32.9381 25.1996 32.7298 25.8407 32.8294 26.4722L34.3207 35.9272C34.5751 37.5402 32.8937 38.7618 31.4383 38.0214L22.9068 33.6813C22.337 33.3915 21.663 33.3915 21.0932 33.6813L12.5617 38.0214C11.1063 38.7618 9.42489 37.5402 9.67931 35.9272L11.1706 26.4722C11.2702 25.8407 11.0619 25.1996 10.6102 24.7473L3.84614 17.9746C2.6922 16.8191 3.33443 14.8426 4.94712 14.5861L14.4002 13.0826C15.0316 12.9822 15.5769 12.586 15.8675 12.0166L20.2186 3.49072Z" fill="#ECEFF3"/>
</svg>
