<svg width="33" height="32" viewBox="0 0 33 32" fill="none" xmlns="http://www.w3.org/2000/svg">
<path d="M14.7186 3.49072C15.4609 2.03622 17.5392 2.03622 18.2814 3.49072L20.8338 8.49218C21.1244 9.06161 21.6698 9.45781 22.3011 9.55823L27.8465 10.4402C29.4592 10.6967 30.1015 12.6732 28.9475 13.8287L24.9796 17.8017C24.5278 18.254 24.3195 18.8951 24.4191 19.5266L25.294 25.0731C25.5484 26.6861 23.867 27.9077 22.4116 27.1673L17.4068 24.6213C16.837 24.3315 16.163 24.3315 15.5932 24.6213L10.5884 27.1673C9.13298 27.9077 7.4516 26.6861 7.70602 25.0731L8.58086 19.5266C8.68047 18.8951 8.47217 18.254 8.0204 17.8017L4.05247 13.8287C2.89854 12.6732 3.54077 10.6967 5.15346 10.4402L10.6989 9.55823C11.3302 9.45781 11.8756 9.06161 12.1662 8.49218L14.7186 3.49072Z" fill="#FFA813"/>
</svg>
