<svg width="20" height="21" viewBox="0 0 20 21" fill="none" xmlns="http://www.w3.org/2000/svg">
<path fill-rule="evenodd" clip-rule="evenodd" d="M10 20.5C15.5228 20.5 20 16.0228 20 10.5C20 4.97715 15.5228 0.5 10 0.5C4.47715 0.5 0 4.97715 0 10.5C0 16.0228 4.47715 20.5 10 20.5Z" fill="#FFA813"/>
<path d="M9.10929 5.99536C9.48043 5.26811 10.5196 5.26811 10.8907 5.99536L11.5674 7.32129C11.7127 7.60601 11.9853 7.8041 12.301 7.85431L13.7712 8.08812C14.5775 8.21637 14.8986 9.20466 14.3216 9.78236L13.2697 10.8356C13.0438 11.0618 12.9397 11.3823 12.9895 11.6981L13.2214 13.1685C13.3486 13.975 12.5079 14.5858 11.7802 14.2156L10.4534 13.5407C10.1685 13.3957 9.83149 13.3957 9.54658 13.5407L8.21979 14.2156C7.49206 14.5858 6.65137 13.975 6.77858 13.1685L7.01051 11.6981C7.06031 11.3823 6.95616 11.0618 6.73028 10.8356L5.67835 9.78237C5.10138 9.20466 5.4225 8.21637 6.22884 8.08812L7.69897 7.85431C8.01466 7.8041 8.28732 7.606 8.43262 7.32129L9.10929 5.99536Z" fill="white"/>
</svg>
