<svg width="40" height="40" viewBox="0 0 40 40" fill="none" xmlns="http://www.w3.org/2000/svg">
<circle cx="20" cy="20" r="19.75" fill="#DFE3E6" stroke="#D7DBDF" stroke-width="0.5"/>
<path fill-rule="evenodd" clip-rule="evenodd" d="M23.2846 11C23.3943 11.993 22.9949 12.9911 22.4013 13.7077C21.8108 14.4263 20.8361 14.9832 19.8858 14.9111C19.7547 13.9394 20.2374 12.921 20.7873 12.2837C21.3982 11.5702 22.4318 11.0325 23.2846 11ZM26.3653 16.7932C26.2332 16.8728 24.5201 17.9045 24.5391 20.015H24.5381C24.5604 22.5844 26.7894 23.4402 26.8148 23.4494C26.8141 23.4515 26.8131 23.4549 26.8116 23.4596C26.7714 23.5906 26.4277 24.7095 25.6388 25.8643C24.9335 26.895 24.2006 27.9256 23.045 27.95C22.4903 27.9584 22.1194 27.7976 21.7342 27.6306C21.3296 27.4552 20.9093 27.2731 20.2438 27.2731C19.5484 27.2731 19.1088 27.4601 18.6852 27.6403C18.3176 27.7967 17.9621 27.9479 17.462 27.9673C16.347 28.0089 15.4983 26.8513 14.7868 25.8206C13.3263 23.7157 12.2144 19.8676 13.7105 17.2718C14.4535 15.986 15.7788 15.1668 17.2221 15.1475C17.8423 15.1354 18.4442 15.3737 18.971 15.5822C19.3732 15.7415 19.7317 15.8834 20.0213 15.8834C20.2809 15.8834 20.6295 15.7457 21.0362 15.5852C21.6769 15.3322 22.4618 15.0223 23.2706 15.1038C23.8215 15.1282 25.3746 15.3315 26.3706 16.79C26.3693 16.7908 26.3675 16.7919 26.3653 16.7932Z" fill="white"/>
</svg>
