<svg width="40" height="40" viewBox="0 0 40 40" fill="none" xmlns="http://www.w3.org/2000/svg">
<path d="M39.75 19.9999C39.75 30.9075 30.9076 39.7498 20 39.7498C9.09237 39.7498 0.25 30.9075 0.25 19.9999C0.25 9.09234 9.09237 0.25 20 0.25C30.9076 0.25 39.75 9.09234 39.75 19.9999Z" fill="#FEDE00" stroke="#F5D600" stroke-width="0.5"/>
<path fill-rule="evenodd" clip-rule="evenodd" d="M20.3509 12.5C15.7388 12.5 12 15.4501 12 19.0892C12 21.442 13.5631 23.5064 15.9143 24.6721C15.7864 25.1136 15.0923 27.5123 15.0647 27.7007C15.0647 27.7007 15.0481 27.8423 15.1397 27.8963C15.2313 27.9503 15.3391 27.9083 15.3391 27.9083C15.6018 27.8716 18.3858 25.9146 18.8676 25.5748C19.349 25.643 19.8447 25.6785 20.3509 25.6785C24.963 25.6785 28.7018 22.7284 28.7018 19.0892C28.7018 15.4501 24.963 12.5 20.3509 12.5Z" fill="#3C1E1D"/>
</svg>
