<svg width="20" height="20" viewBox="0 0 20 20" fill="none" xmlns="http://www.w3.org/2000/svg">
<circle cx="10" cy="10" r="9.75" fill="#FEDE00" stroke="#F5D600" stroke-width="0.5"/>
<path fill-rule="evenodd" clip-rule="evenodd" d="M10.1535 6.07031C7.71178 6.07031 5.73242 7.63757 5.73242 9.57085C5.73242 10.8208 6.55993 11.9175 7.80471 12.5368C7.73699 12.7713 7.36953 14.0456 7.35491 14.1457C7.35491 14.1457 7.34611 14.2209 7.39461 14.2496C7.44311 14.2783 7.50016 14.256 7.50016 14.256C7.63926 14.2365 9.11312 13.1969 9.36823 13.0163C9.62307 13.0526 9.88549 13.0714 10.1535 13.0714C12.5952 13.0714 14.5745 11.5042 14.5745 9.57085C14.5745 7.63757 12.5952 6.07031 10.1535 6.07031Z" fill="#3C1E1D"/>
</svg>
