<svg width="20" height="20" viewBox="0 0 20 20" fill="none" xmlns="http://www.w3.org/2000/svg">
<circle cx="10" cy="10" r="9.75" fill="#393939" stroke="#303030" stroke-width="0.5"/>
<g clip-path="url(#clip0_4899_38780)">
<path fill-rule="evenodd" clip-rule="evenodd" d="M11.9553 4.5C12.0188 5.075 11.7875 5.65295 11.4438 6.06787C11.1019 6.48397 10.5375 6.80649 9.98719 6.7647C9.91127 6.20206 10.1908 5.61234 10.5092 5.24333C10.8629 4.83017 11.4615 4.51883 11.9553 4.5ZM13.7391 7.85456C13.6626 7.90064 12.6707 8.49806 12.6817 9.72011H12.6811C12.694 11.2079 13.9847 11.7035 13.9994 11.7088C13.999 11.71 13.9984 11.712 13.9976 11.7147C13.9743 11.7906 13.7753 12.4384 13.3185 13.1072C12.91 13.7039 12.4857 14.3007 11.8165 14.3148C11.4954 14.3197 11.2806 14.2266 11.0575 14.1299C10.8232 14.0284 10.5799 13.9229 10.1945 13.9229C9.79185 13.9229 9.53728 14.0312 9.29201 14.1355C9.07915 14.2261 8.87329 14.3136 8.5837 14.3248C7.93807 14.349 7.44664 13.6786 7.03467 13.0819C6.18894 11.863 5.54508 9.63478 6.4114 8.13165C6.84163 7.38714 7.60908 6.91278 8.4448 6.9016C8.80392 6.89459 9.15244 7.03256 9.45751 7.15333C9.69041 7.24553 9.89799 7.3277 10.0656 7.3277C10.216 7.3277 10.4179 7.24801 10.6534 7.15503C11.0243 7.00857 11.4788 6.82913 11.9472 6.87629C12.2662 6.89042 13.1655 7.00812 13.7422 7.85268C13.7415 7.85314 13.7404 7.85377 13.7391 7.85456Z" fill="white"/>
</g>
<defs>
<clipPath id="clip0_4899_38780">
<rect width="8" height="10" fill="white" transform="translate(6 4.5)"/>
</clipPath>
</defs>
</svg>
