<svg width="24" height="24" viewBox="0 0 24 24" fill="none" xmlns="http://www.w3.org/2000/svg">
<path d="M5 11V18C5 19.6569 6.34315 21 8 21H16C17.6569 21 19 19.6569 19 18V11" stroke="#525965" stroke-width="1.2"/>
<mask id="path-2-inside-1_1778_38035" fill="white">
<path fill-rule="evenodd" clip-rule="evenodd" d="M5.04326 4.75231C5.99321 3.64032 7.3824 3 8.8449 3H15.1401C16.6159 3 18.0164 3.65202 18.9664 4.78144L21.3153 7.57383C21.7435 8.03921 21.999 8.62649 21.999 9.26483C21.999 10.7755 20.5682 12.0001 18.8031 12.0001C17.8272 12.0001 16.9535 11.6257 16.3673 11.0356C15.8065 11.5221 15.0272 11.8237 14.1656 11.8237C13.2694 11.8237 12.4623 11.4974 11.8974 10.9761C11.3326 11.4974 10.5254 11.8237 9.62919 11.8237C8.73297 11.8237 7.92579 11.4974 7.36094 10.9761C6.79609 11.4974 5.98894 11.8236 5.09275 11.8236C3.38467 11.8236 2 10.6385 2 9.17654C2 8.64075 2.18599 8.14214 2.50572 7.72542L2.50338 7.72541L2.53009 7.69415C2.57199 7.64118 2.61608 7.58958 2.66225 7.53945L5.04326 4.75231Z"/>
</mask>
<path d="M5.04326 4.75231L5.95566 5.53175L5.04326 4.75231ZM18.9664 4.78144L19.8848 4.00899V4.00898L18.9664 4.78144ZM21.3153 7.57383L20.397 8.34628C20.4084 8.35991 20.4202 8.37327 20.4322 8.38638L21.3153 7.57383ZM16.3673 11.0356L17.2187 10.1899C16.7737 9.74203 16.0579 9.71547 15.581 10.1292L16.3673 11.0356ZM11.8974 10.9761L12.7113 10.0943C12.2516 9.67002 11.5432 9.67002 11.0835 10.0943L11.8974 10.9761ZM7.36094 10.9761L8.17482 10.0942C7.71517 9.67 7.00675 9.66999 6.54709 10.0942L7.36094 10.9761ZM2.50572 7.72542L3.45777 8.4559C3.73563 8.09375 3.78398 7.60533 3.5825 7.19575C3.38102 6.78616 2.96462 6.52635 2.50816 6.52542L2.50572 7.72542ZM2.50338 7.72541L1.59098 6.94597C1.28711 7.30168 1.21766 7.80156 1.41307 8.22663C1.60847 8.6517 2.0331 8.92446 2.50094 8.92541L2.50338 7.72541ZM2.53009 7.69415L3.44248 8.4736C3.45226 8.46215 3.46182 8.45052 3.47116 8.43872L2.53009 7.69415ZM2.66225 7.53945L3.54504 8.35227C3.55511 8.34133 3.56498 8.3302 3.57464 8.31889L2.66225 7.53945ZM8.8449 1.8C7.0314 1.8 5.30881 2.594 4.13087 3.97286L5.95566 5.53175C6.67762 4.68664 7.7334 4.2 8.8449 4.2V1.8ZM15.1401 1.8H8.8449V4.2H15.1401V1.8ZM19.8848 4.00898C18.7067 2.6085 16.9702 1.8 15.1401 1.8V4.2C16.2617 4.2 17.3261 4.69553 18.0481 5.55389L19.8848 4.00898ZM22.2336 6.80137L19.8848 4.00899L18.0481 5.55389L20.397 8.34628L22.2336 6.80137ZM20.4322 8.38638C20.6794 8.65497 20.799 8.95949 20.799 9.26483H23.199C23.199 8.29348 22.8076 7.42345 22.1983 6.76128L20.4322 8.38638ZM20.799 9.26483C20.799 9.94437 20.0874 10.8001 18.8031 10.8001V13.2001C21.0489 13.2001 23.199 11.6066 23.199 9.26483H20.799ZM18.8031 10.8001C18.1295 10.8001 17.5676 10.5412 17.2187 10.1899L15.516 11.8813C16.3394 12.7103 17.525 13.2001 18.8031 13.2001V10.8001ZM14.1656 13.0237C15.3043 13.0237 16.3659 12.6255 17.1537 11.9421L15.581 10.1292C15.2472 10.4187 14.7501 10.6237 14.1656 10.6237V13.0237ZM11.0835 11.8579C11.8801 12.5931 12.9818 13.0237 14.1656 13.0237V10.6237C13.5571 10.6237 13.0444 10.4017 12.7113 10.0943L11.0835 11.8579ZM9.62919 13.0237C10.8131 13.0237 11.9147 12.5931 12.7113 11.8579L11.0835 10.0943C10.7504 10.4017 10.2377 10.6237 9.62919 10.6237V13.0237ZM6.54706 11.8579C7.34363 12.5931 8.44531 13.0237 9.62919 13.0237V10.6237C9.02064 10.6237 8.50795 10.4017 8.17482 10.0942L6.54706 11.8579ZM5.09275 13.0236C6.27659 13.0236 7.37823 12.593 8.17479 11.8579L6.54709 10.0942C6.21396 10.4017 5.70128 10.6236 5.09275 10.6236V13.0236ZM0.8 9.17654C0.8 11.4696 2.9039 13.0236 5.09275 13.0236V10.6236C3.86545 10.6236 3.2 9.80735 3.2 9.17654H0.8ZM1.55367 6.99494C1.08751 7.6025 0.8 8.35394 0.8 9.17654H3.2C3.2 8.92756 3.28447 8.68177 3.45777 8.4559L1.55367 6.99494ZM2.50094 8.92541L2.50328 8.92542L2.50816 6.52542L2.50582 6.52542L2.50094 8.92541ZM1.61769 6.9147L1.59098 6.94597L3.41577 8.50486L3.44248 8.4736L1.61769 6.9147ZM1.77946 6.72662C1.7133 6.79848 1.64974 6.87283 1.58901 6.94958L3.47116 8.43872C3.49425 8.40954 3.51887 8.38069 3.54504 8.35227L1.77946 6.72662ZM4.13087 3.97286L1.74985 6.76L3.57464 8.31889L5.95566 5.53175L4.13087 3.97286Z" fill="#525965" mask="url(#path-2-inside-1_1778_38035)"/>
<circle cx="12" cy="15.5" r="1" fill="#525965"/>
<circle cx="15.3008" cy="15.5" r="1" fill="#525965"/>
<circle cx="8.7002" cy="15.5" r="1" fill="#525965"/>
</svg>
