<svg width="16" height="16" viewBox="0 0 16 16" fill="none" xmlns="http://www.w3.org/2000/svg">
<path d="M2.59033 9.0498C2.59033 7.94524 3.48576 7.0498 4.59033 7.0498H11.4125C12.5171 7.0498 13.4125 7.94524 13.4125 9.0498V12.7075C13.4125 13.8121 12.5171 14.7075 11.4125 14.7075H4.59033C3.48576 14.7075 2.59033 13.8121 2.59033 12.7075V9.0498Z" fill="#DBDEE3"/>
<path fill-rule="evenodd" clip-rule="evenodd" d="M2.68099 3.80969C3.63089 2.66339 5.04219 2 6.53092 2H9.45476C10.9568 2 12.3792 2.67525 13.3288 3.83903L14.5173 5.29559C14.8191 5.63198 14.9993 6.05721 14.9993 6.51958C14.9993 7.60948 13.998 8.49303 12.7627 8.49303C12.078 8.49303 11.4651 8.22151 11.0548 7.79383C10.6621 8.14678 10.1152 8.36571 9.51029 8.36571C8.88386 8.36571 8.31958 8.1309 7.92435 7.75559C7.52912 8.1309 6.96484 8.36571 6.33841 8.36571C5.71142 8.36571 5.14671 8.13048 4.75142 7.75459C4.35614 8.13048 3.79142 8.36571 3.16443 8.36571C1.96905 8.36571 1 7.51067 1 6.45592C1 5.99203 1.18744 5.56678 1.49914 5.2359L2.68099 3.80969Z" fill="#5D89CA"/>
<path d="M6.33838 12.4609C6.33838 11.4648 7.14592 10.6572 8.14207 10.6572C9.13823 10.6572 9.94577 11.4648 9.94577 12.4609V14.7076H6.33838V12.4609Z" fill="#9DA9B7"/>
</svg>
