<svg width="24" height="24" viewBox="0 0 24 24" fill="none" xmlns="http://www.w3.org/2000/svg">
<path d="M21 12C21 16.9706 16.9706 21 12 21C7.02944 21 3 16.9706 3 12C3 7.02944 7.02944 3 12 3C16.9706 3 21 7.02944 21 12Z" fill="white"/>
<path d="M21 12C21 7.02944 16.9706 3 12 3C7.02944 3 3 7.02944 3 12C3 16.9706 7.02944 21 12 21C16.9706 21 21 16.9706 21 12ZM21.7002 12C21.7002 17.3572 17.3572 21.7002 12 21.7002C6.64284 21.7002 2.2998 17.3572 2.2998 12C2.2998 6.64284 6.64284 2.2998 12 2.2998C17.3572 2.2998 21.7002 6.64284 21.7002 12Z" fill="#D7DBDF"/>
<path d="M15.4807 8.53346C15.7931 8.84581 15.7929 9.35212 15.4807 9.66456L13.1391 12.0062L15.5422 14.4092C15.8545 14.7216 15.8544 15.2279 15.5422 15.5403C15.2298 15.8527 14.7235 15.8527 14.4111 15.5403L12.008 13.1373L9.66505 15.4802C9.35261 15.7924 8.8463 15.7926 8.53396 15.4802C8.22179 15.1679 8.22182 14.6615 8.53396 14.3491L10.8769 12.0062L8.47457 9.60379C8.16237 9.29135 8.16222 8.78504 8.47457 8.4727C8.78693 8.16057 9.2933 8.16057 9.60567 8.4727L12.008 10.8751L14.3496 8.53346C14.662 8.22132 15.1684 8.2213 15.4807 8.53346Z" fill="#525965"/>
</svg>
