<svg width="13" height="14" viewBox="0 0 13 14" fill="none" xmlns="http://www.w3.org/2000/svg">
<path d="M6.75449 10.6703L9.66422 12.4278C10.0362 12.6524 10.4979 12.3183 10.3876 11.9044L9.54689 8.75166C9.52322 8.66385 9.52602 8.57145 9.55498 8.48509C9.58394 8.39873 9.63788 8.32192 9.7106 8.26348L12.3199 6.19309C12.6627 5.92105 12.4858 5.37861 12.0453 5.35136L8.63774 5.14053C8.54595 5.13428 8.45792 5.1033 8.3839 5.0512C8.30987 4.9991 8.25289 4.92802 8.21959 4.84624L6.94872 1.79523C6.91418 1.70843 6.85275 1.6337 6.77261 1.58097C6.69246 1.52824 6.59738 1.5 6.5 1.5C6.40262 1.5 6.30754 1.52824 6.2274 1.58097C6.14725 1.6337 6.08583 1.70843 6.05128 1.79523L4.78041 4.84624C4.74712 4.92802 4.69014 4.9991 4.61611 5.0512C4.54208 5.1033 4.45405 5.13428 4.36227 5.14053L0.954732 5.35136C0.514248 5.37861 0.33729 5.92105 0.680137 6.19309L3.2894 8.26348C3.36212 8.32192 3.41606 8.39873 3.44502 8.48509C3.47398 8.57145 3.47678 8.66385 3.45311 8.75166L2.67347 11.6755C2.54102 12.1721 3.09517 12.5731 3.5415 12.3035L6.24552 10.6703C6.32157 10.6241 6.40985 10.5996 6.5 10.5996C6.59015 10.5996 6.67843 10.6241 6.75449 10.6703Z" fill="#FFAE22" stroke="#EF9E13" stroke-width="0.5" stroke-linecap="round" stroke-linejoin="round"/>
</svg>
