<svg width="16" height="16" viewBox="0 0 16 16" fill="none" xmlns="http://www.w3.org/2000/svg">
<g clip-path="url(#clip0_16063_36964)">
<path d="M8.00042 8.5139C8.94719 8.5139 9.7147 7.74639 9.7147 6.79961C9.7147 5.85284 8.94719 5.08533 8.00042 5.08533C7.05364 5.08533 6.28613 5.85284 6.28613 6.79961C6.28613 7.74639 7.05364 8.5139 8.00042 8.5139Z" fill="#969FAC"/>
<path d="M12.8002 7.09013C12.8002 10.2286 8.0002 13.6572 8.0002 13.6572C8.0002 13.6572 3.2002 10.2286 3.2002 7.09013C3.2002 5.83108 3.70591 4.6236 4.60608 3.73332C5.50626 2.84304 6.72716 2.34288 8.0002 2.34288C9.27323 2.34288 10.4941 2.84304 11.3943 3.73332C12.2945 4.6236 12.8002 5.83108 12.8002 7.09013Z" stroke="#969FAC" stroke-linecap="round" stroke-linejoin="round"/>
</g>
<defs>
<clipPath id="clip0_16063_36964">
<rect width="16" height="16" fill="white"/>
</clipPath>
</defs>
</svg>
