<svg width="16" height="16" viewBox="0 0 16 16" fill="none" xmlns="http://www.w3.org/2000/svg">
<mask id="path-1-inside-1_5113_85175" fill="white">
<path fill-rule="evenodd" clip-rule="evenodd" d="M4.23049 8.21094C4.01728 8.56768 3.85299 8.95676 3.74681 9.36902C3.19162 9.59297 2.7998 10.1369 2.7998 10.7723C2.7998 11.4934 3.30445 12.0966 3.97984 12.2481C4.66754 13.8103 6.23479 14.9016 8.05814 14.9016C9.89558 14.9016 11.4729 13.7933 12.1522 12.2118C12.7598 12.0155 13.1993 11.4452 13.1993 10.7723C13.1993 10.1887 12.8688 9.68227 12.3847 9.43006C12.2794 8.99514 12.1095 8.58524 11.8858 8.21094H4.23049Z"/>
</mask>
<path d="M3.74681 9.36902L4.19571 10.4819L4.75775 10.2552L4.90889 9.66831L3.74681 9.36902ZM4.23049 8.21094V7.01094H3.5497L3.20044 7.59531L4.23049 8.21094ZM3.97984 12.2481L5.07812 11.7646L4.83391 11.2098L4.24247 11.0772L3.97984 12.2481ZM12.1522 12.2118L11.7833 11.0699L11.2647 11.2375L11.0496 11.7382L12.1522 12.2118ZM12.3847 9.43006L11.2185 9.71262L11.3468 10.2424L11.8302 10.4943L12.3847 9.43006ZM11.8858 8.21094L12.9158 7.59531L12.5666 7.01094H11.8858V8.21094ZM4.90889 9.66831C4.98592 9.3692 5.10522 9.08644 5.26055 8.82656L3.20044 7.59531C2.92934 8.04891 2.72005 8.54433 2.58473 9.06974L4.90889 9.66831ZM3.9998 10.7723C3.9998 10.6429 4.07881 10.5291 4.19571 10.4819L3.29791 8.25615C2.30442 8.65689 1.5998 9.63085 1.5998 10.7723H3.9998ZM4.24247 11.0772C4.10314 11.0459 3.9998 10.9197 3.9998 10.7723H1.5998C1.5998 12.067 2.50575 13.1473 3.71721 13.419L4.24247 11.0772ZM8.05814 13.7016C6.72506 13.7016 5.58005 12.9048 5.07812 11.7646L2.88155 12.7316C3.75504 14.7158 5.74453 16.1016 8.05814 16.1016V13.7016ZM11.0496 11.7382C10.5539 12.8923 9.40155 13.7016 8.05814 13.7016V16.1016C10.3896 16.1016 12.392 14.6943 13.2548 12.6854L11.0496 11.7382ZM11.9993 10.7723C11.9993 10.9095 11.9101 11.029 11.7833 11.0699L12.5211 13.3537C13.6096 13.002 14.3993 11.9809 14.3993 10.7723H11.9993ZM11.8302 10.4943C11.9333 10.5479 11.9993 10.6534 11.9993 10.7723H14.3993C14.3993 9.72395 13.8043 8.81659 12.9392 8.36584L11.8302 10.4943ZM10.8557 8.82656C11.0187 9.09922 11.142 9.39707 11.2185 9.71262L13.551 9.14749C13.4167 8.5932 13.2003 8.07125 12.9158 7.59531L10.8557 8.82656ZM11.8858 7.01094H4.23049V9.41094H11.8858V7.01094Z" fill="#525965" mask="url(#path-1-inside-1_5113_85175)"/>
<mask id="path-3-inside-2_5113_85175" fill="white">
<path fill-rule="evenodd" clip-rule="evenodd" d="M10.2368 2.12486C9.72015 1.49535 8.93604 1.09375 8.05814 1.09375C7.16501 1.09375 6.36895 1.50941 5.85287 2.15784C5.60102 2.05982 5.32706 2.00605 5.04053 2.00605C3.80301 2.00605 2.7998 3.00926 2.7998 4.24678C2.7998 5.02967 3.20131 5.71878 3.80963 6.11944V9.26441H12.171V6.1315C12.7897 5.7327 13.1993 5.03758 13.1993 4.24678C13.1993 3.00926 12.1961 2.00605 10.9586 2.00605C10.706 2.00605 10.4633 2.04783 10.2368 2.12486Z"/>
</mask>
<path d="M10.2368 2.12486L9.30914 2.88612L9.83634 3.52852L10.6231 3.26096L10.2368 2.12486ZM5.85287 2.15784L5.41768 3.27614L6.24138 3.59669L6.79179 2.90512L5.85287 2.15784ZM3.80963 6.11944H5.00963V5.47291L4.46969 5.11728L3.80963 6.11944ZM3.80963 9.26441H2.60963V10.4644H3.80963V9.26441ZM12.171 9.26441V10.4644H13.371V9.26441H12.171ZM12.171 6.1315L11.5208 5.12289L10.971 5.47732V6.1315H12.171ZM11.1644 1.36359C10.4296 0.468262 9.31048 -0.10625 8.05814 -0.10625V2.29375C8.56161 2.29375 9.01068 2.52244 9.30914 2.88612L11.1644 1.36359ZM8.05814 -0.10625C6.78397 -0.10625 5.64791 0.48838 4.91395 1.41055L6.79179 2.90512C7.09 2.53044 7.54605 2.29375 8.05814 2.29375V-0.10625ZM6.28807 1.03953C5.8997 0.888394 5.4783 0.806047 5.04053 0.806047V3.20605C5.17581 3.20605 5.30234 3.23125 5.41768 3.27614L6.28807 1.03953ZM5.04053 0.806047C3.14027 0.806047 1.5998 2.34651 1.5998 4.24678H3.9998C3.9998 3.672 4.46576 3.20605 5.04053 3.20605V0.806047ZM1.5998 4.24678C1.5998 5.45013 2.21852 6.50838 3.14958 7.12161L4.46969 5.11728C4.18409 4.92918 3.9998 4.60921 3.9998 4.24678H1.5998ZM2.60963 6.11944V9.26441H5.00963V6.11944H2.60963ZM3.80963 10.4644H12.171V8.06441H3.80963V10.4644ZM13.371 9.26441V6.1315H10.971V9.26441H13.371ZM11.9993 4.24678C11.9993 4.61282 11.8113 4.93567 11.5208 5.12289L12.8211 7.14011C13.7681 6.52972 14.3993 5.46234 14.3993 4.24678H11.9993ZM10.9586 3.20605C11.5334 3.20605 11.9993 3.672 11.9993 4.24678H14.3993C14.3993 2.34651 12.8589 0.806047 10.9586 0.806047V3.20605ZM10.6231 3.26096C10.7268 3.22568 10.8392 3.20605 10.9586 3.20605V0.806047C10.5729 0.806047 10.1997 0.869974 9.8504 0.988754L10.6231 3.26096Z" fill="#525965" mask="url(#path-3-inside-2_5113_85175)"/>
<rect x="6.01465" y="5.39844" width="0.819467" height="2.16871" rx="0.409734" fill="#525965"/>
<rect x="7.58984" y="5.39844" width="0.819467" height="2.16871" rx="0.409734" fill="#525965"/>
<rect x="9.16504" y="5.39844" width="0.819467" height="2.16871" rx="0.409734" fill="#525965"/>
</svg>
