<svg width="16" height="16" viewBox="0 0 16 16" fill="none" xmlns="http://www.w3.org/2000/svg">
<path d="M2.76172 8.01172V11.6113C2.76172 12.7159 3.65715 13.6113 4.76172 13.6113H10.8356C11.9402 13.6113 12.8356 12.7159 12.8356 11.6113V8.01172" stroke="#2E3137"/>
<mask id="path-2-inside-1_5330_13219" fill="white">
<path fill-rule="evenodd" clip-rule="evenodd" d="M4.62216 1.64014C3.25696 1.64014 2.06392 2.56187 1.71931 3.88286L1.23177 5.75174C1.09543 6.04089 1.01953 6.36184 1.01953 6.69978C1.01953 7.97236 2.09575 9.00399 3.42333 9.00399C4.39282 9.00399 5.22827 8.45382 5.60842 7.66142C5.98857 8.45382 6.82401 9.00399 7.79351 9.00399C8.76369 9.00399 9.59963 8.45305 9.9794 7.65974C10.3604 8.45319 11.1972 9.00402 12.1682 9.00402C13.4983 9.00402 14.5765 7.97046 14.5765 6.69549C14.5765 6.37474 14.5083 6.06926 14.3849 5.79168L13.887 3.88286C13.5424 2.56188 12.3493 1.64014 10.9841 1.64014H4.62216Z"/>
</mask>
<path d="M1.71931 3.88286L0.751693 3.63044L1.71931 3.88286ZM1.23177 5.75174L2.13626 6.17823L2.17592 6.09413L2.19939 6.00416L1.23177 5.75174ZM5.60842 7.66142L6.51003 7.22888L5.60842 5.34949L4.7068 7.22888L5.60842 7.66142ZM9.9794 7.65974L10.8808 7.22684L9.97799 5.34679L9.07743 7.22795L9.9794 7.65974ZM14.3849 5.79168L13.4173 6.0441L13.4379 6.1231L13.4711 6.1977L14.3849 5.79168ZM13.887 3.88286L12.9194 4.13529L12.9194 4.13529L13.887 3.88286ZM2.68693 4.13529C2.91667 3.25463 3.71203 2.64014 4.62216 2.64014V0.640137C2.8019 0.640137 1.21117 1.86912 0.751693 3.63044L2.68693 4.13529ZM2.19939 6.00416L2.68693 4.13529L0.751693 3.63044L0.264155 5.49931L2.19939 6.00416ZM2.01953 6.69978C2.01953 6.51333 2.06107 6.33769 2.13626 6.17823L0.327282 5.32524C0.129782 5.74409 0.0195312 6.21035 0.0195312 6.69978H2.01953ZM3.42333 8.00399C2.60773 8.00399 2.01953 7.38062 2.01953 6.69978H0.0195312C0.0195312 8.5641 1.58376 10.004 3.42333 10.004V8.00399ZM4.7068 7.22888C4.49438 7.67166 4.01128 8.00399 3.42333 8.00399V10.004C4.77437 10.004 5.96216 9.23598 6.51003 8.09396L4.7068 7.22888ZM7.79351 8.00399C7.20556 8.00399 6.72245 7.67166 6.51003 7.22888L4.7068 8.09396C5.25468 9.23598 6.44246 10.004 7.79351 10.004V8.00399ZM9.07743 7.22795C8.86524 7.67119 8.38189 8.00399 7.79351 8.00399V10.004C9.1455 10.004 10.334 9.23491 10.8814 8.09154L9.07743 7.22795ZM12.1682 8.00402C11.5786 8.00402 11.0941 7.67089 10.8808 7.22684L9.07796 8.09264C9.6268 9.2355 10.8158 10.004 12.1682 10.004V8.00402ZM13.5765 6.69549C13.5765 7.37872 12.9863 8.00402 12.1682 8.00402V10.004C14.0103 10.004 15.5765 8.5622 15.5765 6.69549H13.5765ZM13.4711 6.1977C13.539 6.3507 13.5765 6.51811 13.5765 6.69549H15.5765C15.5765 6.23136 15.4775 5.78783 15.2988 5.38565L13.4711 6.1977ZM12.9194 4.13529L13.4173 6.0441L15.3525 5.53925L14.8546 3.63044L12.9194 4.13529ZM10.9841 2.64014C11.8943 2.64014 12.6896 3.25463 12.9194 4.13529L14.8546 3.63044C14.3951 1.86912 12.8044 0.640137 10.9841 0.640137V2.64014ZM4.62216 2.64014H10.9841V0.640137H4.62216V2.64014Z" fill="#2E3137" mask="url(#path-2-inside-1_5330_13219)"/>
</svg>
