<svg width="16" height="16" viewBox="0 0 16 16" fill="none" xmlns="http://www.w3.org/2000/svg">
    <path d="M8 6V8.5H10.5" stroke="white" stroke-width="1.2" stroke-linecap="round"
        stroke-linejoin="round" />
    <path
        d="M3 3C3 2.44772 3.44772 2 4 2H12C12.5523 2 13 2.44772 13 3V12.5052C13 13.1441 12.2879 13.5253 11.7562 13.1708L10.6821 12.4547C10.2855 12.1903 9.75738 12.2426 9.42031 12.5797L8.70711 13.2929C8.31658 13.6834 7.68342 13.6834 7.29289 13.2929L6.57969 12.5797C6.24262 12.2426 5.7145 12.1903 5.31788 12.4547L4.24376 13.1708C3.71212 13.5253 3 13.1441 3 12.5052V3Z"
        fill="#97A2BB" />
    <rect x="5.5" y="5" width="5" height="1.2" rx="0.6" fill="white" />
    <rect x="5.5" y="8" width="5" height="1.2" rx="0.6" fill="white" />
</svg>
