<svg width="16" height="16" viewBox="0 0 16 16" fill="none" xmlns="http://www.w3.org/2000/svg">
    <path
        d="M3.00152 3.40131C3.05226 2.88976 3.48258 2.5 3.99664 2.5H12.0034C12.5174 2.5 12.9477 2.88976 12.9985 3.40131L13.891 12.4013C13.9494 12.9897 13.4872 13.5 12.8959 13.5H3.10408C2.51278 13.5 2.05061 12.9897 2.10896 12.4013L3.00152 3.40131Z"
        fill="#97A2BB" />
    <path
        d="M10 5L10 6.33333C10 6.77536 9.78929 7.19928 9.41421 7.51184C9.03914 7.82441 8.53043 8 8 8C7.46957 8 6.96086 7.82441 6.58579 7.51184C6.21071 7.19928 6 6.77536 6 6.33333L6 5"
        stroke="white" stroke-width="1.2" stroke-linecap="round" stroke-linejoin="round" />
</svg>
