<svg width="32" height="33" viewBox="0 0 32 33" fill="none" xmlns="http://www.w3.org/2000/svg">
<circle cx="16" cy="16.5" r="15.5" fill="url(#paint0_linear_8009_15401)" stroke="url(#paint1_linear_8009_15401)"/>
<g filter="url(#filter0_d_8009_15401)">
<path opacity="0.4" d="M13.5 8.5V9.5" stroke="white" stroke-linecap="round" stroke-linejoin="round"/>
<path opacity="0.8" d="M16 7.5V9.1" stroke="white" stroke-linecap="round" stroke-linejoin="round"/>
<path opacity="0.4" d="M18.5 8.5V9.5" stroke="white" stroke-linecap="round" stroke-linejoin="round"/>
<path fill-rule="evenodd" clip-rule="evenodd" d="M9.75098 14.25H22.251C22.4167 14.25 22.5757 14.3158 22.6929 14.4331C22.8101 14.5503 22.876 14.7092 22.876 14.875V15.7507L23.9558 14.9408C24.2651 14.7089 24.7039 14.7715 24.9358 15.0808C25.1678 15.3901 25.1051 15.8289 24.7958 16.0608L22.876 17.5007V22.375C22.876 22.8723 22.6784 23.3492 22.3268 23.7008C21.9752 24.0525 21.4983 24.25 21.001 24.25H11.001C10.5037 24.25 10.0268 24.0525 9.67515 23.7008C9.32352 23.3492 9.12598 22.8723 9.12598 22.375V17.5009L7.20582 16.0608C6.89654 15.8289 6.83386 15.3901 7.06582 15.0808C7.29778 14.7715 7.73654 14.7089 8.04582 14.9408L9.12598 15.7509V14.875C9.12598 14.7092 9.19182 14.5503 9.30903 14.4331C9.42625 14.3158 9.58522 14.25 9.75098 14.25Z" fill="white"/>
<path opacity="0.6" fill-rule="evenodd" clip-rule="evenodd" d="M16.002 10.8984C15.4497 10.8984 15.002 11.3462 15.002 11.8984V12H11.0634C10.4002 12 9.78087 12.3314 9.413 12.8833C9.23724 13.1469 9.42623 13.5 9.74307 13.5H22.2606C22.5774 13.5 22.7664 13.1469 22.5907 12.8833C22.2228 12.3314 21.6035 12 20.9403 12H17.002V11.8984C17.002 11.3462 16.5542 10.8984 16.002 10.8984Z" fill="white"/>
</g>
<defs>
<filter id="filter0_d_8009_15401" x="4.92578" y="5" width="22.1504" height="21.25" filterUnits="userSpaceOnUse" color-interpolation-filters="sRGB">
<feFlood flood-opacity="0" result="BackgroundImageFix"/>
<feColorMatrix in="SourceAlpha" type="matrix" values="0 0 0 0 0 0 0 0 0 0 0 0 0 0 0 0 0 0 127 0" result="hardAlpha"/>
<feOffset/>
<feGaussianBlur stdDeviation="1"/>
<feColorMatrix type="matrix" values="0 0 0 0 0 0 0 0 0 0 0 0 0 0 0 0 0 0 0.04 0"/>
<feBlend mode="normal" in2="BackgroundImageFix" result="effect1_dropShadow_8009_15401"/>
<feBlend mode="normal" in="SourceGraphic" in2="effect1_dropShadow_8009_15401" result="shape"/>
</filter>
<linearGradient id="paint0_linear_8009_15401" x1="-16" y1="16.5" x2="16" y2="48.5" gradientUnits="userSpaceOnUse">
<stop stop-color="#5CB3CD"/>
<stop offset="1" stop-color="#4C98AF"/>
</linearGradient>
<linearGradient id="paint1_linear_8009_15401" x1="-16" y1="16.5" x2="16" y2="48.5" gradientUnits="userSpaceOnUse">
<stop stop-color="#5AB3CD"/>
<stop offset="1" stop-color="#458FA5"/>
</linearGradient>
</defs>
</svg>
