<svg width="28" height="28" viewBox="0 0 28 28" fill="none" xmlns="http://www.w3.org/2000/svg">
<g clip-path="url(#clip0_25506_32348)">
<path d="M15.686 6.70361C17.4096 4.98528 20.2033 4.98528 21.9263 6.70361L21.9487 6.72607C23.6747 8.44853 23.6851 11.2376 21.9712 12.9722L17.145 17.853C17.1375 17.8605 17.1307 17.868 17.1226 17.8755C17.0363 17.9616 16.9463 18.0422 16.855 18.1196L14.9917 19.979C14.4376 20.5316 13.5409 20.5316 12.9868 19.979L10.897 17.895C10.8903 17.8885 10.8831 17.8821 10.8765 17.8755L10.854 17.853L10.7817 17.7798L10.1216 17.1216L10.1255 17.1167L6.02881 12.9722C4.31421 11.2376 4.32461 8.44853 6.05127 6.72607L6.07373 6.70361C7.79666 4.98528 10.591 4.98528 12.314 6.70361C12.3214 6.71163 12.329 6.71869 12.3364 6.72607L12.9907 7.38721C13.5463 7.94918 14.4536 7.94914 15.0093 7.38721L15.6636 6.72607L15.686 6.70361Z" fill="#2E3137"/>
<path d="M15.686 6.70361L14.779 5.79377L14.7776 5.79516L15.686 6.70361ZM21.9263 6.70361L22.8347 5.79516L22.8335 5.79395L21.9263 6.70361ZM21.9487 6.72607L21.0403 7.63452L21.0412 7.63545L21.9487 6.72607ZM21.9712 12.9722L22.8847 13.8755L22.8851 13.8752L21.9712 12.9722ZM17.145 17.853L18.0524 18.7626L18.0586 18.7563L17.145 17.853ZM17.1226 17.8755L16.2556 16.9274L16.2348 16.9463L16.215 16.9662L17.1226 17.8755ZM16.855 18.1196L16.0241 17.1397L15.9844 17.1734L15.9475 17.2102L16.855 18.1196ZM14.9917 19.979L15.8989 20.8887L15.8992 20.8884L14.9917 19.979ZM12.9868 19.979L13.8941 19.0693L13.894 19.0693L12.9868 19.979ZM10.897 17.895L11.8042 16.9853L11.7985 16.9797L10.897 17.895ZM10.8765 17.8755L9.96801 18.7839L9.96923 18.7851L10.8765 17.8755ZM10.854 17.853L9.93946 18.7554L9.94555 18.7615L10.854 17.853ZM10.7817 17.7798L11.6963 16.8774L11.6888 16.87L10.7817 17.7798ZM10.1216 17.1216L9.11837 16.319L8.39896 17.2183L9.21448 18.0314L10.1216 17.1216ZM10.1255 17.1167L11.1287 17.9193L11.8429 17.0266L11.0392 16.2135L10.1255 17.1167ZM6.02881 12.9722L6.94252 12.069L6.9425 12.069L6.02881 12.9722ZM6.05127 6.72607L6.95861 7.63563L6.95972 7.63452L6.05127 6.72607ZM6.07373 6.70361L5.16649 5.79395L5.16528 5.79516L6.07373 6.70361ZM12.314 6.70361L13.2577 5.83189L13.2398 5.81255L13.2212 5.79395L12.314 6.70361ZM12.3364 6.72607L13.2496 5.82234L13.2437 5.81641L12.3364 6.72607ZM12.9907 7.38721L13.9043 6.48395L13.9039 6.48349L12.9907 7.38721ZM15.0093 7.38721L14.0961 6.48349L14.0958 6.48386L15.0093 7.38721ZM15.6636 6.72607L14.7551 5.81761L14.7504 5.82236L15.6636 6.72607ZM15.686 6.70361L16.5931 7.61345C17.8154 6.39489 19.7976 6.39515 21.019 7.61327L21.9263 6.70361L22.8335 5.79395C20.609 3.57541 17.0039 3.57567 14.779 5.79377L15.686 6.70361ZM21.9263 6.70361L21.0178 7.61206L21.0403 7.63452L21.9487 6.72607L22.8572 5.81762L22.8347 5.79516L21.9263 6.70361ZM21.9487 6.72607L21.0412 7.63545C22.2669 8.85868 22.2741 10.8378 21.0573 12.0692L21.9712 12.9722L22.8851 13.8752C25.0962 11.6374 25.0825 8.03838 22.8562 5.81669L21.9487 6.72607ZM21.9712 12.9722L21.0576 12.0689L16.2315 16.9497L17.145 17.853L18.0586 18.7563L22.8847 13.8755L21.9712 12.9722ZM17.145 17.853L16.2376 16.9435C16.2287 16.9525 16.2214 16.96 16.2179 16.9635C16.2163 16.9651 16.2144 16.9672 16.2142 16.9673C16.2136 16.968 16.2139 16.9676 16.2147 16.9669C16.2161 16.9654 16.2209 16.9605 16.2276 16.9539C16.2345 16.9471 16.244 16.938 16.2556 16.9274L17.1226 17.8755L17.9895 18.8236C18.0202 18.7955 18.0436 18.7717 18.0534 18.7616C18.056 18.759 18.0582 18.7568 18.0593 18.7556C18.0597 18.7552 18.0599 18.7549 18.0602 18.7547C18.0604 18.7544 18.0606 18.7543 18.0607 18.7541C18.0611 18.7538 18.0611 18.7537 18.0611 18.7537C18.0611 18.7538 18.0602 18.7547 18.0588 18.7561C18.0573 18.7576 18.0552 18.7598 18.0524 18.7625L17.145 17.853ZM17.1226 17.8755L16.215 16.9662C16.1606 17.0205 16.0982 17.0769 16.0241 17.1397L16.855 18.1196L17.6858 19.0996C17.7945 19.0074 17.912 18.9027 18.0302 18.7848L17.1226 17.8755ZM16.855 18.1196L15.9475 17.2102L14.0842 19.0696L14.9917 19.979L15.8992 20.8884L17.7625 19.029L16.855 18.1196ZM14.9917 19.979L14.0845 19.0693C14.0318 19.1218 13.9467 19.1218 13.8941 19.0693L12.9868 19.979L12.0796 20.8887C13.1351 21.9414 14.8434 21.9414 15.8989 20.8887L14.9917 19.979ZM12.9868 19.979L13.894 19.0693L11.8041 16.9853L10.897 17.895L9.9898 18.8047L12.0796 20.8887L12.9868 19.979ZM10.897 17.895L11.7985 16.9797C11.7884 16.9697 11.7798 16.9615 11.7742 16.9563C11.7713 16.9536 11.7689 16.9512 11.7671 16.9496C11.7656 16.9482 11.7639 16.9466 11.7636 16.9463C11.7618 16.9447 11.7638 16.9465 11.7667 16.9493C11.7698 16.9522 11.7759 16.9581 11.7837 16.9658L10.8765 17.8755L9.96923 18.7851C9.9803 18.7962 9.98979 18.8053 9.99635 18.8115C10.0026 18.8175 10.0081 18.8226 10.0099 18.8243C10.0128 18.827 10.0113 18.8256 10.0096 18.824C10.0075 18.822 10.0022 18.817 9.99542 18.8103L10.897 17.895ZM10.8765 17.8755L11.7849 16.967L11.7625 16.9446L10.854 17.853L9.94555 18.7615L9.96802 18.7839L10.8765 17.8755ZM10.854 17.853L11.7685 16.9507L11.6963 16.8775L10.7817 17.7798L9.86721 18.6821L9.93948 18.7554L10.854 17.853ZM10.7817 17.7798L11.6888 16.87L11.0287 16.2118L10.1216 17.1216L9.21448 18.0314L9.87464 18.6896L10.7817 17.7798ZM10.1216 17.1216L11.1248 17.9242L11.1287 17.9193L10.1255 17.1167L9.12227 16.3141L9.11837 16.319L10.1216 17.1216ZM10.1255 17.1167L11.0392 16.2135L6.94252 12.069L6.02881 12.9722L5.1151 13.8753L9.21178 18.0199L10.1255 17.1167ZM6.02881 12.9722L6.9425 12.069C5.72532 10.8376 5.73244 8.85882 6.95861 7.63563L6.05127 6.72607L5.14393 5.81652C2.91678 8.03824 2.90309 11.6375 5.11511 13.8753L6.02881 12.9722ZM6.05127 6.72607L6.95972 7.63452L6.98218 7.61206L6.07373 6.70361L5.16528 5.79516L5.14282 5.81762L6.05127 6.72607ZM6.07373 6.70361L6.98097 7.61327C8.20245 6.39505 10.1852 6.39505 11.4067 7.61327L12.314 6.70361L13.2212 5.79395C10.9968 3.57551 7.39086 3.57551 5.16649 5.79395L6.07373 6.70361ZM12.314 6.70361L11.3702 7.57533C11.3952 7.60238 11.4164 7.62332 11.4258 7.63251C11.4283 7.63497 11.4305 7.63708 11.4319 7.6384C11.4344 7.64085 11.4331 7.6396 11.4344 7.64092C11.4354 7.64181 11.4328 7.63939 11.4292 7.63573L12.3364 6.72607L13.2437 5.81641C13.2363 5.80907 13.2301 5.80299 13.2272 5.80024C13.2265 5.79949 13.2258 5.7988 13.2253 5.79833C13.2247 5.79779 13.2245 5.79753 13.2242 5.79727C13.2237 5.79677 13.224 5.79704 13.2246 5.79765C13.2258 5.79882 13.2298 5.80278 13.2352 5.80832C13.2408 5.81398 13.2486 5.82199 13.2577 5.83189L12.314 6.70361ZM12.3364 6.72607L11.4233 7.62979L12.0776 8.29092L12.9907 7.38721L13.9039 6.48349L13.2496 5.82236L12.3364 6.72607ZM12.9907 7.38721L12.0771 8.29046C13.1357 9.36116 14.8643 9.36094 15.9228 8.29055L15.0093 7.38721L14.0958 6.48386C14.0429 6.53734 13.957 6.5372 13.9043 6.48395L12.9907 7.38721ZM15.0093 7.38721L15.9224 8.29092L16.5767 7.62979L15.6636 6.72607L14.7504 5.82236L14.0961 6.48349L15.0093 7.38721ZM15.6636 6.72607L16.572 7.63452L16.5945 7.61206L15.686 6.70361L14.7776 5.79516L14.7551 5.81762L15.6636 6.72607Z" fill="#2E3137"/>
</g>
<defs>
<clipPath id="clip0_25506_32348">
<rect width="28" height="28" fill="white"/>
</clipPath>
</defs>
</svg>
