<svg width="28" height="29" viewBox="0 0 28 29" fill="none" xmlns="http://www.w3.org/2000/svg">
<g clip-path="url(#clip0_25506_32338)">
<path d="M15.686 7.20312C17.4097 5.48494 20.2034 5.48484 21.9263 7.20312L21.9487 7.22559C23.6748 8.94801 23.6851 11.737 21.9712 13.4717L17.145 18.3535C17.1376 18.3609 17.1306 18.3686 17.1226 18.376C17.0379 18.4604 16.9494 18.5391 16.8599 18.6152L14.9917 20.4795C14.4377 21.032 13.5409 21.0318 12.9868 20.4795L10.8999 18.3975C10.8924 18.39 10.884 18.3835 10.8765 18.376L10.854 18.3535L10.7827 18.2812L10.1216 17.6221L10.1255 17.6172L6.02881 13.4717C4.31421 11.737 4.32446 8.94801 6.05127 7.22559L6.07373 7.20312C7.79666 5.48479 10.591 5.48479 12.314 7.20312C12.3214 7.21121 12.329 7.21815 12.3364 7.22559L12.9907 7.8877C13.5463 8.44929 14.4537 8.44941 15.0093 7.8877L15.6636 7.22559L15.686 7.20312Z" fill="#B7BEC8"/>
<path d="M15.686 7.20312L14.779 6.29324L14.7776 6.29468L15.686 7.20312ZM21.9263 7.20312L22.8347 6.29467L22.8335 6.29346L21.9263 7.20312ZM21.9487 7.22559L21.0403 8.13404L21.0413 8.13501L21.9487 7.22559ZM21.9712 13.4717L22.8848 14.3749L22.8851 14.3746L21.9712 13.4717ZM17.145 18.3535L18.0536 19.2619L18.0587 19.2567L17.145 18.3535ZM17.1226 18.376L16.2557 17.4278L16.2349 17.4467L16.215 17.4666L17.1226 18.376ZM16.8599 18.6152L16.0276 17.6365L15.9886 17.6697L15.9524 17.7058L16.8599 18.6152ZM14.9917 20.4795L15.8989 21.3892L15.8992 21.3889L14.9917 20.4795ZM12.9868 20.4795L12.0794 21.389L12.0798 21.3894L12.9868 20.4795ZM10.8999 18.3975L11.8073 17.4879L11.8006 17.4814L10.8999 18.3975ZM10.8765 18.376L9.96801 19.2844L9.96927 19.2857L10.8765 18.376ZM10.854 18.3535L9.93937 19.2558L9.94555 19.262L10.854 18.3535ZM10.7827 18.2812L11.6974 17.379L11.6898 17.3715L10.7827 18.2812ZM10.1216 17.6221L9.11837 16.8195L8.39896 17.7188L9.21448 18.5319L10.1216 17.6221ZM10.1255 17.6172L11.1287 18.4198L11.8428 17.5272L11.0393 16.7141L10.1255 17.6172ZM6.02881 13.4717L6.94262 12.5686L6.94252 12.5685L6.02881 13.4717ZM6.05127 7.22559L6.95856 8.13519L6.95972 8.13404L6.05127 7.22559ZM6.07373 7.20312L5.16649 6.29346L5.16528 6.29468L6.07373 7.20312ZM12.314 7.20312L13.2586 6.33236L13.2403 6.31252L13.2212 6.29346L12.314 7.20312ZM12.3364 7.22559L13.2503 6.32252L13.2437 6.31593L12.3364 7.22559ZM12.9907 7.8877L12.0769 8.79074L12.0774 8.79126L12.9907 7.8877ZM15.0093 7.8877L15.9227 8.79113L15.9231 8.79074L15.0093 7.8877ZM15.6636 7.22559L14.7551 6.31712L14.7497 6.32254L15.6636 7.22559ZM15.686 7.20312L16.593 8.11301C17.8154 6.89449 19.7977 6.89475 21.019 8.11279L21.9263 7.20312L22.8335 6.29346C20.609 4.07493 17.0039 4.07539 14.779 6.29324L15.686 7.20312ZM21.9263 7.20312L21.0178 8.11157L21.0403 8.13404L21.9487 7.22559L22.8572 6.31714L22.8347 6.29468L21.9263 7.20312ZM21.9487 7.22559L21.0413 8.13501C22.267 9.35812 22.2741 11.3372 21.0573 12.5687L21.9712 13.4717L22.8851 14.3746C25.0961 12.1369 25.0827 8.53789 22.8562 6.31617L21.9487 7.22559ZM21.9712 13.4717L21.0575 12.5685L16.2314 17.4503L17.145 18.3535L18.0587 19.2567L22.8848 14.3749L21.9712 13.4717ZM17.145 18.3535L16.2365 17.4451C16.228 17.4537 16.221 17.4608 16.2179 17.4641C16.217 17.4649 16.2162 17.4657 16.2157 17.4663C16.2151 17.467 16.2149 17.4671 16.2145 17.4675C16.214 17.4681 16.2144 17.4677 16.2151 17.4669C16.2166 17.4654 16.2213 17.4606 16.2278 17.4542C16.2345 17.4476 16.244 17.4385 16.2557 17.4278L17.1226 18.376L17.9894 19.3242C18.02 19.2963 18.0433 19.2725 18.053 19.2626C18.0556 19.26 18.0578 19.2577 18.0591 19.2564C18.061 19.2544 18.0606 19.2548 18.0612 19.2541C18.0617 19.2536 18.0584 19.2571 18.0535 19.2619L17.145 18.3535ZM17.1226 18.376L16.215 17.4666C16.1641 17.5174 16.104 17.5715 16.0276 17.6365L16.8599 18.6152L17.6921 19.594C17.7948 19.5067 17.9117 19.4034 18.0301 19.2854L17.1226 18.376ZM16.8599 18.6152L15.9524 17.7058L14.0842 19.5701L14.9917 20.4795L15.8992 21.3889L17.7674 19.5246L16.8599 18.6152ZM14.9917 20.4795L14.0845 19.5698C14.0322 19.622 13.9467 19.6223 13.8938 19.5696L12.9868 20.4795L12.0798 21.3894C13.1351 22.4413 14.8433 22.442 15.8989 21.3892L14.9917 20.4795ZM12.9868 20.4795L13.8942 19.57L11.8073 17.4879L10.8999 18.3975L9.99252 19.307L12.0794 21.389L12.9868 20.4795ZM10.8999 18.3975L11.8006 17.4814C11.782 17.463 11.7661 17.4485 11.756 17.4393C11.7508 17.4346 11.7464 17.4307 11.7435 17.4281C11.7409 17.4258 11.7382 17.4235 11.7379 17.4232C11.737 17.4223 11.7379 17.4231 11.7393 17.4244C11.7408 17.4257 11.7437 17.4283 11.7475 17.4318C11.7549 17.4385 11.7678 17.4505 11.7837 17.4663L10.8765 18.376L9.96927 19.2857C9.98886 19.3052 10.0057 19.3208 10.017 19.3311C10.0276 19.3408 10.0369 19.349 10.0384 19.3503C10.0401 19.3518 10.0394 19.3512 10.0388 19.3506C10.0379 19.3498 10.0355 19.3477 10.0322 19.3448C10.026 19.3391 10.014 19.3282 9.99916 19.3135L10.8999 18.3975ZM10.8765 18.376L11.7849 17.4675L11.7625 17.4451L10.854 18.3535L9.94555 19.262L9.96802 19.2844L10.8765 18.376ZM10.854 18.3535L11.7686 17.4513L11.6973 17.379L10.7827 18.2812L9.86811 19.1835L9.9394 19.2558L10.854 18.3535ZM10.7827 18.2812L11.6898 17.3715L11.0287 16.7123L10.1216 17.6221L9.21448 18.5319L9.87561 19.191L10.7827 18.2812ZM10.1216 17.6221L11.1248 18.4246L11.1287 18.4198L10.1255 17.6172L9.12227 16.8146L9.11837 16.8195L10.1216 17.6221ZM10.1255 17.6172L11.0393 16.7141L6.94262 12.5686L6.02881 13.4717L5.11499 14.3747L9.21167 18.5202L10.1255 17.6172ZM6.02881 13.4717L6.94252 12.5685C5.72525 11.337 5.73236 9.35827 6.95856 8.13519L6.05127 7.22559L5.14398 6.31598C2.91655 8.53775 2.90316 12.1371 5.1151 14.3748L6.02881 13.4717ZM6.05127 7.22559L6.95972 8.13404L6.98218 8.11157L6.07373 7.20312L5.16528 6.29468L5.14282 6.31714L6.05127 7.22559ZM6.07373 7.20312L6.98097 8.11279C8.20245 6.89456 10.1852 6.89456 11.4067 8.11279L12.314 7.20312L13.2212 6.29346C10.9968 4.07502 7.39086 4.07502 5.16649 6.29346L6.07373 7.20312ZM12.314 7.20312L11.3693 8.07389C11.3948 8.10152 11.4164 8.12284 11.4262 8.13237C11.4287 8.13487 11.4309 8.13702 11.4323 8.13835C11.4347 8.14072 11.4336 8.13962 11.4348 8.14082C11.4357 8.14163 11.433 8.13907 11.4292 8.13525L12.3364 7.22559L13.2437 6.31593C13.2361 6.30838 13.2297 6.30216 13.2268 6.29934C13.226 6.29857 13.2253 6.29787 13.2248 6.2974C13.2242 6.29684 13.224 6.2966 13.2237 6.29634C13.2232 6.29584 13.2235 6.29616 13.2242 6.29683C13.2256 6.29813 13.2298 6.30229 13.2355 6.30809C13.2413 6.31402 13.2493 6.32226 13.2586 6.33236L12.314 7.20312ZM12.3364 7.22559L11.4226 8.12863L12.0769 8.79074L12.9907 7.8877L13.9045 6.98465L13.2503 6.32254L12.3364 7.22559ZM12.9907 7.8877L12.0774 8.79126C13.1357 9.86094 14.8642 9.86141 15.9227 8.79113L15.0093 7.8877L14.0958 6.98426C14.0433 7.03742 13.957 7.03763 13.904 6.98413L12.9907 7.8877ZM15.0093 7.8877L15.9231 8.79074L16.5774 8.12863L15.6636 7.22559L14.7497 6.32254L14.0955 6.98465L15.0093 7.8877ZM15.6636 7.22559L16.572 8.13404L16.5945 8.11157L15.686 7.20312L14.7776 6.29468L14.7551 6.31714L15.6636 7.22559Z" fill="#B7BEC8"/>
</g>
<defs>
<clipPath id="clip0_25506_32338">
<rect width="28" height="28" fill="white" transform="translate(0 0.5)"/>
</clipPath>
</defs>
</svg>
