<svg width="18" height="18" viewBox="0 0 18 18" fill="none" xmlns="http://www.w3.org/2000/svg">
    <path
        d="M9.30635 17.7693C13.7651 17.7693 17.3795 14.1592 17.3795 9.70598C17.3795 5.25275 13.7651 1.6427 9.30635 1.6427C4.84765 1.6427 1.23315 5.25275 1.23315 9.70598C1.23315 14.1592 4.84765 17.7693 9.30635 17.7693Z"
        fill="white" />
    <path
        d="M16.8581 6.25331C16.7077 5.61401 16.4512 5.01069 16.2011 4.58731C16.0548 4.33752 15.9256 4.07714 15.7878 3.80194C15.1201 2.46406 14.3635 0.946241 11.3623 0.103714C10.0927 -0.251925 8.88032 0.387379 8.07915 0.81076C7.83116 0.942008 7.61709 1.0542 7.48145 1.09231C7.28009 1.14946 7.10417 1.14311 6.89858 1.13676C6.52979 1.12618 6.11225 1.11136 5.47427 1.46488C4.30855 2.11265 3.56672 2.96153 3.2064 4.08137C1.83932 5.56109 1 7.53616 1 9.70386C1 14.2785 4.72609 18 9.30634 18C13.8866 18 17.6127 14.2785 17.6127 9.70386C17.6127 8.47183 17.3414 7.3033 16.856 6.2512L16.8581 6.25331ZM15.0735 11.0185C14.6814 11.7615 14.0795 12.1806 13.5369 12.0938C13.4521 12.0536 13.3525 12.0896 13.3143 12.1743C13.0557 12.7226 12.6975 13.273 12.5004 13.4868C11.7099 14.3483 9.86165 16.3658 7.12961 14.5897C6.22882 14.0033 5.52726 13.0803 5.04613 11.8441C5.04613 11.8441 5.04402 11.8419 5.04402 11.8398C5.03766 11.825 5.02706 11.8102 5.01646 11.7975C5.01434 11.7932 5.01222 11.789 5.00798 11.7869C4.98255 11.7594 4.94652 11.7446 4.90837 11.7403C4.90201 11.7403 4.89565 11.7382 4.88929 11.7382C4.88717 11.7382 4.88505 11.7382 4.88081 11.7382C4.32974 11.7636 3.71932 11.3318 3.36537 10.6607C3.14282 10.2416 3.05168 9.78642 3.10679 9.38209C3.15978 8.99894 3.33993 8.7068 3.61335 8.56285C3.6621 8.53745 3.71721 8.5184 3.77019 8.50146C3.88253 8.65176 3.98638 8.76608 4.06904 8.84017C4.07752 9.0201 4.10719 9.49852 4.22165 10.1336C4.23648 10.214 4.30643 10.2712 4.38697 10.2712C4.39757 10.2712 4.40604 10.2712 4.41664 10.2691C4.50778 10.2521 4.56925 10.1653 4.55229 10.0743C4.4336 9.4202 4.40816 8.92696 4.40392 8.7936C4.49294 8.59672 4.97619 7.54462 5.33439 7.10854C5.34922 7.08949 5.3683 7.07044 5.38526 7.05139C6.69511 6.26602 8.18936 6.88838 8.2042 6.89474C8.28898 6.93072 8.38859 6.89262 8.42463 6.80794C8.46066 6.72327 8.42251 6.62377 8.33773 6.58778C8.28262 6.5645 7.1826 6.10301 5.97872 6.43748C6.51919 5.89556 7.08298 5.2626 7.26102 4.20839C7.79301 4.03903 10.4276 3.2833 11.4915 4.42643C11.9748 4.94719 12.174 5.70504 12.3372 6.46712C11.3898 6.32105 10.5314 6.63224 10.4848 6.64917C10.3979 6.68093 10.3534 6.77831 10.3852 6.8651C10.417 6.95189 10.5145 6.99635 10.6014 6.96459C10.612 6.96036 11.5 6.64071 12.4114 6.82276C12.6446 7.9299 12.9074 9.04551 14.0032 9.37574C14.001 9.40961 13.9968 9.44137 13.9947 9.46889C13.982 9.6213 13.9777 9.6827 13.9311 9.91555C13.912 10.0066 13.9714 10.0955 14.0625 10.1124C14.0731 10.1145 14.0858 10.1167 14.0964 10.1167C14.1748 10.1167 14.2448 10.0616 14.2596 9.9833C14.3105 9.73138 14.3168 9.65306 14.3296 9.49641C14.3296 9.48159 14.3317 9.46465 14.3338 9.44772C14.4567 9.46465 14.5839 9.47736 14.7259 9.47736C14.7789 9.47736 14.834 9.47736 14.8891 9.47312C15.0142 9.46677 15.1329 9.45407 15.2494 9.43713C15.419 9.88168 15.3554 10.4892 15.0735 11.0248V11.0185ZM12.7145 14.6468C13.397 14.9538 13.8951 15.2883 14.3126 15.7222C13.7955 16.1541 13.2189 16.5182 12.6022 16.804C12.6721 15.9805 12.7018 15.2142 12.7145 14.6447V14.6468ZM6.15887 16.8738C5.54422 16.6028 4.97195 16.2578 4.45267 15.8471C4.83206 15.4894 5.33651 15.1803 5.9766 14.9051C6.02323 15.519 6.08469 16.2049 6.15887 16.8759V16.8738ZM1.46841 9.70598C1.46841 7.97224 2.03644 6.36974 2.99445 5.07208C2.96902 5.28377 2.95418 5.4997 2.94994 5.72832C2.92875 6.83123 3.25091 7.6674 3.57944 8.21145C3.53917 8.22838 3.49678 8.24532 3.45863 8.26437C3.08559 8.46124 2.84397 8.84017 2.77614 9.33552C2.71044 9.80971 2.81642 10.3347 3.06864 10.8174C3.45863 11.5562 4.13263 12.0409 4.77696 12.0684C5.07793 12.8115 5.45732 13.4444 5.91089 13.9652C5.92149 14.1451 5.93633 14.3441 5.95116 14.5537C5.20722 14.8628 4.62859 15.2163 4.19409 15.6333C2.52816 14.1959 1.46841 12.0748 1.46841 9.7081V9.70598ZM6.51283 17.0178C6.40474 16.0927 6.3242 15.1168 6.27121 14.3378C6.48104 14.5346 6.70571 14.7125 6.94309 14.867C7.79301 15.4195 8.56663 15.6312 9.25759 15.6312C10.6755 15.6312 11.7417 14.7442 12.3839 14.0922C12.3817 14.6638 12.3605 15.7624 12.2503 16.9585C11.3411 17.3289 10.347 17.5343 9.30422 17.5343C8.32077 17.5343 7.37971 17.3501 6.51071 17.0199L6.51283 17.0178ZM14.567 15.5021C14.0901 15.0067 13.5072 14.6235 12.7209 14.2827C12.723 14.0181 12.7209 13.8297 12.7209 13.7366C12.7293 13.7281 12.7378 13.7175 12.7463 13.709C12.9434 13.4952 13.2825 12.9851 13.5581 12.4283C13.5983 12.4326 13.6365 12.4389 13.6768 12.4389C14.3063 12.4389 14.9527 11.9626 15.3702 11.173C15.6924 10.5612 15.7666 9.88592 15.5822 9.35458C16.1015 9.20639 16.4872 8.91638 16.7246 8.47818C16.8221 8.29824 16.8878 8.09925 16.9302 7.8918C17.068 8.47394 17.1443 9.07938 17.1443 9.70386C17.1443 12.0007 16.1481 14.0689 14.567 15.5021Z"
        fill="#FF5100" />
    <path
        d="M9.40592 11.0757C9.56912 11.0757 9.75776 11.0397 9.96123 10.9338C10.0439 10.8915 10.0757 10.7899 10.0333 10.7073C9.99091 10.6248 9.88917 10.593 9.80651 10.6353C9.34022 10.8767 8.98838 10.6205 8.97142 10.6078C8.89936 10.5507 8.79339 10.5634 8.73616 10.6375C8.67893 10.7094 8.69165 10.8153 8.76583 10.8724C8.78067 10.883 9.03077 11.0757 9.40592 11.0757Z"
        fill="#FF5100" />
    <path
        d="M11.3537 12.0134C9.40376 12.8835 7.72087 12.187 7.70391 12.1807C7.61913 12.1447 7.51952 12.1849 7.48349 12.2696C7.44745 12.3543 7.48561 12.4516 7.57251 12.4897C7.61701 12.5088 8.29738 12.7925 9.2999 12.7925C9.9294 12.7925 10.6861 12.6803 11.4915 12.3204C11.5763 12.2823 11.6144 12.1828 11.5763 12.0981C11.5381 12.0134 11.4385 11.9753 11.3537 12.0134Z"
        fill="#FF5100" />
    <path
        d="M11.5128 7.81348C11.2076 7.81348 10.9596 8.18605 10.9596 8.64542C10.9596 9.10479 11.2076 9.47736 11.5128 9.47736C11.818 9.47736 12.066 9.10479 12.066 8.64542C12.066 8.18605 11.818 7.81348 11.5128 7.81348Z"
        fill="#FF5100" />
    <path
        d="M7.78668 8.59244C7.78668 8.13307 7.5387 7.7605 7.23349 7.7605C6.92828 7.7605 6.6803 8.13307 6.6803 8.59244C6.6803 9.05181 6.92828 9.42438 7.23349 9.42438C7.5387 9.42438 7.78668 9.05181 7.78668 8.59244Z"
        fill="#FF5100" />
</svg>
