<svg width="97" height="30" viewBox="0 0 97 30" fill="none" xmlns="http://www.w3.org/2000/svg">
<path d="M26.1375 10.3155C25.8885 9.2632 25.4642 8.26749 25.0569 7.56596C24.8136 7.15297 24.5986 6.723 24.3723 6.2704C23.2691 4.06399 22.0245 1.55774 17.0799 0.171658C14.9866 -0.416718 12.9895 0.641227 11.6657 1.3371C11.2583 1.55208 10.9076 1.73877 10.6813 1.80101C10.3532 1.89153 10.059 1.88587 9.71952 1.87455C9.11417 1.85758 8.42396 1.83495 7.37167 2.41767C5.44814 3.48693 4.22612 4.88998 3.63775 6.73431C1.38042 9.17268 0 12.4314 0 16.0126C0 23.5596 6.144 29.7036 13.6911 29.7036C21.2381 29.7036 27.3821 23.5596 27.3821 16.0126C27.3821 13.9815 26.9352 12.0523 26.1375 10.3155ZM23.1956 18.1794C22.5506 19.407 21.5606 20.0972 20.6611 19.9558C20.5253 19.8936 20.3612 19.9501 20.2933 20.0859C19.8633 20.9911 19.275 21.8963 18.9525 22.2527C17.6513 23.6728 14.6019 27.005 10.1042 24.0744C8.62197 23.107 7.46219 21.5851 6.67015 19.5428C6.67015 19.5428 6.67015 19.5428 6.67015 19.5371C6.65883 19.5089 6.64186 19.4919 6.62489 19.4693C6.62489 19.4636 6.61923 19.4579 6.61357 19.4523C6.56831 19.407 6.51174 19.3787 6.44951 19.3787C6.43819 19.3787 6.42688 19.3787 6.41556 19.3787C6.41556 19.3787 6.4099 19.3787 6.40425 19.3787C5.4934 19.4183 4.49202 18.7112 3.90365 17.6023C3.53591 16.9064 3.38882 16.1596 3.47934 15.4921C3.5642 14.8584 3.86405 14.3775 4.31664 14.1399C4.39585 14.0947 4.48637 14.0664 4.57689 14.0381C4.76358 14.287 4.93331 14.4737 5.06909 14.5982C5.0804 14.8924 5.13132 15.6844 5.31801 16.731C5.34064 16.8668 5.45945 16.9573 5.58957 16.9573C5.60654 16.9573 5.62352 16.9573 5.64049 16.9573C5.79324 16.9291 5.88942 16.7876 5.86113 16.6349C5.66878 15.5543 5.62352 14.7396 5.61786 14.5246C5.76495 14.2022 6.56266 12.4653 7.15103 11.7468C7.17932 11.7129 7.20761 11.6846 7.23589 11.6506C9.39704 10.3551 11.858 11.3791 11.8807 11.3904C12.0221 11.4526 12.1862 11.3904 12.2427 11.2433C12.305 11.1019 12.2427 10.9435 12.1013 10.8812C12.0108 10.8416 10.2004 10.0835 8.21463 10.6323C9.10286 9.73843 10.0363 8.6918 10.3249 6.95496C11.2018 6.67774 15.541 5.42744 17.3005 7.31703C18.0982 8.17697 18.4264 9.42727 18.6979 10.6832C17.1364 10.4456 15.7221 10.9548 15.6429 10.9831C15.5014 11.034 15.4279 11.1924 15.4788 11.3395C15.5297 11.4809 15.6881 11.5545 15.8352 11.5036C15.8522 11.4979 17.3175 10.9718 18.8224 11.2659C19.2071 13.0933 19.6371 14.932 21.4474 15.4808C21.4474 15.5373 21.4361 15.5882 21.4361 15.6335C21.4191 15.8824 21.4078 15.9899 21.3286 16.369C21.3003 16.5161 21.3965 16.6632 21.5436 16.6971C21.5606 16.6971 21.5832 16.7028 21.6002 16.7028C21.7303 16.7028 21.8435 16.6122 21.8717 16.4821C21.9566 16.0691 21.9679 15.939 21.9849 15.6788C21.9849 15.6561 21.9849 15.6278 21.9906 15.5996C22.1942 15.6278 22.4035 15.6448 22.6355 15.6448C22.7204 15.6448 22.8109 15.6448 22.9014 15.6392C23.1107 15.6278 23.3031 15.6052 23.4954 15.5769C23.7727 16.3124 23.6708 17.3138 23.2069 18.1963L23.1956 18.1794ZM19.3089 24.165C20.4348 24.6741 21.2551 25.2229 21.9453 25.9414C21.091 26.6542 20.1462 27.2539 19.1279 27.7292C19.2467 26.3714 19.2919 25.1097 19.3146 24.165H19.3089ZM8.50316 27.8366C7.49048 27.3897 6.54568 26.8183 5.69141 26.1394C6.31939 25.551 7.15103 25.0362 8.20332 24.5836C8.28252 25.5963 8.3787 26.7278 8.50316 27.8366ZM0.775072 16.0126C0.775072 13.1499 1.70855 10.5078 3.29264 8.36366C3.25304 8.70877 3.22475 9.07085 3.2191 9.44424C3.18515 11.2659 3.71695 12.6464 4.25441 13.5402C4.18652 13.5685 4.11863 13.5968 4.0564 13.6308C3.44539 13.9532 3.04371 14.5812 2.93057 15.3959C2.82307 16.1766 2.9928 17.0479 3.41145 17.8399C4.05074 19.0563 5.16526 19.8596 6.22887 19.9049C6.72672 21.1326 7.34904 22.1735 8.10149 23.0335C8.11846 23.3333 8.14109 23.6558 8.16937 24.0065C6.94171 24.5157 5.98559 25.1041 5.27275 25.7886C2.52323 23.4182 0.78073 19.9162 0.78073 16.0126H0.775072ZM9.09154 28.0799C8.9105 26.5524 8.78038 24.9457 8.69552 23.6614C9.04062 23.9896 9.41402 24.2781 9.80438 24.5327C11.2018 25.4435 12.4804 25.7943 13.6175 25.7943C15.954 25.7943 17.7135 24.329 18.7715 23.2541C18.7715 24.1989 18.7319 26.0093 18.5508 27.9837C17.0516 28.5947 15.4109 28.9342 13.6967 28.9342C12.0787 28.9342 10.5229 28.6287 9.09154 28.0856V28.0799ZM22.3639 25.5793C21.5776 24.7646 20.6214 24.1253 19.3202 23.5653C19.3202 23.1296 19.3202 22.8185 19.3202 22.6657C19.3315 22.6488 19.3485 22.6318 19.3598 22.6205C19.6823 22.2697 20.2424 21.4267 20.7007 20.5102C20.7629 20.5159 20.8308 20.5272 20.893 20.5272C21.934 20.5272 22.9976 19.7408 23.6878 18.4396C24.2196 17.4326 24.3441 16.3181 24.0386 15.4411C24.8985 15.1979 25.5321 14.717 25.9225 13.9928C26.0866 13.693 26.1884 13.3705 26.2619 13.0254C26.4882 13.9872 26.6127 14.9829 26.6127 16.0126C26.6127 19.8031 24.972 23.2145 22.3639 25.5793Z" fill="#B7BEC8"/>
<path d="M13.855 18.2699C14.1266 18.2699 14.4377 18.2077 14.7715 18.038C14.9073 17.9701 14.9582 17.8004 14.8903 17.6646C14.8224 17.5288 14.6527 17.4779 14.5169 17.5458C13.7475 17.9418 13.1705 17.5232 13.1422 17.5005C13.0234 17.41 12.848 17.427 12.7575 17.5514C12.6613 17.6703 12.6839 17.8456 12.8027 17.9418C12.8254 17.9588 13.2384 18.2756 13.8607 18.2756L13.855 18.2699Z" fill="#B7BEC8"/>
<path d="M17.063 19.82C13.8495 21.257 11.0717 20.1086 11.0491 20.0972C10.9076 20.0407 10.7436 20.1029 10.687 20.2443C10.6248 20.3858 10.687 20.5442 10.8341 20.6064C10.9076 20.6404 12.0278 21.1043 13.6798 21.1043C14.7151 21.1043 15.9654 20.9176 17.2949 20.3292C17.4364 20.267 17.4986 20.1029 17.4364 19.9615C17.3741 19.82 17.2101 19.7578 17.0686 19.82H17.063Z" fill="#B7BEC8"/>
<path d="M17.3289 12.8897C16.8254 12.8897 16.4181 13.5064 16.4181 14.2645C16.4181 15.0226 16.8254 15.6392 17.3289 15.6392C17.8324 15.6392 18.2398 15.0226 18.2398 14.2645C18.2398 13.5064 17.8324 12.8897 17.3289 12.8897Z" fill="#B7BEC8"/>
<path d="M11.1849 14.1739C11.1849 13.4157 10.7775 12.7991 10.274 12.7991C9.77049 12.7991 9.36316 13.4157 9.36316 14.1739C9.36316 14.9319 9.77049 15.5486 10.274 15.5486C10.7775 15.5486 11.1849 14.9319 11.1849 14.1739Z" fill="#B7BEC8"/>
<path d="M62.1416 8.90692H63.358C63.5051 8.90692 63.6239 9.02572 63.6239 9.17282V23.5258C63.6239 23.6729 63.5051 23.7917 63.358 23.7917H62.1416C61.9945 23.7917 61.8757 23.6729 61.8757 23.5258V9.17282C61.8757 9.02572 61.9945 8.90692 62.1416 8.90692Z" fill="#B7BEC8"/>
<path d="M55.2226 9.25775C52.5749 9.25775 50.7079 11.4528 50.7079 16.1712C50.7079 20.8895 52.5749 23.0902 55.2226 23.0902C57.8703 23.0902 59.7202 20.8951 59.7202 16.1712C59.7202 11.4472 57.8533 9.25775 55.2226 9.25775ZM55.2226 21.5062C53.6385 21.5062 52.4334 19.956 52.4334 16.1768C52.4334 12.3976 53.6328 10.8475 55.2226 10.8475C56.8123 10.8475 57.9947 12.4146 57.9947 16.1768C57.9947 19.939 56.7727 21.5062 55.2226 21.5062Z" fill="#B7BEC8"/>
<path d="M79.5326 14.3832C79.6797 14.3832 79.7985 14.2644 79.7985 14.123V9.17835C79.8042 9.03126 79.6911 8.91245 79.544 8.91245H78.3785C78.2314 8.91245 78.1126 9.03126 78.1126 9.17835V10.2024C78.107 10.3494 77.9882 10.4683 77.8411 10.4683H69.0267C68.8796 10.4683 68.7665 10.3494 68.7665 10.2024V9.17835C68.7722 9.03126 68.6533 8.91245 68.5119 8.91245H67.3465C67.1994 8.91245 67.0806 9.03126 67.0806 9.17835V14.123C67.0749 14.2701 67.1881 14.3832 67.3352 14.3832H79.5326ZM68.7665 12.0127C68.7665 11.8656 68.8853 11.7525 69.0324 11.7525H77.8467C77.9938 11.7525 78.1126 11.8713 78.1126 12.0127V12.8104C78.1126 12.9575 77.9938 13.0707 77.8467 13.0707H69.0324C68.8853 13.0707 68.7665 12.9519 68.7665 12.8104V12.0127Z" fill="#B7BEC8"/>
<path d="M66.2772 15.5657H80.6132C80.7603 15.5657 80.8791 15.6845 80.8791 15.8316V16.6463C80.8791 16.7933 80.7603 16.9122 80.6132 16.9122H66.2772C66.1301 16.9122 66.017 16.7933 66.017 16.6519V15.8372C66.017 15.6901 66.1358 15.5713 66.2829 15.5713L66.2772 15.5657Z" fill="#B7BEC8"/>
<path d="M79.8495 22.5187H68.9985C68.8514 22.5187 68.7326 22.3999 68.7326 22.2584V21.8058C68.7326 21.6587 68.8514 21.5456 68.9985 21.5456H79.5893C79.7364 21.5456 79.8552 21.4268 79.8552 21.2797V18.3378C79.8552 18.1907 79.7364 18.0776 79.5893 18.0776H67.273C67.1259 18.0776 67.0128 18.1964 67.0128 18.3378V19.0846C67.0128 19.2317 67.1316 19.3505 67.273 19.3505H77.8977C78.0448 19.3505 78.1636 19.4693 78.1636 19.6107V20.0577C78.1636 20.2048 78.0448 20.3179 77.8977 20.3179H67.307C67.1599 20.3179 67.0411 20.4367 67.0411 20.5838V23.5257C67.0411 23.6728 67.1599 23.7859 67.307 23.7859H79.8495C79.9966 23.7859 80.1155 23.6671 80.1155 23.5257V22.7789C80.1155 22.6318 79.9966 22.513 79.8495 22.513V22.5187Z" fill="#B7BEC8"/>
<path d="M46.94 8.90692H48.0488C48.1959 8.90692 48.3147 9.02572 48.3147 9.17282V23.5258C48.3147 23.6729 48.1959 23.7917 48.0488 23.7917H46.94C46.7929 23.7917 46.6797 23.6729 46.6797 23.5315V9.17847C46.6797 9.03138 46.7985 8.91823 46.94 8.91823V8.90692Z" fill="#B7BEC8"/>
<path d="M44.8185 8.90692H43.7096C43.5625 8.90692 43.4437 9.02572 43.4437 9.16716V15.017C43.4437 15.1641 43.3249 15.2829 43.1778 15.2829H41.6503C41.5032 15.2829 41.3844 15.4017 41.3844 15.5431V16.6011C41.3844 16.7482 41.5032 16.8613 41.6503 16.8613H43.1778C43.3249 16.8613 43.4437 16.9801 43.4437 17.1272V23.5201C43.4437 23.6672 43.5625 23.7804 43.7096 23.7804H44.8185C44.9656 23.7804 45.0787 23.6616 45.0787 23.5201V9.16716C45.0787 9.02007 44.9599 8.90692 44.8185 8.90692Z" fill="#B7BEC8"/>
<path d="M41.803 20.7989C41.803 20.7989 41.7578 20.8215 41.7351 20.8272C41.7238 20.8272 41.7125 20.8159 41.7068 20.8215C40.6659 21.1949 39.3703 21.3646 37.7693 21.3646H36.7283C36.5925 21.359 36.4794 21.2515 36.4794 21.11V17.0706C36.4794 16.9292 36.5925 16.816 36.7339 16.816H40.3547C40.4962 16.816 40.6093 16.6972 40.615 16.5558V15.5488C40.615 15.4017 40.4962 15.2885 40.3547 15.2885H36.7396C36.5982 15.2885 36.4907 15.1754 36.485 15.0339V11.2434C36.485 11.102 36.6038 10.9888 36.7453 10.9832H41.1015C41.2373 10.9662 41.3448 10.8587 41.3448 10.7229V9.71592C41.3448 9.56882 41.226 9.45567 41.0845 9.45567H35.0933C34.9462 9.45567 34.833 9.57448 34.833 9.71592V22.6432C34.833 22.7903 34.9518 22.9035 35.0933 22.9035H37.69C39.4212 22.9035 40.9318 22.6998 41.9162 22.3094C41.9501 22.2981 41.9727 22.2755 41.9954 22.2529C41.9954 22.2529 41.9954 22.2529 42.001 22.2529C42.001 22.2529 42.001 22.2529 42.001 22.2472C42.0406 22.2019 42.0746 22.1397 42.0746 22.0775V21.0818C42.0746 20.9347 41.9558 20.8215 41.8143 20.8215L41.803 20.7989Z" fill="#B7BEC8"/>
<path d="M95.0511 8.90684H96.2505C96.3976 8.90684 96.5164 9.02565 96.5164 9.17274V17.5175C96.5164 17.6646 96.3976 17.7777 96.2562 17.7777H95.0568C94.9097 17.7777 94.7909 17.6589 94.7909 17.5118V9.17274C94.7909 9.02565 94.9097 8.90684 95.0568 8.90684H95.0511Z" fill="#B7BEC8"/>
<path d="M93.4614 16.4993C93.4614 16.4993 93.501 16.4654 93.5237 16.4484C93.535 16.4427 93.5406 16.4371 93.552 16.4257C93.552 16.4201 93.5689 16.4144 93.5689 16.4088C93.5802 16.3805 93.6198 16.256 93.6198 16.256V15.3961C93.6198 15.249 93.501 15.1358 93.3596 15.1358C93.337 15.1358 93.3257 15.1528 93.3087 15.1585C93.303 15.1585 93.286 15.1472 93.2804 15.1528C92.2847 15.5036 90.7345 15.6959 88.9355 15.6959H85.2242C85.0884 15.6903 84.9809 15.5828 84.9752 15.447V14.1175C84.9809 13.9817 85.0884 13.8686 85.2298 13.8686H91.8434C91.9848 13.8686 92.1036 13.7498 92.1036 13.6083V9.55193C92.1036 9.40484 91.9848 9.29169 91.8434 9.29169H83.5326C83.3855 9.29169 83.2723 9.41049 83.2723 9.55193V10.4402C83.2723 10.5872 83.3911 10.7004 83.5326 10.7004H90.1462C90.2819 10.7004 90.3894 10.8135 90.3951 10.9493V12.2449C90.3951 12.3807 90.2819 12.4938 90.1405 12.4938H83.5326C83.3855 12.4938 83.2723 12.6126 83.2723 12.7541C83.2723 12.7541 83.2723 12.7541 83.2723 12.7597V16.8387C83.2723 16.8387 83.2723 16.8387 83.2723 16.8444C83.2723 16.9915 83.3911 17.1046 83.5326 17.1046H88.8676C90.859 17.1046 92.5223 16.8727 93.4671 16.5106L93.4614 16.4993Z" fill="#B7BEC8"/>
<path d="M95.6962 19.13C95.1587 18.7284 94.3158 18.5247 93.1843 18.5247H86.8932C85.7673 18.5247 84.9187 18.7284 84.3813 19.13C83.8438 19.5317 83.5666 20.2106 83.5666 21.1328C83.5666 22.0549 83.8381 22.7395 84.3813 23.1582C84.9187 23.5768 85.7673 23.7861 86.8932 23.7861H93.1843C94.3101 23.7861 95.1531 23.5768 95.6962 23.1582C96.2336 22.7395 96.5109 22.0549 96.5109 21.1328C96.5109 20.2106 96.2393 19.5317 95.6962 19.13ZM94.6835 22.0946C94.4063 22.2926 93.9197 22.3944 93.2352 22.3944H86.8366C86.1521 22.3944 85.6655 22.2926 85.3883 22.0946C85.1111 21.8965 84.9753 21.5741 84.9753 21.1384C84.9753 20.7028 85.1167 20.3917 85.3883 20.205C85.6655 20.0183 86.1521 19.9221 86.8366 19.9221H93.2352C93.9197 19.9221 94.4063 20.0183 94.6835 20.205C94.9607 20.3917 95.0965 20.7085 95.0965 21.1384C95.0965 21.5684 94.9551 21.8965 94.6835 22.0946Z" fill="#B7BEC8"/>
</svg>
