<svg width="130" height="57" viewBox="0 0 130 57" fill="none" xmlns="http://www.w3.org/2000/svg">
<g clip-path="url(#clip0_5330_13397)">
<path d="M76.6549 22.9341H75.484C75.3435 22.9341 75.2295 23.048 75.2295 23.1886V37.0165C75.2295 37.1571 75.3435 37.2711 75.484 37.2711H76.6549C76.7955 37.2711 76.9095 37.1571 76.9095 37.0165V23.1886C76.9095 23.048 76.7955 22.9341 76.6549 22.9341Z" fill="#B7BEC8"/>
<path d="M68.4649 23.2715C65.9132 23.2715 64.1187 25.3842 64.1187 29.9341C64.1187 34.484 65.9132 36.5967 68.4649 36.5967C71.0167 36.5967 72.7985 34.484 72.7985 29.9341C72.7985 25.3842 71.004 23.2715 68.4649 23.2715ZM68.4649 35.0694C66.9377 35.0694 65.7795 33.574 65.7795 29.9341C65.7795 26.2941 66.9377 24.7987 68.4649 24.7987C69.9922 24.7987 71.1312 26.3069 71.1312 29.9341C71.1312 33.5613 69.954 35.0694 68.4649 35.0694Z" fill="#B7BEC8"/>
<path d="M80.5936 28.0376H92.3407C92.4807 28.0376 92.5952 27.9231 92.5952 27.7831V23.1886C92.6016 23.0486 92.487 22.9341 92.347 22.9341H91.2271C91.0871 22.9341 90.9725 23.0486 90.9725 23.1886V24.0095C90.9725 24.1495 90.8516 24.2641 90.7116 24.2641H82.2227C82.0827 24.2641 81.9682 24.1495 81.9682 24.0095V23.1886C81.9745 23.0486 81.86 22.9341 81.72 22.9341H80.6C80.46 22.9341 80.3455 23.0486 80.3455 23.1886V27.7831C80.3391 27.9231 80.4536 28.0376 80.5936 28.0376ZM81.9682 25.7531C81.9682 25.6131 82.0827 25.4986 82.2227 25.4986H90.7116C90.8516 25.4986 90.9662 25.6131 90.9662 25.7531V26.5231C90.9662 26.6631 90.8516 26.7776 90.7116 26.7776H82.2227C82.0827 26.7776 81.9682 26.6631 81.9682 26.5231V25.7531Z" fill="#B7BEC8"/>
<path d="M79.569 29.1831H93.3778C93.5178 29.1831 93.6323 29.2977 93.6323 29.4377V30.2204C93.6323 30.3604 93.5178 30.4749 93.3778 30.4749H79.569C79.429 30.4749 79.3145 30.3604 79.3145 30.2204V29.4313C79.3145 29.2913 79.429 29.1768 79.569 29.1768V29.1831Z" fill="#B7BEC8"/>
<path d="M92.6397 35.8774H82.1845C82.0445 35.8774 81.9299 35.7628 81.9299 35.6228V35.1901C81.9299 35.0501 82.0445 34.9356 82.1845 34.9356H92.3851C92.5251 34.9356 92.6397 34.821 92.6397 34.681V31.8493C92.6397 31.7093 92.5251 31.5947 92.3851 31.5947H80.5236C80.3836 31.5947 80.269 31.7093 80.269 31.8493V32.5683C80.269 32.7083 80.3836 32.8229 80.5236 32.8229H90.7625C90.9025 32.8229 91.017 32.9374 91.017 33.0774V33.5101C91.017 33.6501 90.9025 33.7647 90.7625 33.7647H80.5618C80.4218 33.7647 80.3072 33.8792 80.3072 34.0192V36.851C80.3072 36.991 80.4218 37.1055 80.5618 37.1055H92.6461C92.7861 37.1055 92.9006 36.991 92.9006 36.851V36.1319C92.9006 35.9919 92.7861 35.8774 92.6461 35.8774H92.6397Z" fill="#B7BEC8"/>
<path d="M60.1671 22.9341H61.2362C61.3762 22.9341 61.4907 23.0486 61.4907 23.1886V37.0165C61.4907 37.1565 61.3762 37.2711 61.2362 37.2711H60.1671C60.0271 37.2711 59.9126 37.1565 59.9126 37.0165V23.1886C59.9126 23.0486 60.0271 22.9341 60.1671 22.9341Z" fill="#B7BEC8"/>
<path d="M57.7807 23.0229H56.7116C56.5716 23.0229 56.4571 23.1375 56.4571 23.2775V28.8328C56.4571 28.9728 56.3426 29.0874 56.2026 29.0874H54.7262C54.5862 29.0874 54.4717 29.2019 54.4717 29.3419V30.3601C54.4717 30.5001 54.5862 30.6146 54.7262 30.6146H56.2026C56.3426 30.6146 56.4571 30.7291 56.4571 30.8691V36.7745C56.4571 36.9145 56.5716 37.029 56.7116 37.029H57.7807C57.9207 37.029 58.0352 36.9145 58.0352 36.7745V23.2839C58.0352 23.1439 57.9207 23.0293 57.7807 23.0293V23.0229Z" fill="#B7BEC8"/>
<path d="M54.8723 34.3949C54.8723 34.3949 54.8277 34.414 54.8023 34.4204C54.7959 34.4204 54.7768 34.4077 54.7704 34.414C53.765 34.7768 52.5241 34.9358 50.9714 34.9358H49.966C49.8324 34.9295 49.7305 34.8213 49.7242 34.694V30.7996C49.7242 30.6659 49.8324 30.5578 49.9724 30.5514H53.4596C53.5996 30.5514 53.7077 30.4369 53.7077 30.2969V29.3232C53.7077 29.1832 53.5932 29.0687 53.4532 29.0687H49.9724C49.8387 29.0687 49.7305 28.9542 49.7305 28.8205V25.1679C49.7305 25.0279 49.8451 24.9197 49.9787 24.9197H54.1595H54.1723C54.3059 24.907 54.4077 24.7988 54.4077 24.6652V23.6979C54.4077 23.5579 54.2932 23.4497 54.1595 23.4434H49.7305H48.3878C48.2478 23.4434 48.1333 23.5579 48.1333 23.6979V36.1513C48.1333 36.2913 48.2478 36.4058 48.3878 36.4058H50.8887C52.5559 36.4058 54.0132 36.2085 54.9613 35.8331C54.9932 35.8204 55.0186 35.8013 55.0377 35.7758C55.0377 35.7758 55.0377 35.7758 55.0441 35.7758C55.0441 35.7758 55.0441 35.7758 55.0441 35.7695C55.0822 35.7249 55.1141 35.6676 55.1141 35.604V34.6495C55.1141 34.5095 54.9995 34.3949 54.8595 34.3949H54.8723Z" fill="#B7BEC8"/>
<path d="M107.085 22.9341H108.237C108.377 22.9341 108.491 23.0486 108.491 23.1886V31.2257C108.491 31.3657 108.377 31.4803 108.237 31.4803H107.085C106.945 31.4803 106.831 31.3657 106.831 31.2257V23.1886C106.831 23.0486 106.945 22.9341 107.085 22.9341Z" fill="#B7BEC8"/>
<path d="M105.558 30.2522C105.558 30.2522 105.596 30.2204 105.615 30.2013C105.621 30.1949 105.634 30.1886 105.64 30.1822C105.64 30.1758 105.659 30.1695 105.659 30.1695C105.672 30.144 105.71 30.0231 105.71 30.0167V29.1895C105.71 29.0495 105.596 28.935 105.456 28.935C105.437 28.935 105.424 28.954 105.405 28.954C105.399 28.954 105.386 28.9413 105.379 28.9477C104.419 29.2849 102.93 29.4695 101.192 29.4695H97.6542C97.5269 29.4631 97.4251 29.3613 97.4187 29.234V27.9486C97.4187 27.815 97.5269 27.7132 97.6606 27.7068H103.999C104.139 27.7068 104.247 27.5923 104.247 27.4523V23.5451C104.247 23.4051 104.132 23.2905 103.992 23.2905H95.987C95.847 23.2905 95.7324 23.4051 95.7324 23.5451V24.4041C95.7324 24.5441 95.847 24.6587 95.987 24.6587H102.357C102.49 24.6587 102.592 24.7669 102.599 24.9005V26.1477C102.599 26.2814 102.49 26.3832 102.357 26.3896H96.0188C95.8788 26.3896 95.7642 26.5041 95.7642 26.6441C95.7642 26.6441 95.7642 26.6441 95.7642 26.6505V30.5831C95.7642 30.5831 95.7642 30.5831 95.7642 30.5895C95.7642 30.7295 95.8788 30.844 96.0188 30.844H101.122C103.044 30.844 104.648 30.6213 105.551 30.2713L105.558 30.2522Z" fill="#B7BEC8"/>
<path d="M107.709 32.7656C107.187 32.3774 106.379 32.1802 105.291 32.1802H99.2262C98.1381 32.1802 97.3236 32.3774 96.8081 32.7656C96.2863 33.1538 96.0254 33.8029 96.0254 34.7001C96.0254 35.5974 96.2863 36.2528 96.8081 36.6537C97.3299 37.0546 98.1444 37.2583 99.2262 37.2583H105.291C106.379 37.2583 107.187 37.0546 107.709 36.6537C108.231 36.2528 108.492 35.591 108.492 34.7001C108.492 33.8092 108.231 33.1602 107.709 32.7656ZM106.735 35.6228C106.468 35.8137 105.997 35.9156 105.342 35.9156H99.1753C98.5135 35.9156 98.049 35.8201 97.7817 35.6228C97.5145 35.4319 97.3808 35.1201 97.3808 34.7001C97.3808 34.2801 97.5145 33.981 97.7817 33.7965C98.049 33.6183 98.5199 33.5229 99.1753 33.5229H105.342C105.997 33.5229 106.468 33.612 106.735 33.7965C107.002 33.9747 107.136 34.2801 107.136 34.7001C107.136 35.1201 107.002 35.4256 106.735 35.6228Z" fill="#B7BEC8"/>
<path d="M39.9117 24.0861C39.6699 23.0552 39.2563 22.0816 38.8554 21.4007C38.6199 20.9998 38.4099 20.5798 38.1872 20.1344C37.1118 17.9771 35.8964 15.5272 31.0601 14.1718C29.0174 13.599 27.0638 14.6299 25.772 15.3108C25.3711 15.5208 25.0275 15.7054 24.8111 15.7626C24.4866 15.8517 24.2066 15.8454 23.8757 15.8326C23.2839 15.8135 22.6094 15.7945 21.5848 16.3608C19.7076 17.4044 18.5113 18.7726 17.9322 20.5798C15.7304 22.9661 14.3813 26.1479 14.3813 29.6478C14.3813 37.0231 20.3821 43.0239 27.7574 43.0239C35.1327 43.0239 41.1335 37.0231 41.1335 29.6478C41.1335 27.6624 40.6944 25.7788 39.9181 24.0797L39.9117 24.0861ZM37.0418 31.7668C36.4118 32.9632 35.4445 33.6377 34.5664 33.5041C34.4327 33.4405 34.2737 33.4977 34.2037 33.6314C33.7837 34.5159 33.211 35.4004 32.8928 35.744C31.6201 37.1313 28.642 40.383 24.2448 37.5195C22.7939 36.5777 21.6676 35.0886 20.8912 33.0905C20.8912 33.0905 20.8912 33.0905 20.8912 33.0841C20.8785 33.0586 20.8658 33.0395 20.8467 33.0205C20.8467 33.0205 20.8403 33.0077 20.8339 33.0014C20.7894 32.9568 20.7385 32.9314 20.6749 32.925C20.6621 32.925 20.6558 32.925 20.643 32.925C20.643 32.925 20.6367 32.925 20.6303 32.925C19.7394 32.9632 18.7594 32.2696 18.1867 31.1878C17.8304 30.5132 17.684 29.7751 17.7731 29.126C17.8558 28.5087 18.1485 28.0378 18.5876 27.8024C18.6703 27.7578 18.7531 27.726 18.8422 27.7006C19.0203 27.9424 19.1922 28.1269 19.3258 28.2478C19.3385 28.5406 19.3894 29.3105 19.574 30.3351C19.5994 30.4687 19.714 30.5578 19.8412 30.5578C19.8603 30.5578 19.8731 30.5578 19.8921 30.5578C20.0385 30.5323 20.134 30.3923 20.1085 30.246C19.9176 29.1896 19.8794 28.3942 19.8667 28.1842C20.0067 27.866 20.7894 26.1733 21.3621 25.467C21.3876 25.4352 21.4194 25.4033 21.4448 25.3779C23.5575 24.1116 25.9566 25.117 25.982 25.1234C26.122 25.1806 26.2747 25.1234 26.3384 24.9834C26.3956 24.8434 26.3384 24.6906 26.1984 24.627C26.1093 24.5888 24.3402 23.8443 22.3994 24.3852C23.2712 23.5134 24.1811 22.4889 24.4611 20.7898C25.3202 20.5162 29.5583 19.2944 31.2764 21.1398C32.0528 21.9798 32.3773 23.2016 32.6382 24.4297C31.111 24.1943 29.7301 24.697 29.6538 24.7225C29.5138 24.7734 29.4438 24.9324 29.4947 25.0724C29.5456 25.2124 29.7047 25.2824 29.8447 25.2315C29.8638 25.2315 31.2955 24.7097 32.7591 25.0024C33.1346 26.7906 33.5546 28.5851 35.3236 29.1196C35.3236 29.1769 35.3173 29.2278 35.3109 29.2724C35.2918 29.5205 35.2855 29.616 35.2091 29.9914C35.1773 30.1378 35.2727 30.2778 35.4191 30.3096C35.4382 30.3096 35.4573 30.3096 35.4764 30.3096C35.6036 30.3096 35.7118 30.2205 35.7436 30.0932C35.8264 29.686 35.8391 29.5587 35.8582 29.3105C35.8582 29.2851 35.8582 29.2596 35.8582 29.2342C36.0554 29.2596 36.2654 29.2787 36.4882 29.2787C36.5709 29.2787 36.66 29.2787 36.7491 29.2787C36.9527 29.2724 37.1436 29.2469 37.3281 29.2214C37.6018 29.9405 37.5 30.9141 37.0418 31.7796V31.7668ZM33.2428 37.6149C34.3373 38.1113 35.1455 38.6522 35.82 39.3521C34.9864 40.0458 34.0573 40.6312 33.0646 41.0957C33.1791 39.7658 33.2237 38.5312 33.2428 37.6149ZM22.6857 41.2039C21.6994 40.7712 20.7767 40.2112 19.9367 39.5494C20.5476 38.9703 21.3621 38.474 22.393 38.0285C22.4694 39.0212 22.5648 40.1221 22.6857 41.2039ZM15.1322 29.6478C15.1322 26.8542 16.0486 24.2706 17.5886 22.177C17.5504 22.5143 17.5249 22.8707 17.5186 23.2334C17.4804 25.0088 18.0022 26.3579 18.5304 27.236C18.4667 27.2615 18.3967 27.2869 18.3331 27.3251C17.7349 27.6433 17.3404 28.2542 17.2322 29.0496C17.1304 29.8133 17.2958 30.6596 17.7031 31.4359C18.3331 32.6259 19.4149 33.4086 20.4521 33.4532C20.9358 34.6495 21.5467 35.674 22.2785 36.5077C22.2975 36.8004 22.3166 37.1186 22.3421 37.4558C21.1458 37.9522 20.2103 38.5249 19.5103 39.1994C16.8249 36.8831 15.1259 33.4595 15.1259 29.6478H15.1322ZM23.2584 41.4394C23.0866 39.9503 22.9593 38.3722 22.8703 37.1186C23.2075 37.4367 23.5702 37.7231 23.9521 37.9713C25.3202 38.8622 26.5675 39.1994 27.6811 39.1994C29.9656 39.1994 31.6837 37.7676 32.7146 36.7177C32.7146 37.6404 32.6764 39.4094 32.4982 41.3376C31.0346 41.9357 29.431 42.2666 27.7574 42.2666C26.1729 42.2666 24.6584 41.9675 23.2584 41.433V41.4394ZM36.2273 38.9958C35.4636 38.194 34.5218 37.5767 33.2555 37.0295C33.2555 36.6031 33.2555 36.2977 33.2555 36.1513C33.2682 36.1386 33.281 36.1195 33.2937 36.1068C33.6119 35.7631 34.1591 34.9359 34.6046 34.045C34.6682 34.045 34.7318 34.0641 34.7955 34.0641C35.8073 34.0641 36.8509 33.3005 37.5254 32.0214C38.0472 31.035 38.1618 29.9469 37.869 29.0878C38.709 28.8524 39.3263 28.3815 39.7081 27.6751C39.8672 27.3824 39.969 27.0642 40.039 26.7333C40.2617 27.6688 40.3826 28.6487 40.3826 29.6542C40.3826 33.3577 38.779 36.6922 36.2336 39.0022L36.2273 38.9958Z" fill="#B7BEC8"/>
<path d="M27.9102 31.862C28.1775 31.862 28.4765 31.8047 28.8011 31.6329C28.9347 31.5629 28.9856 31.4038 28.9156 31.2702C28.8456 31.1366 28.6865 31.0857 28.5529 31.1557C27.802 31.5438 27.2357 31.1302 27.2102 31.1111C27.0957 31.022 26.9238 31.0411 26.8348 31.1557C26.7457 31.2702 26.7648 31.442 26.8793 31.5375C26.9048 31.5566 27.3057 31.862 27.9102 31.862Z" fill="#B7BEC8"/>
<path d="M31.0473 33.3764C27.9037 34.7764 25.1929 33.6564 25.1674 33.6437C25.0274 33.5864 24.8747 33.6437 24.8111 33.7837C24.7538 33.9237 24.8111 34.0764 24.9511 34.14C25.0211 34.1718 26.1219 34.63 27.7319 34.63C28.7437 34.63 29.9655 34.4518 31.2637 33.8727C31.3973 33.8091 31.4609 33.65 31.3973 33.5164C31.3337 33.3828 31.1746 33.3191 31.0409 33.3828L31.0473 33.3764Z" fill="#B6C0CC"/>
<path d="M31.3084 26.5996C30.8184 26.5996 30.4175 27.1978 30.4175 27.9423C30.4175 28.6868 30.8184 29.285 31.3084 29.285C31.7984 29.285 32.1993 28.6868 32.1993 27.9423C32.1993 27.1978 31.7984 26.5996 31.3084 26.5996Z" fill="#B7BEC8"/>
<path d="M25.3077 27.8593C25.3077 27.1211 24.9068 26.5166 24.4168 26.5166C23.9268 26.5166 23.5259 27.1148 23.5259 27.8593C23.5259 28.6038 23.9268 29.202 24.4168 29.202C24.9068 29.202 25.3077 28.6038 25.3077 27.8593Z" fill="#B7BEC8"/>
</g>
<defs>
<clipPath id="clip0_5330_13397">
<rect width="130" height="57" fill="white"/>
</clipPath>
</defs>
</svg>
