<svg width="16" height="17" viewBox="0 0 16 17" fill="none" xmlns="http://www.w3.org/2000/svg">
    <path
        d="M1.33071 8.87788C0.882829 9.42389 0.961884 10.2296 1.50762 10.6777L7.31137 15.4389C7.85751 15.8867 8.66309 15.8067 9.11107 15.2606L14.7735 8.35836C15.0468 8.0251 15.1342 7.57687 15.0055 7.16557L13.6469 2.82752C13.4932 2.33684 13.0598 1.98524 12.548 1.93607L8.10664 1.50975C7.68268 1.4692 7.26643 1.64259 6.99622 1.97182L1.33071 8.87788ZM7.92337 2.73243C7.94001 2.71228 7.96604 2.70176 7.99205 2.70414L12.4334 3.13046C12.465 3.13349 12.4918 3.15593 12.5013 3.1862L13.8605 7.52349C13.8685 7.54886 13.8631 7.57715 13.8463 7.59775L8.18392 14.5C8.15628 14.5337 8.10635 14.5384 8.07259 14.511L2.26885 9.74981C2.23549 9.72204 2.23032 9.67211 2.25786 9.63848L7.92337 2.73243ZM7.80083 5.16827C6.99532 6.15033 7.13911 7.59989 8.12098 8.40558C9.10304 9.21119 10.552 9.06817 11.3577 8.08619C12.1632 7.10407 12.0203 5.65513 11.0383 4.84949C10.0563 4.04406 8.60653 4.18643 7.80083 5.16827ZM8.72874 5.92949C9.11398 5.46017 9.80791 5.39145 10.2777 5.77664C10.7474 6.16204 10.8155 6.85598 10.4305 7.32558C10.0453 7.79505 9.35202 7.86305 8.88221 7.47768C8.41259 7.09222 8.34367 6.39904 8.72874 5.92949Z"
        fill="#969FAC" />
    <path
        d="M1.3309 8.87789C0.883057 9.42404 0.962484 10.2304 1.50857 10.6783L7.31156 15.4389C7.85764 15.8867 8.66399 15.8072 9.11202 15.2613L14.7744 8.35898C15.0477 8.02571 15.1346 7.57665 15.0059 7.16532L13.6467 2.82757C13.4929 2.33685 13.0603 1.98592 12.5485 1.93674L8.10709 1.50996C7.68295 1.46932 7.26646 1.64266 6.99621 1.97208L1.3309 8.87789ZM7.92386 2.7331C7.94058 2.71272 7.96651 2.70204 7.99275 2.70456L12.4341 3.13134C12.4657 3.13444 12.4925 3.15588 12.502 3.18616L13.8608 7.52442C13.8684 7.5496 13.8629 7.57713 13.8463 7.59755L8.18386 14.4998C8.15617 14.5333 8.10628 14.5387 8.07258 14.5113L2.26959 9.75069C2.23589 9.72304 2.23105 9.67268 2.25856 9.63891L7.92386 2.7331ZM7.80149 5.16823C6.99583 6.1503 7.139 7.59966 8.12092 8.40538C9.10304 9.21102 10.5529 9.06847 11.3586 8.08636C12.164 7.10425 12.0206 5.6544 11.0386 4.84879C10.0566 4.04338 8.6072 4.18647 7.80149 5.16823ZM8.72914 5.92925C9.1144 5.46001 9.80747 5.39177 10.2772 5.77695C10.7469 6.16232 10.8154 6.85533 10.4304 7.32493C10.0452 7.79453 9.3518 7.86313 8.88194 7.47773C8.41227 7.09224 8.34393 6.3988 8.72914 5.92925Z"
        fill="#969FAC" />
</svg>
