<svg width="46" height="19" viewBox="0 0 46 19" fill="none" xmlns="http://www.w3.org/2000/svg">
<rect x="0.3" y="0.3" width="45.4" height="18.4" rx="1.7" fill="#EFF6FF"/>
<path d="M9.25545 7.34909C9.35605 7.55209 10.0603 7.87111 10.4929 8.04511C11.1367 8.30612 11.7303 8.5188 12.4244 8.74114L12.7866 7.96778C11.9717 7.71643 11.3983 7.52309 10.8651 7.29109C10.181 6.99141 9.7484 6.7014 9.7484 6.28571V6.14071H12.4043V5.34801H6.10662V6.14071H8.75244V6.28571C8.75244 6.7014 8.29974 7.03008 7.63576 7.30075C7.09252 7.52309 6.53921 7.71643 5.71427 7.96778L6.0865 8.74114C6.76053 8.52846 7.35408 8.30612 8.03817 8.04511C8.4607 7.88077 9.14479 7.55209 9.24539 7.34909H9.25545ZM6.09656 11.8346H11.3278V14H12.3238V11.0226H6.09656V11.8346ZM5 9.28249V10.0945H13.5109V9.28249H5Z" fill="#537CAF"/>
<path d="M21.8423 13.913V5H20.8463V13.913H21.8423ZM17.0738 9.4565C17.1543 9.64984 17.3957 9.92052 17.6774 10.2105C18.0597 10.6069 18.5124 11.0419 19.2065 11.6606L19.8504 11.0032C19.2468 10.4909 18.8041 10.0849 18.3715 9.63051C17.7579 8.97315 17.5667 8.5768 17.5667 7.8131V5.63802H16.5607V7.8131C16.5607 8.49946 16.3997 8.93448 15.7861 9.6015C15.3334 10.0849 14.8102 10.5779 14.1966 11.0999L14.8505 11.7476C15.5346 11.1482 16.0678 10.6359 16.4802 10.2009C16.8021 9.86251 16.9732 9.66917 17.0637 9.4565H17.0738Z" fill="#537CAF"/>
<path d="M25.5661 5.66702C24.2281 5.66702 23.534 6.53706 23.534 8.22879V9.17615C23.534 10.8679 24.2382 11.7379 25.5661 11.7379C26.5319 11.7379 27.1556 11.2836 27.4373 10.3942H28.6647V13.478H29.6304V5.18367H28.6647V6.96241H27.4172C27.1355 6.11171 26.5017 5.66702 25.5661 5.66702ZM31.391 5H30.4151V13.913H31.391V5ZM25.5661 10.8969C24.7915 10.8969 24.4696 10.2685 24.4696 9.06982V8.33512C24.4696 7.13641 24.7915 6.51772 25.5661 6.51772C26.3408 6.51772 26.6627 7.13641 26.6627 8.33512V9.06982C26.6627 10.2589 26.3508 10.8969 25.5661 10.8969ZM27.5983 8.22879C27.5983 8.07411 27.5882 7.92911 27.5782 7.7841H28.6647V9.5725H27.5782C27.5882 9.44683 27.5983 9.31149 27.5983 9.17615V8.22879Z" fill="#537CAF"/>
<path d="M37.1973 7.27175C37.1973 6.41139 36.4729 5.31901 34.8935 5.31901C33.314 5.31901 32.5897 6.41139 32.5897 7.27175V7.76477C32.5897 8.62513 33.314 9.71751 34.8935 9.71751C36.4729 9.71751 37.1973 8.62513 37.1973 7.76477V7.27175ZM33.8271 11.4576H38.6962V14H39.6922V10.6359H33.8271V11.4576ZM41 6.20838H39.6922V5H38.7163V10.1719H39.6922V8.85714H41V8.03545H39.6922V7.03008H41V6.20838ZM36.2415 7.71643C36.2415 8.28679 35.819 8.88614 34.8935 8.88614C33.9679 8.88614 33.5454 8.28679 33.5454 7.71643V7.32009C33.5454 6.74973 33.9679 6.15038 34.8935 6.15038C35.819 6.15038 36.2415 6.74973 36.2415 7.32009V7.71643Z" fill="#537CAF"/>
<rect x="0.3" y="0.3" width="45.4" height="18.4" rx="1.7" stroke="#E5F0FE" stroke-width="0.6"/>
</svg>
