<svg width="54" height="19" viewBox="0 0 54 19" fill="none" xmlns="http://www.w3.org/2000/svg">
<rect x="0.3" y="0.3" width="53.4" height="18.4" rx="1.7" fill="#EFF6FF"/>
<path d="M7.87809 8.50913C9.29207 8.50913 10.1545 7.7841 10.1545 6.99141V6.68206C10.1545 5.88937 9.29207 5.16434 7.87809 5.16434C6.46412 5.16434 5.60169 5.88937 5.60169 6.68206V6.99141C5.60169 7.7841 6.46412 8.50913 7.87809 8.50913ZM12.5512 11.9023V5H11.5685V10.3072H9.61297V11.1096H11.5685V11.9023H12.5512ZM7.48699 11.4382H6.4942V13.826H12.7418V13.0043H7.48699V11.4382ZM8.2692 11.0806V9.77551C9.24193 9.73684 10.1144 9.67884 10.9668 9.59184L10.8966 8.78947C8.70041 8.96348 7.21623 9.01182 5 9.00215V9.83351C5.82231 9.83351 6.58446 9.82385 7.28643 9.80451V11.0806H8.2692ZM7.87809 7.70677C7.0257 7.70677 6.54434 7.31042 6.54434 6.93341V6.74006C6.54434 6.36305 7.0257 5.97637 7.87809 5.97637C8.73049 5.97637 9.21185 6.36305 9.21185 6.74006V6.93341C9.21185 7.31042 8.73049 7.70677 7.87809 7.70677Z" fill="#537CAF"/>
<path d="M17.587 6.85607C17.587 7.86144 17.0856 8.33512 14.2576 9.47583L14.6387 10.2395C17.7976 8.95381 18.5597 8.41246 18.5597 6.92374V5.52202H14.6387V6.33405H17.587V6.85607ZM21.6785 10.2202V5H20.7057V6.30505H19.0711V7.12675H20.7057V8.14178H18.9207V8.96348H20.7057V10.2202H21.6785ZM15.5914 11.5059H20.6857V14H21.6785V10.6842H15.5914V11.5059Z" fill="#537CAF"/>
<path d="M23.084 8.71214V9.50483H26.8245V10.3362H24.2473V11.1192H29.3717V11.7669H24.2974V13.971H30.6152V13.188H25.2701V12.5306H30.3444V10.3362H27.8273V9.50483H31.5678V8.71214H23.084ZM27.3259 7.07841C27.4262 7.27175 28.1282 7.5811 28.5594 7.74544C29.2012 7.98711 29.8129 8.18045 30.5149 8.39313L30.8458 7.6101C30.0636 7.38776 29.4519 7.20408 28.9304 6.99141C28.2485 6.71106 27.8173 6.43072 27.8173 6.0247H30.4647V5.23201H24.1871V6.0247H26.8245C26.8245 6.43072 26.3632 6.74973 25.7114 7.00107C25.1799 7.20408 24.5882 7.38776 23.796 7.6101L24.1369 8.39313C24.8189 8.19012 25.4406 7.99678 26.1125 7.74544C26.5337 7.59076 27.2156 7.27175 27.3159 7.07841H27.3259Z" fill="#537CAF"/>
<path d="M39.943 13.913V5H38.9502V7.7551H36.9846V8.59613H38.9502V13.913H39.943ZM35.0091 9.43716C35.0893 9.63051 35.33 9.90118 35.6108 10.1912C35.9919 10.5875 36.4431 11.0226 37.1351 11.6412L37.7769 10.9839C37.1752 10.4715 36.7339 10.0655 36.3027 9.61117C35.691 8.95381 35.5005 8.55747 35.5005 7.79377V5.64769H34.4977V7.79377C34.4977 8.48013 34.3372 8.91515 33.7255 9.58217C33.2742 10.0655 32.7527 10.5585 32.141 11.0806L32.7929 11.7282C33.4748 11.1289 34.0063 10.6165 34.4174 10.1815C34.7383 9.84318 34.9088 9.64984 34.9991 9.43716H35.0091Z" fill="#537CAF"/>
<path d="M42.251 11.9699C45.9113 9.83351 46.0517 9.29216 46.0517 7.53276V5.8217H41.9101V6.64339H45.0689V7.52309C45.0689 8.89581 44.9285 9.3985 41.7295 11.2062L42.251 11.9699ZM49 13.913V5H48.0072V13.913H49Z" fill="#537CAF"/>
<rect x="0.3" y="0.3" width="53.4" height="18.4" rx="1.7" stroke="#E5F0FE" stroke-width="0.6"/>
</svg>
