<svg width="45" height="19" viewBox="0 0 45 19" fill="none" xmlns="http://www.w3.org/2000/svg">
<rect x="0.3" y="0.3" width="44.4" height="18.4" rx="1.7" fill="#EFF6FF"/>
<path d="M7.58935 10.6426C8.99191 10.6426 9.68828 9.85266 9.68828 9.04389V8.76175C9.68828 7.95298 8.99191 7.16301 7.58935 7.16301C6.18678 7.16301 5.49041 7.94357 5.49041 8.76175V9.04389C5.49041 9.85266 6.18678 10.6426 7.58935 10.6426ZM12.4738 11.3762V5.08464H11.5224V7.27586H10.1983V8.07524H11.5224V9.11912H10.1983V9.9185H11.5224V11.3762H12.4738ZM7.79532 11.2633H6.82431V13.6614H12.6601V12.8527H7.79532V11.2633ZM10.2277 6.04389H8.06014V5H7.09894V6.04389H5V6.83386H10.2277V6.04389ZM7.58935 9.89969C6.79489 9.89969 6.41237 9.45768 6.41237 8.99686V8.80878C6.41237 8.34796 6.78508 7.90596 7.58935 7.90596C8.39361 7.90596 8.76632 8.34796 8.76632 8.80878V8.99686C8.76632 9.45768 8.3838 9.89969 7.58935 9.89969Z" fill="#5C83B6"/>
<path d="M15.5747 12.3448C15.5747 13.2571 16.5947 14 18.3014 14C20.008 14 21.028 13.2571 21.028 12.3448V11.9687C21.028 11.0564 20.008 10.3135 18.3014 10.3135C16.5947 10.3135 15.5747 11.0564 15.5747 11.9687V12.3448ZM16.6536 8.23511C16.7222 8.37618 16.9184 8.55486 17.2127 8.78997C17.6834 9.16614 18.1052 9.47649 18.6152 9.81505L19.1645 9.13793C18.5858 8.77116 18.0758 8.41379 17.6148 8.0094C17.1832 7.63323 17.1048 7.31348 17.1048 6.7116V6.42006H18.8997V5.62069H14.2212V6.42006H16.124V6.74922C16.124 7.43574 15.9572 7.7931 15.4766 8.24451C15.1235 8.57367 14.5448 8.99687 13.9171 9.42006L14.486 10.0878C15.0352 9.721 15.5649 9.31661 15.9866 8.96865C16.3005 8.71473 16.5849 8.39498 16.6438 8.23511H16.6536ZM20.0766 12.2884C20.0766 12.7492 19.3901 13.2382 18.3014 13.2382C17.2127 13.2382 16.5261 12.7492 16.5261 12.2884V12.0251C16.5261 11.5643 17.2127 11.0752 18.3014 11.0752C19.3901 11.0752 20.0766 11.5643 20.0766 12.0251V12.2884ZM20.9888 10.2006V7.9906H22.2736V7.18182H20.9888V5.08464H20.0276V10.2006H20.9888Z" fill="#5C83B6"/>
<path d="M28.0227 8.44201C28.5524 8.69592 29.2193 9.00627 30.0334 9.30721L30.4061 8.55486C29.6803 8.29154 28.9545 7.98119 28.3268 7.65204C27.5323 7.23824 27.4244 6.83386 27.4146 6.37304H30.0236V5.58307H23.8445V6.37304H26.4436C26.4338 6.83386 26.3161 7.23824 25.5217 7.65204C24.8939 7.98119 24.1681 8.29154 23.4423 8.55486L23.8249 9.31661C24.6389 9.01567 25.3059 8.70533 25.8355 8.45141C26.4829 8.14107 26.8163 7.90596 26.9242 7.68966H26.934C27.0517 7.90596 27.3754 8.13166 28.0227 8.44201ZM27.4146 13.7555V10.7837H31.0731V9.99373H22.7754V10.7837H26.4338V13.7555H27.4146Z" fill="#5C83B6"/>
<path d="M38.7936 5.4232H32.9087V8.60188H38.7936V5.4232ZM36.4593 11.884V10.21H40V9.42006H31.7023V10.21H35.4785V11.884H36.4593ZM33.8699 11.1034H32.8989V13.6614H38.98V12.8527H33.8699V11.1034ZM37.8324 7.82132H33.8699V6.20376H37.8324V7.82132Z" fill="#5C83B6"/>
<rect x="0.3" y="0.3" width="44.4" height="18.4" rx="1.7" stroke="#E5F0FE" stroke-width="0.6"/>
</svg>
