<svg width="27" height="19" viewBox="0 0 27 19" fill="none" xmlns="http://www.w3.org/2000/svg">
<rect x="0.3" y="0.3" width="26.4" height="18.4" rx="1.7" fill="#EFF6FF"/>
<path d="M11.0537 9.28165V6.52848H12.2068V5.75H5.91286V6.52848H7.08517V9.28165H5.8456V10.0601H8.60341V11.788H5V12.5854H13.1293V11.788H9.53549V10.0601H12.2837V9.28165H11.0537ZM8.03648 6.52848H10.1024V9.28165H8.03648V6.52848Z" fill="#5C83B6"/>
<path d="M15.437 12.3291C15.437 13.25 16.4363 14 18.1083 14C19.7803 14 20.7796 13.25 20.7796 12.3291V11.9494C20.7796 11.0285 19.7803 10.2785 18.1083 10.2785C16.4363 10.2785 15.437 11.0285 15.437 11.9494V12.3291ZM16.494 8.18038C16.5612 8.32278 16.7534 8.50316 17.0417 8.74051C17.5029 9.12025 17.9161 9.43354 18.4158 9.77532L18.9539 9.09177C18.387 8.72152 17.8873 8.36076 17.4357 7.95253C17.0129 7.57278 16.936 7.25 16.936 6.64241V6.3481H18.6945V5.54114H14.1109V6.3481H15.9751V6.68038C15.9751 7.37342 15.8117 7.73418 15.3409 8.18987C14.995 8.52215 14.428 8.94937 13.813 9.37658L14.3704 10.0506C14.9085 9.68038 15.4274 9.27215 15.8406 8.92089C16.1481 8.66456 16.4267 8.34177 16.4844 8.18038H16.494ZM19.8476 12.2722C19.8476 12.7373 19.1749 13.231 18.1083 13.231C17.0417 13.231 16.3691 12.7373 16.3691 12.2722V12.0063C16.3691 11.5411 17.0417 11.0475 18.1083 11.0475C19.1749 11.0475 19.8476 11.5411 19.8476 12.0063V12.2722ZM20.7412 10.1646V7.93354H22V7.11709H20.7412V5H19.7995V10.1646H20.7412Z" fill="#5C83B6"/>
<rect x="0.3" y="0.3" width="26.4" height="18.4" rx="1.7" stroke="#E5F0FE" stroke-width="0.6"/>
</svg>
