<svg width="24" height="24" viewBox="0 0 24 24" fill="none" xmlns="http://www.w3.org/2000/svg">
<circle cx="12" cy="12" r="8" fill="#B7BEC8"/>
<path fill-rule="evenodd" clip-rule="evenodd" d="M14.9879 10.1511C15.3296 9.80941 15.3296 9.25539 14.9879 8.91368C14.6462 8.57197 14.0922 8.57197 13.7505 8.91368L11.9453 10.7188L10.0894 8.8629C9.74768 8.52119 9.19366 8.52119 8.85195 8.8629C8.51024 9.20461 8.51024 9.75862 8.85195 10.1003L10.7079 11.9563L8.90173 13.7624C8.56002 14.1041 8.56002 14.6581 8.90173 14.9998C9.24344 15.3416 9.79746 15.3416 10.1392 14.9998L11.9453 13.1937L13.8017 15.0501C14.1434 15.3918 14.6974 15.3918 15.0391 15.0501C15.3808 14.7084 15.3808 14.1544 15.0391 13.8126L13.1827 11.9563L14.9879 10.1511Z" fill="white"/>
</svg>
