<svg width="24" height="24" viewBox="0 0 24 24" fill="none" xmlns="http://www.w3.org/2000/svg">
<path fill-rule="evenodd" clip-rule="evenodd" d="M14.3639 6.3529C13.606 6.13046 12.8144 6 12 6C6.47715 6 2 12 2 12C2 12 3.30111 13.7437 5.36575 15.351L8.05456 12.6622C8.01868 12.4468 8 12.2256 8 12C8 9.79086 9.79086 8 12 8C12.2256 8 12.4468 8.01868 12.6622 8.05456L14.3639 6.3529ZM10.6959 15.7826C11.1047 15.9235 11.5434 16 12 16C14.2091 16 16 14.2091 16 12C16 11.5434 15.9235 11.1047 15.7826 10.6959L18.1751 8.30346C20.5041 9.99531 22 12 22 12C22 12 17.5228 18 12 18C10.9661 18 9.96877 17.7897 9.03064 17.4479L10.6959 15.7826Z" fill="#B7BEC8"/>
<rect x="17.7266" y="4.5" width="2" height="18" rx="1" transform="rotate(45 17.7266 4.5)" fill="#B7BEC8"/>
</svg>
