<svg width="52" height="52" viewBox="0 0 52 52" fill="none" xmlns="http://www.w3.org/2000/svg">
<circle cx="26" cy="26" r="15" fill="#DBFE04"/>
<path d="M26.5902 25.2084C26.5902 24.7502 26.2264 24.3789 25.7776 24.3789C25.3287 24.3789 24.9649 24.7502 24.9649 25.2084V27.5784C24.9649 28.0365 25.3287 28.4078 25.7776 28.4078H28.0994C28.5482 28.4078 28.912 28.0365 28.912 27.5784C28.912 27.1202 28.5482 26.7489 28.0994 26.7489H26.5902V25.2084Z" fill="#365084"/>
<path fill-rule="evenodd" clip-rule="evenodd" d="M32.7658 23.7896C33.2241 23.2301 33.5 22.5095 33.5 21.7232C33.5 19.9431 32.0863 18.5 30.3423 18.5C29.3552 18.5 28.4739 18.9623 27.8948 19.6865C27.2894 19.5255 26.6543 19.4399 25.9995 19.4399C25.3452 19.4399 24.7104 19.5254 24.1054 19.6861C23.5263 18.9622 22.6451 18.5001 21.6582 18.5001C19.9142 18.5001 18.5005 19.9431 18.5005 21.7232C18.5005 22.509 18.776 23.2292 19.2337 23.7885C18.7634 24.7893 18.5 25.9107 18.5 27.0949C18.5 31.3227 21.8576 34.75 25.9995 34.75C30.1413 34.75 33.499 31.3227 33.499 27.0949C33.499 25.9112 33.2358 24.7902 32.7658 23.7896ZM31.1926 27.1383C31.1926 30.0537 28.8773 32.417 26.0212 32.417C23.1651 32.417 20.8498 30.0537 20.8498 27.1383C20.8498 24.223 23.1651 21.8596 26.0212 21.8596C28.8773 21.8596 31.1926 24.223 31.1926 27.1383Z" fill="#365084"/>
</svg>
