<svg width="18" height="18" viewBox="0 0 18 18" fill="none" xmlns="http://www.w3.org/2000/svg">
<g clip-path="url(#clip0_6379_21193)">
<path d="M14.7999 12.4454C15.6386 11.0316 15.9323 9.36036 15.6259 7.74539C15.3195 6.13042 14.4341 4.68285 13.1359 3.6745C11.8377 2.66614 10.2161 2.16638 8.57556 2.26904C6.93499 2.3717 5.38832 3.06973 4.22599 4.23206C3.06366 5.39438 2.36563 6.94104 2.26296 8.58161C2.16029 10.2222 2.66005 11.8438 3.66839 13.142C4.67674 14.4401 6.12431 15.3256 7.73928 15.632C9.35425 15.9384 11.0255 15.6447 12.4393 14.806L12.4393 14.806L14.7706 15.4721C14.867 15.4996 14.9691 15.5009 15.0662 15.4757C15.1633 15.4505 15.2519 15.3999 15.3229 15.3289C15.3938 15.258 15.4445 15.1694 15.4696 15.0723C15.4948 14.9752 15.4935 14.8731 15.466 14.7767L14.7999 12.4453L14.7999 12.4454Z" fill="white" fill-opacity="0.25" stroke="white" stroke-width="1.2" stroke-linecap="round" stroke-linejoin="round"/>
<path d="M7.57031 7.41406L10.5534 10.3972" stroke="white" stroke-width="1.2" stroke-linecap="round" stroke-linejoin="round"/>
<path d="M10.3984 7.41406L7.41533 10.3972" stroke="white" stroke-width="1.2" stroke-linecap="round" stroke-linejoin="round"/>
</g>
<defs>
<clipPath id="clip0_6379_21193">
<rect width="18" height="18" fill="white"/>
</clipPath>
</defs>
</svg>
