<svg width="20" height="20" viewBox="0 0 20 20" fill="none" xmlns="http://www.w3.org/2000/svg">
<path d="M10.0008 2.08423C14.3725 2.08435 17.9164 5.62837 17.9166 10.0001C17.9166 14.3719 14.3726 17.9157 10.0008 17.9159C5.6289 17.9158 2.08496 14.372 2.08496 10.0001C2.08517 5.62833 5.62903 2.08429 10.0008 2.08423ZM10.0008 3.41723C6.3654 3.41729 3.41817 6.36471 3.41796 10.0001C3.41796 13.6356 6.36527 16.5828 10.0008 16.5829C13.6362 16.5827 16.5836 13.6355 16.5836 10.0001C16.5834 6.36474 13.6361 3.41736 10.0008 3.41723ZM9.99997 12.7084C10.4602 12.7084 10.8333 13.0815 10.8333 13.5417C10.8333 14.0019 10.4602 14.375 9.99997 14.375C9.53973 14.375 9.16664 14.0019 9.16664 13.5417C9.16664 13.0815 9.53973 12.7084 9.99997 12.7084ZM10.6746 11.4584H9.34161V5.62507H10.6746V11.4584Z" fill="#969FAC"/>
</svg>
