<svg width="20" height="20" viewBox="0 0 20 20" fill="none" xmlns="http://www.w3.org/2000/svg">
<g clip-path="url(#clip0_2030_14466)">
<circle cx="10" cy="10" r="9.5" stroke="#D7DBDF"/>
<path d="M8.7041 11.6851C8.71582 10.2319 9.10254 9.7749 9.80566 9.34131C10.3096 9.01318 10.6963 8.6499 10.6963 8.11084C10.6963 7.5249 10.2393 7.13818 9.67676 7.13818C9.12598 7.13818 8.62207 7.50146 8.59863 8.19287H6.93457C6.96973 6.54053 8.18848 5.75537 9.68848 5.75537C11.3174 5.75537 12.4775 6.61084 12.4775 8.05225C12.4775 9.01318 11.9854 9.63428 11.2119 10.0913C10.5557 10.4897 10.2627 10.8647 10.251 11.6851V11.814H8.7041V11.6851ZM9.5127 14.4624C8.96191 14.4624 8.5166 14.0171 8.52832 13.478C8.5166 12.939 8.96191 12.5054 9.5127 12.5054C10.0283 12.5054 10.4854 12.939 10.4854 13.478C10.4854 14.0171 10.0283 14.4624 9.5127 14.4624Z" fill="#969FAC"/>
</g>
<defs>
<clipPath id="clip0_2030_14466">
<rect width="20" height="20" fill="white"/>
</clipPath>
</defs>
</svg>
