<svg width="16" height="16" viewBox="0 0 16 16" fill="none" xmlns="http://www.w3.org/2000/svg">
<circle cx="8" cy="8" r="6.4" stroke="#F94114" stroke-width="1.2"/>
<path d="M7.01786 9.49801C7.02335 8.13179 7.39096 7.7148 8.04938 7.30328C8.52125 6.99602 8.88886 6.65584 8.88338 6.15105C8.88886 5.60237 8.46089 5.24573 7.92867 5.24024C7.4184 5.24573 6.94104 5.58591 6.9191 6.22787H5.36084C5.38828 4.68607 6.53502 3.94535 7.93964 3.94535C9.47047 3.94535 10.5514 4.74094 10.5514 6.09619C10.5514 7.00151 10.085 7.57214 9.36622 8.0056C8.74621 8.37321 8.47187 8.72986 8.46638 9.49801V9.61872H7.01786V9.49801ZM6.85326 11.177C6.84228 10.6722 7.25928 10.2607 7.77504 10.2662C8.26337 10.2607 8.68585 10.6722 8.68585 11.177C8.68585 11.6873 8.26337 12.0988 7.77504 12.0988C7.25928 12.0988 6.84228 11.6873 6.85326 11.177Z" fill="#F94114"/>
</svg>
