<svg width="16" height="16" viewBox="0 0 16 16" fill="none" xmlns="http://www.w3.org/2000/svg">
<circle cx="8" cy="8" r="7.5" transform="matrix(1 0 0 -1 0 16)" stroke="#2E3137"/>
<path d="M7.30872 9.67795C7.32516 8.24232 7.74708 7.80396 8.47038 7.35464C8.93065 7.07519 9.28134 6.66971 9.28134 6.09436C9.28134 5.40942 8.75531 4.97654 8.09777 4.97654C7.50599 4.97654 6.93064 5.33819 6.88132 6.14915H5.69775C5.74159 4.75188 6.79365 3.99023 8.09777 3.99023C9.52244 3.99023 10.4759 4.84503 10.4759 6.09436C10.4759 6.97656 10.054 7.56286 9.35805 7.99026C8.70052 8.39027 8.44298 8.78479 8.42654 9.67795V9.7437H7.30872V9.67795ZM7.13338 11.3328C7.1279 10.9054 7.48407 10.5547 7.91147 10.5547C8.33339 10.5547 8.68408 10.9054 8.68956 11.3328C8.68408 11.7602 8.33339 12.1054 7.91147 12.1108C7.48407 12.1054 7.1279 11.7602 7.13338 11.3328Z" fill="#2E3137"/>
</svg>
