<svg width="24" height="24" viewBox="0 0 24 24" fill="none" xmlns="http://www.w3.org/2000/svg">
    <path
        d="M15.1581 3.05749C15.5682 2.64753 16.2325 2.64747 16.6425 3.05749C17.0522 3.46753 17.0523 4.1319 16.6425 4.54187L9.28604 11.8993L16.6425 19.2577C17.0522 19.6677 17.0523 20.3321 16.6425 20.7421C16.2325 21.152 15.5682 21.1518 15.1581 20.7421L7.05753 12.6425C6.64748 12.2324 6.6475 11.5672 7.05753 11.1571L15.1581 3.05749Z"
        fill="#2E3137" />
    <path
        d="M15.1584 3.05748C15.5684 2.64755 16.2327 2.64747 16.6427 3.05748C17.0526 3.4675 17.0526 4.13185 16.6427 4.54185L9.28629 11.8993L16.6427 19.2577C17.0525 19.6677 17.0526 20.3321 16.6427 20.742C16.2327 21.152 15.5684 21.1519 15.1584 20.742L7.05777 12.6424C6.64773 12.2324 6.64774 11.5671 7.05777 11.1571L15.1584 3.05748Z"
        fill="#2E3137" />
</svg>
