<svg width="24" height="24" viewBox="0 0 24 24" fill="none" xmlns="http://www.w3.org/2000/svg">
    <path
        d="M20.2852 10.5931C20.8651 10.5931 21.335 11.0639 21.335 11.6438V19.8392C21.3349 21.0676 20.3335 22.0501 19.1152 22.0501H4.88477C3.66645 22.0501 2.6651 21.0676 2.66504 19.8392V11.6946L2.66992 11.5882C2.72348 11.0585 3.17103 10.6448 3.71484 10.6448C4.25865 10.6448 4.7062 11.0585 4.75977 11.5882L4.76465 11.6946V19.8392C4.76471 19.8928 4.81117 19.9505 4.88477 19.9505H19.1152C19.1888 19.9505 19.2353 19.8928 19.2354 19.8392V11.6438L19.2402 11.5364C19.2938 11.0068 19.7414 10.5931 20.2852 10.5931ZM11.2803 2.2581C11.6903 1.84821 12.3546 1.84821 12.7646 2.2581L17.0859 6.57939C17.4959 6.98941 17.4959 7.65371 17.0859 8.06377C16.6759 8.47365 16.0116 8.47376 15.6016 8.06377L13.0498 5.51201V13.7825C13.0498 14.3624 12.5799 14.8323 12 14.8323C11.4202 14.8323 10.9502 14.3624 10.9502 13.7825V5.55693L8.44336 8.06377C8.03337 8.47376 7.36905 8.47365 6.95898 8.06377C6.54905 7.65371 6.54897 6.98941 6.95898 6.57939L11.2803 2.2581Z"
        fill="#2E3137" />
</svg>
