<svg width="48" height="48" viewBox="0 0 48 48" fill="none" xmlns="http://www.w3.org/2000/svg">
<path fill-rule="evenodd" clip-rule="evenodd" d="M31.7433 18.3077C32.0362 18.0148 32.0362 17.5399 31.7433 17.247C31.4504 16.9541 30.9755 16.9541 30.6826 17.247L24.4961 23.4335L18.3096 17.247C18.0167 16.9541 17.5418 16.9541 17.2489 17.247C16.956 17.5399 16.956 18.0148 17.2489 18.3077L23.4354 24.4942L17.2476 30.6821C16.9547 30.975 16.9547 31.4498 17.2476 31.7427C17.5405 32.0356 18.0153 32.0356 18.3082 31.7427L24.4961 25.5549L30.684 31.7427C30.9769 32.0356 31.4517 32.0356 31.7446 31.7427C32.0375 31.4498 32.0375 30.975 31.7446 30.6821L25.5568 24.4942L31.7433 18.3077Z" fill="#11181C"/>
</svg>
