<svg width="24" height="24" viewBox="0 0 24 24" fill="none" xmlns="http://www.w3.org/2000/svg">
<g clip-path="url(#clip0_1880_35778)">
<path d="M5.57187 7.30469C5.57187 6.5591 6.17629 5.95469 6.92188 5.95469H17.9219C18.6675 5.95469 19.2719 6.5591 19.2719 7.30469V8.65469H5.57187V7.30469Z" stroke="#2E3137" stroke-width="1.3"/>
<path d="M9.57187 5.02734C9.57187 4.28176 10.1763 3.67734 10.9219 3.67734H13.9219C14.6675 3.67734 15.2719 4.28176 15.2719 5.02734V5.92227H9.57187V5.02734Z" stroke="#2E3137" stroke-width="1.3"/>
<path d="M6.57187 8.65H18.2719V19C18.2719 19.7456 17.6675 20.35 16.9219 20.35H7.92187C7.17629 20.35 6.57187 19.7456 6.57187 19V8.65Z" stroke="#2E3137" stroke-width="1.3"/>
<rect x="8.77148" y="11.5918" width="1.3" height="5.29492" rx="0.65" fill="#2E3137"/>
<rect x="11.7715" y="11.5918" width="1.3" height="5.29492" rx="0.65" fill="#2E3137"/>
<rect x="14.7715" y="11.5918" width="1.3" height="5.29492" rx="0.65" fill="#2E3137"/>
</g>
<defs>
<clipPath id="clip0_1880_35778">
<rect width="24" height="24" fill="white"/>
</clipPath>
</defs>
</svg>
