<svg width="16" height="16" viewBox="0 0 16 16" fill="none" xmlns="http://www.w3.org/2000/svg">
<path fill-rule="evenodd" clip-rule="evenodd" d="M9.76111 1.53125C7.67197 1.53125 5.9847 3.26636 5.9847 5.39883C5.9847 6.30976 6.34552 7.15868 6.86381 7.81866C5.27036 8.92467 4.24142 10.8891 4.24142 13.0857C4.24142 13.4949 4.56598 13.8331 4.97414 13.8331C5.3823 13.8331 5.70686 13.4949 5.70686 13.0857C5.70686 11.0469 6.82865 9.35269 8.34095 8.68807C8.36609 8.67702 8.39036 8.66468 8.41368 8.65116C8.51341 8.5992 8.60259 8.52326 8.67237 8.42545C8.90908 8.09369 8.83968 7.62775 8.51393 7.38349C7.90471 6.92669 7.45015 6.14967 7.45015 5.39883C7.45015 4.08482 8.48829 3.026 9.76111 3.026C11.0339 3.026 12.0721 4.08482 12.0721 5.39883C12.0721 6.06593 11.6066 6.86042 11.0392 7.34675C10.9777 7.39944 10.9268 7.46038 10.8867 7.52663C10.8637 7.56266 10.8435 7.60112 10.8265 7.64178C10.6691 8.01828 10.8377 8.45755 11.2105 8.6214C12.7298 9.28908 13.9188 11.055 13.9188 13.0857C13.9188 13.4949 14.2433 13.8331 14.6515 13.8331C15.0597 13.8331 15.3842 13.4949 15.3842 13.0857C15.3842 10.8751 14.2898 8.86019 12.6761 7.74495C13.1593 7.10078 13.5375 6.26987 13.5375 5.39883C13.5375 3.26636 11.8502 1.53125 9.76111 1.53125ZM5.80082 2.58298C5.74752 2.19366 5.39435 1.91607 5.00596 1.97195C3.13185 2.2416 2.17667 3.75306 2.11232 5.23732L2.11109 5.2574L2.11188 5.2879C2.12746 5.89094 2.25403 6.44454 2.54752 6.96831C2.68731 7.21778 2.85921 7.45016 3.06149 7.67147C1.51546 8.82091 0.615234 11.002 0.615234 13.0467C0.615234 13.4392 0.926643 13.7639 1.31858 13.7639C1.71051 13.7639 2.02192 13.4392 2.02192 13.0467C2.02192 12.0483 2.28227 11.0619 2.71819 10.249C3.15487 9.43465 3.76138 8.80567 4.44553 8.505C4.5511 8.4586 4.63991 8.38883 4.7085 8.30444C4.74007 8.27484 4.76933 8.24197 4.79579 8.20595C5.02733 7.89083 4.96684 7.44286 4.65753 7.20402C4.2028 6.85289 3.93231 6.54824 3.76886 6.25656C3.61358 5.97944 3.53214 5.67349 3.51884 5.27586C3.56741 4.37097 4.1197 3.54819 5.20251 3.39239C5.59003 3.33663 5.85402 2.97158 5.80082 2.58298Z" fill="#898D94"/>
</svg>
