<svg width="24" height="16" viewBox="0 0 24 16" fill="none" xmlns="http://www.w3.org/2000/svg">
<path d="M15.8929 7.85714C17.7857 7.85714 19.3214 6.32143 19.3214 4.42857C19.3214 3.95312 19.2254 3.5 19.0491 3.08929C18.5268 1.86161 17.3103 1 15.8929 1C14 1 12.4643 2.53571 12.4643 4.42857C12.4643 6.32143 14 7.85714 15.8929 7.85714Z" fill="#FFCCBF"/>
<path d="M21.4085 13.5759C21.5312 13.346 21.6071 13.0558 21.6071 12.6696C21.6071 12.058 21.3393 11.4308 20.8705 10.8638C19.8884 9.67634 18.0268 8.75 15.8929 8.75C12.7366 8.75 10 10.7768 10 12.6696C10 13.442 10.3348 13.8683 10.6964 14.1161C11.0982 14.3906 12.4598 14.5246 13.8125 14.5357C14.2948 14.5397 15.4375 14.5357 15.8929 14.5357C17.5982 14.5357 20.2814 14.6168 20.9286 14.1161C21.1161 13.971 21.2857 13.8036 21.4085 13.5759Z" fill="#FFCCBF"/>
<path d="M18.9019 3.15193L18.9021 3.15241C19.0699 3.54316 19.1614 3.9748 19.1614 4.42857C19.1614 6.23306 17.6973 7.69714 15.8929 7.69714C14.0884 7.69714 12.6243 6.23306 12.6243 4.42857C12.6243 2.62408 14.0884 1.16 15.8929 1.16C17.2437 1.16 18.4037 1.98106 18.9019 3.15193ZM21.4471 12.6696C21.4471 13.0338 21.3758 13.2972 21.2675 13.5002C21.159 13.7013 21.0078 13.8525 20.8307 13.9895C20.703 14.0883 20.4495 14.1726 20.0817 14.2352C19.7221 14.2964 19.2803 14.3328 18.8005 14.3538C18.0666 14.386 17.2567 14.3818 16.533 14.378C16.3098 14.3768 16.0949 14.3757 15.8929 14.3757C15.7604 14.3757 15.5703 14.376 15.3556 14.3764C14.8298 14.3774 14.1557 14.3785 13.8138 14.3757C13.1416 14.3702 12.4694 14.3341 11.9175 14.2659C11.6414 14.2317 11.3982 14.1899 11.2014 14.1407C11.0008 14.0905 10.8631 14.0361 10.7869 13.9841C10.4651 13.7636 10.16 13.3849 10.16 12.6696C10.16 11.7989 10.7949 10.8613 11.8536 10.1318C12.906 9.40657 14.3476 8.91 15.8929 8.91C17.9843 8.91 19.7987 9.8189 20.7472 10.9658C21.1993 11.5127 21.4471 12.105 21.4471 12.6696Z" stroke="black" stroke-opacity="0.02" stroke-width="0.32"/>
<path d="M8.24283 7.85714C10.1357 7.85714 11.6714 6.32143 11.6714 4.42857C11.6714 3.95312 11.5754 3.5 11.3991 3.08929C10.8768 1.86161 9.66024 1 8.24283 1C6.34998 1 4.81426 2.53571 4.81426 4.42857C4.81426 6.32143 6.34998 7.85714 8.24283 7.85714Z" fill="#F94114"/>
<path d="M13.7585 13.5759C13.8812 13.346 13.9571 13.0558 13.9571 12.6696C13.9571 12.058 13.6893 11.4308 13.2205 10.8638C12.2384 9.67634 10.3768 8.75 8.24283 8.75C5.08658 8.75 2.34998 10.7768 2.34998 12.6696C2.34998 13.442 2.6848 13.8683 3.0464 14.1161C3.44819 14.3906 4.8098 14.5246 6.16247 14.5357C6.64481 14.5397 7.78748 14.5357 8.24283 14.5357C9.94819 14.5357 12.6314 14.6168 13.2785 14.1161C13.466 13.971 13.6357 13.8036 13.7585 13.5759Z" fill="#F94114"/>
<path d="M11.2519 3.15193L11.2521 3.15241C11.4198 3.54316 11.5114 3.9748 11.5114 4.42857C11.5114 6.23306 10.0473 7.69714 8.24283 7.69714C6.43834 7.69714 4.97426 6.23306 4.97426 4.42857C4.97426 2.62408 6.43834 1.16 8.24283 1.16C9.59371 1.16 10.7537 1.98106 11.2519 3.15193ZM13.7971 12.6696C13.7971 13.0338 13.7258 13.2972 13.6175 13.5002C13.509 13.7013 13.3578 13.8525 13.1806 13.9895C13.053 14.0883 12.7995 14.1726 12.4317 14.2352C12.072 14.2964 11.6303 14.3328 11.1505 14.3538C10.4166 14.386 9.60668 14.3818 8.88295 14.378C8.6598 14.3768 8.44484 14.3757 8.24283 14.3757C8.11034 14.3757 7.92032 14.376 7.70554 14.3764C7.17977 14.3774 6.50564 14.3785 6.16379 14.3757C5.49153 14.3702 4.81938 14.3341 4.26749 14.2659C3.99139 14.2317 3.74818 14.1899 3.55139 14.1407C3.35077 14.0905 3.21311 14.0361 3.13684 13.9841C2.81507 13.7636 2.50998 13.3849 2.50998 12.6696C2.50998 11.7989 3.14491 10.8613 4.2036 10.1318C5.25597 9.40657 6.69761 8.91 8.24283 8.91C10.3343 8.91 12.1486 9.8189 13.0972 10.9658C13.5493 11.5127 13.7971 12.105 13.7971 12.6696Z" stroke="black" stroke-opacity="0.03" stroke-width="0.32"/>
</svg>
