<svg width="45" height="45" viewBox="0 0 45 45" fill="none" xmlns="http://www.w3.org/2000/svg">
<path d="M1.04688 22.9453C1.04688 14.7092 2.42279 9.29795 5.78615 5.93459C9.14951 2.57123 14.5607 1.19531 22.7969 1.19531C31.033 1.19531 36.4442 2.57123 39.8076 5.93459C43.171 9.29795 44.5469 14.7092 44.5469 22.9453C44.5469 31.1815 43.171 36.5927 39.8076 39.956C36.4442 43.3194 31.033 44.6953 22.7969 44.6953C14.5607 44.6953 9.14951 43.3194 5.78615 39.956C2.42279 36.5927 1.04688 31.1815 1.04688 22.9453Z" fill="url(#paint0_linear_5108_10731)" stroke="url(#paint1_linear_5108_10731)" stroke-width="0.5"/>
<path fill-rule="evenodd" clip-rule="evenodd" d="M25.4947 12.9453C22.0134 12.9453 19.2079 15.837 19.2079 19.3831C19.2079 20.8464 19.7651 22.2091 20.5726 23.2848C18.0136 25.1281 16.3751 28.3224 16.3751 31.8803C16.3751 32.6246 16.9659 33.2453 17.7158 33.2453C18.4656 33.2453 19.0565 32.6246 19.0565 31.8803C19.0565 28.6187 20.8498 25.9221 23.2473 24.868C23.2922 24.8482 23.3356 24.8262 23.3774 24.8021C23.559 24.7069 23.721 24.5683 23.8476 24.3908C24.2789 23.786 24.1534 22.9364 23.558 22.4897C22.5986 21.77 21.8893 20.5483 21.8893 19.3831C21.8893 17.3261 23.5127 15.6754 25.4947 15.6754C27.4767 15.6754 29.1001 17.3261 29.1001 19.3831C29.1001 19.8927 28.9216 20.4618 28.625 21.0049C28.329 21.5468 27.9208 22.053 27.474 22.4361C27.3622 22.532 27.2694 22.6428 27.1964 22.7633C27.1548 22.8287 27.1184 22.8983 27.0877 22.9718C26.8013 23.657 27.1067 24.4593 27.7897 24.7596C30.1999 25.8193 32.101 28.6336 32.101 31.8803C32.101 32.6246 32.6918 33.2453 33.4417 33.2453C34.1916 33.2453 34.7824 32.6246 34.7824 31.8803C34.7824 28.2963 33.0377 25.0215 30.4432 23.1629C31.1973 22.1166 31.7815 20.7852 31.7815 19.3831C31.7815 15.837 28.9761 12.9453 25.4947 12.9453ZM19.2078 14.7848C19.1104 14.0731 18.4633 13.5601 17.7461 13.6633C14.6155 14.114 13.023 16.6435 12.9154 19.1127L12.9129 19.144L12.9146 19.2066C12.9404 20.2067 13.1506 21.1315 13.6416 22.008C13.8493 22.3789 14.0989 22.7261 14.3877 23.0568C11.9093 24.9839 10.4824 28.5142 10.4824 31.8168C10.4824 32.534 11.0519 33.1328 11.7754 33.1328C12.4989 33.1328 13.0683 32.534 13.0683 31.8168C13.0683 30.2188 13.4851 28.6393 14.182 27.3392C14.8808 26.0354 15.8446 25.0419 16.9171 24.5704C17.108 24.4865 17.269 24.3609 17.3941 24.2094C17.4493 24.1568 17.5004 24.0988 17.5468 24.0357C17.9707 23.4585 17.8608 22.6379 17.293 22.1992C16.5639 21.636 16.1406 21.1552 15.888 20.7043C15.6502 20.2796 15.5226 19.8083 15.501 19.1847C15.5791 17.7742 16.4345 16.5105 18.1082 16.2696C18.8231 16.1667 19.3049 15.4947 19.2078 14.7848Z" fill="#9AA7CA"/>
<defs>
<linearGradient id="paint0_linear_5108_10731" x1="22.7969" y1="0.945312" x2="22.7969" y2="44.9453" gradientUnits="userSpaceOnUse">
<stop stop-color="#E7EBFB"/>
<stop offset="1" stop-color="#E5F0FD"/>
</linearGradient>
<linearGradient id="paint1_linear_5108_10731" x1="22.7969" y1="0.945312" x2="22.7969" y2="44.9453" gradientUnits="userSpaceOnUse">
<stop stop-color="#D1D9F3"/>
<stop offset="1" stop-color="#D2DFF3"/>
</linearGradient>
</defs>
</svg>
