<svg width="20" height="20" viewBox="0 0 20 20" fill="none" xmlns="http://www.w3.org/2000/svg">
<path fill-rule="evenodd" clip-rule="evenodd" d="M5.46895 13.7303L13.7303 5.46895C11.4249 3.56637 8.00704 3.69347 5.85025 5.85025C3.69347 8.00704 3.56637 11.4249 5.46895 13.7303ZM6.26889 14.5304C8.57431 16.4337 11.9927 16.3068 14.1497 14.1497C16.3068 11.9927 16.4337 8.57431 14.5304 6.26889L6.26889 14.5304ZM14.9497 14.9497C12.2161 17.6834 7.78392 17.6834 5.05025 14.9497C2.31658 12.2161 2.31658 7.78392 5.05025 5.05025C7.78392 2.31658 12.2161 2.31658 14.9497 5.05025C17.6834 7.78392 17.6834 12.2161 14.9497 14.9497Z" fill="#525965"/>
</svg>
